<svg xmlns="http://www.w3.org/2000/svg" xmlns:xlink="http://www.w3.org/1999/xlink" width="500" zoomAndPan="magnify" viewBox="0 0 375 374.999991" height="500" preserveAspectRatio="xMidYMid meet" version="1.0"><defs><clipPath id="3031b175e6"><path d="M 57.375 37.5 L 246 37.5 L 246 301 L 57.375 301 Z M 57.375 37.5 " clip-rule="nonzero"/></clipPath><clipPath id="4d9e556b43"><path d="M 162 182 L 317.625 182 L 317.625 337.5 L 162 337.5 Z M 162 182 " clip-rule="nonzero"/></clipPath></defs><g clip-path="url(#3031b175e6)"><path fill="#000000" d="M 152.792969 300.402344 C 100.078125 300.402344 57.375 257.527344 57.375 204.984375 C 57.375 167.027344 99.726562 108.6875 130.652344 66.160156 C 137.859375 56.144531 144.710938 46.832031 149.808594 39.097656 C 150.507812 38.046875 151.5625 37.519531 152.792969 37.519531 C 153.847656 37.519531 155.078125 38.046875 155.605469 39.097656 C 160.878906 46.832031 167.730469 56.144531 174.9375 66.160156 C 200.0625 100.953125 234.683594 148.578125 245.050781 184.953125 C 245.402344 186.007812 245.050781 187.0625 244.347656 187.9375 C 243.820312 188.816406 242.765625 189.34375 241.535156 189.34375 C 241.007812 189.34375 240.65625 189.34375 240.128906 189.34375 C 201.117188 189.34375 169.488281 220.976562 169.488281 259.8125 C 169.488281 271.234375 172.300781 282.65625 177.570312 292.671875 C 178.097656 293.550781 178.097656 294.78125 177.746094 295.660156 C 177.21875 296.714844 176.339844 297.417969 175.285156 297.59375 C 167.90625 299.523438 160.351562 300.402344 152.792969 300.402344 Z M 152.792969 47.183594 C 148.050781 54.210938 142.25 61.945312 136.277344 70.203125 C 105.875 112.027344 64.402344 169.3125 64.402344 204.984375 C 64.402344 253.660156 103.941406 293.375 152.792969 293.375 C 158.417969 293.375 163.863281 292.847656 169.3125 291.792969 C 164.917969 281.777344 162.460938 270.882812 162.460938 259.8125 C 162.460938 218.164062 195.671875 184.074219 236.96875 182.316406 C 225.367188 147.699219 193.035156 103.238281 169.136719 70.203125 C 163.160156 61.945312 157.539062 54.035156 152.792969 47.183594 Z M 152.792969 47.183594 " fill-opacity="1" fill-rule="evenodd"/></g><path fill="#000000" d="M 116.417969 273.34375 C 115.714844 273.34375 115.1875 273.167969 114.660156 272.816406 C 90.058594 259.109375 74.949219 233.101562 74.949219 204.984375 C 74.949219 203.050781 76.527344 201.46875 78.460938 201.46875 C 80.394531 201.46875 81.976562 203.050781 81.976562 204.984375 C 81.976562 230.464844 95.859375 254.1875 118 266.664062 C 119.757812 267.71875 120.460938 269.828125 119.40625 271.585938 C 118.703125 272.640625 117.648438 273.34375 116.417969 273.34375 Z M 116.417969 273.34375 " fill-opacity="1" fill-rule="evenodd"/><g clip-path="url(#4d9e556b43)"><path fill="#000000" d="M 240.128906 337.480469 C 197.253906 337.480469 162.460938 302.6875 162.460938 259.8125 C 162.460938 217.109375 197.253906 182.316406 240.128906 182.316406 C 282.832031 182.316406 317.625 217.109375 317.625 259.8125 C 317.625 302.6875 282.832031 337.480469 240.128906 337.480469 Z M 240.128906 189.34375 C 201.117188 189.34375 169.488281 220.976562 169.488281 259.8125 C 169.488281 298.824219 201.117188 330.453125 240.128906 330.453125 C 278.964844 330.453125 310.597656 298.824219 310.597656 259.8125 C 310.597656 220.976562 278.964844 189.34375 240.128906 189.34375 Z M 240.128906 189.34375 " fill-opacity="1" fill-rule="evenodd"/></g><path fill="#000000" d="M 245.402344 313.054688 C 231.167969 313.054688 217.8125 307.609375 207.621094 297.59375 C 195.671875 285.46875 190.222656 268.597656 192.683594 251.902344 L 184.25 249.617188 C 182.84375 249.269531 181.789062 248.214844 181.613281 246.808594 C 181.4375 245.578125 181.964844 244.171875 183.019531 243.292969 L 208.5 225.015625 C 209.378906 224.492188 210.433594 224.316406 211.488281 224.492188 C 212.539062 224.839844 213.417969 225.542969 213.769531 226.421875 L 226.773438 255.066406 C 227.300781 256.296875 227.125 257.703125 226.246094 258.757812 C 225.367188 259.8125 223.964844 260.339844 222.734375 259.988281 L 212.363281 257.175781 C 211.664062 266.839844 215 276.328125 222.03125 283.183594 C 228.179688 289.507812 236.441406 292.847656 245.402344 292.847656 C 254.1875 292.847656 262.445312 289.507812 268.773438 283.183594 C 281.601562 270.355469 281.601562 249.441406 268.773438 236.441406 C 262.445312 230.289062 254.1875 226.773438 245.402344 226.773438 C 243.292969 226.773438 241.183594 226.949219 239.074219 227.476562 L 232.75 228.53125 C 230.816406 228.882812 228.882812 227.652344 228.53125 225.894531 L 226.070312 212.890625 C 225.894531 212.015625 226.070312 210.960938 226.597656 210.257812 C 227.125 209.378906 228.003906 208.851562 228.882812 208.675781 L 235.386719 207.445312 C 238.722656 206.917969 242.0625 206.566406 245.402344 206.566406 C 259.636719 206.566406 272.992188 212.191406 283.007812 222.207031 C 303.742188 242.941406 303.742188 276.679688 283.007812 297.59375 C 272.992188 307.609375 259.636719 313.054688 245.402344 313.054688 Z M 193.210938 244.699219 L 197.605469 245.929688 C 199.363281 246.457031 200.414062 248.214844 200.0625 249.96875 L 199.886719 251.199219 C 197.078125 266.3125 201.820312 281.777344 212.714844 292.496094 C 221.328125 301.28125 232.925781 306.027344 245.402344 306.027344 C 257.703125 306.027344 269.300781 301.28125 278.085938 292.496094 C 296.011719 274.570312 296.011719 245.226562 278.085938 227.125 C 269.300781 218.515625 257.703125 213.59375 245.402344 213.59375 C 242.414062 213.59375 239.601562 213.945312 236.792969 214.472656 L 233.628906 215 L 234.859375 220.976562 L 237.84375 220.449219 C 240.304688 220.097656 242.765625 219.746094 245.402344 219.746094 C 256.121094 219.746094 266.136719 223.964844 273.695312 231.519531 C 289.332031 247.160156 289.332031 272.640625 273.695312 288.277344 C 266.136719 295.835938 256.121094 299.875 245.402344 299.875 C 234.683594 299.875 224.492188 295.835938 216.933594 288.277344 C 207.621094 278.789062 203.402344 265.433594 205.863281 252.429688 L 206.039062 252.078125 C 206.214844 251.199219 206.742188 250.320312 207.621094 249.792969 C 208.324219 249.269531 209.378906 249.09375 210.433594 249.441406 L 217.285156 251.199219 L 209.203125 233.277344 Z M 193.210938 244.699219 " fill-opacity="1" fill-rule="evenodd"/></svg>