<svg xmlns="http://www.w3.org/2000/svg" xmlns:xlink="http://www.w3.org/1999/xlink" width="500" zoomAndPan="magnify" viewBox="0 0 375 374.999991" height="500" preserveAspectRatio="xMidYMid meet" version="1.0"><path fill="#000000" d="M 152.695312 297.667969 L 63.96875 297.667969 C 57.921875 297.667969 52.503906 294.539062 49.484375 289.304688 C 46.453125 284.058594 46.453125 277.804688 49.476562 272.558594 L 88.890625 204.289062 L 96.277344 231.847656 C 96.761719 233.667969 98.410156 234.867188 100.214844 234.867188 C 100.558594 234.867188 100.914062 234.824219 101.269531 234.730469 C 103.441406 234.148438 104.734375 231.914062 104.152344 229.738281 L 94.25 192.78125 C 94.007812 191.71875 93.363281 190.75 92.34375 190.160156 C 91.972656 189.949219 91.582031 189.863281 91.1875 189.773438 C 91.070312 189.746094 90.972656 189.679688 90.855469 189.664062 C 90.390625 189.597656 89.929688 189.644531 89.480469 189.738281 C 89.390625 189.753906 89.308594 189.730469 89.21875 189.753906 L 52.113281 199.691406 C 49.945312 200.277344 48.648438 202.511719 49.234375 204.6875 C 49.820312 206.871094 52.054688 208.152344 54.226562 207.570312 L 81.859375 200.164062 L 42.417969 268.484375 C 37.917969 276.28125 37.917969 285.589844 42.417969 293.378906 C 46.917969 301.167969 54.976562 305.816406 63.96875 305.816406 L 152.695312 305.816406 C 154.945312 305.816406 156.769531 303.992188 156.769531 301.742188 C 156.769531 299.492188 154.945312 297.667969 152.695312 297.667969 " fill-opacity="1" fill-rule="nonzero"/><path fill="#000000" d="M 125.074219 133.464844 C 127.035156 134.601562 129.523438 133.910156 130.640625 131.976562 L 173.042969 58.539062 C 176.066406 53.296875 181.484375 50.171875 187.535156 50.171875 C 193.585938 50.171875 199.011719 53.296875 202.035156 58.539062 L 239.589844 123.585938 L 211.496094 116.058594 C 209.308594 115.480469 207.085938 116.777344 206.503906 118.941406 C 205.917969 121.117188 207.214844 123.351562 209.382812 123.933594 L 246.488281 133.875 C 246.84375 133.96875 247.199219 134.011719 247.542969 134.011719 C 247.609375 134.011719 247.660156 133.953125 247.730469 133.949219 C 247.8125 133.957031 247.882812 134.011719 247.96875 134.011719 C 248.65625 134.011719 249.359375 133.835938 250 133.464844 C 251.515625 132.589844 252.222656 130.886719 251.945312 129.253906 L 261.421875 93.890625 C 262.003906 91.714844 260.710938 89.480469 258.539062 88.898438 C 256.335938 88.335938 254.128906 89.613281 253.546875 91.777344 L 246.285156 118.878906 L 209.09375 54.464844 C 204.59375 46.667969 196.53125 42.015625 187.527344 42.019531 C 178.535156 42.019531 170.476562 46.671875 165.984375 54.464844 L 123.585938 127.898438 C 122.460938 129.847656 123.128906 132.339844 125.074219 133.464844 " fill-opacity="1" fill-rule="nonzero"/><path fill="#000000" d="M 332.65625 268.484375 L 288.296875 191.652344 C 287.175781 189.710938 284.6875 189.03125 282.726562 190.160156 C 280.78125 191.285156 280.109375 193.78125 281.234375 195.726562 L 325.589844 272.558594 C 328.625 277.796875 328.625 284.054688 325.597656 289.296875 C 322.5625 294.535156 317.148438 297.667969 311.101562 297.667969 L 232.21875 297.667969 L 252.425781 277.464844 C 254.019531 275.871094 254.019531 273.292969 252.425781 271.699219 C 250.832031 270.105469 248.253906 270.105469 246.664062 271.699219 L 219.5 298.859375 C 218.761719 299.597656 218.304688 300.617188 218.304688 301.742188 C 218.304688 302.867188 218.761719 303.886719 219.5 304.625 L 246.664062 331.785156 C 247.457031 332.582031 248.5 332.980469 249.542969 332.980469 C 250.589844 332.980469 251.628906 332.582031 252.425781 331.785156 C 254.019531 330.195312 254.019531 327.617188 252.425781 326.023438 L 232.21875 305.816406 L 311.101562 305.816406 C 320.101562 305.816406 328.15625 301.164062 332.65625 293.375 C 337.144531 285.578125 337.144531 276.273438 332.65625 268.484375 " fill-opacity="1" fill-rule="nonzero"/><path fill="#000000" d="M 187.535156 262.210938 C 174.785156 262.210938 163.097656 257.71875 155.460938 249.898438 C 147.933594 242.191406 144.285156 231.515625 144.605469 218.164062 C 145.277344 190.316406 177.53125 152.730469 187.535156 141.730469 C 197.539062 152.730469 229.800781 190.308594 230.46875 218.164062 C 230.792969 231.515625 227.140625 242.191406 219.621094 249.898438 C 211.980469 257.71875 200.289062 262.210938 187.535156 262.210938 Z M 238.621094 217.96875 C 237.753906 181.972656 192.390625 134.894531 190.460938 132.910156 C 188.910156 131.316406 186.136719 131.328125 184.609375 132.910156 C 182.679688 134.894531 137.328125 181.972656 136.457031 217.96875 C 136.078125 233.601562 140.511719 246.257812 149.621094 255.589844 C 158.785156 264.980469 172.605469 270.359375 187.535156 270.359375 C 202.46875 270.359375 216.289062 264.980469 225.453125 255.589844 C 234.566406 246.257812 238.996094 233.601562 238.621094 217.96875 " fill-opacity="1" fill-rule="nonzero"/><path fill="#000000" d="M 187.535156 239.597656 C 180.894531 239.597656 174.839844 237.289062 170.90625 233.265625 C 167.058594 229.324219 165.191406 223.796875 165.363281 216.84375 C 165.414062 214.597656 163.632812 212.730469 161.382812 212.675781 C 159.140625 212.785156 157.265625 214.40625 157.210938 216.65625 C 156.992188 225.75 159.714844 233.46875 165.074219 238.960938 C 170.53125 244.542969 178.714844 247.75 187.535156 247.75 C 189.785156 247.75 191.613281 245.921875 191.613281 243.671875 C 191.613281 241.421875 189.785156 239.597656 187.535156 239.597656 " fill-opacity="1" fill-rule="nonzero"/></svg>