<svg xmlns="http://www.w3.org/2000/svg" xmlns:xlink="http://www.w3.org/1999/xlink" width="500" zoomAndPan="magnify" viewBox="0 0 375 374.999991" height="500" preserveAspectRatio="xMidYMid meet" version="1.2"><defs><clipPath id="4131f7a4f9"><path d="M 61.578125 69 L 300 69 L 300 308 L 61.578125 308 Z M 61.578125 69 "/></clipPath><clipPath id="30cd867f94"><path d="M 219 67 L 313.578125 67 L 313.578125 162 L 219 162 Z M 219 67 "/></clipPath></defs><g id="32fdb28458"><path style=" stroke:none;fill-rule:evenodd;fill:#063770;fill-opacity:1;" d="M 171.195312 261.78125 C 143.3125 261.78125 120.738281 239.207031 120.738281 211.324219 C 120.738281 195.832031 142.425781 160.425781 158.214844 134.609375 C 162.933594 127.082031 166.917969 120.59375 169.425781 115.871094 C 169.867188 115.28125 170.457031 114.839844 171.195312 114.839844 C 171.933594 114.839844 172.523438 115.28125 172.964844 115.871094 C 175.472656 120.59375 179.457031 127.082031 184.179688 134.609375 C 186.835938 138.886719 189.636719 143.460938 192.441406 148.179688 C 192.882812 148.769531 192.882812 149.65625 192.441406 150.246094 C 182.851562 166.179688 171.785156 185.507812 171.785156 193.914062 C 171.785156 211.765625 186.242188 226.226562 204.09375 226.226562 C 208.519531 226.226562 212.800781 225.339844 216.929688 223.570312 C 217.519531 223.273438 218.40625 223.421875 218.996094 224.011719 C 219.585938 224.453125 219.734375 225.339844 219.585938 226.078125 C 213.09375 247.46875 193.621094 261.78125 171.195312 261.78125 Z M 171.195312 120.738281 C 168.6875 125.164062 165.292969 130.625 161.605469 136.671875 C 146.851562 160.722656 124.574219 197.011719 124.574219 211.324219 C 124.574219 236.996094 145.523438 257.945312 171.195312 257.945312 C 190.523438 257.945312 207.339844 246.289062 214.421875 228.734375 C 211.027344 229.617188 207.636719 230.207031 204.09375 230.207031 C 184.179688 230.207031 167.800781 213.832031 167.800781 193.914062 C 167.800781 184.769531 178.128906 166.328125 188.457031 149.214844 C 185.800781 144.789062 183.292969 140.65625 180.785156 136.671875 C 177.097656 130.625 173.703125 125.164062 171.195312 120.738281 Z M 171.195312 120.738281 "/><path style=" stroke:none;fill-rule:evenodd;fill:#063770;fill-opacity:1;" d="M 161.753906 246.730469 C 161.457031 246.730469 161.164062 246.585938 160.867188 246.4375 C 134.460938 233.75 133.722656 210.585938 133.722656 209.554688 C 133.722656 208.519531 134.609375 207.636719 135.640625 207.488281 C 136.820312 207.488281 137.707031 208.375 137.707031 209.40625 C 137.707031 210.292969 138.445312 231.242188 162.640625 242.894531 C 163.523438 243.339844 163.964844 244.519531 163.523438 245.550781 C 163.230469 246.289062 162.492188 246.730469 161.753906 246.730469 Z M 161.753906 246.730469 "/><path style=" stroke:none;fill-rule:evenodd;fill:#063770;fill-opacity:1;" d="M 204.09375 230.207031 C 184.179688 230.207031 167.800781 213.832031 167.800781 193.914062 C 167.800781 182.851562 183.292969 157.621094 194.503906 139.328125 C 197.75 134.019531 200.554688 129.445312 202.472656 126.050781 C 203.0625 124.871094 205.128906 124.871094 205.867188 126.050781 C 207.636719 129.445312 210.585938 134.019531 213.832031 139.328125 C 225.042969 157.621094 240.386719 182.851562 240.386719 193.914062 C 240.386719 213.832031 224.160156 230.207031 204.09375 230.207031 Z M 204.09375 131.066406 C 202.472656 134.019531 200.257812 137.410156 197.898438 141.394531 C 187.425781 158.359375 171.785156 183.882812 171.785156 193.914062 C 171.785156 211.765625 186.242188 226.226562 204.09375 226.226562 C 221.945312 226.226562 236.550781 211.765625 236.550781 193.914062 C 236.550781 183.882812 220.765625 158.359375 210.4375 141.394531 C 208.078125 137.410156 205.867188 134.019531 204.09375 131.066406 Z M 204.09375 131.066406 "/><path style=" stroke:none;fill-rule:evenodd;fill:#063770;fill-opacity:1;" d="M 197.457031 219.4375 C 197.160156 219.4375 196.867188 219.4375 196.570312 219.289062 C 177.539062 210.144531 177.097656 193.324219 177.097656 192.585938 C 177.097656 191.554688 177.980469 190.667969 179.015625 190.667969 C 180.046875 190.667969 180.933594 191.554688 180.933594 192.585938 C 181.082031 193.179688 181.523438 207.636719 198.339844 215.75 C 199.226562 216.191406 199.667969 217.371094 199.226562 218.40625 C 198.929688 218.996094 198.195312 219.4375 197.457031 219.4375 Z M 197.457031 219.4375 "/><g clip-rule="nonzero" clip-path="url(#4131f7a4f9)"><path style=" stroke:none;fill-rule:evenodd;fill:#0077b6;fill-opacity:1;" d="M 180.488281 307.367188 C 114.984375 307.367188 61.578125 253.960938 61.578125 188.308594 C 61.578125 122.804688 114.984375 69.398438 180.488281 69.398438 C 199.375 69.398438 217.519531 73.675781 234.191406 82.085938 C 234.78125 82.382812 235.222656 82.972656 235.222656 83.5625 C 235.371094 84.152344 235.222656 84.742188 234.78125 85.183594 C 227.257812 93.300781 223.125 103.773438 223.125 114.691406 C 223.125 138.445312 242.453125 157.769531 266.351562 157.769531 C 275.058594 157.769531 283.46875 155.261719 290.695312 150.246094 C 291.136719 149.949219 291.875 149.804688 292.464844 150.097656 C 293.054688 150.246094 293.5 150.6875 293.648438 151.277344 C 297.484375 163.230469 299.546875 175.621094 299.546875 188.308594 C 299.546875 253.960938 246.140625 307.367188 180.488281 307.367188 Z M 180.488281 73.234375 C 117.199219 73.234375 65.5625 124.871094 65.5625 188.308594 C 65.5625 251.746094 117.199219 303.382812 180.488281 303.382812 C 243.929688 303.382812 295.566406 251.746094 295.566406 188.308594 C 295.566406 176.949219 293.941406 165.738281 290.695312 154.96875 C 283.320312 159.394531 274.910156 161.753906 266.351562 161.753906 C 240.386719 161.753906 219.289062 140.65625 219.289062 114.691406 C 219.289062 103.625 223.125 93.003906 230.207031 84.59375 C 214.570312 77.070312 197.898438 73.234375 180.488281 73.234375 Z M 180.488281 73.234375 "/></g><g clip-rule="nonzero" clip-path="url(#30cd867f94)"><path style=" stroke:none;fill-rule:evenodd;fill:#063770;fill-opacity:1;" d="M 266.351562 161.753906 C 240.386719 161.753906 219.289062 140.65625 219.289062 114.691406 C 219.289062 88.726562 240.386719 67.628906 266.351562 67.628906 C 292.171875 67.628906 313.414062 88.726562 313.414062 114.691406 C 313.414062 140.65625 292.171875 161.753906 266.351562 161.753906 Z M 266.351562 71.613281 C 242.453125 71.613281 223.125 90.9375 223.125 114.691406 C 223.125 138.445312 242.453125 157.769531 266.351562 157.769531 C 290.105469 157.769531 309.433594 138.445312 309.433594 114.691406 C 309.433594 90.9375 290.105469 71.613281 266.351562 71.613281 Z M 266.351562 71.613281 "/></g><path style=" stroke:none;fill-rule:evenodd;fill:#0077b6;fill-opacity:1;" d="M 254.402344 125.609375 C 254.253906 125.609375 254.109375 125.609375 253.960938 125.609375 C 253.371094 125.460938 252.929688 125.164062 252.78125 124.722656 L 245.402344 111.886719 C 244.8125 111.003906 245.109375 109.675781 246.140625 109.234375 C 247.027344 108.640625 248.207031 108.9375 248.796875 109.96875 L 255.140625 121.035156 L 284.5 104.070312 C 285.53125 103.480469 286.710938 103.773438 287.304688 104.660156 C 287.746094 105.691406 287.449219 106.871094 286.566406 107.460938 L 255.4375 125.3125 C 255.140625 125.609375 254.699219 125.609375 254.402344 125.609375 Z M 254.402344 125.609375 "/></g></svg>