<svg xmlns="http://www.w3.org/2000/svg" xmlns:xlink="http://www.w3.org/1999/xlink" width="500" zoomAndPan="magnify" viewBox="0 0 375 374.999991" height="500" preserveAspectRatio="xMidYMid meet" version="1.2"><defs><clipPath id="5645d25198"><path d="M 54 79.4375 L 324.777344 79.4375 L 324.777344 295.4375 L 54 295.4375 Z M 54 79.4375 "/></clipPath></defs><g id="6af1871644"><g clip-rule="nonzero" clip-path="url(#5645d25198)"><path style=" stroke:none;fill-rule:nonzero;fill:#063770;fill-opacity:1;" d="M 309.496094 211.746094 C 310.078125 211.746094 310.660156 211.535156 311.136719 211.058594 L 323.359375 198.839844 C 324.257812 197.992188 324.257812 196.457031 323.359375 195.558594 C 323.359375 195.558594 310.398438 182.597656 310.398438 182.597656 C 308.226562 180.480469 305 183.707031 307.117188 185.878906 L 315.476562 194.238281 C 306.429688 193.230469 301.191406 189.582031 295.691406 185.71875 C 288.972656 180.113281 280.664062 176.992188 272.148438 176.25 C 272.148438 156.835938 272.148438 152.074219 272.148438 136.941406 C 279.714844 137.683594 287.066406 140.539062 293.042969 145.566406 C 298.96875 149.746094 305.105469 154.03125 315.953125 155.035156 C 312.832031 158.15625 307.855469 163.128906 307.855469 163.128906 C 306.375 164.503906 307.539062 167.152344 309.496094 167.042969 C 310.078125 167.042969 310.660156 166.832031 311.136719 166.355469 L 323.359375 154.136719 C 324.257812 153.238281 324.257812 151.757812 323.359375 150.855469 C 323.359375 150.855469 310.398438 137.894531 310.398438 137.894531 C 308.226562 135.78125 305 139.007812 307.117188 141.175781 L 316.320312 150.378906 C 306.695312 149.535156 301.351562 145.726562 295.691406 141.757812 C 288.972656 136.148438 280.664062 133.027344 272.148438 132.289062 C 272.148438 114.089844 272.148438 82.136719 272.148438 82.136719 C 272.199219 80.601562 270.5625 79.4375 269.132812 79.96875 L 224.960938 94.460938 C 224.960938 93.085938 224.960938 82.136719 224.960938 82.136719 C 225.011719 80.601562 223.371094 79.4375 221.945312 79.96875 L 177.71875 94.460938 C 177.71875 93.085938 177.71875 82.136719 177.71875 82.136719 C 177.769531 80.601562 176.128906 79.4375 174.703125 79.96875 L 109.683594 101.339844 C 108.734375 101.65625 108.097656 102.558594 108.097656 103.507812 L 108.097656 150.484375 C 100.214844 149.90625 92.546875 146.996094 86.355469 141.808594 C 79.636719 137.050781 72.652344 132.128906 58.847656 132.128906 C 57.578125 132.128906 56.519531 133.1875 56.519531 134.457031 C 56.519531 135.726562 57.578125 136.785156 58.847656 136.785156 C 83.394531 136.996094 84.609375 153.925781 108.097656 155.140625 L 108.097656 194.449219 C 100.214844 193.867188 92.546875 190.957031 86.355469 185.773438 C 79.636719 181.011719 72.652344 176.089844 58.847656 176.089844 C 57.578125 176.089844 56.519531 177.148438 56.519531 178.417969 C 56.519531 179.6875 57.578125 180.746094 58.847656 180.746094 C 83.394531 180.957031 84.609375 197.886719 108.097656 199.101562 L 108.097656 238.410156 C 100.214844 237.828125 92.546875 234.917969 86.355469 229.734375 C 79.636719 224.972656 72.652344 220.054688 58.847656 220.054688 C 57.578125 220.054688 56.519531 221.109375 56.519531 222.378906 C 56.519531 223.648438 57.578125 224.707031 58.847656 224.707031 C 83.394531 224.917969 84.609375 241.847656 108.097656 243.066406 L 108.097656 271.738281 C 108.097656 272.742188 108.734375 273.644531 109.683594 273.90625 L 174.648438 295.28125 C 174.859375 295.332031 175.125 295.386719 175.390625 295.386719 C 176.605469 295.4375 177.71875 294.328125 177.71875 293.058594 C 177.71875 293.058594 177.71875 282.105469 177.71875 280.730469 L 221.945312 295.226562 C 222.15625 295.28125 222.421875 295.332031 222.683594 295.332031 C 223.902344 295.386719 225.011719 294.273438 225.011719 293.003906 C 225.011719 293.003906 225.011719 282.054688 225.011719 280.679688 L 269.1875 295.175781 C 269.398438 295.226562 269.660156 295.28125 269.925781 295.28125 C 271.144531 295.332031 272.253906 294.222656 272.253906 292.953125 C 272.253906 292.953125 272.253906 254.597656 272.253906 224.707031 C 279.820312 225.449219 287.171875 228.304688 293.152344 233.332031 C 299.339844 237.667969 305.792969 242.164062 317.484375 242.855469 C 314.789062 245.550781 307.910156 252.429688 307.910156 252.429688 C 306.429688 253.804688 307.59375 256.449219 309.550781 256.34375 C 310.132812 256.34375 310.714844 256.132812 311.191406 255.65625 L 323.410156 243.4375 C 324.308594 242.589844 324.308594 241.054688 323.410156 240.15625 C 323.410156 240.15625 310.449219 227.195312 310.449219 227.195312 C 308.28125 225.078125 305.054688 228.304688 307.167969 230.472656 L 314.683594 237.988281 C 306.164062 236.824219 301.085938 233.332031 295.796875 229.574219 C 289.023438 224.125 280.664062 220.953125 272.148438 220.210938 C 272.148438 202.4375 272.148438 200.480469 272.148438 180.90625 C 279.714844 181.644531 287.066406 184.503906 293.042969 189.527344 C 299.128906 193.8125 305.371094 198.152344 316.691406 198.996094 C 313.675781 202.011719 307.855469 207.832031 307.855469 207.832031 C 306.375 209.207031 307.488281 211.851562 309.496094 211.746094 Z M 173.0625 176.992188 C 170.257812 176.410156 167.136719 176.039062 163.488281 176.089844 C 149.679688 176.089844 142.695312 181.011719 135.976562 185.71875 C 129.417969 191.273438 121.113281 194.128906 112.699219 194.449219 L 112.699219 155.089844 C 125.449219 154.71875 132.167969 150.0625 138.621094 145.511719 C 148.039062 137.523438 161.210938 134.984375 173.007812 137.84375 L 173.007812 176.992188 Z M 177.71875 139.375 C 181.578125 140.859375 185.175781 142.867188 188.351562 145.566406 C 197.238281 152.972656 208.984375 156.09375 220.304688 154.984375 L 220.304688 194.34375 C 218.929688 194.5 217.449219 194.554688 215.859375 194.554688 C 195.863281 194.394531 191.367188 183.125 177.71875 178.261719 C 177.71875 158.949219 177.71875 154.71875 177.71875 139.375 Z M 138.675781 189.527344 C 148.09375 181.539062 161.265625 179 173.0625 181.855469 L 173.0625 220.953125 C 170.257812 220.371094 167.136719 220 163.488281 220.050781 C 149.679688 220.050781 142.695312 224.972656 135.976562 229.679688 C 129.417969 235.234375 121.113281 238.09375 112.699219 238.410156 L 112.699219 199.050781 C 125.503906 198.734375 132.222656 194.078125 138.675781 189.527344 Z M 177.71875 183.285156 C 181.578125 184.765625 185.175781 186.777344 188.351562 189.476562 C 197.238281 196.882812 208.984375 200.003906 220.304688 198.890625 L 220.304688 238.25 C 218.929688 238.410156 217.449219 238.460938 215.859375 238.460938 C 195.863281 238.304688 191.367188 227.035156 177.71875 222.167969 C 177.71875 204.871094 177.71875 202.753906 177.71875 183.285156 Z M 224.960938 198.203125 C 231.625 196.828125 238.027344 193.972656 243.371094 189.527344 C 250.195312 183.816406 258.816406 180.90625 267.546875 180.746094 L 267.546875 220.105469 C 257.863281 220.265625 248.238281 223.4375 240.722656 229.734375 C 236.121094 232.960938 231.679688 236.082031 224.960938 237.5625 C 224.960938 222.273438 224.960938 217.671875 224.960938 198.203125 Z M 240.722656 185.71875 C 236.121094 188.945312 231.679688 192.066406 224.960938 193.546875 C 224.960938 173.976562 224.960938 171.910156 224.960938 154.242188 C 231.625 152.867188 238.027344 150.011719 243.371094 145.566406 C 250.195312 139.851562 258.816406 136.941406 267.546875 136.785156 L 267.546875 176.089844 C 257.863281 176.25 248.238281 179.421875 240.722656 185.71875 Z M 267.546875 85.3125 L 267.546875 132.128906 C 257.863281 132.289062 248.238281 135.460938 240.722656 141.757812 C 236.121094 144.984375 231.679688 148.105469 224.960938 149.585938 C 224.960938 127.683594 224.960938 106.789062 224.960938 99.277344 Z M 220.355469 85.3125 L 220.355469 150.378906 C 218.980469 150.539062 217.5 150.59375 215.914062 150.59375 C 195.917969 150.433594 191.417969 139.164062 177.769531 134.296875 C 177.769531 121.285156 177.769531 104.515625 177.769531 99.277344 Z M 173.0625 85.3125 L 173.0625 133.027344 C 170.257812 132.445312 167.136719 132.078125 163.488281 132.128906 C 149.679688 132.128906 142.695312 137.050781 135.976562 141.757812 C 129.417969 147.3125 121.113281 150.167969 112.699219 150.484375 L 112.699219 105.148438 Z M 173.0625 289.9375 L 112.699219 270.097656 L 112.699219 243.066406 C 125.449219 242.695312 132.167969 238.039062 138.621094 233.488281 C 148.039062 225.5 161.210938 222.960938 173.007812 225.820312 L 173.007812 289.9375 Z M 220.355469 289.9375 L 177.71875 275.96875 C 177.71875 268.671875 177.71875 248.195312 177.71875 227.300781 C 181.578125 228.78125 185.175781 230.792969 188.351562 233.488281 C 197.238281 240.894531 208.984375 244.015625 220.304688 242.90625 L 220.304688 289.9375 Z M 224.960938 275.917969 C 224.960938 270.890625 224.960938 254.546875 224.960938 242.164062 C 231.625 240.789062 238.027344 237.933594 243.371094 233.488281 C 250.195312 227.777344 258.816406 224.867188 267.546875 224.707031 L 267.546875 289.9375 Z M 129.046875 131.917969 C 140.367188 131.601562 140.367188 115.042969 129.046875 114.722656 C 117.726562 115.042969 117.726562 131.601562 129.046875 131.917969 Z M 129.046875 119.328125 C 134.285156 119.433594 134.285156 127.15625 129.046875 127.261719 C 123.808594 127.210938 123.808594 119.433594 129.046875 119.328125 Z M 64.984375 168.632812 C 79.425781 168.261719 79.425781 147.152344 64.984375 146.730469 C 50.539062 147.152344 50.539062 168.261719 64.984375 168.632812 Z M 64.984375 151.386719 C 73.289062 151.542969 73.289062 163.871094 64.984375 164.027344 C 56.675781 163.871094 56.675781 151.492188 64.984375 151.386719 Z M 152.695312 244.917969 C 136.71875 245.445312 136.71875 268.5625 152.695312 269.09375 C 168.671875 268.5625 168.671875 245.445312 152.695312 244.917969 Z M 152.695312 264.492188 C 142.855469 264.226562 142.855469 249.835938 152.695312 249.570312 C 162.535156 249.785156 162.535156 264.226562 152.695312 264.492188 Z M 90.535156 208.730469 C 86.882812 208.730469 86.882812 214.285156 90.535156 214.339844 C 94.183594 214.339844 94.183594 208.785156 90.535156 208.730469 Z M 90.535156 209.738281 C 92.914062 209.738281 92.914062 213.386719 90.535156 213.386719 C 88.152344 213.335938 88.152344 209.738281 90.535156 209.738281 Z M 87.890625 171.964844 C 84.238281 171.964844 84.238281 177.519531 87.890625 177.570312 C 91.539062 177.570312 91.539062 172.015625 87.890625 171.964844 Z M 87.890625 172.96875 C 90.269531 172.96875 90.269531 176.621094 87.890625 176.621094 C 85.507812 176.566406 85.507812 172.96875 87.890625 172.96875 Z M 93.445312 256.980469 C 89.792969 256.980469 89.792969 262.535156 93.445312 262.585938 C 97.148438 262.585938 97.148438 257.03125 93.445312 256.980469 Z M 93.445312 261.632812 C 91.0625 261.632812 91.0625 257.984375 93.445312 257.984375 C 95.824219 257.984375 95.824219 261.582031 93.445312 261.632812 Z M 145.078125 156.039062 C 141.425781 156.039062 141.425781 161.597656 145.078125 161.648438 C 148.726562 161.597656 148.726562 156.039062 145.078125 156.039062 Z M 145.078125 160.644531 C 142.695312 160.644531 142.695312 156.992188 145.078125 156.992188 C 147.457031 157.046875 147.457031 160.644531 145.078125 160.644531 Z M 152.695312 111.285156 C 156.34375 111.285156 156.34375 105.730469 152.695312 105.679688 C 149.042969 105.679688 149.042969 111.234375 152.695312 111.285156 Z M 152.695312 106.628906 C 155.074219 106.628906 155.074219 110.28125 152.695312 110.28125 C 150.3125 110.28125 150.3125 106.683594 152.695312 106.628906 Z M 90.535156 111.761719 C 94.183594 111.761719 94.183594 106.207031 90.535156 106.152344 C 86.882812 106.152344 86.882812 111.707031 90.535156 111.761719 Z M 90.535156 107.105469 C 92.914062 107.105469 92.914062 110.757812 90.535156 110.757812 C 88.152344 110.757812 88.152344 107.160156 90.535156 107.105469 Z M 64.296875 242.640625 C 60.644531 242.640625 60.644531 248.195312 64.296875 248.25 C 67.945312 248.195312 68 242.640625 64.296875 242.640625 Z M 64.296875 247.246094 C 61.914062 247.246094 61.914062 243.59375 64.296875 243.59375 C 66.675781 243.648438 66.675781 247.246094 64.296875 247.246094 Z M 129.894531 224.65625 C 142.378906 224.335938 142.378906 206.085938 129.894531 205.714844 C 117.460938 206.085938 117.460938 224.335938 129.894531 224.65625 Z M 129.894531 210.371094 C 136.242188 210.476562 136.242188 219.945312 129.894531 220.050781 C 123.546875 219.945312 123.546875 210.476562 129.894531 210.371094 Z M 129.894531 210.371094 "/></g></g></svg>