<svg xmlns="http://www.w3.org/2000/svg" xmlns:xlink="http://www.w3.org/1999/xlink" width="500" zoomAndPan="magnify" viewBox="0 0 375 374.999991" height="500" preserveAspectRatio="xMidYMid meet" version="1.2"><defs><clipPath id="989db4d63b"><path d="M 61.269531 61.269531 L 314 61.269531 L 314 314 L 61.269531 314 Z M 61.269531 61.269531 "/></clipPath></defs><g id="8740f78775"><g clip-rule="nonzero" clip-path="url(#989db4d63b)"><path style=" stroke:none;fill-rule:nonzero;fill:#063770;fill-opacity:1;" d="M 313.726562 187.496094 C 313.726562 189.5625 313.675781 191.625 313.574219 193.691406 C 313.472656 195.753906 313.320312 197.8125 313.117188 199.867188 C 312.914062 201.925781 312.660156 203.972656 312.359375 206.019531 C 312.054688 208.0625 311.703125 210.097656 311.300781 212.121094 C 310.894531 214.148438 310.445312 216.164062 309.941406 218.167969 C 309.441406 220.171875 308.890625 222.160156 308.289062 224.136719 C 307.691406 226.113281 307.042969 228.074219 306.347656 230.019531 C 305.648438 231.964844 304.90625 233.894531 304.117188 235.800781 C 303.324219 237.710938 302.488281 239.597656 301.605469 241.464844 C 300.722656 243.332031 299.792969 245.179688 298.820312 247 C 297.847656 248.820312 296.828125 250.617188 295.765625 252.390625 C 294.703125 254.164062 293.597656 255.90625 292.453125 257.625 C 291.304688 259.34375 290.113281 261.03125 288.882812 262.691406 C 287.652344 264.351562 286.382812 265.976562 285.070312 267.574219 C 283.761719 269.171875 282.414062 270.734375 281.023438 272.265625 C 279.636719 273.796875 278.214844 275.292969 276.753906 276.753906 C 275.292969 278.214844 273.796875 279.636719 272.265625 281.023438 C 270.734375 282.414062 269.171875 283.761719 267.574219 285.070312 C 265.976562 286.382812 264.351562 287.652344 262.691406 288.882812 C 261.03125 290.113281 259.34375 291.304688 257.625 292.453125 C 255.90625 293.597656 254.164062 294.703125 252.390625 295.765625 C 250.617188 296.828125 248.820312 297.847656 247 298.820312 C 245.179688 299.792969 243.332031 300.722656 241.464844 301.605469 C 239.597656 302.488281 237.710938 303.324219 235.800781 304.117188 C 233.894531 304.90625 231.964844 305.648438 230.019531 306.347656 C 228.074219 307.042969 226.113281 307.691406 224.136719 308.289062 C 222.160156 308.890625 220.171875 309.441406 218.167969 309.941406 C 216.164062 310.445312 214.148438 310.894531 212.121094 311.300781 C 210.097656 311.703125 208.0625 312.054688 206.019531 312.359375 C 203.972656 312.660156 201.925781 312.914062 199.867188 313.117188 C 197.8125 313.320312 195.753906 313.472656 193.691406 313.574219 C 191.625 313.675781 189.5625 313.726562 187.496094 313.726562 C 185.429688 313.726562 183.367188 313.675781 181.300781 313.574219 C 179.238281 313.472656 177.179688 313.320312 175.125 313.117188 C 173.066406 312.914062 171.019531 312.660156 168.972656 312.359375 C 166.929688 312.054688 164.894531 311.703125 162.871094 311.300781 C 160.84375 310.894531 158.828125 310.445312 156.824219 309.941406 C 154.820312 309.441406 152.832031 308.890625 150.855469 308.289062 C 148.878906 307.691406 146.917969 307.042969 144.972656 306.347656 C 143.027344 305.648438 141.097656 304.90625 139.191406 304.117188 C 137.28125 303.324219 135.394531 302.488281 133.527344 301.605469 C 131.660156 300.722656 129.8125 299.792969 127.992188 298.820312 C 126.171875 297.847656 124.375 296.828125 122.601562 295.765625 C 120.828125 294.703125 119.085938 293.597656 117.367188 292.453125 C 115.648438 291.304688 113.960938 290.113281 112.300781 288.882812 C 110.644531 287.652344 109.015625 286.382812 107.417969 285.070312 C 105.820312 283.761719 104.257812 282.414062 102.726562 281.023438 C 101.195312 279.636719 99.699219 278.214844 98.238281 276.753906 C 96.777344 275.292969 95.355469 273.796875 93.96875 272.265625 C 92.578125 270.734375 91.230469 269.171875 89.921875 267.574219 C 88.609375 265.976562 87.339844 264.351562 86.109375 262.691406 C 84.878906 261.03125 83.6875 259.34375 82.539062 257.625 C 81.394531 255.90625 80.289062 254.164062 79.226562 252.390625 C 78.164062 250.617188 77.144531 248.820312 76.171875 247 C 75.199219 245.179688 74.269531 243.332031 73.386719 241.464844 C 72.503906 239.597656 71.667969 237.710938 70.875 235.800781 C 70.085938 233.894531 69.34375 231.964844 68.644531 230.019531 C 67.949219 228.074219 67.300781 226.113281 66.703125 224.136719 C 66.101562 222.160156 65.550781 220.171875 65.050781 218.167969 C 64.546875 216.164062 64.097656 214.148438 63.691406 212.121094 C 63.289062 210.097656 62.9375 208.0625 62.632812 206.019531 C 62.332031 203.972656 62.078125 201.925781 61.875 199.867188 C 61.671875 197.8125 61.519531 195.753906 61.417969 193.691406 C 61.316406 191.625 61.269531 189.5625 61.269531 187.496094 C 61.269531 185.429688 61.316406 183.367188 61.417969 181.300781 C 61.519531 179.238281 61.671875 177.179688 61.875 175.125 C 62.078125 173.066406 62.332031 171.019531 62.632812 168.972656 C 62.9375 166.929688 63.289062 164.894531 63.691406 162.871094 C 64.097656 160.84375 64.546875 158.828125 65.050781 156.824219 C 65.550781 154.820312 66.101562 152.832031 66.703125 150.855469 C 67.300781 148.878906 67.949219 146.917969 68.644531 144.972656 C 69.34375 143.027344 70.085938 141.097656 70.875 139.191406 C 71.667969 137.28125 72.503906 135.394531 73.386719 133.527344 C 74.269531 131.660156 75.199219 129.8125 76.171875 127.992188 C 77.144531 126.171875 78.164062 124.375 79.226562 122.601562 C 80.289062 120.828125 81.394531 119.085938 82.539062 117.367188 C 83.6875 115.648438 84.878906 113.960938 86.109375 112.300781 C 87.339844 110.644531 88.609375 109.015625 89.921875 107.417969 C 91.230469 105.820312 92.578125 104.257812 93.96875 102.726562 C 95.355469 101.195312 96.777344 99.699219 98.238281 98.238281 C 99.699219 96.777344 101.195312 95.355469 102.726562 93.96875 C 104.257812 92.578125 105.820312 91.230469 107.417969 89.921875 C 109.015625 88.609375 110.644531 87.339844 112.300781 86.109375 C 113.960938 84.878906 115.648438 83.6875 117.367188 82.539062 C 119.085938 81.394531 120.828125 80.289062 122.601562 79.226562 C 124.375 78.164062 126.171875 77.144531 127.992188 76.171875 C 129.8125 75.199219 131.660156 74.269531 133.527344 73.386719 C 135.394531 72.503906 137.28125 71.667969 139.191406 70.875 C 141.097656 70.085938 143.027344 69.34375 144.972656 68.644531 C 146.917969 67.949219 148.878906 67.300781 150.855469 66.703125 C 152.832031 66.101562 154.820312 65.550781 156.824219 65.050781 C 158.828125 64.546875 160.84375 64.097656 162.871094 63.691406 C 164.894531 63.289062 166.929688 62.9375 168.972656 62.632812 C 171.019531 62.332031 173.066406 62.078125 175.125 61.875 C 177.179688 61.671875 179.238281 61.519531 181.300781 61.417969 C 183.367188 61.316406 185.429688 61.269531 187.496094 61.269531 C 189.5625 61.269531 191.625 61.316406 193.691406 61.417969 C 195.753906 61.519531 197.8125 61.671875 199.867188 61.875 C 201.925781 62.078125 203.972656 62.332031 206.019531 62.632812 C 208.0625 62.9375 210.097656 63.289062 212.121094 63.691406 C 214.148438 64.097656 216.164062 64.546875 218.167969 65.050781 C 220.171875 65.550781 222.160156 66.101562 224.136719 66.703125 C 226.113281 67.300781 228.074219 67.949219 230.019531 68.644531 C 231.964844 69.34375 233.894531 70.085938 235.800781 70.875 C 237.710938 71.667969 239.597656 72.503906 241.464844 73.386719 C 243.332031 74.269531 245.179688 75.199219 247 76.171875 C 248.820312 77.144531 250.617188 78.164062 252.390625 79.226562 C 254.164062 80.289062 255.90625 81.394531 257.625 82.539062 C 259.34375 83.6875 261.03125 84.878906 262.691406 86.109375 C 264.351562 87.339844 265.976562 88.609375 267.574219 89.921875 C 269.171875 91.230469 270.734375 92.578125 272.265625 93.96875 C 273.796875 95.355469 275.292969 96.777344 276.753906 98.238281 C 278.214844 99.699219 279.636719 101.195312 281.023438 102.726562 C 282.414062 104.257812 283.761719 105.820312 285.070312 107.417969 C 286.382812 109.015625 287.652344 110.644531 288.882812 112.300781 C 290.113281 113.960938 291.304688 115.648438 292.453125 117.367188 C 293.597656 119.085938 294.703125 120.828125 295.765625 122.601562 C 296.828125 124.375 297.847656 126.171875 298.820312 127.992188 C 299.792969 129.8125 300.722656 131.660156 301.605469 133.527344 C 302.488281 135.394531 303.324219 137.28125 304.117188 139.191406 C 304.90625 141.097656 305.648438 143.027344 306.347656 144.972656 C 307.042969 146.917969 307.691406 148.878906 308.289062 150.855469 C 308.890625 152.832031 309.441406 154.820312 309.941406 156.824219 C 310.445312 158.828125 310.894531 160.84375 311.300781 162.871094 C 311.703125 164.894531 312.054688 166.929688 312.359375 168.972656 C 312.660156 171.019531 312.914062 173.066406 313.117188 175.125 C 313.320312 177.179688 313.472656 179.238281 313.574219 181.300781 C 313.675781 183.367188 313.726562 185.429688 313.726562 187.496094 Z M 313.726562 187.496094 "/></g><path style=" stroke:none;fill-rule:nonzero;fill:#ffffff;fill-opacity:1;" d="M 211.441406 121.207031 C 209.789062 119.054688 208.199219 117 206.808594 115.125 C 205.417969 117 203.835938 119.054688 202.183594 121.207031 C 193.074219 133.050781 180.59375 149.277344 180.59375 160.148438 C 180.59375 174.605469 192.351562 186.367188 206.808594 186.367188 C 221.265625 186.367188 233.027344 174.605469 233.027344 160.148438 C 233.027344 149.277344 220.550781 133.050781 211.441406 121.207031 Z M 211.574219 182.214844 C 210.011719 182.550781 208.414062 182.722656 206.816406 182.722656 C 197.285156 182.722656 188.734375 176.6875 185.542969 167.703125 C 185.222656 166.804688 185.695312 165.816406 186.59375 165.496094 C 187.492188 165.167969 188.480469 165.644531 188.804688 166.539062 C 191.5 174.148438 198.742188 179.261719 206.816406 179.261719 C 208.167969 179.261719 209.523438 179.117188 210.84375 178.832031 C 211.773438 178.625 212.699219 179.222656 212.894531 180.160156 C 213.097656 181.097656 212.503906 182.019531 211.574219 182.214844 Z M 211.574219 182.214844 "/><path style=" stroke:none;fill-rule:nonzero;fill:#ffffff;fill-opacity:1;" d="M 251.496094 233.082031 C 251.496094 234.039062 250.730469 234.8125 249.765625 234.8125 C 248.34375 234.8125 246.597656 236.089844 244.910156 237.320312 C 242.773438 238.886719 240.566406 240.503906 238.007812 240.503906 C 235.472656 240.503906 233.175781 238.894531 230.945312 237.347656 C 229.160156 236.097656 227.3125 234.8125 225.863281 234.8125 C 224.4375 234.8125 222.695312 236.089844 221.003906 237.320312 C 218.871094 238.886719 216.660156 240.503906 214.101562 240.503906 C 211.566406 240.503906 209.269531 238.894531 207.042969 237.347656 C 205.257812 236.097656 203.40625 234.8125 201.957031 234.8125 C 200.53125 234.8125 198.792969 236.089844 197.101562 237.320312 C 196.390625 237.84375 195.675781 238.367188 194.9375 238.835938 C 195.640625 237.082031 196.214844 235.265625 196.652344 233.390625 C 198.300781 232.273438 200.03125 231.351562 201.957031 231.351562 C 204.496094 231.351562 206.796875 232.957031 209.023438 234.507812 C 210.808594 235.753906 212.65625 237.039062 214.101562 237.039062 C 215.527344 237.039062 217.273438 235.765625 218.964844 234.53125 C 221.097656 232.96875 223.308594 231.351562 225.863281 231.351562 C 228.398438 231.351562 230.699219 232.957031 232.921875 234.507812 C 234.707031 235.753906 236.5625 237.039062 238.007812 237.039062 C 239.433594 237.039062 241.175781 235.765625 242.867188 234.53125 C 245.003906 232.96875 247.214844 231.351562 249.765625 231.351562 C 250.730469 231.351562 251.496094 232.125 251.496094 233.082031 Z M 251.496094 233.082031 "/><path style=" stroke:none;fill-rule:nonzero;fill:#ffffff;fill-opacity:1;" d="M 251.496094 222.042969 C 251.496094 222.996094 250.730469 223.773438 249.765625 223.773438 C 248.34375 223.773438 246.597656 225.050781 244.910156 226.28125 C 242.773438 227.84375 240.566406 229.460938 238.007812 229.460938 C 235.472656 229.460938 233.175781 227.855469 230.945312 226.304688 C 229.160156 225.058594 227.3125 223.773438 225.863281 223.773438 C 224.4375 223.773438 222.695312 225.050781 221.003906 226.28125 C 218.871094 227.84375 216.660156 229.460938 214.101562 229.460938 C 211.566406 229.460938 209.269531 227.855469 207.042969 226.304688 C 205.257812 225.058594 203.40625 223.773438 201.957031 223.773438 C 200.691406 223.773438 199.164062 224.78125 197.660156 225.882812 C 197.679688 225.425781 197.683594 224.964844 197.683594 224.507812 C 197.683594 223.621094 197.632812 222.71875 197.523438 221.785156 C 198.910156 220.9375 200.371094 220.3125 201.957031 220.3125 C 204.496094 220.3125 206.796875 221.917969 209.023438 223.464844 C 210.808594 224.714844 212.65625 226 214.101562 226 C 215.527344 226 217.273438 224.722656 218.964844 223.484375 C 221.097656 221.921875 223.308594 220.3125 225.863281 220.3125 C 228.398438 220.3125 230.699219 221.917969 232.921875 223.464844 C 234.707031 224.714844 236.5625 226 238.007812 226 C 239.433594 226 241.175781 224.722656 242.867188 223.484375 C 245.003906 221.921875 247.214844 220.3125 249.765625 220.3125 C 250.730469 220.3125 251.496094 221.085938 251.496094 222.042969 Z M 251.496094 222.042969 "/><path style=" stroke:none;fill-rule:nonzero;fill:#ffffff;fill-opacity:1;" d="M 196.277344 215.832031 C 195.941406 214.703125 195.554688 213.558594 195.113281 212.402344 C 197.230469 210.851562 199.421875 209.265625 201.957031 209.265625 C 204.496094 209.265625 206.796875 210.875 209.023438 212.421875 C 210.808594 213.667969 212.65625 214.957031 214.101562 214.957031 C 215.527344 214.957031 217.273438 213.679688 218.964844 212.441406 C 221.097656 210.878906 223.308594 209.265625 225.863281 209.265625 C 228.398438 209.265625 230.699219 210.875 232.921875 212.421875 C 234.707031 213.667969 236.5625 214.957031 238.007812 214.957031 C 239.433594 214.957031 241.175781 213.679688 242.867188 212.441406 C 245.003906 210.878906 247.214844 209.265625 249.765625 209.265625 C 250.730469 209.265625 251.496094 210.035156 251.496094 210.996094 C 251.496094 211.953125 250.730469 212.726562 249.765625 212.726562 C 248.34375 212.726562 246.597656 214.003906 244.910156 215.238281 C 242.773438 216.800781 240.566406 218.417969 238.007812 218.417969 C 235.472656 218.417969 233.175781 216.808594 230.945312 215.261719 C 229.160156 214.015625 227.3125 212.726562 225.863281 212.726562 C 224.4375 212.726562 222.695312 214.003906 221.003906 215.238281 C 218.871094 216.800781 216.660156 218.417969 214.101562 218.417969 C 211.566406 218.417969 209.269531 216.808594 207.042969 215.261719 C 205.257812 214.015625 203.40625 212.726562 201.957031 212.726562 C 200.53125 212.726562 198.792969 214.003906 197.101562 215.238281 C 196.832031 215.4375 196.554688 215.636719 196.277344 215.832031 Z M 196.277344 215.832031 "/><path style=" stroke:none;fill-rule:nonzero;fill:#ffffff;fill-opacity:1;" d="M 183.136719 226.300781 C 181.351562 225.054688 179.503906 223.765625 178.054688 223.765625 C 177.097656 223.765625 176.324219 222.992188 176.324219 222.035156 C 176.324219 221.078125 177.097656 220.304688 178.054688 220.304688 C 180.589844 220.304688 182.890625 221.914062 185.113281 223.460938 C 186.898438 224.707031 188.75 225.996094 190.199219 225.996094 C 191.390625 225.996094 192.800781 225.109375 194.214844 224.09375 C 194.175781 222.074219 193.828125 219.929688 193.226562 217.691406 C 192.257812 218.136719 191.257812 218.417969 190.199219 218.417969 C 187.664062 218.417969 185.367188 216.808594 183.136719 215.261719 C 181.351562 214.015625 179.503906 212.726562 178.054688 212.726562 C 177.097656 212.726562 176.324219 211.953125 176.324219 210.996094 C 176.324219 210.035156 177.097656 209.265625 178.054688 209.265625 C 180.589844 209.265625 182.890625 210.871094 185.113281 212.421875 C 186.898438 213.667969 188.75 214.957031 190.199219 214.957031 C 190.808594 214.957031 191.476562 214.722656 192.175781 214.355469 C 187.363281 200.953125 175.011719 184.886719 165.445312 172.449219 C 163.074219 169.367188 160.804688 166.417969 158.859375 163.769531 C 156.910156 166.417969 154.640625 169.359375 152.269531 172.449219 C 140.125 188.234375 123.496094 209.867188 123.496094 224.492188 C 123.496094 243.992188 139.355469 259.859375 158.863281 259.859375 C 172.609375 259.859375 184.546875 251.976562 190.394531 240.492188 C 190.328125 240.496094 190.265625 240.496094 190.199219 240.496094 C 187.664062 240.496094 185.367188 238.890625 183.136719 237.339844 C 181.351562 236.09375 179.503906 234.808594 178.054688 234.808594 C 177.097656 234.808594 176.324219 234.03125 176.324219 233.078125 C 176.324219 232.121094 177.097656 231.347656 178.054688 231.347656 C 180.589844 231.347656 182.890625 232.953125 185.113281 234.5 C 186.898438 235.75 188.75 237.035156 190.199219 237.035156 C 190.800781 237.035156 191.457031 236.808594 192.136719 236.457031 C 193.066406 233.875 193.707031 231.160156 194.007812 228.339844 C 192.804688 229 191.550781 229.457031 190.199219 229.457031 C 187.664062 229.460938 185.367188 227.855469 183.136719 226.300781 Z M 165.054688 253.234375 C 163.023438 253.671875 160.9375 253.894531 158.863281 253.894531 C 146.445312 253.894531 135.3125 246.035156 131.160156 234.332031 C 130.835938 233.4375 131.308594 232.445312 132.207031 232.125 C 133.105469 231.800781 134.101562 232.273438 134.421875 233.175781 C 138.085938 243.5 147.90625 250.433594 158.867188 250.433594 C 160.703125 250.433594 162.542969 250.234375 164.332031 249.851562 C 165.261719 249.648438 166.183594 250.242188 166.382812 251.175781 C 166.578125 252.121094 165.988281 253.035156 165.054688 253.234375 Z M 165.054688 253.234375 "/></g></svg>