<svg xmlns="http://www.w3.org/2000/svg" xmlns:xlink="http://www.w3.org/1999/xlink" width="500" zoomAndPan="magnify" viewBox="0 0 375 374.999991" height="500" preserveAspectRatio="xMidYMid meet" version="1.2"><defs><clipPath id="64f96eff54"><path d="M 63.125 118 L 215 118 L 215 153 L 63.125 153 Z M 63.125 118 "/></clipPath><clipPath id="ee79132916"><path d="M 89 92.199219 L 204 92.199219 L 204 127 L 89 127 Z M 89 92.199219 "/></clipPath><clipPath id="7ccf76f11b"><path d="M 82 177 L 127 177 L 127 282.699219 L 82 282.699219 Z M 82 177 "/></clipPath><clipPath id="4a117a2d59"><path d="M 99 178 L 108 178 L 108 282.699219 L 99 282.699219 Z M 99 178 "/></clipPath><clipPath id="6da3f5c4aa"><path d="M 150 177 L 196 177 L 196 282.699219 L 150 282.699219 Z M 150 177 "/></clipPath><clipPath id="dfe01696b9"><path d="M 168 178 L 177 178 L 177 282.699219 L 168 282.699219 Z M 168 178 "/></clipPath></defs><g id="adc7a7c65e"><g clip-rule="nonzero" clip-path="url(#64f96eff54)"><path style=" stroke:none;fill-rule:nonzero;fill:#063770;fill-opacity:1;" d="M 210.5625 152.570312 L 67.1875 152.570312 C 66.660156 152.570312 66.15625 152.46875 65.671875 152.269531 C 65.1875 152.070312 64.761719 151.78125 64.390625 151.410156 C 64.019531 151.039062 63.730469 150.613281 63.53125 150.128906 C 63.332031 149.644531 63.230469 149.140625 63.230469 148.613281 L 63.230469 122.691406 C 63.230469 122.167969 63.332031 121.664062 63.53125 121.179688 C 63.730469 120.695312 64.019531 120.265625 64.390625 119.894531 C 64.761719 119.523438 65.1875 119.238281 65.671875 119.039062 C 66.15625 118.835938 66.660156 118.738281 67.1875 118.738281 L 210.5625 118.738281 C 211.085938 118.738281 211.589844 118.835938 212.074219 119.039062 C 212.558594 119.238281 212.988281 119.523438 213.359375 119.894531 C 213.730469 120.265625 214.015625 120.695312 214.214844 121.179688 C 214.417969 121.664062 214.515625 122.167969 214.515625 122.691406 L 214.515625 148.613281 C 214.515625 149.140625 214.417969 149.644531 214.214844 150.128906 C 214.015625 150.613281 213.730469 151.039062 213.359375 151.410156 C 212.988281 151.78125 212.558594 152.070312 212.074219 152.269531 C 211.589844 152.46875 211.085938 152.570312 210.5625 152.570312 Z M 71.140625 144.660156 L 206.605469 144.660156 L 206.605469 126.648438 L 71.140625 126.648438 Z M 71.140625 144.660156 "/></g><g clip-rule="nonzero" clip-path="url(#ee79132916)"><path style=" stroke:none;fill-rule:nonzero;fill:#063770;fill-opacity:1;" d="M 187.191406 126.648438 C 186.667969 126.648438 186.164062 126.546875 185.679688 126.347656 C 185.195312 126.144531 184.765625 125.859375 184.394531 125.488281 C 184.023438 125.117188 183.738281 124.691406 183.539062 124.207031 C 183.335938 123.722656 183.238281 123.21875 183.238281 122.691406 C 183.238281 122.167969 183.335938 121.664062 183.539062 121.179688 C 183.738281 120.695312 184.023438 120.265625 184.394531 119.894531 C 184.765625 119.523438 185.195312 119.238281 185.679688 119.039062 C 186.164062 118.835938 186.667969 118.738281 187.191406 118.738281 C 191.65625 118.738281 195.28125 114.558594 195.28125 109.429688 C 195.28125 104.296875 191.65625 100.113281 187.191406 100.113281 L 105.085938 100.113281 C 100.625 100.113281 96.996094 104.292969 96.996094 109.429688 C 96.996094 114.566406 100.625 118.738281 105.085938 118.738281 C 105.609375 118.738281 106.113281 118.835938 106.597656 119.039062 C 107.082031 119.238281 107.511719 119.523438 107.882812 119.894531 C 108.253906 120.265625 108.539062 120.695312 108.738281 121.179688 C 108.941406 121.664062 109.042969 122.167969 109.042969 122.691406 C 109.042969 123.21875 108.941406 123.722656 108.738281 124.207031 C 108.539062 124.691406 108.253906 125.117188 107.882812 125.488281 C 107.511719 125.859375 107.082031 126.144531 106.597656 126.347656 C 106.113281 126.546875 105.609375 126.648438 105.085938 126.648438 C 96.261719 126.648438 89.082031 118.921875 89.082031 109.429688 C 89.082031 99.933594 96.261719 92.203125 105.085938 92.203125 L 187.191406 92.203125 C 196.015625 92.203125 203.195312 99.929688 203.195312 109.429688 C 203.195312 118.925781 196.015625 126.648438 187.191406 126.648438 Z M 187.191406 126.648438 "/></g><path style=" stroke:none;fill-rule:nonzero;fill:#063770;fill-opacity:1;" d="M 93.027344 113.382812 L 82.179688 113.382812 C 81.65625 113.382812 81.152344 113.285156 80.667969 113.082031 C 80.183594 112.882812 79.753906 112.597656 79.382812 112.226562 C 79.011719 111.855469 78.726562 111.425781 78.527344 110.941406 C 78.324219 110.457031 78.226562 109.953125 78.226562 109.429688 C 78.226562 108.902344 78.324219 108.398438 78.527344 107.914062 C 78.726562 107.429688 79.011719 107.003906 79.382812 106.632812 C 79.753906 106.261719 80.183594 105.972656 80.667969 105.773438 C 81.152344 105.574219 81.65625 105.472656 82.179688 105.472656 L 93.027344 105.472656 C 93.554688 105.472656 94.058594 105.574219 94.542969 105.773438 C 95.027344 105.972656 95.453125 106.261719 95.824219 106.632812 C 96.195312 107.003906 96.484375 107.429688 96.683594 107.914062 C 96.882812 108.398438 96.984375 108.902344 96.984375 109.429688 C 96.984375 109.953125 96.882812 110.457031 96.683594 110.941406 C 96.484375 111.425781 96.195312 111.855469 95.824219 112.226562 C 95.453125 112.597656 95.027344 112.882812 94.542969 113.082031 C 94.058594 113.285156 93.554688 113.382812 93.027344 113.382812 Z M 93.027344 113.382812 "/><path style=" stroke:none;fill-rule:nonzero;fill:#063770;fill-opacity:1;" d="M 267.554688 169.863281 C 246.320312 169.863281 223.46875 164.664062 223.46875 153.246094 C 223.46875 142.613281 243.378906 137.753906 260.429688 136.820312 C 260.6875 136.808594 260.945312 136.820312 261.203125 136.855469 C 261.460938 136.890625 261.714844 136.953125 261.957031 137.039062 C 262.203125 137.125 262.4375 137.234375 262.664062 137.367188 C 262.886719 137.5 263.09375 137.652344 263.289062 137.828125 C 263.484375 138 263.65625 138.191406 263.8125 138.398438 C 263.96875 138.609375 264.105469 138.828125 264.214844 139.0625 C 264.328125 139.296875 264.417969 139.542969 264.480469 139.792969 C 264.546875 140.046875 264.585938 140.300781 264.601562 140.5625 C 264.613281 140.820312 264.601562 141.078125 264.566406 141.335938 C 264.53125 141.59375 264.46875 141.847656 264.382812 142.089844 C 264.296875 142.335938 264.1875 142.570312 264.054688 142.796875 C 263.921875 143.019531 263.769531 143.226562 263.59375 143.421875 C 263.421875 143.617188 263.230469 143.789062 263.023438 143.945312 C 262.8125 144.101562 262.59375 144.238281 262.359375 144.347656 C 262.125 144.460938 261.878906 144.550781 261.628906 144.613281 C 261.375 144.679688 261.121094 144.71875 260.859375 144.734375 C 252.046875 145.21875 244.050781 146.652344 238.335938 148.773438 C 232.617188 150.894531 231.378906 152.882812 231.378906 153.261719 C 231.378906 153.640625 232.960938 156.097656 240.34375 158.441406 C 247.550781 160.714844 257.222656 161.96875 267.53125 161.96875 C 277.84375 161.96875 287.515625 160.714844 294.71875 158.441406 C 302.148438 156.097656 303.6875 153.644531 303.6875 153.261719 C 303.6875 152.875 302.445312 150.898438 296.730469 148.773438 C 291.011719 146.648438 283.015625 145.21875 274.203125 144.734375 C 273.945312 144.71875 273.6875 144.679688 273.4375 144.613281 C 273.183594 144.550781 272.941406 144.460938 272.707031 144.347656 C 272.472656 144.238281 272.25 144.101562 272.042969 143.945312 C 271.835938 143.789062 271.644531 143.617188 271.472656 143.421875 C 271.296875 143.226562 271.144531 143.019531 271.011719 142.796875 C 270.878906 142.570312 270.769531 142.335938 270.683594 142.089844 C 270.597656 141.847656 270.535156 141.59375 270.5 141.335938 C 270.460938 141.078125 270.449219 140.820312 270.464844 140.5625 C 270.480469 140.300781 270.519531 140.046875 270.582031 139.792969 C 270.648438 139.542969 270.738281 139.296875 270.847656 139.0625 C 270.960938 138.828125 271.097656 138.609375 271.25 138.398438 C 271.40625 138.191406 271.582031 138 271.777344 137.828125 C 271.96875 137.652344 272.179688 137.5 272.402344 137.367188 C 272.625 137.234375 272.859375 137.125 273.105469 137.039062 C 273.351562 136.953125 273.601562 136.890625 273.859375 136.855469 C 274.117188 136.820312 274.378906 136.808594 274.636719 136.820312 C 291.6875 137.753906 311.597656 142.625 311.597656 153.246094 C 311.640625 164.664062 288.789062 169.863281 267.554688 169.863281 Z M 267.554688 169.863281 "/><path style=" stroke:none;fill-rule:nonzero;fill:#063770;fill-opacity:1;" d="M 267.554688 278.039062 C 242.421875 278.039062 223.46875 268.886719 223.46875 256.742188 L 223.46875 153.246094 C 223.46875 152.722656 223.566406 152.214844 223.769531 151.730469 C 223.96875 151.246094 224.253906 150.820312 224.625 150.449219 C 224.996094 150.078125 225.425781 149.792969 225.910156 149.589844 C 226.394531 149.390625 226.898438 149.289062 227.421875 149.289062 C 227.949219 149.289062 228.453125 149.390625 228.9375 149.589844 C 229.421875 149.792969 229.847656 150.078125 230.21875 150.449219 C 230.589844 150.820312 230.878906 151.246094 231.078125 151.730469 C 231.277344 152.214844 231.378906 152.722656 231.378906 153.246094 L 231.378906 256.742188 C 231.378906 262.335938 245.140625 270.128906 267.554688 270.128906 C 289.96875 270.128906 303.730469 262.339844 303.730469 256.742188 L 303.730469 153.246094 C 303.730469 152.722656 303.828125 152.214844 304.03125 151.730469 C 304.230469 151.246094 304.515625 150.820312 304.886719 150.449219 C 305.257812 150.078125 305.6875 149.792969 306.171875 149.589844 C 306.65625 149.390625 307.160156 149.289062 307.683594 149.289062 C 308.207031 149.289062 308.714844 149.390625 309.199219 149.589844 C 309.683594 149.792969 310.109375 150.078125 310.480469 150.449219 C 310.851562 150.820312 311.136719 151.246094 311.339844 151.730469 C 311.539062 152.214844 311.640625 152.722656 311.640625 153.246094 L 311.640625 256.742188 C 311.640625 268.886719 292.683594 278.039062 267.554688 278.039062 Z M 267.554688 278.039062 "/><path style=" stroke:none;fill-rule:nonzero;fill:#063770;fill-opacity:1;" d="M 119.847656 168.847656 C 119.324219 168.847656 118.820312 168.746094 118.332031 168.546875 C 117.847656 168.34375 117.421875 168.058594 117.050781 167.6875 C 116.679688 167.316406 116.394531 166.890625 116.191406 166.402344 C 115.992188 165.917969 115.890625 165.414062 115.890625 164.890625 L 115.890625 148.613281 C 115.890625 148.089844 115.992188 147.585938 116.191406 147.101562 C 116.394531 146.617188 116.679688 146.1875 117.050781 145.816406 C 117.421875 145.445312 117.847656 145.160156 118.332031 144.960938 C 118.820312 144.757812 119.324219 144.660156 119.847656 144.660156 C 120.371094 144.660156 120.875 144.757812 121.363281 144.960938 C 121.847656 145.160156 122.273438 145.445312 122.644531 145.816406 C 123.015625 146.1875 123.300781 146.617188 123.503906 147.101562 C 123.703125 147.585938 123.804688 148.089844 123.804688 148.613281 L 123.804688 164.890625 C 123.804688 165.414062 123.703125 165.917969 123.503906 166.402344 C 123.300781 166.890625 123.015625 167.316406 122.644531 167.6875 C 122.273438 168.058594 121.847656 168.34375 121.363281 168.546875 C 120.875 168.746094 120.371094 168.847656 119.847656 168.847656 Z M 89.605469 168.847656 C 89.082031 168.847656 88.578125 168.746094 88.09375 168.546875 C 87.609375 168.34375 87.179688 168.058594 86.808594 167.6875 C 86.4375 167.316406 86.152344 166.890625 85.953125 166.402344 C 85.75 165.917969 85.652344 165.414062 85.652344 164.890625 L 85.652344 148.613281 C 85.652344 148.089844 85.75 147.585938 85.953125 147.101562 C 86.152344 146.617188 86.4375 146.1875 86.808594 145.816406 C 87.179688 145.445312 87.609375 145.160156 88.09375 144.960938 C 88.578125 144.757812 89.082031 144.660156 89.605469 144.660156 C 90.128906 144.660156 90.636719 144.757812 91.121094 144.960938 C 91.605469 145.160156 92.03125 145.445312 92.402344 145.816406 C 92.773438 146.1875 93.058594 146.617188 93.261719 147.101562 C 93.460938 147.585938 93.5625 148.089844 93.5625 148.613281 L 93.5625 164.890625 C 93.5625 165.414062 93.460938 165.917969 93.261719 166.40625 C 93.058594 166.890625 92.773438 167.316406 92.402344 167.6875 C 92.03125 168.058594 91.605469 168.34375 91.121094 168.546875 C 90.636719 168.746094 90.128906 168.847656 89.605469 168.847656 Z M 89.605469 168.847656 "/><path style=" stroke:none;fill-rule:nonzero;fill:#063770;fill-opacity:1;" d="M 104.726562 186.554688 C 99.007812 186.601562 93.308594 186.292969 87.628906 185.632812 C 83.519531 185.105469 76.648438 184.199219 76.648438 179.050781 L 76.648438 167.601562 C 76.648438 163.910156 79.875 160.933594 83.839844 160.933594 L 125.613281 160.933594 C 129.578125 160.933594 132.804688 163.925781 132.804688 167.601562 L 132.804688 179.050781 C 132.804688 184.199219 125.949219 185.09375 121.824219 185.632812 C 116.144531 186.292969 110.445312 186.601562 104.726562 186.554688 Z M 84.558594 177.0625 C 87.378906 177.824219 94.378906 178.644531 104.726562 178.644531 C 115.074219 178.644531 122.074219 177.816406 124.894531 177.0625 L 124.894531 168.847656 L 84.558594 168.847656 Z M 125.613281 168.851562 Z M 125.613281 168.851562 "/><g clip-rule="nonzero" clip-path="url(#7ccf76f11b)"><path style=" stroke:none;fill-rule:nonzero;fill:#063770;fill-opacity:1;" d="M 104.726562 282.691406 C 92.464844 282.691406 82.480469 274.054688 82.480469 263.4375 L 82.480469 181.46875 C 82.480469 180.941406 82.582031 180.4375 82.78125 179.953125 C 82.984375 179.46875 83.269531 179.039062 83.640625 178.671875 C 84.011719 178.300781 84.4375 178.011719 84.921875 177.8125 C 85.40625 177.613281 85.910156 177.511719 86.4375 177.511719 C 86.960938 177.511719 87.464844 177.613281 87.949219 177.8125 C 88.433594 178.011719 88.863281 178.300781 89.234375 178.671875 C 89.605469 179.039062 89.890625 179.46875 90.089844 179.953125 C 90.292969 180.4375 90.390625 180.941406 90.390625 181.46875 L 90.390625 263.4375 C 90.390625 269.585938 96.953125 274.78125 104.722656 274.78125 C 112.492188 274.78125 119.046875 269.585938 119.046875 263.4375 L 119.046875 181.46875 C 119.046875 180.941406 119.144531 180.4375 119.347656 179.953125 C 119.546875 179.46875 119.832031 179.039062 120.203125 178.671875 C 120.574219 178.300781 121.003906 178.011719 121.488281 177.8125 C 121.972656 177.613281 122.476562 177.511719 123 177.511719 C 123.527344 177.511719 124.03125 177.613281 124.515625 177.8125 C 125 178.011719 125.425781 178.300781 125.796875 178.671875 C 126.167969 179.039062 126.457031 179.46875 126.65625 179.953125 C 126.855469 180.4375 126.957031 180.941406 126.957031 181.46875 L 126.957031 263.4375 C 126.960938 274.054688 116.988281 282.691406 104.726562 282.691406 Z M 104.726562 282.691406 "/></g><g clip-rule="nonzero" clip-path="url(#4a117a2d59)"><path style=" stroke:none;fill-rule:nonzero;fill:#063770;fill-opacity:1;" d="M 103.914062 282.691406 C 103.390625 282.691406 102.886719 282.59375 102.402344 282.390625 C 101.917969 282.191406 101.488281 281.90625 101.117188 281.535156 C 100.746094 281.164062 100.460938 280.734375 100.261719 280.25 C 100.058594 279.765625 99.960938 279.261719 99.960938 278.738281 L 99.960938 182.601562 C 99.960938 182.078125 100.058594 181.570312 100.261719 181.085938 C 100.460938 180.601562 100.746094 180.175781 101.117188 179.804688 C 101.488281 179.433594 101.917969 179.148438 102.402344 178.945312 C 102.886719 178.746094 103.390625 178.644531 103.914062 178.644531 C 104.4375 178.644531 104.945312 178.746094 105.429688 178.945312 C 105.914062 179.148438 106.339844 179.433594 106.710938 179.804688 C 107.082031 180.175781 107.367188 180.601562 107.570312 181.085938 C 107.769531 181.570312 107.871094 182.078125 107.871094 182.601562 L 107.871094 278.738281 C 107.871094 279.261719 107.769531 279.765625 107.570312 280.25 C 107.367188 280.734375 107.082031 281.164062 106.710938 281.535156 C 106.339844 281.90625 105.914062 282.191406 105.429688 282.390625 C 104.945312 282.59375 104.4375 282.691406 103.914062 282.691406 Z M 103.914062 282.691406 "/></g><path style=" stroke:none;fill-rule:nonzero;fill:#063770;fill-opacity:1;" d="M 188.140625 168.847656 C 187.617188 168.847656 187.113281 168.746094 186.628906 168.546875 C 186.144531 168.34375 185.714844 168.058594 185.34375 167.6875 C 184.972656 167.316406 184.6875 166.890625 184.488281 166.402344 C 184.285156 165.917969 184.1875 165.414062 184.1875 164.890625 L 184.1875 148.613281 C 184.1875 148.089844 184.285156 147.585938 184.488281 147.101562 C 184.6875 146.617188 184.972656 146.1875 185.34375 145.816406 C 185.714844 145.445312 186.144531 145.160156 186.628906 144.960938 C 187.113281 144.757812 187.617188 144.660156 188.140625 144.660156 C 188.667969 144.660156 189.171875 144.757812 189.65625 144.960938 C 190.140625 145.160156 190.566406 145.445312 190.9375 145.816406 C 191.308594 146.1875 191.59375 146.617188 191.796875 147.101562 C 191.996094 147.585938 192.097656 148.089844 192.097656 148.613281 L 192.097656 164.890625 C 192.097656 165.414062 191.996094 165.917969 191.796875 166.402344 C 191.59375 166.890625 191.308594 167.316406 190.9375 167.6875 C 190.566406 168.058594 190.140625 168.34375 189.65625 168.546875 C 189.171875 168.746094 188.667969 168.847656 188.140625 168.847656 Z M 157.894531 168.847656 C 157.371094 168.847656 156.867188 168.746094 156.382812 168.546875 C 155.898438 168.34375 155.46875 168.058594 155.097656 167.6875 C 154.726562 167.316406 154.441406 166.890625 154.242188 166.402344 C 154.039062 165.917969 153.9375 165.414062 153.9375 164.890625 L 153.9375 148.613281 C 153.9375 148.089844 154.039062 147.585938 154.242188 147.101562 C 154.441406 146.617188 154.726562 146.1875 155.097656 145.816406 C 155.46875 145.445312 155.898438 145.160156 156.382812 144.960938 C 156.867188 144.757812 157.371094 144.660156 157.894531 144.660156 C 158.417969 144.660156 158.925781 144.757812 159.410156 144.960938 C 159.894531 145.160156 160.320312 145.445312 160.691406 145.816406 C 161.0625 146.1875 161.347656 146.617188 161.550781 147.101562 C 161.75 147.585938 161.851562 148.089844 161.851562 148.613281 L 161.851562 164.890625 C 161.851562 165.414062 161.75 165.917969 161.550781 166.402344 C 161.347656 166.886719 161.0625 167.316406 160.695312 167.6875 C 160.324219 168.054688 159.894531 168.34375 159.414062 168.542969 C 158.929688 168.746094 158.425781 168.84375 157.898438 168.847656 Z M 157.894531 168.847656 "/><path style=" stroke:none;fill-rule:nonzero;fill:#063770;fill-opacity:1;" d="M 173.019531 186.554688 C 167.300781 186.601562 161.601562 186.292969 155.921875 185.632812 C 151.8125 185.105469 144.9375 184.199219 144.9375 179.050781 L 144.9375 167.601562 C 144.9375 163.910156 148.164062 160.933594 152.136719 160.933594 L 193.902344 160.933594 C 197.871094 160.933594 201.101562 163.925781 201.101562 167.601562 L 201.101562 179.050781 C 201.101562 184.199219 194.242188 185.09375 190.121094 185.632812 C 184.4375 186.292969 178.738281 186.601562 173.019531 186.554688 Z M 152.847656 177.0625 C 155.675781 177.824219 162.671875 178.644531 173.019531 178.644531 C 183.367188 178.644531 190.363281 177.816406 193.1875 177.0625 L 193.1875 168.847656 L 152.847656 168.847656 Z M 193.902344 168.851562 Z M 193.902344 168.851562 "/><g clip-rule="nonzero" clip-path="url(#6da3f5c4aa)"><path style=" stroke:none;fill-rule:nonzero;fill:#063770;fill-opacity:1;" d="M 173.019531 282.691406 C 160.757812 282.691406 150.78125 274.054688 150.78125 263.4375 L 150.78125 181.46875 C 150.78125 180.941406 150.878906 180.4375 151.082031 179.953125 C 151.28125 179.46875 151.566406 179.039062 151.9375 178.671875 C 152.308594 178.300781 152.738281 178.011719 153.222656 177.8125 C 153.707031 177.613281 154.210938 177.511719 154.734375 177.511719 C 155.261719 177.511719 155.765625 177.613281 156.25 177.8125 C 156.734375 178.011719 157.160156 178.300781 157.53125 178.671875 C 157.902344 179.039062 158.191406 179.46875 158.390625 179.953125 C 158.589844 180.4375 158.691406 180.941406 158.691406 181.46875 L 158.691406 263.4375 C 158.691406 269.585938 165.253906 274.78125 173.019531 274.78125 C 180.789062 274.78125 187.34375 269.585938 187.34375 263.4375 L 187.34375 181.46875 C 187.34375 180.941406 187.445312 180.4375 187.648438 179.953125 C 187.847656 179.46875 188.132812 179.039062 188.503906 178.671875 C 188.875 178.300781 189.300781 178.011719 189.789062 177.8125 C 190.273438 177.613281 190.777344 177.511719 191.300781 177.511719 C 191.824219 177.511719 192.332031 177.613281 192.816406 177.8125 C 193.300781 178.011719 193.726562 178.300781 194.097656 178.671875 C 194.46875 179.039062 194.753906 179.46875 194.957031 179.953125 C 195.15625 180.4375 195.257812 180.941406 195.257812 181.46875 L 195.257812 263.4375 C 195.257812 274.054688 185.285156 282.691406 173.019531 282.691406 Z M 173.019531 282.691406 "/></g><g clip-rule="nonzero" clip-path="url(#dfe01696b9)"><path style=" stroke:none;fill-rule:nonzero;fill:#063770;fill-opacity:1;" d="M 172.207031 282.691406 C 171.683594 282.691406 171.179688 282.59375 170.695312 282.390625 C 170.210938 282.191406 169.78125 281.90625 169.410156 281.535156 C 169.039062 281.164062 168.753906 280.734375 168.554688 280.25 C 168.355469 279.765625 168.253906 279.261719 168.253906 278.738281 L 168.253906 182.601562 C 168.253906 182.078125 168.355469 181.570312 168.554688 181.085938 C 168.753906 180.601562 169.039062 180.175781 169.410156 179.804688 C 169.78125 179.433594 170.210938 179.148438 170.695312 178.945312 C 171.179688 178.746094 171.683594 178.644531 172.207031 178.644531 C 172.734375 178.644531 173.238281 178.746094 173.722656 178.945312 C 174.207031 179.148438 174.636719 179.433594 175.003906 179.804688 C 175.375 180.175781 175.664062 180.601562 175.863281 181.085938 C 176.0625 181.570312 176.164062 182.078125 176.164062 182.601562 L 176.164062 278.738281 C 176.164062 279.261719 176.0625 279.765625 175.863281 280.25 C 175.664062 280.734375 175.375 281.164062 175.003906 281.535156 C 174.636719 281.90625 174.207031 282.191406 173.722656 282.390625 C 173.238281 282.59375 172.734375 282.691406 172.207031 282.691406 Z M 172.207031 282.691406 "/></g><path style=" stroke:none;fill-rule:nonzero;fill:#063770;fill-opacity:1;" d="M 274.457031 169.675781 C 273.933594 169.675781 273.429688 169.574219 272.945312 169.375 C 272.460938 169.171875 272.03125 168.886719 271.660156 168.515625 C 271.289062 168.144531 271.003906 167.71875 270.804688 167.230469 C 270.601562 166.746094 270.503906 166.242188 270.503906 165.71875 L 270.503906 131.195312 L 264.59375 131.195312 L 264.59375 165.71875 C 264.59375 166.242188 264.496094 166.746094 264.292969 167.230469 C 264.09375 167.71875 263.808594 168.144531 263.4375 168.515625 C 263.066406 168.886719 262.636719 169.171875 262.152344 169.375 C 261.667969 169.574219 261.164062 169.675781 260.640625 169.675781 C 260.113281 169.675781 259.609375 169.574219 259.125 169.375 C 258.640625 169.171875 258.214844 168.886719 257.84375 168.515625 C 257.472656 168.144531 257.1875 167.71875 256.984375 167.230469 C 256.785156 166.746094 256.683594 166.242188 256.683594 165.71875 L 256.683594 127.21875 C 256.683594 126.691406 256.785156 126.1875 256.984375 125.703125 C 257.1875 125.21875 257.472656 124.792969 257.84375 124.421875 C 258.214844 124.050781 258.640625 123.765625 259.125 123.5625 C 259.609375 123.363281 260.113281 123.261719 260.640625 123.261719 L 274.457031 123.261719 C 274.980469 123.261719 275.488281 123.363281 275.972656 123.5625 C 276.457031 123.765625 276.882812 124.050781 277.253906 124.421875 C 277.625 124.792969 277.910156 125.21875 278.113281 125.703125 C 278.3125 126.1875 278.414062 126.691406 278.414062 127.21875 L 278.414062 165.71875 C 278.414062 166.242188 278.3125 166.746094 278.113281 167.230469 C 277.910156 167.71875 277.625 168.144531 277.253906 168.515625 C 276.882812 168.886719 276.457031 169.171875 275.972656 169.375 C 275.488281 169.574219 274.980469 169.675781 274.457031 169.675781 Z M 274.457031 169.675781 "/><path style=" stroke:none;fill-rule:nonzero;fill:#063770;fill-opacity:1;" d="M 267.554688 131.195312 C 267.027344 131.195312 266.523438 131.09375 266.039062 130.894531 C 265.554688 130.691406 265.128906 130.40625 264.757812 130.035156 C 264.386719 129.664062 264.101562 129.238281 263.898438 128.753906 C 263.699219 128.269531 263.597656 127.761719 263.597656 127.238281 L 263.597656 109.429688 C 263.597656 108.902344 263.699219 108.398438 263.898438 107.914062 C 264.101562 107.429688 264.386719 107.003906 264.757812 106.632812 C 265.128906 106.261719 265.554688 105.972656 266.039062 105.773438 C 266.523438 105.574219 267.027344 105.472656 267.554688 105.472656 C 268.078125 105.472656 268.582031 105.574219 269.066406 105.773438 C 269.550781 105.972656 269.980469 106.261719 270.351562 106.632812 C 270.722656 107.003906 271.007812 107.429688 271.207031 107.914062 C 271.410156 108.398438 271.507812 108.902344 271.507812 109.429688 L 271.507812 127.238281 C 271.507812 127.761719 271.410156 128.269531 271.207031 128.753906 C 271.007812 129.238281 270.722656 129.664062 270.351562 130.035156 C 269.980469 130.40625 269.550781 130.691406 269.066406 130.894531 C 268.582031 131.09375 268.078125 131.195312 267.554688 131.195312 Z M 267.554688 131.195312 "/><path style=" stroke:none;fill-rule:nonzero;fill:#063770;fill-opacity:1;" d="M 267.554688 113.382812 L 199.238281 113.382812 C 198.714844 113.382812 198.210938 113.285156 197.726562 113.082031 C 197.238281 112.882812 196.8125 112.597656 196.441406 112.226562 C 196.070312 111.855469 195.785156 111.425781 195.585938 110.941406 C 195.382812 110.457031 195.28125 109.953125 195.28125 109.429688 C 195.28125 108.902344 195.382812 108.398438 195.585938 107.914062 C 195.785156 107.429688 196.070312 107.003906 196.441406 106.632812 C 196.8125 106.261719 197.238281 105.972656 197.726562 105.773438 C 198.210938 105.574219 198.714844 105.472656 199.238281 105.472656 L 267.554688 105.472656 C 268.078125 105.472656 268.582031 105.574219 269.066406 105.773438 C 269.550781 105.972656 269.980469 106.261719 270.351562 106.632812 C 270.722656 107.003906 271.007812 107.429688 271.207031 107.914062 C 271.410156 108.398438 271.507812 108.902344 271.507812 109.429688 C 271.507812 109.953125 271.410156 110.457031 271.207031 110.941406 C 271.007812 111.425781 270.722656 111.855469 270.351562 112.226562 C 269.980469 112.597656 269.550781 112.882812 269.066406 113.082031 C 268.582031 113.285156 268.078125 113.382812 267.554688 113.382812 Z M 267.554688 113.382812 "/><path style=" stroke:none;fill-rule:nonzero;fill:#063770;fill-opacity:1;" d="M 267.554688 259.480469 C 253.546875 259.480469 244.84375 249.640625 244.84375 233.792969 C 244.84375 227.597656 248.289062 221.925781 252.265625 215.359375 C 256.515625 208.347656 261.335938 200.402344 263.6875 189.515625 C 263.785156 189.074219 263.949219 188.660156 264.1875 188.277344 C 264.425781 187.890625 264.71875 187.558594 265.070312 187.273438 C 265.421875 186.988281 265.8125 186.773438 266.238281 186.621094 C 266.664062 186.472656 267.101562 186.398438 267.554688 186.398438 C 268.003906 186.398438 268.445312 186.472656 268.871094 186.621094 C 269.296875 186.773438 269.683594 186.988281 270.039062 187.273438 C 270.390625 187.558594 270.683594 187.890625 270.921875 188.277344 C 271.15625 188.660156 271.324219 189.074219 271.417969 189.515625 C 273.773438 200.421875 278.59375 208.371094 282.84375 215.359375 C 286.820312 221.925781 290.257812 227.597656 290.257812 233.792969 C 290.28125 249.640625 281.5625 259.480469 267.554688 259.480469 Z M 267.554688 203.433594 C 264.917969 209.726562 261.753906 214.941406 259.03125 219.460938 C 255.523438 225.261719 252.753906 229.808594 252.753906 233.792969 C 252.753906 240.429688 254.679688 251.570312 267.554688 251.570312 C 280.429688 251.570312 282.320312 240.429688 282.320312 233.792969 C 282.320312 229.808594 279.550781 225.242188 276.050781 219.460938 C 273.335938 214.941406 270.175781 209.726562 267.554688 203.433594 Z M 267.554688 203.433594 "/></g></svg>