<svg xmlns="http://www.w3.org/2000/svg" xmlns:xlink="http://www.w3.org/1999/xlink" width="500" zoomAndPan="magnify" viewBox="0 0 375 374.999991" height="500" preserveAspectRatio="xMidYMid meet" version="1.2"><defs><clipPath id="2c1b541dcc"><path d="M 44.703125 44.703125 L 330.453125 44.703125 L 330.453125 330.453125 L 44.703125 330.453125 Z M 44.703125 44.703125 "/></clipPath></defs><g id="764bb3f5e9"><g clip-rule="nonzero" clip-path="url(#2c1b541dcc)"><path style=" stroke:none;fill-rule:nonzero;fill:#ffffff;fill-opacity:1;" d="M 207.285156 330.320312 L 167.761719 330.320312 C 165.296875 330.320312 163.296875 328.320312 163.296875 325.855469 L 163.296875 305.285156 C 148.273438 302.222656 134.207031 296.394531 121.390625 287.921875 L 106.839844 302.46875 C 105.097656 304.210938 102.269531 304.210938 100.527344 302.46875 L 72.578125 274.523438 C 71.742188 273.683594 71.269531 272.550781 71.269531 271.367188 C 71.269531 270.179688 71.742188 269.046875 72.578125 268.207031 L 87.128906 253.660156 C 78.65625 240.839844 72.828125 226.773438 69.761719 211.75 L 49.195312 211.75 C 46.726562 211.75 44.730469 209.753906 44.730469 207.285156 L 44.730469 167.761719 C 44.730469 165.296875 46.726562 163.296875 49.195312 163.296875 L 69.761719 163.296875 C 72.828125 148.273438 78.65625 134.207031 87.128906 121.390625 L 72.578125 106.839844 C 71.742188 106.003906 71.269531 104.867188 71.269531 103.683594 C 71.269531 102.5 71.742188 101.363281 72.578125 100.527344 L 100.527344 72.578125 C 101.363281 71.742188 102.5 71.269531 103.683594 71.269531 C 104.867188 71.269531 106.003906 71.742188 106.839844 72.578125 L 121.390625 87.128906 C 134.207031 78.65625 148.273438 72.828125 163.296875 69.761719 L 163.296875 49.195312 C 163.296875 46.726562 165.296875 44.730469 167.761719 44.730469 L 207.285156 44.730469 C 209.75 44.730469 211.75 46.726562 211.75 49.195312 L 211.75 69.761719 C 226.773438 72.828125 240.839844 78.65625 253.660156 87.128906 L 268.207031 72.578125 C 269.046875 71.742188 270.179688 71.269531 271.363281 71.269531 C 272.550781 71.269531 273.683594 71.742188 274.523438 72.578125 L 302.46875 100.527344 C 304.210938 102.269531 304.210938 105.097656 302.46875 106.839844 L 287.917969 121.390625 C 296.394531 134.207031 302.222656 148.273438 305.285156 163.296875 L 325.855469 163.296875 C 328.320312 163.296875 330.320312 165.296875 330.320312 167.761719 L 330.320312 207.285156 C 330.320312 209.75 328.320312 211.75 325.855469 211.75 L 305.285156 211.75 C 302.222656 226.773438 296.394531 240.839844 287.917969 253.660156 L 302.46875 268.207031 C 304.210938 269.953125 304.210938 272.777344 302.46875 274.523438 L 274.523438 302.46875 C 272.777344 304.210938 269.953125 304.210938 268.207031 302.46875 L 253.660156 287.917969 C 240.839844 296.394531 226.773438 302.222656 211.75 305.285156 L 211.75 325.855469 C 211.75 328.320312 209.75 330.320312 207.285156 330.320312 Z M 172.226562 321.390625 L 202.820312 321.390625 L 202.820312 301.582031 C 202.820312 299.410156 204.386719 297.550781 206.527344 297.183594 C 222.871094 294.371094 238.042969 288.085938 251.621094 278.496094 C 253.398438 277.242188 255.820312 277.453125 257.355469 278.988281 L 271.367188 293 L 293 271.367188 L 278.988281 257.355469 C 277.453125 255.816406 277.246094 253.398438 278.496094 251.621094 C 288.085938 238.039062 294.371094 222.867188 297.183594 206.527344 C 297.550781 204.386719 299.410156 202.820312 301.582031 202.820312 L 321.390625 202.820312 L 321.390625 172.226562 L 301.582031 172.226562 C 299.410156 172.226562 297.550781 170.660156 297.183594 168.519531 C 294.371094 152.175781 288.085938 137.003906 278.496094 123.425781 C 277.246094 121.648438 277.453125 119.230469 278.988281 117.691406 L 293 103.683594 L 271.367188 82.050781 L 257.355469 96.0625 C 255.820312 97.597656 253.398438 97.804688 251.621094 96.550781 C 238.042969 86.964844 222.871094 80.675781 206.527344 77.867188 C 204.386719 77.496094 202.820312 75.640625 202.820312 73.464844 L 202.820312 53.660156 L 172.226562 53.660156 L 172.226562 73.464844 C 172.226562 75.640625 170.660156 77.496094 168.519531 77.867188 C 152.179688 80.675781 137.003906 86.964844 123.425781 96.550781 C 121.648438 97.804688 119.230469 97.597656 117.691406 96.058594 L 103.679688 82.050781 L 82.046875 103.683594 L 96.058594 117.695312 C 97.597656 119.230469 97.804688 121.648438 96.550781 123.425781 C 86.960938 137.007812 80.675781 152.179688 77.863281 168.519531 C 77.496094 170.664062 75.636719 172.226562 73.464844 172.226562 L 53.660156 172.226562 L 53.660156 202.820312 L 73.464844 202.820312 C 75.640625 202.820312 77.496094 204.386719 77.867188 206.53125 C 80.675781 222.871094 86.964844 238.042969 96.550781 251.625 C 97.804688 253.398438 97.597656 255.820312 96.058594 257.355469 L 82.050781 271.367188 L 103.683594 293 L 117.695312 278.988281 C 119.230469 277.453125 121.648438 277.246094 123.425781 278.5 C 137.007812 288.085938 152.179688 294.371094 168.519531 297.183594 C 170.664062 297.550781 172.226562 299.410156 172.226562 301.585938 Z M 172.226562 321.390625 "/></g><path style=" stroke:none;fill-rule:nonzero;fill:#ffffff;fill-opacity:1;" d="M 187.523438 285.152344 C 133.691406 285.152344 89.898438 241.355469 89.898438 187.523438 C 89.898438 133.691406 133.691406 89.898438 187.523438 89.898438 C 241.355469 89.898438 285.152344 133.691406 285.152344 187.523438 C 285.152344 241.355469 241.355469 285.152344 187.523438 285.152344 Z M 187.523438 98.828125 C 138.617188 98.828125 98.828125 138.617188 98.828125 187.523438 C 98.828125 236.433594 138.617188 276.222656 187.523438 276.222656 C 236.433594 276.222656 276.222656 236.433594 276.222656 187.523438 C 276.222656 138.617188 236.433594 98.828125 187.523438 98.828125 Z M 187.523438 98.828125 "/><path style=" stroke:none;fill-rule:nonzero;fill:#ffffff;fill-opacity:1;" d="M 187.523438 251.273438 C 163.269531 251.273438 143.535156 230.988281 143.535156 206.050781 C 143.535156 195.902344 150.394531 179.207031 163.921875 156.425781 C 173.785156 139.816406 183.792969 125.785156 183.890625 125.644531 C 184.730469 124.472656 186.082031 123.773438 187.523438 123.773438 C 188.964844 123.773438 190.320312 124.472656 191.15625 125.644531 C 191.257812 125.785156 201.261719 139.816406 211.125 156.425781 C 224.652344 179.207031 231.511719 195.902344 231.511719 206.050781 C 231.511719 230.988281 211.78125 251.273438 187.523438 251.273438 Z M 187.523438 136.039062 C 175.167969 154.085938 152.464844 190.46875 152.464844 206.050781 C 152.464844 226.0625 168.191406 242.34375 187.523438 242.34375 C 206.855469 242.34375 222.582031 226.0625 222.582031 206.050781 C 222.582031 190.460938 199.878906 154.082031 187.523438 136.039062 Z M 187.523438 136.039062 "/><path style=" stroke:none;fill-rule:nonzero;fill:#ffffff;fill-opacity:1;" d="M 187.523438 228.691406 C 175.722656 228.691406 166.121094 218.851562 166.121094 206.757812 C 166.121094 204.292969 168.121094 202.292969 170.585938 202.292969 C 173.050781 202.292969 175.050781 204.292969 175.050781 206.757812 C 175.050781 213.925781 180.644531 219.761719 187.523438 219.761719 C 189.988281 219.761719 191.988281 221.757812 191.988281 224.226562 C 191.988281 226.691406 189.988281 228.691406 187.523438 228.691406 Z M 187.523438 228.691406 "/></g></svg>