<svg xmlns="http://www.w3.org/2000/svg" xmlns:xlink="http://www.w3.org/1999/xlink" width="500" zoomAndPan="magnify" viewBox="0 0 375 374.999991" height="500" preserveAspectRatio="xMidYMid meet" version="1.2"><defs><clipPath id="cfb556f435"><path d="M 63.3125 64 L 311.5625 64 L 311.5625 311.5625 L 63.3125 311.5625 Z M 63.3125 64 "/></clipPath></defs><g id="8425ceef02"><g clip-rule="nonzero" clip-path="url(#cfb556f435)"><path style=" stroke:none;fill-rule:nonzero;fill:#063770;fill-opacity:1;" d="M 309.617188 184.1875 L 261.613281 136.183594 L 261.613281 98.671875 C 261.613281 95.941406 259.40625 93.726562 256.671875 93.726562 C 253.933594 93.726562 251.726562 95.941406 251.726562 98.671875 L 251.726562 126.292969 L 190.933594 65.503906 C 189 63.570312 185.875 63.570312 183.941406 65.503906 L 65.253906 184.1875 C 63.320312 186.121094 63.320312 189.246094 65.253906 191.179688 C 66.21875 192.144531 67.484375 192.628906 68.75 192.628906 C 70.019531 192.628906 71.285156 192.144531 72.246094 191.179688 L 93.476562 169.949219 L 93.476562 306.371094 C 93.476562 309.105469 95.691406 311.316406 98.421875 311.316406 L 276.449219 311.316406 C 279.1875 311.316406 281.394531 309.105469 281.394531 306.371094 L 281.394531 169.949219 L 302.625 191.179688 C 303.589844 192.144531 304.855469 192.628906 306.121094 192.628906 C 307.386719 192.628906 308.652344 192.144531 309.617188 191.179688 C 311.550781 189.246094 311.550781 186.121094 309.617188 184.1875 Z M 271.503906 301.425781 L 103.367188 301.425781 L 103.367188 160.058594 L 187.4375 75.992188 L 271.503906 160.058594 Z M 271.503906 301.425781 "/></g><path style=" stroke:none;fill-rule:nonzero;fill:#063770;fill-opacity:1;" d="M 187.4375 192.628906 C 201.070312 192.628906 212.164062 181.539062 212.164062 167.902344 C 212.164062 155.480469 194.398438 138.019531 190.839844 134.640625 C 188.929688 132.832031 185.945312 132.832031 184.035156 134.640625 C 180.472656 138.019531 162.710938 155.480469 162.710938 167.902344 C 162.710938 181.539062 173.804688 192.628906 187.4375 192.628906 Z M 187.4375 145.21875 C 194.445312 152.539062 202.273438 162.707031 202.273438 167.902344 C 202.273438 176.082031 195.617188 182.738281 187.4375 182.738281 C 179.257812 182.738281 172.601562 176.082031 172.601562 167.902344 C 172.601562 162.714844 180.429688 152.542969 187.4375 145.21875 Z M 187.4375 145.21875 "/><path style=" stroke:none;fill-rule:nonzero;fill:#063770;fill-opacity:1;" d="M 236.890625 216.367188 C 228.714844 216.367188 224.488281 220.421875 221.09375 223.679688 C 218.234375 226.429688 216.347656 228.238281 212.148438 228.238281 C 207.949219 228.238281 206.066406 226.429688 203.203125 223.679688 C 199.804688 220.425781 195.582031 216.367188 187.40625 216.367188 C 179.238281 216.367188 175.015625 220.421875 171.621094 223.679688 C 168.765625 226.429688 166.875 228.238281 162.679688 228.238281 C 158.496094 228.238281 156.609375 226.429688 153.753906 223.683594 C 150.371094 220.421875 146.148438 216.367188 137.984375 216.367188 C 135.253906 216.367188 133.039062 218.578125 133.039062 221.3125 C 133.039062 224.046875 135.253906 226.257812 137.984375 226.257812 C 142.167969 226.257812 144.058594 228.066406 146.910156 230.8125 C 150.304688 234.070312 154.523438 238.125 162.6875 238.125 C 170.855469 238.125 175.078125 234.070312 178.476562 230.8125 C 181.335938 228.0625 183.21875 226.253906 187.414062 226.253906 C 191.609375 226.253906 193.5 228.066406 196.359375 230.8125 C 199.753906 234.066406 203.980469 238.125 212.148438 238.125 C 220.316406 238.125 224.546875 234.074219 227.9375 230.8125 C 230.800781 228.070312 232.691406 226.257812 236.890625 226.257812 C 239.625 226.257812 241.835938 224.046875 241.835938 221.3125 C 241.835938 218.578125 239.625 216.367188 236.890625 216.367188 Z M 236.890625 216.367188 "/><path style=" stroke:none;fill-rule:nonzero;fill:#063770;fill-opacity:1;" d="M 236.890625 246.039062 C 228.714844 246.039062 224.488281 250.09375 221.09375 253.351562 C 218.234375 256.101562 216.347656 257.910156 212.148438 257.910156 C 207.949219 257.910156 206.066406 256.101562 203.203125 253.351562 C 199.804688 250.097656 195.582031 246.039062 187.40625 246.039062 C 179.238281 246.039062 175.015625 250.09375 171.621094 253.351562 C 168.765625 256.101562 166.875 257.910156 162.679688 257.910156 C 158.496094 257.910156 156.609375 256.101562 153.753906 253.355469 C 150.371094 250.09375 146.148438 246.039062 137.984375 246.039062 C 135.253906 246.039062 133.039062 248.25 133.039062 250.984375 C 133.039062 253.71875 135.253906 255.929688 137.984375 255.929688 C 142.167969 255.929688 144.058594 257.738281 146.910156 260.484375 C 150.304688 263.742188 154.523438 267.796875 162.6875 267.796875 C 170.855469 267.796875 175.078125 263.742188 178.476562 260.484375 C 181.335938 257.734375 183.21875 255.921875 187.414062 255.921875 C 191.609375 255.921875 193.5 257.738281 196.359375 260.484375 C 199.753906 263.738281 203.980469 267.796875 212.148438 267.796875 C 220.316406 267.796875 224.546875 263.746094 227.9375 260.484375 C 230.800781 257.742188 232.691406 255.929688 236.890625 255.929688 C 239.625 255.929688 241.835938 253.71875 241.835938 250.984375 C 241.835938 248.25 239.625 246.039062 236.890625 246.039062 Z M 236.890625 246.039062 "/></g></svg>