<svg xmlns="http://www.w3.org/2000/svg" xmlns:xlink="http://www.w3.org/1999/xlink" width="500" zoomAndPan="magnify" viewBox="0 0 375 374.999991" height="500" preserveAspectRatio="xMidYMid meet" version="1.2"><defs><clipPath id="843c6e26fe"><path d="M 64.570312 173 L 115 173 L 115 202 L 64.570312 202 Z M 64.570312 173 "/></clipPath><clipPath id="30f566ea21"><path d="M 173 64.980469 L 201 64.980469 L 201 115 L 173 115 Z M 173 64.980469 "/></clipPath><clipPath id="5a24c34a74"><path d="M 173 260 L 201 260 L 201 310.230469 L 173 310.230469 Z M 173 260 "/></clipPath></defs><g id="72d1494d0f"><g clip-rule="nonzero" clip-path="url(#843c6e26fe)"><path style=" stroke:none;fill-rule:nonzero;fill:#063770;fill-opacity:1;" d="M 64.570312 187.5 C 64.574219 188.386719 64.660156 189.265625 64.832031 190.136719 C 65.007812 191.003906 65.265625 191.851562 65.605469 192.667969 C 65.945312 193.488281 66.363281 194.269531 66.855469 195.003906 C 67.347656 195.742188 67.90625 196.425781 68.535156 197.054688 C 69.164062 197.679688 69.84375 198.242188 70.582031 198.734375 C 71.320312 199.226562 72.097656 199.644531 72.917969 199.984375 C 73.738281 200.324219 74.582031 200.582031 75.453125 200.753906 C 76.324219 200.929688 77.203125 201.015625 78.089844 201.015625 L 100.511719 201.015625 C 101.398438 201.015625 102.277344 200.929688 103.144531 200.753906 C 104.015625 200.582031 104.859375 200.324219 105.679688 199.984375 C 106.5 199.644531 107.277344 199.226562 108.015625 198.734375 C 108.75 198.242188 109.433594 197.679688 110.0625 197.054688 C 110.6875 196.425781 111.246094 195.742188 111.738281 195.003906 C 112.230469 194.265625 112.648438 193.488281 112.988281 192.667969 C 113.328125 191.847656 113.582031 191.003906 113.757812 190.132812 C 113.929688 189.265625 114.015625 188.386719 114.015625 187.5 C 114.015625 186.613281 113.929688 185.734375 113.757812 184.863281 C 113.582031 183.992188 113.328125 183.148438 112.988281 182.328125 C 112.648438 181.507812 112.230469 180.730469 111.738281 179.992188 C 111.246094 179.253906 110.6875 178.574219 110.0625 177.945312 C 109.433594 177.316406 108.75 176.757812 108.015625 176.265625 C 107.277344 175.769531 106.5 175.355469 105.679688 175.015625 C 104.859375 174.671875 104.015625 174.417969 103.144531 174.242188 C 102.277344 174.070312 101.398438 173.980469 100.511719 173.980469 L 78.089844 173.980469 C 77.203125 173.980469 76.324219 174.070312 75.453125 174.242188 C 74.582031 174.417969 73.738281 174.675781 72.917969 175.015625 C 72.097656 175.355469 71.320312 175.769531 70.582031 176.265625 C 69.84375 176.757812 69.164062 177.316406 68.535156 177.945312 C 67.90625 178.574219 67.347656 179.253906 66.855469 179.992188 C 66.363281 180.730469 65.945312 181.507812 65.605469 182.328125 C 65.265625 183.148438 65.007812 183.992188 64.832031 184.863281 C 64.660156 185.734375 64.574219 186.613281 64.570312 187.5 Z M 105.859375 187.5 C 105.859375 187.851562 105.828125 188.199219 105.757812 188.542969 C 105.691406 188.886719 105.589844 189.222656 105.457031 189.546875 C 105.320312 189.871094 105.15625 190.179688 104.960938 190.472656 C 104.765625 190.765625 104.542969 191.035156 104.296875 191.285156 C 104.046875 191.53125 103.777344 191.753906 103.484375 191.949219 C 103.191406 192.144531 102.882812 192.308594 102.558594 192.445312 C 102.234375 192.578125 101.898438 192.679688 101.554688 192.746094 C 101.210938 192.816406 100.863281 192.847656 100.511719 192.847656 L 78.089844 192.847656 C 77.738281 192.847656 77.390625 192.816406 77.046875 192.746094 C 76.699219 192.675781 76.367188 192.578125 76.042969 192.441406 C 75.71875 192.308594 75.410156 192.140625 75.117188 191.949219 C 74.824219 191.753906 74.554688 191.53125 74.304688 191.28125 C 74.058594 191.035156 73.835938 190.761719 73.640625 190.472656 C 73.445312 190.179688 73.28125 189.871094 73.148438 189.546875 C 73.011719 189.222656 72.910156 188.886719 72.84375 188.542969 C 72.773438 188.199219 72.738281 187.851562 72.738281 187.5 C 72.738281 187.148438 72.773438 186.800781 72.84375 186.457031 C 72.910156 186.109375 73.011719 185.777344 73.148438 185.453125 C 73.28125 185.128906 73.445312 184.820312 73.640625 184.527344 C 73.835938 184.234375 74.058594 183.964844 74.304688 183.714844 C 74.554688 183.46875 74.824219 183.246094 75.117188 183.050781 C 75.410156 182.855469 75.71875 182.691406 76.042969 182.554688 C 76.367188 182.421875 76.699219 182.320312 77.046875 182.25 C 77.390625 182.183594 77.738281 182.148438 78.089844 182.148438 L 100.511719 182.148438 C 100.863281 182.148438 101.210938 182.183594 101.554688 182.25 C 101.898438 182.320312 102.234375 182.417969 102.558594 182.554688 C 102.882812 182.6875 103.191406 182.851562 103.484375 183.046875 C 103.777344 183.242188 104.046875 183.464844 104.296875 183.714844 C 104.542969 183.960938 104.765625 184.234375 104.960938 184.523438 C 105.15625 184.816406 105.320312 185.125 105.457031 185.449219 C 105.589844 185.773438 105.691406 186.109375 105.757812 186.453125 C 105.828125 186.800781 105.859375 187.148438 105.859375 187.5 Z M 105.859375 187.5 "/></g><path style=" stroke:none;fill-rule:nonzero;fill:#063770;fill-opacity:1;" d="M 251.945312 187.5 C 251.945312 186.4375 251.917969 185.375 251.867188 184.316406 C 251.8125 183.257812 251.738281 182.199219 251.632812 181.140625 C 251.527344 180.085938 251.398438 179.03125 251.242188 177.984375 C 251.085938 176.933594 250.90625 175.886719 250.699219 174.847656 C 250.492188 173.804688 250.257812 172.769531 250 171.742188 C 249.742188 170.710938 249.460938 169.6875 249.152344 168.671875 C 248.84375 167.65625 248.511719 166.648438 248.152344 165.652344 C 247.796875 164.652344 247.414062 163.660156 247.007812 162.679688 C 246.601562 161.699219 246.171875 160.730469 245.71875 159.769531 C 245.265625 158.8125 244.789062 157.863281 244.285156 156.925781 C 243.785156 155.992188 243.261719 155.066406 242.71875 154.15625 C 242.171875 153.246094 241.605469 152.351562 241.015625 151.46875 C 240.425781 150.585938 239.8125 149.71875 239.183594 148.867188 C 238.550781 148.011719 237.898438 147.175781 237.222656 146.355469 C 236.550781 145.535156 235.855469 144.730469 235.144531 143.945312 C 234.429688 143.160156 233.699219 142.390625 232.949219 141.640625 C 232.199219 140.890625 231.429688 140.160156 230.644531 139.445312 C 229.859375 138.734375 229.054688 138.039062 228.234375 137.367188 C 227.414062 136.691406 226.578125 136.039062 225.722656 135.40625 C 224.871094 134.777344 224.003906 134.164062 223.121094 133.574219 C 222.238281 132.984375 221.34375 132.417969 220.433594 131.871094 C 219.523438 131.328125 218.597656 130.804688 217.664062 130.304688 C 216.726562 129.804688 215.777344 129.324219 214.820312 128.871094 C 213.859375 128.417969 212.890625 127.988281 211.910156 127.582031 C 210.929688 127.175781 209.9375 126.792969 208.941406 126.4375 C 207.941406 126.078125 206.933594 125.746094 205.917969 125.4375 C 204.902344 125.128906 203.878906 124.847656 202.847656 124.589844 C 201.820312 124.332031 200.785156 124.097656 199.742188 123.890625 C 198.703125 123.683594 197.65625 123.503906 196.605469 123.347656 C 195.558594 123.191406 194.503906 123.0625 193.449219 122.957031 C 192.390625 122.855469 191.332031 122.777344 190.273438 122.722656 C 189.214844 122.671875 188.152344 122.644531 187.089844 122.644531 C 186.03125 122.644531 184.96875 122.671875 183.910156 122.722656 C 182.847656 122.777344 181.789062 122.855469 180.734375 122.957031 C 179.679688 123.0625 178.625 123.191406 177.574219 123.347656 C 176.523438 123.503906 175.480469 123.683594 174.4375 123.890625 C 173.398438 124.097656 172.363281 124.332031 171.332031 124.589844 C 170.304688 124.847656 169.28125 125.128906 168.265625 125.4375 C 167.25 125.746094 166.242188 126.078125 165.242188 126.4375 C 164.242188 126.792969 163.253906 127.175781 162.273438 127.582031 C 161.292969 127.988281 160.320312 128.417969 159.363281 128.871094 C 158.402344 129.324219 157.457031 129.804688 156.519531 130.304688 C 155.582031 130.804688 154.660156 131.328125 153.75 131.871094 C 152.839844 132.417969 151.941406 132.984375 151.058594 133.574219 C 150.175781 134.164062 149.308594 134.777344 148.457031 135.40625 C 147.605469 136.039062 146.769531 136.691406 145.949219 137.367188 C 145.128906 138.039062 144.324219 138.734375 143.539062 139.445312 C 142.75 140.160156 141.984375 140.890625 141.234375 141.640625 C 140.480469 142.390625 139.75 143.160156 139.039062 143.945312 C 138.324219 144.730469 137.632812 145.535156 136.957031 146.355469 C 136.285156 147.175781 135.632812 148.011719 135 148.867188 C 134.367188 149.71875 133.757812 150.585938 133.167969 151.46875 C 132.578125 152.351562 132.011719 153.246094 131.464844 154.15625 C 130.917969 155.066406 130.394531 155.992188 129.894531 156.925781 C 129.394531 157.863281 128.917969 158.8125 128.464844 159.769531 C 128.011719 160.730469 127.582031 161.699219 127.175781 162.679688 C 126.769531 163.660156 126.386719 164.652344 126.027344 165.652344 C 125.671875 166.648438 125.339844 167.65625 125.03125 168.671875 C 124.722656 169.6875 124.4375 170.710938 124.179688 171.742188 C 123.921875 172.769531 123.691406 173.804688 123.484375 174.847656 C 123.277344 175.886719 123.09375 176.933594 122.9375 177.984375 C 122.785156 179.03125 122.652344 180.085938 122.550781 181.140625 C 122.445312 182.199219 122.367188 183.257812 122.316406 184.316406 C 122.261719 185.375 122.238281 186.4375 122.238281 187.5 C 122.238281 188.558594 122.261719 189.621094 122.316406 190.679688 C 122.367188 191.742188 122.445312 192.800781 122.550781 193.855469 C 122.652344 194.910156 122.785156 195.964844 122.9375 197.015625 C 123.09375 198.066406 123.277344 199.109375 123.484375 200.152344 C 123.691406 201.191406 123.921875 202.226562 124.179688 203.257812 C 124.4375 204.285156 124.722656 205.308594 125.03125 206.324219 C 125.339844 207.339844 125.671875 208.347656 126.027344 209.347656 C 126.386719 210.347656 126.769531 211.335938 127.175781 212.316406 C 127.582031 213.296875 128.011719 214.269531 128.464844 215.226562 C 128.917969 216.1875 129.394531 217.132812 129.894531 218.070312 C 130.394531 219.007812 130.917969 219.929688 131.464844 220.839844 C 132.011719 221.75 132.578125 222.648438 133.167969 223.53125 C 133.757812 224.414062 134.367188 225.28125 135 226.132812 C 135.632812 226.984375 136.285156 227.820312 136.957031 228.640625 C 137.632812 229.460938 138.324219 230.265625 139.039062 231.050781 C 139.75 231.839844 140.480469 232.605469 141.234375 233.359375 C 141.984375 234.109375 142.75 234.839844 143.539062 235.550781 C 144.324219 236.265625 145.128906 236.957031 145.949219 237.632812 C 146.769531 238.304688 147.605469 238.957031 148.457031 239.589844 C 149.308594 240.222656 150.175781 240.832031 151.058594 241.421875 C 151.941406 242.011719 152.839844 242.582031 153.75 243.125 C 154.660156 243.671875 155.582031 244.195312 156.519531 244.695312 C 157.457031 245.195312 158.402344 245.671875 159.363281 246.125 C 160.320312 246.578125 161.292969 247.011719 162.273438 247.414062 C 163.253906 247.820312 164.242188 248.203125 165.242188 248.5625 C 166.242188 248.917969 167.25 249.253906 168.265625 249.558594 C 169.28125 249.867188 170.304688 250.152344 171.332031 250.410156 C 172.363281 250.667969 173.398438 250.898438 174.4375 251.105469 C 175.480469 251.3125 176.523438 251.496094 177.574219 251.652344 C 178.625 251.804688 179.679688 251.9375 180.734375 252.039062 C 181.789062 252.144531 182.847656 252.222656 183.910156 252.273438 C 184.96875 252.328125 186.03125 252.351562 187.089844 252.351562 C 188.152344 252.351562 189.210938 252.324219 190.273438 252.273438 C 191.332031 252.21875 192.390625 252.140625 193.445312 252.035156 C 194.503906 251.929688 195.554688 251.800781 196.605469 251.644531 C 197.652344 251.488281 198.699219 251.304688 199.738281 251.097656 C 200.78125 250.890625 201.816406 250.65625 202.84375 250.398438 C 203.875 250.140625 204.894531 249.855469 205.910156 249.546875 C 206.925781 249.238281 207.933594 248.90625 208.933594 248.546875 C 209.929688 248.191406 210.921875 247.808594 211.902344 247.402344 C 212.882812 246.996094 213.851562 246.566406 214.808594 246.109375 C 215.769531 245.65625 216.714844 245.179688 217.652344 244.679688 C 218.589844 244.179688 219.511719 243.65625 220.421875 243.109375 C 221.332031 242.5625 222.226562 241.996094 223.109375 241.40625 C 223.992188 240.816406 224.859375 240.207031 225.710938 239.574219 C 226.5625 238.941406 227.398438 238.289062 228.21875 237.617188 C 229.039062 236.941406 229.84375 236.25 230.628906 235.535156 C 231.414062 234.824219 232.183594 234.09375 232.933594 233.34375 C 233.683594 232.589844 234.414062 231.824219 235.128906 231.039062 C 235.839844 230.25 236.535156 229.449219 237.207031 228.628906 C 237.878906 227.808594 238.535156 226.972656 239.164062 226.117188 C 239.796875 225.265625 240.410156 224.398438 241 223.515625 C 241.589844 222.636719 242.15625 221.738281 242.703125 220.828125 C 243.246094 219.917969 243.769531 218.996094 244.269531 218.058594 C 244.773438 217.125 245.25 216.175781 245.703125 215.21875 C 246.15625 214.257812 246.585938 213.289062 246.992188 212.308594 C 247.398438 211.328125 247.78125 210.339844 248.140625 209.339844 C 248.5 208.339844 248.832031 207.335938 249.140625 206.320312 C 249.449219 205.304688 249.730469 204.28125 249.992188 203.253906 C 250.25 202.222656 250.480469 201.1875 250.691406 200.148438 C 250.898438 199.105469 251.078125 198.0625 251.234375 197.011719 C 251.390625 195.960938 251.523438 194.910156 251.628906 193.855469 C 251.730469 192.796875 251.8125 191.742188 251.863281 190.679688 C 251.917969 189.621094 251.945312 188.558594 251.945312 187.5 Z M 222.664062 170.835938 L 209.675781 206.9375 C 209.53125 207.332031 209.332031 207.695312 209.078125 208.03125 C 208.824219 208.363281 208.523438 208.648438 208.179688 208.890625 C 207.835938 209.128906 207.464844 209.3125 207.066406 209.441406 C 206.664062 209.566406 206.253906 209.628906 205.835938 209.628906 C 205.417969 209.628906 205.007812 209.566406 204.609375 209.441406 C 204.207031 209.3125 203.835938 209.128906 203.492188 208.890625 C 203.148438 208.648438 202.851562 208.363281 202.59375 208.03125 C 202.339844 207.695312 202.140625 207.332031 201.996094 206.9375 L 189.011719 170.835938 C 188.84375 170.332031 188.777344 169.8125 188.8125 169.285156 C 188.847656 168.753906 188.984375 168.25 189.214844 167.769531 C 189.449219 167.292969 189.761719 166.875 190.15625 166.519531 C 190.550781 166.164062 191 165.898438 191.5 165.714844 C 192 165.535156 192.515625 165.453125 193.046875 165.476562 C 193.578125 165.496094 194.085938 165.617188 194.570312 165.835938 C 195.054688 166.054688 195.480469 166.355469 195.847656 166.738281 C 196.210938 167.125 196.492188 167.566406 196.6875 168.058594 L 205.835938 193.460938 L 214.984375 168.058594 C 215.074219 167.808594 215.183594 167.566406 215.320312 167.335938 C 215.457031 167.109375 215.613281 166.894531 215.792969 166.695312 C 215.972656 166.496094 216.167969 166.320312 216.382812 166.160156 C 216.597656 166 216.824219 165.863281 217.066406 165.75 C 217.308594 165.636719 217.558594 165.546875 217.816406 165.484375 C 218.074219 165.417969 218.335938 165.378906 218.605469 165.367188 C 218.871094 165.355469 219.136719 165.371094 219.398438 165.410156 C 219.664062 165.453125 219.921875 165.515625 220.171875 165.609375 C 220.425781 165.699219 220.664062 165.8125 220.894531 165.953125 C 221.125 166.089844 221.339844 166.25 221.539062 166.429688 C 221.738281 166.609375 221.917969 166.808594 222.078125 167.023438 C 222.238281 167.238281 222.378906 167.46875 222.492188 167.710938 C 222.609375 167.953125 222.699219 168.203125 222.765625 168.464844 C 222.832031 168.722656 222.871094 168.988281 222.886719 169.257812 C 222.902344 169.523438 222.890625 169.792969 222.851562 170.058594 C 222.8125 170.324219 222.75 170.582031 222.664062 170.835938 Z M 183.660156 193.460938 C 183.660156 193.992188 183.632812 194.519531 183.582031 195.046875 C 183.53125 195.578125 183.453125 196.101562 183.347656 196.621094 C 183.246094 197.140625 183.117188 197.65625 182.964844 198.164062 C 182.808594 198.667969 182.628906 199.167969 182.429688 199.660156 C 182.226562 200.148438 182 200.628906 181.75 201.09375 C 181.5 201.5625 181.226562 202.015625 180.929688 202.457031 C 180.636719 202.898438 180.320312 203.324219 179.984375 203.734375 C 179.648438 204.144531 179.292969 204.535156 178.917969 204.910156 C 178.542969 205.285156 178.148438 205.640625 177.738281 205.980469 C 177.332031 206.316406 176.90625 206.632812 176.464844 206.925781 C 176.023438 207.21875 175.570312 207.492188 175.101562 207.742188 C 174.632812 207.992188 174.152344 208.21875 173.664062 208.421875 C 173.175781 208.625 172.675781 208.804688 172.167969 208.957031 C 171.660156 209.109375 171.148438 209.238281 170.625 209.34375 C 170.105469 209.445312 169.582031 209.523438 169.054688 209.578125 C 168.527344 209.628906 167.996094 209.65625 167.46875 209.65625 C 166.9375 209.65625 166.40625 209.628906 165.878906 209.578125 C 165.351562 209.523438 164.828125 209.445312 164.308594 209.34375 C 163.789062 209.238281 163.273438 209.109375 162.765625 208.957031 C 162.257812 208.804688 161.761719 208.625 161.269531 208.421875 C 160.78125 208.21875 160.300781 207.992188 159.835938 207.742188 C 159.367188 207.492188 158.910156 207.21875 158.472656 206.925781 C 158.03125 206.632812 157.605469 206.316406 157.195312 205.980469 C 156.785156 205.640625 156.390625 205.285156 156.015625 204.910156 C 155.640625 204.535156 155.285156 204.144531 154.949219 203.734375 C 154.613281 203.324219 154.296875 202.898438 154.003906 202.457031 C 153.707031 202.015625 153.4375 201.5625 153.1875 201.09375 C 152.9375 200.628906 152.710938 200.148438 152.507812 199.660156 C 152.304688 199.167969 152.125 198.667969 151.972656 198.164062 C 151.816406 197.65625 151.6875 197.140625 151.585938 196.621094 C 151.480469 196.101562 151.40625 195.578125 151.351562 195.046875 C 151.300781 194.519531 151.273438 193.992188 151.273438 193.460938 L 151.273438 169.449219 C 151.273438 169.179688 151.300781 168.914062 151.351562 168.652344 C 151.40625 168.386719 151.484375 168.132812 151.585938 167.886719 C 151.6875 167.636719 151.8125 167.402344 151.960938 167.179688 C 152.113281 166.957031 152.28125 166.75 152.46875 166.558594 C 152.660156 166.371094 152.867188 166.199219 153.089844 166.050781 C 153.3125 165.902344 153.546875 165.777344 153.796875 165.675781 C 154.042969 165.570312 154.296875 165.496094 154.5625 165.441406 C 154.824219 165.390625 155.089844 165.363281 155.359375 165.363281 C 155.625 165.363281 155.890625 165.390625 156.15625 165.441406 C 156.417969 165.496094 156.671875 165.570312 156.921875 165.675781 C 157.167969 165.777344 157.40625 165.902344 157.628906 166.050781 C 157.851562 166.199219 158.054688 166.371094 158.246094 166.558594 C 158.4375 166.75 158.605469 166.957031 158.753906 167.179688 C 158.902344 167.402344 159.027344 167.636719 159.132812 167.886719 C 159.234375 168.132812 159.3125 168.386719 159.363281 168.652344 C 159.417969 168.914062 159.441406 169.179688 159.441406 169.449219 L 159.441406 193.460938 C 159.441406 193.988281 159.492188 194.511719 159.597656 195.027344 C 159.699219 195.542969 159.851562 196.046875 160.054688 196.53125 C 160.253906 197.019531 160.503906 197.480469 160.792969 197.921875 C 161.085938 198.359375 161.421875 198.761719 161.792969 199.136719 C 162.164062 199.507812 162.570312 199.839844 163.007812 200.132812 C 163.445312 200.425781 163.910156 200.675781 164.394531 200.875 C 164.882812 201.078125 165.386719 201.230469 165.902344 201.332031 C 166.417969 201.433594 166.941406 201.488281 167.46875 201.488281 C 167.996094 201.488281 168.515625 201.433594 169.03125 201.332031 C 169.550781 201.230469 170.050781 201.078125 170.539062 200.875 C 171.023438 200.675781 171.488281 200.425781 171.925781 200.132812 C 172.363281 199.839844 172.769531 199.507812 173.140625 199.136719 C 173.515625 198.761719 173.847656 198.359375 174.140625 197.921875 C 174.433594 197.480469 174.679688 197.019531 174.882812 196.53125 C 175.082031 196.046875 175.234375 195.542969 175.339844 195.027344 C 175.441406 194.511719 175.492188 193.988281 175.492188 193.460938 L 175.492188 169.449219 C 175.492188 169.179688 175.519531 168.914062 175.570312 168.652344 C 175.625 168.386719 175.699219 168.132812 175.804688 167.886719 C 175.90625 167.636719 176.03125 167.402344 176.179688 167.179688 C 176.328125 166.957031 176.5 166.75 176.6875 166.558594 C 176.878906 166.371094 177.085938 166.199219 177.308594 166.050781 C 177.53125 165.902344 177.765625 165.777344 178.011719 165.675781 C 178.261719 165.570312 178.515625 165.496094 178.78125 165.441406 C 179.042969 165.390625 179.308594 165.363281 179.578125 165.363281 C 179.84375 165.363281 180.109375 165.390625 180.375 165.441406 C 180.636719 165.496094 180.890625 165.570312 181.140625 165.675781 C 181.386719 165.777344 181.621094 165.902344 181.84375 166.050781 C 182.066406 166.199219 182.273438 166.371094 182.464844 166.558594 C 182.652344 166.75 182.824219 166.957031 182.972656 167.179688 C 183.121094 167.402344 183.246094 167.636719 183.347656 167.886719 C 183.453125 168.132812 183.53125 168.386719 183.582031 168.652344 C 183.632812 168.914062 183.660156 169.179688 183.660156 169.449219 Z M 183.660156 193.460938 "/><g clip-rule="nonzero" clip-path="url(#30f566ea21)"><path style=" stroke:none;fill-rule:nonzero;fill:#063770;fill-opacity:1;" d="M 200.609375 100.917969 L 200.609375 78.496094 C 200.609375 77.609375 200.519531 76.730469 200.347656 75.863281 C 200.171875 74.992188 199.917969 74.148438 199.578125 73.328125 C 199.234375 72.507812 198.820312 71.730469 198.328125 70.992188 C 197.832031 70.257812 197.273438 69.574219 196.644531 68.949219 C 196.015625 68.320312 195.335938 67.761719 194.597656 67.269531 C 193.859375 66.777344 193.082031 66.359375 192.261719 66.019531 C 191.441406 65.679688 190.597656 65.425781 189.726562 65.253906 C 188.855469 65.078125 187.976562 64.992188 187.089844 64.992188 C 186.203125 64.992188 185.324219 65.078125 184.457031 65.253906 C 183.585938 65.425781 182.742188 65.679688 181.921875 66.019531 C 181.101562 66.359375 180.324219 66.777344 179.585938 67.269531 C 178.847656 67.761719 178.164062 68.320312 177.535156 68.949219 C 176.910156 69.574219 176.347656 70.257812 175.855469 70.992188 C 175.363281 71.730469 174.945312 72.507812 174.605469 73.328125 C 174.265625 74.148438 174.007812 74.992188 173.835938 75.863281 C 173.660156 76.730469 173.574219 77.609375 173.574219 78.496094 L 173.574219 100.917969 C 173.574219 101.804688 173.660156 102.683594 173.835938 103.554688 C 174.007812 104.421875 174.265625 105.269531 174.605469 106.085938 C 174.945312 106.90625 175.363281 107.683594 175.855469 108.421875 C 176.347656 109.160156 176.910156 109.839844 177.535156 110.46875 C 178.164062 111.09375 178.847656 111.65625 179.585938 112.148438 C 180.324219 112.640625 181.101562 113.054688 181.921875 113.394531 C 182.742188 113.734375 183.585938 113.992188 184.457031 114.164062 C 185.324219 114.335938 186.203125 114.421875 187.089844 114.421875 C 187.976562 114.421875 188.855469 114.335938 189.726562 114.164062 C 190.597656 113.992188 191.441406 113.734375 192.261719 113.394531 C 193.082031 113.054688 193.859375 112.640625 194.597656 112.148438 C 195.335938 111.65625 196.015625 111.09375 196.644531 110.46875 C 197.273438 109.839844 197.832031 109.160156 198.328125 108.421875 C 198.820312 107.683594 199.234375 106.90625 199.578125 106.085938 C 199.917969 105.269531 200.171875 104.421875 200.347656 103.554688 C 200.519531 102.683594 200.609375 101.804688 200.609375 100.917969 Z M 181.742188 100.917969 L 181.742188 78.496094 C 181.742188 78.144531 181.773438 77.796875 181.84375 77.453125 C 181.914062 77.109375 182.015625 76.773438 182.148438 76.449219 C 182.28125 76.125 182.449219 75.816406 182.644531 75.523438 C 182.835938 75.234375 183.058594 74.960938 183.308594 74.714844 C 183.554688 74.464844 183.828125 74.246094 184.117188 74.050781 C 184.410156 73.855469 184.71875 73.6875 185.042969 73.554688 C 185.367188 73.421875 185.703125 73.320312 186.046875 73.25 C 186.390625 73.183594 186.738281 73.148438 187.089844 73.148438 C 187.441406 73.148438 187.789062 73.183594 188.132812 73.25 C 188.480469 73.320312 188.8125 73.421875 189.136719 73.554688 C 189.464844 73.6875 189.769531 73.855469 190.0625 74.050781 C 190.355469 74.246094 190.625 74.464844 190.875 74.714844 C 191.121094 74.960938 191.34375 75.234375 191.539062 75.523438 C 191.734375 75.816406 191.898438 76.125 192.035156 76.449219 C 192.167969 76.773438 192.269531 77.109375 192.339844 77.453125 C 192.40625 77.796875 192.441406 78.144531 192.441406 78.496094 L 192.441406 100.917969 C 192.441406 101.269531 192.40625 101.617188 192.339844 101.960938 C 192.269531 102.308594 192.167969 102.640625 192.035156 102.964844 C 191.898438 103.289062 191.734375 103.597656 191.539062 103.890625 C 191.34375 104.183594 191.121094 104.453125 190.875 104.703125 C 190.625 104.949219 190.355469 105.171875 190.0625 105.367188 C 189.769531 105.5625 189.464844 105.726562 189.136719 105.859375 C 188.8125 105.996094 188.480469 106.097656 188.132812 106.164062 C 187.789062 106.234375 187.441406 106.269531 187.089844 106.269531 C 186.738281 106.269531 186.390625 106.234375 186.046875 106.164062 C 185.703125 106.097656 185.367188 105.996094 185.042969 105.859375 C 184.71875 105.726562 184.410156 105.5625 184.117188 105.367188 C 183.828125 105.171875 183.554688 104.949219 183.308594 104.703125 C 183.058594 104.453125 182.835938 104.183594 182.644531 103.890625 C 182.449219 103.597656 182.28125 103.289062 182.148438 102.964844 C 182.015625 102.640625 181.914062 102.308594 181.84375 101.960938 C 181.773438 101.617188 181.742188 101.269531 181.742188 100.917969 Z M 181.742188 100.917969 "/></g><path style=" stroke:none;fill-rule:nonzero;fill:#063770;fill-opacity:1;" d="M 277.671875 110.433594 C 277.6875 108.640625 277.351562 106.914062 276.664062 105.253906 C 275.976562 103.59375 274.992188 102.136719 273.710938 100.878906 C 273.074219 100.269531 272.386719 99.726562 271.644531 99.25 C 270.902344 98.773438 270.121094 98.371094 269.304688 98.042969 C 268.484375 97.714844 267.644531 97.464844 266.777344 97.300781 C 265.910156 97.132812 265.039062 97.050781 264.15625 97.050781 C 263.273438 97.050781 262.398438 97.132812 261.535156 97.300781 C 260.667969 97.464844 259.828125 97.714844 259.007812 98.042969 C 258.191406 98.371094 257.410156 98.773438 256.667969 99.25 C 255.925781 99.726562 255.238281 100.269531 254.597656 100.878906 L 238.753906 116.722656 C 238.128906 117.351562 237.566406 118.035156 237.074219 118.773438 C 236.582031 119.511719 236.167969 120.289062 235.828125 121.109375 C 235.492188 121.929688 235.234375 122.773438 235.0625 123.644531 C 234.890625 124.515625 234.804688 125.394531 234.804688 126.28125 C 234.804688 127.167969 234.890625 128.046875 235.0625 128.914062 C 235.234375 129.785156 235.492188 130.628906 235.828125 131.449219 C 236.167969 132.269531 236.582031 133.050781 237.074219 133.789062 C 237.566406 134.523438 238.128906 135.207031 238.753906 135.835938 C 239.378906 136.464844 240.0625 137.027344 240.800781 137.519531 C 241.539062 138.011719 242.316406 138.429688 243.136719 138.769531 C 243.957031 139.109375 244.800781 139.367188 245.671875 139.539062 C 246.542969 139.710938 247.421875 139.800781 248.308594 139.800781 C 249.199219 139.800781 250.078125 139.710938 250.945312 139.539062 C 251.816406 139.367188 252.664062 139.109375 253.484375 138.769531 C 254.300781 138.429688 255.082031 138.011719 255.820312 137.519531 C 256.558594 137.027344 257.238281 136.464844 257.867188 135.835938 L 273.710938 119.992188 C 274.992188 118.730469 275.976562 117.273438 276.664062 115.613281 C 277.351562 113.957031 277.6875 112.230469 277.671875 110.433594 Z M 267.953125 114.230469 L 252.109375 130.078125 C 251.859375 130.328125 251.585938 130.550781 251.292969 130.746094 C 251 130.941406 250.691406 131.109375 250.367188 131.242188 C 250.039062 131.378906 249.703125 131.480469 249.359375 131.546875 C 249.011719 131.617188 248.664062 131.652344 248.308594 131.652344 C 247.957031 131.652344 247.609375 131.617188 247.261719 131.546875 C 246.917969 131.480469 246.582031 131.378906 246.253906 131.242188 C 245.929688 131.109375 245.617188 130.941406 245.324219 130.746094 C 245.03125 130.550781 244.761719 130.328125 244.511719 130.078125 C 244.261719 129.828125 244.039062 129.558594 243.84375 129.265625 C 243.648438 128.972656 243.480469 128.660156 243.347656 128.335938 C 243.210938 128.007812 243.109375 127.675781 243.042969 127.328125 C 242.972656 126.980469 242.9375 126.632812 242.9375 126.28125 C 242.9375 125.925781 242.972656 125.578125 243.042969 125.230469 C 243.109375 124.886719 243.210938 124.550781 243.347656 124.222656 C 243.480469 123.898438 243.648438 123.589844 243.84375 123.296875 C 244.039062 123.003906 244.261719 122.730469 244.511719 122.480469 L 260.359375 106.636719 C 260.605469 106.386719 260.878906 106.164062 261.171875 105.96875 C 261.464844 105.773438 261.773438 105.605469 262.101562 105.472656 C 262.425781 105.335938 262.761719 105.234375 263.109375 105.167969 C 263.453125 105.097656 263.804688 105.0625 264.15625 105.0625 C 264.507812 105.0625 264.859375 105.097656 265.203125 105.167969 C 265.550781 105.234375 265.886719 105.335938 266.210938 105.472656 C 266.539062 105.605469 266.847656 105.773438 267.140625 105.96875 C 267.433594 106.164062 267.703125 106.386719 267.953125 106.636719 C 268.203125 106.886719 268.425781 107.15625 268.621094 107.449219 C 268.816406 107.742188 268.984375 108.054688 269.117188 108.378906 C 269.253906 108.703125 269.355469 109.039062 269.425781 109.386719 C 269.492188 109.730469 269.527344 110.082031 269.527344 110.433594 C 269.527344 110.785156 269.492188 111.136719 269.425781 111.480469 C 269.355469 111.828125 269.253906 112.164062 269.117188 112.488281 C 268.984375 112.816406 268.816406 113.125 268.621094 113.417969 C 268.425781 113.710938 268.203125 113.984375 267.953125 114.230469 Z M 267.953125 114.230469 "/><path style=" stroke:none;fill-rule:nonzero;fill:#063770;fill-opacity:1;" d="M 296.09375 173.980469 L 273.671875 173.980469 C 272.785156 173.980469 271.90625 174.066406 271.035156 174.242188 C 270.164062 174.414062 269.316406 174.671875 268.5 175.011719 C 267.679688 175.351562 266.898438 175.765625 266.160156 176.257812 C 265.421875 176.753906 264.742188 177.3125 264.113281 177.941406 C 263.484375 178.566406 262.925781 179.25 262.429688 179.988281 C 261.9375 180.726562 261.523438 181.503906 261.183594 182.324219 C 260.84375 183.144531 260.585938 183.992188 260.414062 184.863281 C 260.238281 185.730469 260.152344 186.613281 260.152344 187.5 C 260.152344 188.386719 260.238281 189.265625 260.414062 190.136719 C 260.585938 191.007812 260.84375 191.851562 261.183594 192.671875 C 261.523438 193.492188 261.9375 194.269531 262.429688 195.007812 C 262.925781 195.746094 263.484375 196.429688 264.113281 197.058594 C 264.742188 197.683594 265.421875 198.246094 266.160156 198.738281 C 266.898438 199.230469 267.679688 199.648438 268.5 199.988281 C 269.316406 200.328125 270.164062 200.585938 271.035156 200.757812 C 271.90625 200.929688 272.785156 201.015625 273.671875 201.015625 L 296.09375 201.015625 C 296.980469 201.019531 297.859375 200.933594 298.730469 200.757812 C 299.601562 200.585938 300.449219 200.332031 301.269531 199.992188 C 302.089844 199.652344 302.871094 199.238281 303.609375 198.742188 C 304.347656 198.25 305.03125 197.691406 305.660156 197.0625 C 306.289062 196.433594 306.847656 195.75 307.34375 195.011719 C 307.835938 194.273438 308.253906 193.496094 308.59375 192.675781 C 308.933594 191.855469 309.191406 191.007812 309.363281 190.136719 C 309.535156 189.265625 309.625 188.386719 309.625 187.5 C 309.625 186.609375 309.535156 185.730469 309.363281 184.859375 C 309.191406 183.988281 308.933594 183.144531 308.59375 182.324219 C 308.253906 181.503906 307.835938 180.722656 307.34375 179.984375 C 306.847656 179.246094 306.289062 178.5625 305.660156 177.9375 C 305.03125 177.308594 304.347656 176.746094 303.609375 176.253906 C 302.871094 175.761719 302.089844 175.34375 301.269531 175.007812 C 300.449219 174.667969 299.601562 174.410156 298.730469 174.238281 C 297.859375 174.066406 296.980469 173.980469 296.09375 173.980469 Z M 296.09375 192.847656 L 273.671875 192.847656 C 273.320312 192.847656 272.972656 192.816406 272.628906 192.746094 C 272.28125 192.675781 271.949219 192.578125 271.625 192.441406 C 271.300781 192.308594 270.992188 192.140625 270.699219 191.949219 C 270.40625 191.753906 270.136719 191.53125 269.886719 191.28125 C 269.640625 191.035156 269.417969 190.761719 269.222656 190.472656 C 269.027344 190.179688 268.863281 189.871094 268.730469 189.546875 C 268.59375 189.222656 268.492188 188.886719 268.425781 188.542969 C 268.355469 188.199219 268.320312 187.851562 268.320312 187.5 C 268.320312 187.148438 268.355469 186.800781 268.425781 186.457031 C 268.492188 186.109375 268.59375 185.777344 268.730469 185.453125 C 268.863281 185.128906 269.027344 184.820312 269.222656 184.527344 C 269.417969 184.234375 269.640625 183.964844 269.886719 183.714844 C 270.136719 183.46875 270.40625 183.246094 270.699219 183.050781 C 270.992188 182.855469 271.300781 182.691406 271.625 182.554688 C 271.949219 182.421875 272.28125 182.320312 272.628906 182.25 C 272.972656 182.183594 273.320312 182.148438 273.671875 182.148438 L 296.09375 182.148438 C 296.445312 182.148438 296.792969 182.183594 297.136719 182.25 C 297.480469 182.320312 297.816406 182.421875 298.140625 182.554688 C 298.464844 182.691406 298.773438 182.855469 299.066406 183.050781 C 299.355469 183.246094 299.628906 183.46875 299.875 183.714844 C 300.125 183.964844 300.347656 184.234375 300.539062 184.527344 C 300.734375 184.820312 300.902344 185.128906 301.035156 185.453125 C 301.167969 185.777344 301.269531 186.109375 301.339844 186.457031 C 301.410156 186.800781 301.441406 187.148438 301.441406 187.5 C 301.441406 187.851562 301.410156 188.199219 301.339844 188.542969 C 301.269531 188.886719 301.167969 189.222656 301.035156 189.546875 C 300.902344 189.871094 300.734375 190.179688 300.539062 190.472656 C 300.347656 190.761719 300.125 191.035156 299.875 191.28125 C 299.628906 191.53125 299.355469 191.753906 299.066406 191.949219 C 298.773438 192.140625 298.464844 192.308594 298.140625 192.441406 C 297.816406 192.578125 297.480469 192.675781 297.136719 192.746094 C 296.792969 192.816406 296.445312 192.847656 296.09375 192.847656 Z M 296.09375 192.847656 "/><path style=" stroke:none;fill-rule:nonzero;fill:#063770;fill-opacity:1;" d="M 254.597656 274.121094 C 255.226562 274.746094 255.910156 275.308594 256.648438 275.800781 C 257.386719 276.292969 258.164062 276.710938 258.984375 277.050781 C 259.804688 277.390625 260.648438 277.644531 261.519531 277.820312 C 262.390625 277.992188 263.269531 278.078125 264.15625 278.078125 C 265.042969 278.078125 265.921875 277.992188 266.792969 277.820312 C 267.664062 277.644531 268.507812 277.390625 269.328125 277.050781 C 270.148438 276.710938 270.925781 276.292969 271.664062 275.800781 C 272.402344 275.308594 273.085938 274.746094 273.710938 274.121094 C 274.339844 273.492188 274.898438 272.808594 275.394531 272.074219 C 275.886719 271.335938 276.300781 270.554688 276.640625 269.734375 C 276.980469 268.914062 277.238281 268.070312 277.410156 267.199219 C 277.585938 266.328125 277.671875 265.449219 277.671875 264.5625 C 277.671875 263.675781 277.585938 262.796875 277.410156 261.925781 C 277.238281 261.058594 276.980469 260.210938 276.640625 259.390625 C 276.300781 258.570312 275.886719 257.792969 275.394531 257.054688 C 274.898438 256.316406 274.339844 255.632812 273.710938 255.007812 L 257.867188 239.160156 C 257.238281 238.535156 256.554688 237.972656 255.820312 237.480469 C 255.082031 236.988281 254.300781 236.570312 253.480469 236.230469 C 252.660156 235.890625 251.816406 235.636719 250.945312 235.460938 C 250.074219 235.289062 249.199219 235.203125 248.308594 235.203125 C 247.421875 235.203125 246.542969 235.289062 245.671875 235.460938 C 244.804688 235.636719 243.957031 235.890625 243.136719 236.230469 C 242.316406 236.570312 241.539062 236.988281 240.800781 237.480469 C 240.0625 237.972656 239.378906 238.535156 238.753906 239.160156 C 238.125 239.789062 237.566406 240.472656 237.074219 241.210938 C 236.578125 241.945312 236.164062 242.726562 235.824219 243.546875 C 235.484375 244.367188 235.226562 245.210938 235.054688 246.082031 C 234.882812 246.953125 234.792969 247.832031 234.796875 248.71875 C 234.792969 249.605469 234.882812 250.484375 235.054688 251.355469 C 235.226562 252.226562 235.484375 253.070312 235.824219 253.890625 C 236.164062 254.710938 236.578125 255.488281 237.074219 256.226562 C 237.566406 256.964844 238.125 257.648438 238.753906 258.273438 Z M 244.511719 244.917969 C 244.761719 244.671875 245.035156 244.453125 245.328125 244.261719 C 245.625 244.066406 245.933594 243.902344 246.257812 243.769531 C 246.585938 243.636719 246.917969 243.539062 247.265625 243.46875 C 247.609375 243.402344 247.957031 243.367188 248.308594 243.367188 C 248.660156 243.367188 249.011719 243.402344 249.355469 243.46875 C 249.699219 243.539062 250.035156 243.636719 250.363281 243.769531 C 250.6875 243.902344 250.996094 244.066406 251.289062 244.261719 C 251.585938 244.453125 251.855469 244.671875 252.109375 244.917969 L 267.953125 260.765625 C 268.199219 261.015625 268.421875 261.289062 268.613281 261.582031 C 268.804688 261.878906 268.96875 262.1875 269.101562 262.511719 C 269.234375 262.839844 269.335938 263.171875 269.402344 263.519531 C 269.472656 263.863281 269.503906 264.210938 269.503906 264.5625 C 269.503906 264.914062 269.472656 265.265625 269.402344 265.609375 C 269.335938 265.953125 269.234375 266.289062 269.101562 266.617188 C 268.96875 266.941406 268.804688 267.25 268.613281 267.542969 C 268.421875 267.839844 268.199219 268.109375 267.953125 268.363281 C 267.699219 268.601562 267.421875 268.8125 267.128906 269 C 266.832031 269.1875 266.523438 269.347656 266.199219 269.472656 C 265.871094 269.601562 265.539062 269.699219 265.195312 269.765625 C 264.851562 269.832031 264.503906 269.863281 264.15625 269.863281 C 263.804688 269.863281 263.460938 269.832031 263.117188 269.765625 C 262.773438 269.699219 262.4375 269.601562 262.113281 269.472656 C 261.789062 269.347656 261.476562 269.1875 261.183594 269 C 260.886719 268.8125 260.613281 268.601562 260.359375 268.363281 L 244.511719 252.515625 C 244.265625 252.265625 244.042969 251.992188 243.847656 251.699219 C 243.652344 251.40625 243.488281 251.097656 243.355469 250.769531 C 243.222656 250.445312 243.121094 250.109375 243.050781 249.765625 C 242.984375 249.417969 242.949219 249.070312 242.949219 248.71875 C 242.949219 248.367188 242.984375 248.015625 243.050781 247.671875 C 243.121094 247.324219 243.222656 246.992188 243.355469 246.664062 C 243.488281 246.339844 243.652344 246.027344 243.847656 245.734375 C 244.042969 245.441406 244.265625 245.171875 244.511719 244.917969 Z M 244.511719 244.917969 "/><g clip-rule="nonzero" clip-path="url(#5a24c34a74)"><path style=" stroke:none;fill-rule:nonzero;fill:#063770;fill-opacity:1;" d="M 173.574219 274.078125 L 173.574219 296.5 C 173.574219 297.386719 173.660156 298.265625 173.832031 299.136719 C 174.007812 300.007812 174.261719 300.855469 174.601562 301.671875 C 174.941406 302.492188 175.359375 303.273438 175.851562 304.011719 C 176.34375 304.75 176.90625 305.429688 177.53125 306.058594 C 178.160156 306.6875 178.84375 307.246094 179.582031 307.742188 C 180.320312 308.234375 181.097656 308.648438 181.917969 308.988281 C 182.738281 309.328125 183.582031 309.585938 184.453125 309.757812 C 185.324219 309.933594 186.203125 310.019531 187.089844 310.019531 C 187.980469 310.019531 188.859375 309.933594 189.726562 309.757812 C 190.597656 309.585938 191.445312 309.328125 192.265625 308.988281 C 193.085938 308.648438 193.863281 308.234375 194.601562 307.742188 C 195.339844 307.246094 196.023438 306.6875 196.648438 306.058594 C 197.277344 305.429688 197.835938 304.75 198.332031 304.011719 C 198.824219 303.273438 199.242188 302.492188 199.578125 301.671875 C 199.917969 300.855469 200.175781 300.007812 200.347656 299.136719 C 200.523438 298.265625 200.609375 297.386719 200.609375 296.5 L 200.609375 274.078125 C 200.609375 273.191406 200.519531 272.3125 200.347656 271.445312 C 200.171875 270.574219 199.917969 269.730469 199.578125 268.910156 C 199.234375 268.089844 198.820312 267.3125 198.328125 266.574219 C 197.832031 265.839844 197.273438 265.15625 196.644531 264.53125 C 196.015625 263.902344 195.335938 263.34375 194.597656 262.851562 C 193.859375 262.359375 193.082031 261.941406 192.261719 261.601562 C 191.441406 261.261719 190.597656 261.007812 189.726562 260.835938 C 188.855469 260.660156 187.976562 260.574219 187.089844 260.574219 C 186.203125 260.574219 185.324219 260.660156 184.457031 260.835938 C 183.585938 261.007812 182.742188 261.261719 181.921875 261.601562 C 181.101562 261.941406 180.324219 262.359375 179.585938 262.851562 C 178.847656 263.34375 178.164062 263.902344 177.535156 264.53125 C 176.910156 265.15625 176.347656 265.839844 175.855469 266.574219 C 175.363281 267.3125 174.945312 268.089844 174.605469 268.910156 C 174.265625 269.730469 174.007812 270.574219 173.835938 271.445312 C 173.660156 272.3125 173.574219 273.191406 173.574219 274.078125 Z M 192.441406 274.078125 L 192.441406 296.5 C 192.441406 296.851562 192.40625 297.199219 192.339844 297.542969 C 192.269531 297.890625 192.167969 298.222656 192.035156 298.546875 C 191.898438 298.871094 191.734375 299.179688 191.539062 299.472656 C 191.34375 299.765625 191.121094 300.035156 190.875 300.285156 C 190.625 300.53125 190.355469 300.753906 190.0625 300.949219 C 189.769531 301.144531 189.464844 301.308594 189.136719 301.441406 C 188.8125 301.578125 188.480469 301.679688 188.132812 301.746094 C 187.789062 301.816406 187.441406 301.851562 187.089844 301.851562 C 186.738281 301.851562 186.390625 301.816406 186.046875 301.746094 C 185.703125 301.679688 185.367188 301.578125 185.042969 301.441406 C 184.71875 301.308594 184.410156 301.144531 184.117188 300.949219 C 183.828125 300.753906 183.554688 300.53125 183.308594 300.285156 C 183.058594 300.035156 182.835938 299.765625 182.644531 299.472656 C 182.449219 299.179688 182.28125 298.871094 182.148438 298.546875 C 182.015625 298.222656 181.914062 297.890625 181.84375 297.542969 C 181.773438 297.199219 181.742188 296.851562 181.742188 296.5 L 181.742188 274.078125 C 181.742188 273.726562 181.773438 273.378906 181.84375 273.035156 C 181.914062 272.691406 182.015625 272.355469 182.148438 272.03125 C 182.28125 271.707031 182.449219 271.398438 182.644531 271.105469 C 182.835938 270.816406 183.058594 270.542969 183.308594 270.296875 C 183.554688 270.046875 183.828125 269.828125 184.117188 269.632812 C 184.410156 269.4375 184.71875 269.269531 185.042969 269.136719 C 185.367188 269.003906 185.703125 268.902344 186.046875 268.832031 C 186.390625 268.765625 186.738281 268.730469 187.089844 268.730469 C 187.441406 268.730469 187.789062 268.765625 188.132812 268.832031 C 188.480469 268.902344 188.8125 269.003906 189.136719 269.136719 C 189.464844 269.269531 189.769531 269.4375 190.0625 269.632812 C 190.355469 269.828125 190.625 270.046875 190.875 270.296875 C 191.121094 270.542969 191.34375 270.816406 191.539062 271.105469 C 191.734375 271.398438 191.898438 271.707031 192.035156 272.03125 C 192.167969 272.355469 192.269531 272.691406 192.339844 273.035156 C 192.40625 273.378906 192.441406 273.726562 192.441406 274.078125 Z M 192.441406 274.078125 "/></g><path style=" stroke:none;fill-rule:nonzero;fill:#063770;fill-opacity:1;" d="M 96.507812 264.5625 C 96.507812 265.902344 96.703125 267.207031 97.089844 268.488281 C 97.476562 269.769531 98.042969 270.964844 98.785156 272.074219 C 99.527344 273.1875 100.414062 274.167969 101.449219 275.015625 C 102.480469 275.863281 103.617188 276.542969 104.851562 277.054688 C 106.085938 277.566406 107.371094 277.886719 108.699219 278.019531 C 110.03125 278.148438 111.351562 278.085938 112.664062 277.824219 C 113.972656 277.5625 115.21875 277.117188 116.398438 276.484375 C 117.574219 275.855469 118.636719 275.066406 119.582031 274.121094 L 135.429688 258.273438 C 136.054688 257.648438 136.617188 256.964844 137.109375 256.226562 C 137.601562 255.488281 138.019531 254.710938 138.359375 253.890625 C 138.699219 253.070312 138.953125 252.226562 139.128906 251.355469 C 139.300781 250.484375 139.386719 249.605469 139.386719 248.71875 C 139.386719 247.832031 139.300781 246.953125 139.128906 246.082031 C 138.953125 245.210938 138.699219 244.367188 138.359375 243.546875 C 138.019531 242.726562 137.601562 241.945312 137.109375 241.210938 C 136.617188 240.472656 136.054688 239.789062 135.429688 239.160156 C 134.800781 238.535156 134.117188 237.972656 133.378906 237.480469 C 132.644531 236.988281 131.863281 236.570312 131.042969 236.230469 C 130.222656 235.890625 129.378906 235.636719 128.507812 235.460938 C 127.636719 235.289062 126.757812 235.203125 125.871094 235.203125 C 124.984375 235.203125 124.105469 235.289062 123.234375 235.460938 C 122.363281 235.636719 121.519531 235.890625 120.699219 236.230469 C 119.878906 236.570312 119.101562 236.988281 118.363281 237.480469 C 117.625 237.972656 116.941406 238.535156 116.316406 239.160156 L 100.46875 255.007812 C 99.191406 256.265625 98.207031 257.726562 97.519531 259.382812 C 96.832031 261.042969 96.496094 262.769531 96.507812 264.5625 Z M 106.226562 260.765625 L 122.074219 244.917969 C 122.324219 244.671875 122.59375 244.449219 122.886719 244.25 C 123.179688 244.054688 123.492188 243.890625 123.816406 243.753906 C 124.140625 243.621094 124.476562 243.519531 124.824219 243.449219 C 125.171875 243.382812 125.519531 243.347656 125.871094 243.347656 C 126.226562 243.347656 126.574219 243.382812 126.921875 243.449219 C 127.265625 243.519531 127.601562 243.621094 127.925781 243.753906 C 128.253906 243.890625 128.5625 244.054688 128.855469 244.25 C 129.148438 244.449219 129.421875 244.671875 129.671875 244.917969 C 129.917969 245.167969 130.140625 245.441406 130.339844 245.734375 C 130.535156 246.027344 130.699219 246.335938 130.835938 246.664062 C 130.96875 246.988281 131.070312 247.324219 131.140625 247.671875 C 131.207031 248.015625 131.242188 248.363281 131.242188 248.71875 C 131.242188 249.070312 131.207031 249.417969 131.140625 249.765625 C 131.070312 250.113281 130.96875 250.449219 130.835938 250.773438 C 130.699219 251.097656 130.535156 251.410156 130.339844 251.703125 C 130.140625 251.996094 129.917969 252.265625 129.671875 252.515625 L 113.824219 268.363281 C 113.570312 268.601562 113.292969 268.8125 113 269 C 112.703125 269.1875 112.394531 269.347656 112.066406 269.472656 C 111.742188 269.601562 111.410156 269.699219 111.066406 269.765625 C 110.722656 269.832031 110.375 269.863281 110.027344 269.863281 C 109.675781 269.863281 109.332031 269.832031 108.988281 269.765625 C 108.644531 269.699219 108.308594 269.601562 107.984375 269.472656 C 107.660156 269.347656 107.347656 269.1875 107.054688 269 C 106.757812 268.8125 106.484375 268.601562 106.226562 268.363281 C 105.980469 268.109375 105.761719 267.839844 105.570312 267.542969 C 105.375 267.25 105.210938 266.941406 105.078125 266.617188 C 104.945312 266.289062 104.84375 265.953125 104.777344 265.609375 C 104.710938 265.265625 104.675781 264.914062 104.675781 264.5625 C 104.675781 264.210938 104.710938 263.863281 104.777344 263.519531 C 104.84375 263.171875 104.945312 262.839844 105.078125 262.511719 C 105.210938 262.1875 105.375 261.878906 105.570312 261.582031 C 105.761719 261.289062 105.980469 261.015625 106.226562 260.765625 Z M 106.226562 260.765625 "/><path style=" stroke:none;fill-rule:nonzero;fill:#063770;fill-opacity:1;" d="M 135.429688 135.835938 C 136.054688 135.207031 136.613281 134.523438 137.105469 133.789062 C 137.597656 133.050781 138.011719 132.269531 138.351562 131.449219 C 138.691406 130.628906 138.945312 129.785156 139.121094 128.914062 C 139.292969 128.046875 139.378906 127.167969 139.378906 126.28125 C 139.378906 125.394531 139.292969 124.515625 139.121094 123.644531 C 138.945312 122.773438 138.691406 121.929688 138.351562 121.109375 C 138.011719 120.289062 137.597656 119.511719 137.105469 118.773438 C 136.613281 118.035156 136.054688 117.351562 135.429688 116.722656 L 119.582031 100.878906 C 118.945312 100.269531 118.253906 99.726562 117.515625 99.25 C 116.773438 98.773438 115.992188 98.371094 115.171875 98.042969 C 114.355469 97.714844 113.511719 97.464844 112.648438 97.300781 C 111.78125 97.132812 110.90625 97.050781 110.027344 97.050781 C 109.144531 97.050781 108.269531 97.132812 107.40625 97.300781 C 106.539062 97.464844 105.695312 97.714844 104.878906 98.042969 C 104.058594 98.371094 103.28125 98.773438 102.539062 99.25 C 101.796875 99.726562 101.109375 100.269531 100.46875 100.878906 C 99.839844 101.503906 99.28125 102.1875 98.789062 102.925781 C 98.292969 103.664062 97.878906 104.441406 97.539062 105.261719 C 97.199219 106.082031 96.941406 106.925781 96.765625 107.796875 C 96.59375 108.667969 96.507812 109.546875 96.507812 110.433594 C 96.507812 111.320312 96.59375 112.199219 96.765625 113.070312 C 96.941406 113.941406 97.199219 114.785156 97.539062 115.605469 C 97.878906 116.425781 98.292969 117.207031 98.789062 117.941406 C 99.28125 118.679688 99.839844 119.363281 100.46875 119.992188 L 116.316406 135.835938 C 116.941406 136.464844 117.625 137.027344 118.363281 137.519531 C 119.101562 138.011719 119.878906 138.429688 120.699219 138.769531 C 121.519531 139.109375 122.363281 139.367188 123.234375 139.539062 C 124.105469 139.710938 124.984375 139.800781 125.871094 139.800781 C 126.757812 139.800781 127.640625 139.710938 128.507812 139.539062 C 129.378906 139.367188 130.226562 139.109375 131.042969 138.769531 C 131.863281 138.429688 132.644531 138.011719 133.382812 137.519531 C 134.117188 137.027344 134.800781 136.464844 135.429688 135.835938 Z M 106.226562 114.230469 C 105.980469 113.984375 105.757812 113.710938 105.558594 113.417969 C 105.363281 113.125 105.199219 112.816406 105.0625 112.488281 C 104.929688 112.164062 104.828125 111.828125 104.757812 111.480469 C 104.6875 111.136719 104.65625 110.785156 104.65625 110.433594 C 104.65625 110.082031 104.6875 109.730469 104.757812 109.386719 C 104.828125 109.039062 104.929688 108.703125 105.0625 108.378906 C 105.199219 108.054688 105.363281 107.742188 105.558594 107.449219 C 105.757812 107.15625 105.980469 106.886719 106.226562 106.636719 C 106.476562 106.386719 106.75 106.164062 107.042969 105.96875 C 107.335938 105.773438 107.644531 105.605469 107.96875 105.472656 C 108.296875 105.335938 108.632812 105.234375 108.976562 105.167969 C 109.324219 105.097656 109.671875 105.0625 110.027344 105.0625 C 110.378906 105.0625 110.726562 105.097656 111.074219 105.167969 C 111.421875 105.234375 111.757812 105.335938 112.082031 105.472656 C 112.40625 105.605469 112.71875 105.773438 113.011719 105.96875 C 113.304688 106.164062 113.574219 106.386719 113.824219 106.636719 L 129.671875 122.480469 C 129.917969 122.730469 130.140625 123.003906 130.339844 123.296875 C 130.535156 123.589844 130.699219 123.898438 130.835938 124.222656 C 130.96875 124.550781 131.070312 124.886719 131.140625 125.230469 C 131.207031 125.578125 131.242188 125.925781 131.242188 126.28125 C 131.242188 126.632812 131.207031 126.980469 131.140625 127.328125 C 131.070312 127.675781 130.96875 128.007812 130.835938 128.335938 C 130.699219 128.660156 130.535156 128.972656 130.339844 129.265625 C 130.140625 129.558594 129.917969 129.828125 129.671875 130.078125 C 129.421875 130.328125 129.148438 130.550781 128.855469 130.746094 C 128.5625 130.941406 128.253906 131.109375 127.925781 131.242188 C 127.601562 131.378906 127.265625 131.480469 126.921875 131.546875 C 126.574219 131.617188 126.226562 131.652344 125.871094 131.652344 C 125.519531 131.652344 125.171875 131.617188 124.824219 131.546875 C 124.476562 131.480469 124.140625 131.378906 123.816406 131.242188 C 123.492188 131.109375 123.179688 130.941406 122.886719 130.746094 C 122.59375 130.550781 122.324219 130.328125 122.074219 130.078125 Z M 106.226562 114.230469 "/></g></svg>