<svg xmlns="http://www.w3.org/2000/svg" xmlns:xlink="http://www.w3.org/1999/xlink" width="500" zoomAndPan="magnify" viewBox="0 0 375 374.999991" height="500" preserveAspectRatio="xMidYMid meet" version="1.2"><defs><clipPath id="b89b3af4a3"><path d="M 44.703125 44.703125 L 330.453125 44.703125 L 330.453125 330.453125 L 44.703125 330.453125 Z M 44.703125 44.703125 "/></clipPath></defs><g id="98e610a437"><path style=" stroke:none;fill-rule:nonzero;fill:#ffffff;fill-opacity:1;" d="M 225.414062 302.984375 C 214.148438 302.984375 208.421875 297.535156 203.371094 292.726562 C 198.796875 288.367188 195.183594 284.925781 187.484375 284.925781 C 179.789062 284.925781 176.171875 288.367188 171.597656 292.726562 C 166.546875 297.535156 160.824219 302.984375 149.554688 302.984375 C 138.285156 302.984375 132.5625 297.535156 127.511719 292.722656 C 122.9375 288.367188 119.324219 284.925781 111.632812 284.925781 C 104.519531 284.925781 100.839844 287.894531 96.417969 292.085938 C 94.628906 293.78125 91.804688 293.703125 90.109375 291.917969 C 88.414062 290.128906 88.488281 287.304688 90.277344 285.609375 C 95.617188 280.546875 101.265625 276 111.632812 276 C 122.894531 276 128.617188 281.449219 133.667969 286.261719 C 138.242188 290.621094 141.859375 294.0625 149.554688 294.0625 C 157.253906 294.0625 160.867188 290.621094 165.441406 286.261719 C 170.492188 281.453125 176.21875 276 187.484375 276 C 198.753906 276 204.476562 281.453125 209.527344 286.261719 C 214.101562 290.621094 217.71875 294.0625 225.414062 294.0625 C 233.109375 294.0625 236.726562 290.621094 241.300781 286.261719 C 246.351562 281.453125 252.074219 276 263.34375 276 C 273.710938 276 279.367188 280.546875 284.710938 285.613281 C 286.496094 287.308594 286.574219 290.132812 284.875 291.921875 C 283.179688 293.710938 280.355469 293.785156 278.566406 292.089844 C 274.144531 287.894531 270.464844 284.925781 263.34375 284.925781 C 255.644531 284.925781 252.03125 288.367188 247.457031 292.726562 C 242.40625 297.535156 236.683594 302.984375 225.414062 302.984375 Z M 225.414062 302.984375 "/><path style=" stroke:none;fill-rule:nonzero;fill:#ffffff;fill-opacity:1;" d="M 225.414062 272.464844 C 214.148438 272.464844 208.421875 267.011719 203.371094 262.203125 C 198.796875 257.84375 195.183594 254.402344 187.484375 254.402344 C 179.789062 254.402344 176.171875 257.84375 171.597656 262.203125 C 166.546875 267.011719 160.824219 272.464844 149.554688 272.464844 C 138.285156 272.464844 132.5625 267.011719 127.511719 262.199219 C 122.9375 257.84375 119.324219 254.402344 111.632812 254.402344 C 103.933594 254.402344 100.320312 257.84375 95.746094 262.203125 C 90.9375 266.78125 85.488281 271.972656 75.175781 272.433594 C 72.722656 272.527344 70.632812 270.632812 70.523438 268.171875 C 70.414062 265.710938 72.320312 263.625 74.78125 263.515625 C 81.753906 263.207031 85.210938 259.910156 89.589844 255.742188 C 94.640625 250.929688 100.363281 245.480469 111.632812 245.480469 C 122.894531 245.480469 128.617188 250.929688 133.667969 255.738281 C 138.242188 260.097656 141.859375 263.539062 149.554688 263.539062 C 157.253906 263.539062 160.867188 260.097656 165.441406 255.742188 C 170.492188 250.929688 176.21875 245.480469 187.484375 245.480469 C 198.753906 245.480469 204.476562 250.929688 209.527344 255.742188 C 214.101562 260.097656 217.71875 263.539062 225.414062 263.539062 C 233.109375 263.539062 236.726562 260.097656 241.300781 255.742188 C 246.351562 250.929688 252.074219 245.480469 263.34375 245.480469 C 274.617188 245.480469 280.339844 250.929688 285.390625 255.742188 C 289.773438 259.914062 293.230469 263.207031 300.210938 263.515625 C 302.671875 263.625 304.578125 265.710938 304.46875 268.171875 C 304.359375 270.636719 302.253906 272.535156 299.8125 272.433594 C 289.496094 271.976562 284.046875 266.785156 279.238281 262.203125 C 274.660156 257.847656 271.046875 254.402344 263.34375 254.402344 C 255.644531 254.402344 252.03125 257.847656 247.457031 262.203125 C 242.40625 267.011719 236.683594 272.464844 225.414062 272.464844 Z M 225.414062 272.464844 "/><g clip-rule="nonzero" clip-path="url(#b89b3af4a3)"><path style=" stroke:none;fill-rule:nonzero;fill:#ffffff;fill-opacity:1;" d="M 187.496094 330.289062 C 149.355469 330.289062 113.496094 315.4375 86.527344 288.46875 C 59.554688 261.496094 44.703125 225.640625 44.703125 187.496094 C 44.703125 157.605469 54.316406 128.59375 72.503906 103.589844 C 73.953125 101.597656 76.746094 101.15625 78.738281 102.609375 C 80.730469 104.058594 81.171875 106.847656 79.722656 108.839844 C 62.652344 132.304688 53.628906 159.503906 53.628906 187.496094 C 53.628906 261.3125 113.679688 321.363281 187.496094 321.363281 C 261.3125 321.363281 321.363281 261.3125 321.363281 187.496094 C 321.363281 113.679688 261.3125 53.628906 187.496094 53.628906 C 185.03125 53.628906 183.035156 51.628906 183.035156 49.164062 C 183.035156 46.703125 185.03125 44.703125 187.496094 44.703125 C 225.640625 44.703125 261.496094 59.554688 288.46875 86.527344 C 315.4375 113.496094 330.289062 149.355469 330.289062 187.496094 C 330.289062 225.640625 315.4375 261.496094 288.46875 288.46875 C 261.496094 315.4375 225.640625 330.289062 187.496094 330.289062 Z M 187.496094 330.289062 "/></g><path style=" stroke:none;fill-rule:nonzero;fill:#ffffff;fill-opacity:1;" d="M 80.398438 132.835938 C 78.3125 132.835938 76.449219 131.367188 76.027344 129.246094 L 72.617188 112.195312 L 55.285156 119.128906 C 52.996094 120.042969 50.398438 118.929688 49.484375 116.640625 C 48.570312 114.351562 49.683594 111.757812 51.972656 110.839844 L 74.28125 101.917969 C 75.515625 101.425781 76.902344 101.503906 78.066406 102.136719 C 79.230469 102.769531 80.054688 103.886719 80.316406 105.183594 L 84.777344 127.496094 C 85.261719 129.914062 83.695312 132.261719 81.277344 132.746094 C 80.980469 132.804688 80.6875 132.835938 80.398438 132.835938 Z M 80.398438 132.835938 "/><path style=" stroke:none;fill-rule:nonzero;fill:#ffffff;fill-opacity:1;" d="M 183.035156 227.65625 C 153.507812 227.65625 129.488281 203.636719 129.488281 174.109375 C 129.488281 161.839844 138.066406 144.730469 154.988281 123.253906 C 167.285156 107.644531 179.378906 95.589844 179.890625 95.085938 C 181.628906 93.355469 184.4375 93.355469 186.179688 95.085938 C 187.152344 96.050781 210.195312 119.039062 224.785156 142.5625 C 226.082031 144.65625 225.4375 147.410156 223.34375 148.707031 C 221.25 150.007812 218.496094 149.359375 217.199219 147.265625 C 206.25 129.609375 189.828125 111.746094 183.019531 104.628906 C 168.132812 120.082031 138.410156 154.894531 138.410156 174.109375 C 138.410156 198.714844 158.429688 218.734375 183.035156 218.734375 C 202.5625 218.734375 219.652344 206.242188 225.5625 187.652344 C 226.308594 185.300781 228.816406 184.003906 231.167969 184.75 C 233.515625 185.496094 234.816406 188.003906 234.066406 190.355469 C 226.976562 212.664062 206.46875 227.65625 183.035156 227.65625 Z M 183.035156 227.65625 "/><path style=" stroke:none;fill-rule:nonzero;fill:#ffffff;fill-opacity:1;" d="M 232.121094 193.582031 C 217.355469 193.582031 205.34375 181.570312 205.34375 166.808594 C 205.34375 153.027344 226.554688 131.5625 228.972656 129.160156 C 230.714844 127.429688 233.523438 127.429688 235.261719 129.160156 C 237.683594 131.5625 258.890625 153.027344 258.890625 166.808594 C 258.894531 181.570312 246.882812 193.582031 232.121094 193.582031 Z M 232.121094 138.746094 C 224.203125 147.25 214.269531 160.125 214.269531 166.808594 C 214.269531 176.648438 222.277344 184.65625 232.121094 184.65625 C 241.960938 184.65625 249.96875 176.648438 249.96875 166.808594 C 249.96875 160.113281 240.035156 147.242188 232.121094 138.746094 Z M 232.121094 138.746094 "/></g></svg>