<svg xmlns="http://www.w3.org/2000/svg" xmlns:xlink="http://www.w3.org/1999/xlink" width="500" zoomAndPan="magnify" viewBox="0 0 375 374.999991" height="500" preserveAspectRatio="xMidYMid meet" version="1.2"><defs><clipPath id="1c67b464ba"><path d="M 60.910156 60.910156 L 314.410156 60.910156 L 314.410156 314.410156 L 60.910156 314.410156 Z M 60.910156 60.910156 "/></clipPath></defs><g id="17cba93473"><g clip-rule="nonzero" clip-path="url(#1c67b464ba)"><path style=" stroke:none;fill-rule:nonzero;fill:#063770;fill-opacity:1;" d="M 277.003906 97.984375 C 253.097656 74.078125 221.308594 60.910156 187.496094 60.910156 C 185.308594 60.910156 183.539062 62.679688 183.539062 64.867188 C 183.539062 67.050781 185.308594 68.820312 187.496094 68.820312 C 252.933594 68.820312 306.171875 122.054688 306.171875 187.496094 C 306.171875 212.414062 298.453125 235.558594 285.277344 254.671875 C 283.667969 257.019531 281.964844 259.304688 280.191406 261.523438 C 275.203125 259.796875 271.867188 256.625 268.824219 253.71875 C 264.769531 249.859375 261.5625 246.808594 254.734375 246.808594 C 247.910156 246.808594 244.707031 249.859375 240.652344 253.71875 C 236.171875 257.988281 231.097656 262.820312 221.109375 262.820312 C 211.121094 262.820312 206.050781 257.988281 201.570312 253.71875 C 197.515625 249.859375 194.308594 246.808594 187.484375 246.808594 C 180.660156 246.808594 177.457031 249.859375 173.402344 253.71875 C 168.921875 257.988281 163.851562 262.820312 153.863281 262.820312 C 143.875 262.820312 138.800781 257.988281 134.320312 253.71875 C 130.265625 249.859375 127.0625 246.808594 120.242188 246.808594 C 113.417969 246.808594 110.214844 249.859375 106.160156 253.71875 C 103.117188 256.617188 99.785156 259.792969 94.800781 261.519531 C 93.019531 259.296875 91.324219 257.011719 89.714844 254.671875 C 76.539062 235.558594 68.820312 212.414062 68.820312 187.496094 C 68.820312 165.769531 74.957031 144.574219 86.640625 125.675781 L 88.679688 135.859375 C 89.054688 137.734375 90.707031 139.035156 92.550781 139.035156 C 92.808594 139.035156 93.070312 139.011719 93.332031 138.957031 C 95.472656 138.53125 96.863281 136.445312 96.433594 134.304688 L 92.703125 115.65625 L 92.703125 115.652344 L 92.476562 114.527344 C 92.3125 113.691406 91.878906 112.9375 91.261719 112.378906 C 91.257812 112.371094 91.25 112.367188 91.242188 112.367188 C 91.015625 112.15625 90.761719 111.972656 90.484375 111.828125 C 89.453125 111.261719 88.226562 111.191406 87.132812 111.628906 L 67.351562 119.539062 C 65.324219 120.351562 64.335938 122.65625 65.148438 124.683594 C 65.960938 126.710938 68.261719 127.699219 70.289062 126.886719 L 78.691406 123.527344 C 67.019531 143.164062 60.910156 165.050781 60.910156 187.496094 C 60.910156 221.308594 74.078125 253.097656 97.984375 277.003906 C 99.027344 278.050781 100.085938 279.074219 101.160156 280.066406 C 101.191406 280.097656 101.214844 280.125 101.246094 280.148438 C 101.320312 280.21875 101.386719 280.285156 101.460938 280.351562 C 124.933594 302.140625 155.296875 314.082031 187.496094 314.082031 C 219.6875 314.082031 250.035156 302.140625 273.507812 280.363281 C 273.558594 280.320312 273.605469 280.273438 273.652344 280.230469 C 273.707031 280.175781 273.765625 280.125 273.820312 280.066406 C 274.898438 279.066406 275.960938 278.050781 277.007812 277.007812 C 300.914062 253.097656 314.082031 221.308594 314.082031 187.496094 C 314.082031 153.683594 300.914062 121.894531 277.003906 97.984375 Z M 264.957031 277.34375 C 262.199219 275.210938 259.25 273.867188 254.734375 273.867188 C 247.910156 273.867188 244.707031 276.917969 240.652344 280.777344 C 236.171875 285.046875 231.097656 289.875 221.109375 289.875 C 211.121094 289.875 206.046875 285.046875 201.566406 280.777344 C 197.511719 276.917969 194.308594 273.867188 187.484375 273.867188 C 180.660156 273.867188 177.457031 276.917969 173.402344 280.777344 C 168.921875 285.046875 163.847656 289.875 153.859375 289.875 C 143.875 289.875 138.800781 285.046875 134.320312 280.777344 C 130.265625 276.917969 127.0625 273.867188 120.242188 273.867188 C 115.738281 273.867188 112.78125 275.210938 110.03125 277.332031 C 108.011719 275.589844 106.058594 273.785156 104.167969 271.914062 C 108.175781 268.554688 112.859375 265.953125 120.242188 265.953125 C 130.226562 265.953125 135.296875 270.785156 139.777344 275.050781 C 143.832031 278.914062 147.039062 281.964844 153.859375 281.964844 C 160.683594 281.964844 163.890625 278.914062 167.945312 275.050781 C 172.425781 270.785156 177.496094 265.953125 187.484375 265.953125 C 197.472656 265.953125 202.546875 270.785156 207.027344 275.050781 C 211.082031 278.914062 214.285156 281.964844 221.109375 281.964844 C 227.933594 281.964844 231.136719 278.914062 235.191406 275.050781 C 239.671875 270.785156 244.746094 265.953125 254.734375 265.953125 C 262.121094 265.953125 266.808594 268.554688 270.824219 271.914062 C 268.929688 273.785156 266.972656 275.597656 264.957031 277.34375 Z M 264.957031 277.34375 "/></g><path style=" stroke:none;fill-rule:nonzero;fill:#063770;fill-opacity:1;" d="M 183.539062 215.1875 C 199.378906 215.1875 213.40625 205.917969 219.691406 191.722656 C 210.195312 188.617188 203.320312 179.671875 203.320312 169.15625 C 203.320312 163.304688 207.628906 155.894531 212.359375 149.523438 C 202.710938 134.644531 189.265625 120.035156 183.523438 114.035156 C 170.328125 127.734375 143.980469 158.59375 143.980469 175.628906 C 143.980469 197.4375 161.730469 215.1875 183.539062 215.1875 Z M 183.539062 215.1875 "/><path style=" stroke:none;fill-rule:nonzero;fill:#063770;fill-opacity:1;" d="M 227.054688 184.980469 C 235.777344 184.980469 242.878906 177.878906 242.878906 169.15625 C 242.878906 163.222656 234.074219 151.808594 227.054688 144.277344 C 224.933594 146.554688 222.648438 149.183594 220.496094 151.914062 C 220.378906 152.101562 220.234375 152.285156 220.078125 152.453125 C 220.078125 152.453125 220.066406 152.457031 220.066406 152.460938 C 215.277344 158.601562 211.230469 165.140625 211.230469 169.15625 C 211.230469 177.878906 218.332031 184.980469 227.054688 184.980469 Z M 227.054688 184.980469 "/></g></svg>