<svg xmlns="http://www.w3.org/2000/svg" xmlns:xlink="http://www.w3.org/1999/xlink" width="500" zoomAndPan="magnify" viewBox="0 0 375 374.999991" height="500" preserveAspectRatio="xMidYMid meet" version="1.2"><defs><clipPath id="56aaf029b5"><path d="M 52 90.027344 L 323 90.027344 L 323 285 L 52 285 Z M 52 90.027344 "/></clipPath></defs><g id="bc44d4819a"><path style=" stroke:none;fill-rule:nonzero;fill:#063770;fill-opacity:1;" d="M 96.417969 147.199219 C 95.054688 147.199219 93.953125 148.304688 93.953125 149.664062 L 93.953125 152.898438 C 93.953125 154.261719 95.054688 155.363281 96.417969 155.363281 C 97.78125 155.363281 98.882812 154.261719 98.882812 152.898438 L 98.882812 149.664062 C 98.882812 148.304688 97.777344 147.199219 96.417969 147.199219 Z M 96.417969 147.199219 "/><path style=" stroke:none;fill-rule:nonzero;fill:#063770;fill-opacity:1;" d="M 104.097656 181.578125 C 105.460938 181.578125 106.5625 180.472656 106.5625 179.113281 L 106.5625 175.875 C 106.5625 174.515625 105.460938 173.410156 104.097656 173.410156 C 102.734375 173.410156 101.632812 174.515625 101.632812 175.875 L 101.632812 179.113281 C 101.632812 180.472656 102.734375 181.578125 104.097656 181.578125 Z M 104.097656 181.578125 "/><path style=" stroke:none;fill-rule:nonzero;fill:#063770;fill-opacity:1;" d="M 117.304688 202.9375 C 118.667969 202.9375 119.769531 201.835938 119.769531 200.476562 L 119.769531 197.234375 C 119.769531 195.875 118.667969 194.773438 117.304688 194.773438 C 115.941406 194.773438 114.839844 195.875 114.839844 197.234375 L 114.839844 200.476562 C 114.839844 201.835938 115.941406 202.9375 117.304688 202.9375 Z M 117.304688 202.9375 "/><path style=" stroke:none;fill-rule:nonzero;fill:#063770;fill-opacity:1;" d="M 104.097656 221.773438 C 105.460938 221.773438 106.5625 220.667969 106.5625 219.308594 L 106.5625 216.074219 C 106.5625 214.710938 105.460938 213.609375 104.097656 213.609375 C 102.734375 213.609375 101.632812 214.710938 101.632812 216.074219 L 101.632812 219.308594 C 101.632812 220.667969 102.734375 221.773438 104.097656 221.773438 Z M 104.097656 221.773438 "/><path style=" stroke:none;fill-rule:nonzero;fill:#063770;fill-opacity:1;" d="M 80.285156 220.902344 C 78.921875 220.902344 77.820312 222.007812 77.820312 223.367188 L 77.820312 226.601562 C 77.820312 227.964844 78.921875 229.066406 80.285156 229.066406 C 81.648438 229.066406 82.75 227.964844 82.75 226.601562 L 82.75 223.367188 C 82.75 222.003906 81.644531 220.902344 80.285156 220.902344 Z M 80.285156 220.902344 "/><path style=" stroke:none;fill-rule:nonzero;fill:#063770;fill-opacity:1;" d="M 80.601562 165.660156 C 79.238281 165.660156 78.136719 166.765625 78.136719 168.125 L 78.136719 171.363281 C 78.136719 172.722656 79.238281 173.824219 80.601562 173.824219 C 81.964844 173.824219 83.066406 172.722656 83.066406 171.363281 L 83.066406 168.125 C 83.066406 166.761719 81.960938 165.660156 80.601562 165.660156 Z M 80.601562 165.660156 "/><path style=" stroke:none;fill-rule:nonzero;fill:#063770;fill-opacity:1;" d="M 72.773438 188.515625 C 71.410156 188.515625 70.308594 189.617188 70.308594 190.980469 L 70.308594 194.21875 C 70.308594 195.578125 71.410156 196.683594 72.773438 196.683594 C 74.136719 196.683594 75.238281 195.578125 75.238281 194.21875 L 75.238281 190.980469 C 75.238281 189.617188 74.136719 188.515625 72.773438 188.515625 Z M 72.773438 188.515625 "/><g clip-rule="nonzero" clip-path="url(#56aaf029b5)"><path style=" stroke:none;fill-rule:nonzero;fill:#063770;fill-opacity:1;" d="M 315.457031 182.480469 L 276.910156 116.40625 C 276.46875 115.648438 275.65625 115.183594 274.78125 115.183594 C 273.90625 115.183594 273.09375 115.648438 272.65625 116.40625 L 260.902344 136.546875 C 257.015625 133.148438 254.542969 128.164062 254.542969 122.605469 C 254.542969 121.246094 253.441406 120.140625 252.078125 120.140625 C 250.714844 120.140625 249.613281 121.246094 249.613281 122.605469 L 249.613281 123.285156 C 231.101562 102.144531 204.8125 90.128906 176.433594 90.128906 C 146.925781 90.128906 119.710938 103.109375 101.15625 125.8125 L 98.558594 121.363281 C 98.117188 120.605469 97.308594 120.136719 96.429688 120.136719 C 95.554688 120.136719 94.742188 120.601562 94.300781 121.359375 L 58.582031 182.578125 C 48.148438 200.398438 50.523438 222.703125 64.363281 236.820312 C 72.832031 245.457031 84.21875 250.214844 96.433594 250.214844 C 98.214844 250.214844 99.96875 250.085938 101.679688 249.894531 C 120.195312 272.179688 147.351562 284.960938 176.4375 284.960938 C 205.738281 284.960938 233.113281 271.988281 251.679688 249.363281 C 258.664062 253.15625 266.546875 255.175781 274.785156 255.175781 C 281.429688 255.175781 287.867188 253.867188 293.929688 251.28125 C 299.730469 248.761719 304.886719 245.226562 309.253906 240.773438 C 324.097656 225.640625 326.652344 201.667969 315.457031 182.480469 Z M 260.339844 142.269531 C 260.359375 142.28125 260.371094 142.304688 260.390625 142.316406 C 260.398438 142.324219 260.40625 142.320312 260.414062 142.324219 C 261.359375 142.933594 262.339844 143.484375 263.367188 143.953125 C 258.320312 146.261719 254.226562 150.296875 251.855469 155.304688 C 249.4375 150.710938 245.53125 147.027344 240.792969 144.859375 C 245.839844 142.550781 249.933594 138.515625 252.304688 133.507812 C 254.179688 137.074219 256.972656 140.082031 260.339844 142.269531 Z M 176.433594 95.0625 C 204.746094 95.0625 230.863281 107.664062 248.53125 129.683594 C 245.980469 136.875 239.128906 142.050781 231.070312 142.050781 C 229.710938 142.050781 228.609375 143.152344 228.609375 144.511719 C 228.609375 144.632812 228.660156 144.738281 228.675781 144.855469 C 228.660156 144.972656 228.609375 145.078125 228.609375 145.199219 C 228.609375 146.558594 229.710938 147.664062 231.070312 147.664062 C 238.613281 147.664062 245.101562 152.191406 247.996094 158.667969 L 234.101562 182.476562 C 231.203125 187.429688 229.238281 192.703125 228.15625 198.066406 L 190.28125 176.210938 C 189.519531 175.769531 188.578125 175.769531 187.816406 176.210938 C 187.054688 176.652344 186.585938 177.464844 186.585938 178.347656 L 186.585938 185.609375 L 135.859375 185.609375 C 135.398438 184.644531 134.890625 183.667969 134.277344 182.585938 L 103.8125 130.375 C 121.445312 107.925781 147.800781 95.0625 176.433594 95.0625 Z M 189.050781 211.1875 L 140.414062 211.1875 C 141.167969 204.273438 140.308594 197.121094 137.9375 190.539062 L 189.050781 190.539062 C 190.414062 190.539062 191.515625 189.4375 191.515625 188.074219 L 191.515625 182.613281 L 223.105469 200.847656 L 191.515625 219.109375 L 191.515625 213.652344 C 191.515625 212.292969 190.414062 211.1875 189.050781 211.1875 Z M 67.878906 233.375 C 55.59375 220.84375 53.519531 200.980469 62.835938 185.070312 L 96.425781 127.5 L 98.683594 131.367188 C 98.6875 131.378906 98.695312 131.390625 98.707031 131.40625 L 130.007812 185.042969 C 130.820312 186.480469 131.46875 187.695312 132.015625 189.035156 C 132.023438 189.054688 132.035156 189.074219 132.042969 189.09375 C 135.476562 196.648438 136.585938 205.214844 135.167969 213.238281 C 133.851562 220.964844 130.328125 227.925781 124.984375 233.375 C 121.363281 237.0625 117.089844 239.992188 112.285156 242.074219 C 109.425781 243.308594 106.421875 244.171875 103.34375 244.691406 C 103.015625 244.746094 102.6875 244.816406 102.363281 244.863281 C 102.363281 244.863281 102.359375 244.863281 102.359375 244.863281 C 102.355469 244.863281 102.351562 244.863281 102.347656 244.863281 C 100.445312 245.144531 98.449219 245.285156 96.433594 245.285156 C 85.550781 245.292969 75.414062 241.058594 67.878906 233.375 Z M 176.433594 280.035156 C 149.777344 280.035156 124.808594 268.75 107.296875 248.929688 C 107.488281 248.882812 107.675781 248.8125 107.867188 248.765625 C 108.625 248.566406 109.367188 248.351562 110.113281 248.113281 C 110.449219 248.007812 110.78125 247.910156 111.117188 247.796875 C 112.148438 247.441406 113.171875 247.054688 114.179688 246.625 C 114.195312 246.617188 114.214844 246.613281 114.230469 246.605469 L 114.234375 246.605469 C 119.628906 244.261719 124.429688 240.972656 128.496094 236.832031 C 134.070312 231.148438 137.863281 224.015625 139.59375 216.121094 L 186.582031 216.121094 L 186.582031 223.382812 C 186.582031 224.265625 187.050781 225.082031 187.8125 225.519531 C 188.195312 225.738281 188.617188 225.847656 189.046875 225.847656 C 189.472656 225.847656 189.898438 225.738281 190.28125 225.519531 L 227.324219 204.105469 C 226.277344 217.558594 230.710938 231.003906 240.300781 240.785156 C 242.503906 243.027344 244.890625 245.011719 247.425781 246.753906 C 229.816406 267.90625 204.027344 280.035156 176.433594 280.035156 Z M 305.730469 237.328125 C 301.8125 241.324219 297.179688 244.5 291.976562 246.757812 C 286.546875 249.074219 280.757812 250.25 274.78125 250.25 C 262.988281 250.25 251.996094 245.660156 243.824219 237.328125 C 230.503906 223.742188 228.257812 202.210938 238.359375 184.964844 L 249.585938 165.71875 C 249.589844 165.878906 249.613281 166.039062 249.613281 166.207031 C 249.613281 167.566406 250.714844 168.671875 252.078125 168.671875 C 253.441406 168.671875 254.542969 167.566406 254.542969 166.207031 L 254.542969 165.308594 C 254.542969 155.085938 262.859375 146.769531 273.082031 146.769531 C 274.445312 146.769531 275.546875 145.664062 275.546875 144.304688 C 275.546875 144.183594 275.496094 144.078125 275.476562 143.960938 C 275.496094 143.84375 275.546875 143.738281 275.546875 143.617188 C 275.546875 142.257812 274.445312 141.152344 273.082031 141.152344 C 270.1875 141.152344 267.457031 140.464844 265.011719 139.277344 L 274.78125 122.542969 L 311.199219 184.96875 C 321.28125 202.238281 319.03125 223.773438 305.730469 237.328125 Z M 305.730469 237.328125 "/></g><path style=" stroke:none;fill-rule:nonzero;fill:#063770;fill-opacity:1;" d="M 297.703125 176.410156 C 296.742188 175.449219 295.183594 175.449219 294.21875 176.410156 L 292.769531 177.859375 C 289.613281 175.753906 286.15625 174.234375 282.5 173.351562 C 283.152344 172.910156 283.601562 172.199219 283.601562 171.351562 L 283.601562 170.898438 C 283.601562 166.386719 287.273438 162.71875 291.785156 162.71875 C 293.148438 162.71875 294.25 161.613281 294.25 160.253906 C 294.25 160.191406 294.21875 160.140625 294.214844 160.082031 C 294.21875 160.023438 294.25 159.972656 294.25 159.910156 C 294.25 158.546875 293.148438 157.445312 291.785156 157.445312 C 287.273438 157.445312 283.601562 153.773438 283.601562 149.261719 C 283.601562 147.902344 282.5 146.796875 281.136719 146.796875 C 279.773438 146.796875 278.671875 147.902344 278.671875 149.261719 L 278.671875 149.71875 C 278.671875 154.226562 275.003906 157.898438 270.492188 157.898438 C 269.132812 157.898438 268.03125 159.003906 268.03125 160.363281 C 268.03125 160.425781 268.0625 160.476562 268.066406 160.535156 C 268.0625 160.59375 268.03125 160.644531 268.03125 160.707031 C 268.03125 162.066406 269.132812 163.171875 270.492188 163.171875 C 275.003906 163.171875 278.671875 166.839844 278.671875 171.351562 C 278.671875 171.882812 278.875 172.34375 279.160156 172.746094 C 277.71875 172.554688 276.257812 172.433594 274.773438 172.433594 C 256.796875 172.433594 242.167969 187.054688 242.167969 205.019531 C 242.167969 222.996094 256.800781 237.625 274.773438 237.625 C 292.746094 237.625 307.367188 222.996094 307.367188 205.019531 C 307.367188 200.988281 306.605469 197.105469 305.191406 193.421875 L 308.21875 190.390625 C 308.683594 189.925781 308.941406 189.300781 308.941406 188.644531 C 308.941406 187.992188 308.683594 187.363281 308.21875 186.902344 Z M 277.875 160.539062 C 279.214844 159.621094 280.382812 158.46875 281.304688 157.132812 C 282.167969 158.277344 283.21875 159.273438 284.402344 160.085938 C 283.066406 161 281.894531 162.152344 280.976562 163.488281 C 280.117188 162.34375 279.0625 161.347656 277.875 160.539062 Z M 302.992188 188.65625 L 275.59375 216.070312 L 258.929688 199.40625 L 265.148438 189.4375 L 273.671875 200.066406 C 274.109375 200.613281 274.757812 200.945312 275.460938 200.984375 C 276.15625 201.023438 276.84375 200.761719 277.339844 200.265625 L 295.964844 181.636719 Z M 302.4375 205.023438 C 302.4375 220.285156 290.027344 232.703125 274.773438 232.703125 C 259.515625 232.703125 247.097656 220.285156 247.097656 205.023438 C 247.097656 189.773438 259.515625 177.367188 274.773438 177.367188 C 279.960938 177.367188 284.890625 178.773438 289.199219 181.429688 L 275.796875 194.832031 L 266.820312 183.640625 C 266.320312 183.015625 265.578125 182.652344 264.75 182.71875 C 263.953125 182.765625 263.230469 183.199219 262.804688 183.875 L 253.714844 198.460938 C 253.105469 199.433594 253.25 200.695312 254.0625 201.507812 L 273.851562 221.296875 C 274.316406 221.761719 274.941406 222.019531 275.59375 222.019531 C 276.25 222.019531 276.878906 221.761719 277.339844 221.296875 L 301.316406 197.304688 C 302.039062 199.789062 302.4375 202.371094 302.4375 205.023438 Z M 302.4375 205.023438 "/></g></svg>