<svg xmlns="http://www.w3.org/2000/svg" xmlns:xlink="http://www.w3.org/1999/xlink" width="500" zoomAndPan="magnify" viewBox="0 0 375 374.999991" height="500" preserveAspectRatio="xMidYMid meet" version="1.2"><defs><clipPath id="8875c60a3c"><path d="M 62.203125 295 L 312.703125 295 L 312.703125 312.703125 L 62.203125 312.703125 Z M 62.203125 295 "/></clipPath><clipPath id="aa3f29eee1"><path d="M 62.203125 224 L 312.703125 224 L 312.703125 243 L 62.203125 243 Z M 62.203125 224 "/></clipPath><clipPath id="75f3defbe2"><path d="M 62.203125 259 L 312.703125 259 L 312.703125 278 L 62.203125 278 Z M 62.203125 259 "/></clipPath><clipPath id="a6d8d5f98f"><path d="M 120 62.203125 L 239 62.203125 L 239 219 L 120 219 Z M 120 62.203125 "/></clipPath></defs><g id="dbafb7da34"><g clip-rule="nonzero" clip-path="url(#8875c60a3c)"><path style=" stroke:none;fill-rule:nonzero;fill:#063770;fill-opacity:1;" d="M 278.453125 312.703125 C 269.71875 312.703125 265.171875 309.773438 261.164062 307.1875 C 257.613281 304.898438 254.550781 302.917969 248.117188 302.917969 C 241.6875 302.917969 238.621094 304.898438 235.074219 307.1875 C 231.066406 309.773438 226.519531 312.703125 217.785156 312.703125 C 209.046875 312.703125 204.503906 309.773438 200.496094 307.1875 C 196.945312 304.898438 193.878906 302.917969 187.449219 302.917969 C 181.019531 302.917969 177.957031 304.898438 174.40625 307.1875 C 170.398438 309.773438 165.855469 312.703125 157.117188 312.703125 C 148.382812 312.703125 143.835938 309.773438 139.828125 307.1875 C 136.28125 304.898438 133.214844 302.917969 126.785156 302.917969 C 120.355469 302.917969 117.289062 304.898438 113.738281 307.1875 C 109.730469 309.773438 105.1875 312.703125 96.453125 312.703125 C 87.714844 312.703125 83.171875 309.773438 79.164062 307.1875 C 75.613281 304.898438 72.550781 302.917969 66.117188 302.917969 C 63.957031 302.917969 62.203125 301.167969 62.203125 299.003906 C 62.203125 296.84375 63.957031 295.089844 66.117188 295.089844 C 74.855469 295.089844 79.398438 298.023438 83.40625 300.609375 C 86.957031 302.898438 90.019531 304.875 96.453125 304.875 C 102.882812 304.875 105.945312 302.898438 109.496094 300.609375 C 113.503906 298.023438 118.046875 295.089844 126.785156 295.089844 C 135.519531 295.089844 140.066406 298.023438 144.074219 300.609375 C 147.621094 302.898438 150.6875 304.875 157.117188 304.875 C 163.550781 304.875 166.613281 302.898438 170.164062 300.609375 C 174.171875 298.023438 178.714844 295.089844 187.449219 295.089844 C 196.1875 295.089844 200.730469 298.023438 204.738281 300.609375 C 208.289062 302.898438 211.355469 304.875 217.785156 304.875 C 224.214844 304.875 227.28125 302.898438 230.828125 300.609375 C 234.835938 298.023438 239.382812 295.089844 248.117188 295.089844 C 256.855469 295.089844 261.398438 298.023438 265.410156 300.609375 C 268.957031 302.898438 272.023438 304.875 278.453125 304.875 C 284.886719 304.875 287.949219 302.898438 291.5 300.609375 C 295.507812 298.023438 300.054688 295.089844 308.789062 295.089844 C 310.953125 295.089844 312.703125 296.84375 312.703125 299.003906 C 312.703125 301.167969 310.953125 302.917969 308.789062 302.917969 C 302.359375 302.917969 299.292969 304.898438 295.746094 307.1875 C 291.734375 309.773438 287.191406 312.703125 278.453125 312.703125 Z M 278.453125 312.703125 "/></g><g clip-rule="nonzero" clip-path="url(#aa3f29eee1)"><path style=" stroke:none;fill-rule:nonzero;fill:#063770;fill-opacity:1;" d="M 278.453125 242.25 C 269.71875 242.25 265.171875 239.320312 261.164062 236.734375 C 257.613281 234.445312 254.550781 232.464844 248.117188 232.464844 C 241.6875 232.464844 238.621094 234.445312 235.074219 236.734375 C 231.066406 239.320312 226.519531 242.25 217.785156 242.25 C 209.046875 242.25 204.503906 239.320312 200.496094 236.734375 C 196.945312 234.445312 193.878906 232.464844 187.449219 232.464844 C 181.019531 232.464844 177.957031 234.445312 174.40625 236.734375 C 170.398438 239.320312 165.855469 242.25 157.117188 242.25 C 148.382812 242.25 143.835938 239.320312 139.828125 236.734375 C 136.28125 234.445312 133.214844 232.464844 126.785156 232.464844 C 120.355469 232.464844 117.289062 234.445312 113.738281 236.734375 C 109.730469 239.320312 105.1875 242.25 96.453125 242.25 C 87.714844 242.25 83.171875 239.320312 79.164062 236.734375 C 75.613281 234.445312 72.550781 232.464844 66.117188 232.464844 C 63.957031 232.464844 62.203125 230.714844 62.203125 228.550781 C 62.203125 226.390625 63.957031 224.636719 66.117188 224.636719 C 74.855469 224.636719 79.398438 227.570312 83.40625 230.15625 C 86.957031 232.445312 90.019531 234.421875 96.453125 234.421875 C 102.882812 234.421875 105.945312 232.445312 109.496094 230.15625 C 113.503906 227.570312 118.046875 224.636719 126.785156 224.636719 C 135.519531 224.636719 140.066406 227.570312 144.074219 230.15625 C 147.621094 232.445312 150.6875 234.421875 157.117188 234.421875 C 163.550781 234.421875 166.613281 232.445312 170.164062 230.15625 C 174.171875 227.570312 178.714844 224.636719 187.449219 224.636719 C 196.1875 224.636719 200.730469 227.570312 204.738281 230.15625 C 208.289062 232.445312 211.355469 234.421875 217.785156 234.421875 C 224.214844 234.421875 227.28125 232.445312 230.828125 230.15625 C 234.835938 227.570312 239.382812 224.636719 248.117188 224.636719 C 256.855469 224.636719 261.398438 227.570312 265.410156 230.15625 C 268.957031 232.445312 272.023438 234.421875 278.453125 234.421875 C 284.886719 234.421875 287.949219 232.445312 291.5 230.15625 C 295.507812 227.570312 300.054688 224.636719 308.789062 224.636719 C 310.953125 224.636719 312.703125 226.390625 312.703125 228.550781 C 312.703125 230.714844 310.953125 232.464844 308.789062 232.464844 C 302.359375 232.464844 299.292969 234.445312 295.746094 236.734375 C 291.734375 239.320312 287.191406 242.25 278.453125 242.25 Z M 278.453125 242.25 "/></g><g clip-rule="nonzero" clip-path="url(#75f3defbe2)"><path style=" stroke:none;fill-rule:nonzero;fill:#063770;fill-opacity:1;" d="M 278.453125 277.476562 C 269.71875 277.476562 265.171875 274.546875 261.164062 271.960938 C 257.613281 269.671875 254.550781 267.691406 248.117188 267.691406 C 241.6875 267.691406 238.621094 269.671875 235.074219 271.960938 C 231.066406 274.546875 226.519531 277.476562 217.785156 277.476562 C 209.046875 277.476562 204.503906 274.546875 200.496094 271.960938 C 196.945312 269.671875 193.878906 267.691406 187.449219 267.691406 C 181.019531 267.691406 177.957031 269.671875 174.40625 271.960938 C 170.398438 274.546875 165.855469 277.476562 157.117188 277.476562 C 148.382812 277.476562 143.835938 274.546875 139.828125 271.960938 C 136.28125 269.671875 133.214844 267.691406 126.785156 267.691406 C 120.355469 267.691406 117.289062 269.671875 113.738281 271.960938 C 109.730469 274.546875 105.1875 277.476562 96.453125 277.476562 C 87.714844 277.476562 83.171875 274.546875 79.164062 271.960938 C 75.613281 269.671875 72.550781 267.691406 66.117188 267.691406 C 63.957031 267.691406 62.203125 265.941406 62.203125 263.777344 C 62.203125 261.617188 63.957031 259.863281 66.117188 259.863281 C 74.855469 259.863281 79.398438 262.796875 83.40625 265.382812 C 86.957031 267.671875 90.019531 269.648438 96.453125 269.648438 C 102.882812 269.648438 105.945312 267.671875 109.496094 265.382812 C 113.503906 262.796875 118.046875 259.863281 126.785156 259.863281 C 135.519531 259.863281 140.066406 262.796875 144.074219 265.382812 C 147.621094 267.671875 150.6875 269.648438 157.117188 269.648438 C 163.550781 269.648438 166.613281 267.671875 170.164062 265.382812 C 174.171875 262.796875 178.714844 259.863281 187.449219 259.863281 C 196.1875 259.863281 200.730469 262.796875 204.738281 265.382812 C 208.289062 267.671875 211.355469 269.648438 217.785156 269.648438 C 224.214844 269.648438 227.28125 267.671875 230.828125 265.382812 C 234.835938 262.796875 239.382812 259.863281 248.117188 259.863281 C 256.855469 259.863281 261.398438 262.796875 265.410156 265.382812 C 268.957031 267.671875 272.023438 269.648438 278.453125 269.648438 C 284.886719 269.648438 287.949219 267.671875 291.5 265.382812 C 295.507812 262.796875 300.054688 259.863281 308.789062 259.863281 C 310.953125 259.863281 312.703125 261.617188 312.703125 263.777344 C 312.703125 265.941406 310.953125 267.691406 308.789062 267.691406 C 302.359375 267.691406 299.292969 269.671875 295.746094 271.960938 C 291.734375 274.546875 287.191406 277.476562 278.453125 277.476562 Z M 278.453125 277.476562 "/></g><g clip-rule="nonzero" clip-path="url(#a6d8d5f98f)"><path style=" stroke:none;fill-rule:nonzero;fill:#063770;fill-opacity:1;" d="M 179.625 218.765625 C 147.253906 218.765625 120.914062 192.429688 120.914062 160.054688 C 120.914062 128.699219 174.382812 66.210938 176.660156 63.566406 C 177.402344 62.703125 178.488281 62.203125 179.625 62.203125 C 180.765625 62.203125 181.851562 62.703125 182.59375 63.566406 C 182.6875 63.675781 192.191406 74.746094 203.144531 89.609375 C 204.425781 91.351562 204.054688 93.800781 202.316406 95.082031 C 200.574219 96.363281 198.125 95.992188 196.84375 94.253906 C 189.722656 84.589844 183.230469 76.566406 179.625 72.207031 C 174.871094 77.957031 165.085938 90.097656 155.40625 104.027344 C 137.960938 129.117188 128.742188 148.492188 128.742188 160.054688 C 128.742188 188.113281 151.570312 210.9375 179.625 210.9375 C 207.683594 210.9375 230.507812 188.113281 230.507812 160.054688 C 230.507812 156.46875 229.597656 152.046875 227.796875 146.914062 C 227.085938 144.871094 228.160156 142.640625 230.199219 141.925781 C 232.238281 141.210938 234.472656 142.285156 235.1875 144.324219 C 237.277344 150.292969 238.335938 155.585938 238.335938 160.054688 C 238.335938 192.429688 212 218.765625 179.625 218.765625 Z M 179.625 218.765625 "/></g><path style=" stroke:none;fill-rule:nonzero;fill:#063770;fill-opacity:1;" d="M 218.765625 152.226562 C 199.34375 152.226562 183.539062 136.425781 183.539062 117 C 183.539062 97.578125 199.34375 81.773438 218.765625 81.773438 C 238.191406 81.773438 253.992188 97.578125 253.992188 117 C 253.992188 136.425781 238.191406 152.226562 218.765625 152.226562 Z M 218.765625 89.601562 C 203.660156 89.601562 191.367188 101.894531 191.367188 117 C 191.367188 132.109375 203.660156 144.398438 218.765625 144.398438 C 233.875 144.398438 246.164062 132.109375 246.164062 117 C 246.164062 101.894531 233.875 89.601562 218.765625 89.601562 Z M 218.765625 89.601562 "/><path style=" stroke:none;fill-rule:nonzero;fill:#063770;fill-opacity:1;" d="M 216.488281 126.113281 C 215.449219 126.113281 214.453125 125.703125 213.722656 124.96875 L 205.417969 116.664062 C 203.890625 115.136719 203.890625 112.660156 205.417969 111.128906 C 206.945312 109.601562 209.425781 109.601562 210.953125 111.128906 L 216.488281 116.664062 L 227.558594 105.59375 C 229.089844 104.066406 231.566406 104.066406 233.09375 105.59375 C 234.621094 107.121094 234.621094 109.601562 233.09375 111.128906 L 219.257812 124.96875 C 218.523438 125.703125 217.527344 126.113281 216.488281 126.113281 Z M 216.488281 126.113281 "/></g></svg>