<svg xmlns="http://www.w3.org/2000/svg" xmlns:xlink="http://www.w3.org/1999/xlink" width="500" zoomAndPan="magnify" viewBox="0 0 375 374.999991" height="500" preserveAspectRatio="xMidYMid meet" version="1.2"><defs><clipPath id="3958530c2f"><path d="M 69.046875 78.867188 L 306 78.867188 L 306 290 L 69.046875 290 Z M 69.046875 78.867188 "/></clipPath></defs><g id="a29158ac00"><g clip-rule="nonzero" clip-path="url(#3958530c2f)"><path style=" stroke:none;fill-rule:nonzero;fill:#063770;fill-opacity:1;" d="M 304.980469 148.804688 C 304.980469 148.804688 277.597656 126.472656 277.597656 126.472656 C 277.132812 126.101562 276.53125 125.871094 275.929688 125.871094 L 259.851562 125.871094 L 268.886719 110.90625 C 269.953125 109.238281 268.609375 106.875 266.660156 106.964844 C 266.660156 106.964844 259.757812 106.964844 259.757812 106.964844 L 259.757812 81.484375 C 259.757812 80.046875 258.597656 78.886719 257.164062 78.886719 L 244.421875 78.886719 C 242.984375 78.886719 241.828125 80.046875 241.828125 81.484375 L 241.828125 106.964844 L 234.921875 106.964844 C 232.976562 106.921875 231.632812 109.285156 232.699219 110.90625 L 241.734375 125.871094 L 196.558594 125.871094 L 205.59375 110.90625 C 206.660156 109.238281 205.316406 106.875 203.371094 106.964844 C 203.371094 106.964844 196.464844 106.964844 196.464844 106.964844 L 196.464844 81.484375 C 196.464844 80.046875 195.308594 78.886719 193.871094 78.886719 L 181.128906 78.886719 C 179.691406 78.886719 178.535156 80.046875 178.535156 81.484375 L 178.535156 106.964844 L 171.628906 106.964844 C 169.683594 106.921875 168.339844 109.285156 169.40625 110.90625 L 178.441406 125.871094 L 133.265625 125.871094 L 142.300781 110.90625 C 143.367188 109.238281 142.023438 106.875 140.078125 106.964844 C 140.078125 106.964844 133.171875 106.964844 133.171875 106.964844 L 133.171875 81.484375 C 133.171875 80.046875 132.015625 78.886719 130.578125 78.886719 L 117.835938 78.886719 C 116.398438 78.886719 115.242188 80.046875 115.242188 81.484375 L 115.242188 106.964844 L 108.292969 106.964844 C 106.34375 106.921875 105 109.285156 106.066406 110.90625 L 115.101562 125.871094 L 99.023438 125.871094 C 98.421875 125.871094 97.820312 126.054688 97.355469 126.472656 L 69.972656 148.804688 C 69.648438 149.128906 69.371094 149.457031 69.230469 149.917969 C 69.09375 150.242188 69.046875 150.613281 69.046875 150.984375 L 69.046875 208.625 C 69.046875 210.058594 70.203125 211.21875 71.640625 211.21875 L 303.3125 211.21875 C 304.75 211.21875 305.90625 210.058594 305.90625 208.625 L 305.90625 150.9375 C 305.953125 150.105469 305.582031 149.363281 304.980469 148.804688 Z M 239.511719 112.15625 L 244.421875 112.15625 C 245.859375 112.15625 247.015625 110.996094 247.015625 109.5625 L 247.015625 84.078125 L 254.570312 84.078125 L 254.570312 109.5625 C 254.570312 110.996094 255.726562 112.15625 257.164062 112.15625 L 262.074219 112.15625 L 250.816406 130.78125 Z M 176.21875 112.15625 L 181.128906 112.15625 C 182.566406 112.15625 183.722656 110.996094 183.722656 109.5625 L 183.722656 84.078125 L 191.230469 84.078125 L 191.230469 109.5625 C 191.230469 110.996094 192.386719 112.15625 193.824219 112.15625 L 198.734375 112.15625 L 187.476562 130.828125 Z M 112.878906 112.15625 L 117.742188 112.15625 C 119.179688 112.15625 120.339844 110.996094 120.339844 109.5625 L 120.339844 84.078125 L 127.890625 84.078125 L 127.890625 109.5625 C 127.890625 110.996094 129.050781 112.15625 130.484375 112.15625 L 135.398438 112.15625 L 124.136719 130.78125 Z M 99.953125 131.105469 L 118.253906 131.105469 L 121.960938 137.222656 C 122.421875 138.011719 123.257812 138.472656 124.183594 138.472656 C 125.109375 138.472656 125.945312 138.011719 126.410156 137.222656 L 130.113281 131.105469 L 181.546875 131.105469 L 185.253906 137.222656 C 185.714844 138.011719 186.550781 138.472656 187.476562 138.472656 C 188.402344 138.472656 189.238281 138.011719 189.699219 137.222656 L 193.40625 131.105469 L 244.839844 131.105469 L 248.546875 137.222656 C 249.007812 138.011719 249.84375 138.472656 250.769531 138.472656 C 251.695312 138.472656 252.53125 138.011719 252.992188 137.222656 L 256.699219 131.105469 L 275 131.105469 L 295.992188 148.203125 L 78.960938 148.203125 Z M 300.71875 205.984375 L 74.234375 205.984375 L 74.234375 153.441406 L 300.71875 153.441406 Z M 82.066406 200.746094 L 292.886719 200.746094 C 294.324219 200.746094 295.480469 199.589844 295.480469 198.152344 L 295.480469 161.222656 C 295.480469 159.789062 294.324219 158.628906 292.886719 158.628906 L 82.066406 158.628906 C 80.628906 158.628906 79.472656 159.789062 79.472656 161.222656 L 79.472656 198.152344 C 79.472656 199.589844 80.628906 200.746094 82.066406 200.746094 Z M 116.074219 195.558594 L 101.621094 195.558594 L 101.621094 192.546875 L 108.847656 188.375 L 116.074219 192.546875 Z M 135.722656 195.558594 L 121.265625 195.558594 L 121.265625 192.546875 L 128.492188 188.375 L 135.722656 192.546875 Z M 155.367188 195.558594 L 140.910156 195.558594 L 140.910156 192.546875 L 148.140625 188.375 L 155.367188 192.546875 Z M 175.058594 195.558594 L 160.601562 195.558594 L 160.601562 192.546875 L 167.832031 188.375 L 175.058594 192.546875 Z M 194.703125 195.558594 L 180.25 195.558594 L 180.25 192.546875 L 187.476562 188.375 L 194.703125 192.546875 Z M 214.351562 195.558594 L 199.894531 195.558594 L 199.894531 192.546875 L 207.121094 188.375 L 214.351562 192.546875 Z M 233.996094 195.558594 L 219.539062 195.558594 L 219.539062 192.546875 L 226.769531 188.375 L 233.996094 192.546875 Z M 253.6875 195.558594 L 239.230469 195.558594 L 239.230469 192.546875 L 246.460938 188.375 L 253.6875 192.546875 Z M 273.332031 195.558594 L 258.878906 195.558594 L 258.878906 192.546875 L 266.105469 188.375 L 273.332031 192.546875 Z M 290.292969 195.558594 L 278.570312 195.558594 L 278.570312 192.546875 L 287.09375 187.632812 C 288.902344 186.800781 288.300781 183.882812 288.390625 182.304688 L 290.292969 182.304688 Z M 278.570312 163.863281 L 290.292969 163.863281 L 290.292969 177.117188 L 288.390625 177.117188 C 288.300781 175.542969 288.902344 172.621094 287.09375 171.789062 C 287.09375 171.789062 278.570312 166.875 278.570312 166.875 Z M 283.15625 175.542969 L 283.15625 183.882812 L 275.929688 188.050781 L 268.699219 183.882812 L 268.699219 175.542969 L 275.929688 171.371094 Z M 258.878906 163.863281 L 273.332031 163.863281 L 273.332031 166.875 L 266.105469 171.046875 L 258.878906 166.875 Z M 263.511719 175.542969 L 263.511719 183.882812 L 256.28125 188.050781 L 249.054688 183.882812 L 249.054688 175.542969 L 256.28125 171.371094 Z M 239.230469 163.863281 L 253.6875 163.863281 L 253.6875 166.875 L 246.460938 171.046875 L 239.230469 166.875 Z M 243.863281 175.542969 L 243.863281 183.882812 L 236.636719 188.050781 L 229.410156 183.882812 L 229.410156 175.542969 L 236.636719 171.371094 Z M 219.585938 163.863281 L 234.042969 163.863281 L 234.042969 166.875 L 226.8125 171.046875 L 219.585938 166.875 Z M 224.171875 175.542969 L 224.171875 183.882812 L 216.945312 188.050781 L 209.71875 183.882812 L 209.71875 175.542969 L 216.945312 171.371094 Z M 199.894531 163.863281 L 214.351562 163.863281 L 214.351562 166.875 L 207.121094 171.046875 L 199.894531 166.875 Z M 204.527344 175.542969 L 204.527344 183.882812 L 197.300781 188.050781 L 190.070312 183.882812 L 190.070312 175.542969 L 197.300781 171.371094 Z M 180.25 163.863281 L 194.703125 163.863281 L 194.703125 166.875 L 187.476562 171.046875 L 180.25 166.875 Z M 184.882812 175.542969 L 184.882812 183.882812 L 177.652344 188.050781 L 170.425781 183.882812 L 170.425781 175.542969 L 177.652344 171.371094 Z M 160.601562 163.863281 L 175.058594 163.863281 L 175.058594 166.875 L 167.832031 171.046875 L 160.601562 166.875 Z M 165.191406 175.542969 L 165.191406 183.882812 L 157.960938 188.050781 L 150.734375 183.882812 L 150.734375 175.542969 L 157.960938 171.371094 Z M 140.957031 163.863281 L 155.414062 163.863281 L 155.414062 166.875 L 148.183594 171.046875 L 140.957031 166.875 Z M 145.542969 175.542969 L 145.542969 183.882812 L 138.316406 188.050781 L 131.089844 183.882812 L 131.089844 175.542969 L 138.316406 171.371094 Z M 121.265625 163.863281 L 135.722656 163.863281 L 135.722656 166.875 L 128.492188 171.046875 L 121.265625 166.875 Z M 125.898438 175.542969 L 125.898438 183.882812 L 118.671875 188.050781 L 111.441406 183.882812 L 111.441406 175.542969 L 118.671875 171.371094 Z M 101.621094 163.863281 L 116.074219 163.863281 L 116.074219 166.875 L 108.847656 171.046875 L 101.621094 166.875 Z M 106.207031 175.542969 L 106.207031 183.882812 L 98.976562 188.050781 L 91.75 183.882812 L 91.75 175.542969 L 98.976562 171.371094 Z M 84.660156 163.863281 L 96.382812 163.863281 L 96.382812 166.875 L 87.859375 171.742188 C 86.050781 172.574219 86.652344 175.496094 86.5625 177.070312 L 84.660156 177.070312 Z M 84.660156 182.304688 L 86.5625 182.304688 C 86.652344 183.882812 86.050781 186.800781 87.859375 187.632812 C 87.859375 187.632812 96.382812 192.546875 96.382812 192.546875 L 96.382812 195.558594 L 84.660156 195.558594 Z M 121.960938 225.953125 C 119.96875 229.058594 102.546875 256.488281 102.546875 267.46875 C 103.613281 296.101562 144.710938 296.101562 145.777344 267.46875 C 145.777344 256.535156 128.355469 229.058594 126.363281 225.953125 C 125.390625 224.46875 122.933594 224.46875 121.960938 225.953125 Z M 124.183594 283.871094 C 115.148438 283.871094 107.78125 276.503906 107.78125 267.46875 C 107.78125 260.425781 118.160156 242.078125 124.183594 232.300781 C 130.207031 242.125 140.585938 260.472656 140.585938 267.46875 C 140.585938 276.503906 133.21875 283.871094 124.183594 283.871094 Z M 185.300781 225.953125 C 183.304688 229.058594 165.886719 256.488281 165.886719 267.46875 C 165.886719 279.375 175.570312 289.105469 187.523438 289.105469 C 199.476562 289.105469 209.160156 279.421875 209.160156 267.46875 C 209.160156 256.535156 191.738281 229.058594 189.746094 225.953125 C 188.726562 224.46875 186.226562 224.46875 185.300781 225.953125 Z M 171.074219 267.46875 C 171.074219 260.425781 181.453125 242.078125 187.476562 232.300781 C 193.5 242.125 203.878906 260.472656 203.878906 267.46875 C 203.136719 289.152344 171.816406 289.152344 171.074219 267.46875 Z M 248.589844 225.953125 C 246.597656 229.058594 229.175781 256.488281 229.175781 267.46875 C 229.175781 279.375 238.859375 289.105469 250.816406 289.105469 C 262.722656 289.105469 272.453125 279.421875 272.453125 267.46875 C 272.453125 256.535156 255.03125 229.058594 253.039062 225.953125 C 252.019531 224.46875 249.5625 224.46875 248.589844 225.953125 Z M 234.367188 267.46875 C 234.367188 260.425781 244.746094 242.078125 250.769531 232.300781 C 256.792969 242.125 267.171875 260.472656 267.171875 267.46875 C 266.429688 289.152344 235.15625 289.152344 234.367188 267.46875 Z M 234.367188 267.46875 "/></g></g></svg>