<svg xmlns="http://www.w3.org/2000/svg" xmlns:xlink="http://www.w3.org/1999/xlink" width="500" zoomAndPan="magnify" viewBox="0 0 375 374.999991" height="500" preserveAspectRatio="xMidYMid meet" version="1.2"><defs><clipPath id="c2cc0b5c16"><path d="M 74.015625 215 L 112 215 L 112 299.589844 L 74.015625 299.589844 Z M 74.015625 215 "/></clipPath><clipPath id="eecbbb63e9"><path d="M 263 215 L 301 215 L 301 299.589844 L 263 299.589844 Z M 263 215 "/></clipPath><clipPath id="48b72e8b34"><path d="M 128 75.339844 L 247 75.339844 L 247 195 L 128 195 Z M 128 75.339844 "/></clipPath></defs><g id="7ad609d954"><path style=" stroke:none;fill-rule:evenodd;fill:#063770;fill-opacity:1;" d="M 260.128906 286.296875 L 243.75 286.296875 L 243.75 228.675781 L 260.128906 228.675781 Z M 240.191406 286.296875 L 134.738281 286.296875 L 134.738281 228.675781 L 240.191406 228.675781 Z M 131.179688 286.296875 L 114.796875 286.296875 L 114.796875 228.675781 L 131.179688 228.675781 Z M 131.179688 286.296875 "/><g clip-rule="nonzero" clip-path="url(#c2cc0b5c16)"><path style=" stroke:none;fill-rule:evenodd;fill:#063770;fill-opacity:1;" d="M 101.035156 299.589844 L 84.234375 299.589844 C 78.6875 299.589844 74.03125 294.929688 74.03125 289.382812 L 74.03125 225.589844 C 74.03125 220.042969 78.6875 215.382812 84.234375 215.382812 L 101.035156 215.382812 C 106.582031 215.382812 111.238281 220.042969 111.238281 225.589844 L 111.238281 289.382812 C 111.238281 294.929688 106.582031 299.589844 101.035156 299.589844 Z M 101.035156 299.589844 "/></g><g clip-rule="nonzero" clip-path="url(#eecbbb63e9)"><path style=" stroke:none;fill-rule:evenodd;fill:#063770;fill-opacity:1;" d="M 290.691406 299.589844 L 273.839844 299.589844 C 268.34375 299.589844 263.6875 294.929688 263.6875 289.382812 L 263.6875 225.589844 C 263.6875 220.042969 268.34375 215.382812 273.839844 215.382812 L 290.691406 215.382812 C 296.238281 215.382812 300.898438 220.042969 300.898438 225.589844 L 300.898438 289.382812 C 300.898438 294.929688 296.238281 299.589844 290.691406 299.589844 Z M 290.691406 299.589844 "/></g><path style=" stroke:none;fill-rule:evenodd;fill:#063770;fill-opacity:1;" d="M 145.359375 225.117188 L 145.359375 206.957031 C 145.359375 205.023438 146.984375 203.398438 148.917969 203.398438 L 173.308594 203.398438 L 173.308594 225.117188 Z M 176.8125 203.398438 L 198.0625 203.398438 L 198.0625 225.117188 L 176.8125 225.117188 Z M 201.621094 203.398438 L 226.476562 203.398438 C 228.414062 203.398438 229.984375 205.023438 229.984375 206.957031 L 229.984375 225.117188 L 201.621094 225.117188 Z M 201.621094 203.398438 "/><path style=" stroke:none;fill-rule:evenodd;fill:#063770;fill-opacity:1;" d="M 176.8125 209.625 L 176.8125 190.105469 C 176.8125 188.171875 178.4375 186.601562 180.371094 186.601562 C 182.308594 186.601562 183.929688 188.171875 183.929688 190.105469 L 183.929688 209.625 Z M 176.8125 209.625 "/><g clip-rule="nonzero" clip-path="url(#48b72e8b34)"><path style=" stroke:none;fill-rule:evenodd;fill:#063770;fill-opacity:1;" d="M 187.4375 194.082031 C 171.527344 194.082031 156.558594 187.960938 145.414062 176.761719 C 134.265625 165.613281 128.089844 150.699219 128.089844 134.738281 C 128.089844 101.976562 154.730469 75.339844 187.4375 75.339844 C 220.199219 75.339844 246.835938 101.976562 246.835938 134.738281 C 246.835938 150.699219 240.660156 165.613281 229.511719 176.761719 C 218.367188 187.960938 203.398438 194.082031 187.4375 194.082031 Z M 187.4375 142.691406 C 190.054688 142.691406 191.886719 140.859375 191.886719 138.296875 C 191.886719 135.679688 190.054688 133.847656 187.4375 133.847656 C 184.871094 133.847656 183.042969 135.679688 183.042969 138.296875 C 183.042969 140.859375 184.871094 142.691406 187.4375 142.691406 Z M 189.214844 130.5 L 189.214844 120.972656 C 189.214844 120.03125 188.429688 119.246094 187.4375 119.246094 C 186.496094 119.246094 185.710938 120.03125 185.710938 120.972656 L 185.710938 130.5 C 182.097656 131.285156 179.484375 134.421875 179.484375 138.296875 C 179.484375 142.746094 182.988281 146.25 187.4375 146.25 C 191.9375 146.25 195.445312 142.746094 195.445312 138.296875 C 195.445312 134.421875 192.828125 131.285156 189.214844 130.5 Z M 187.4375 177.703125 C 198.949219 177.703125 209.835938 173.410156 218 165.246094 C 226.113281 157.136719 230.457031 146.25 230.457031 134.789062 L 230.457031 134.683594 C 230.457031 123.277344 226.058594 112.496094 218 104.382812 C 209.835938 96.21875 199.003906 91.769531 187.4375 91.769531 C 175.921875 91.769531 165.089844 96.167969 156.925781 104.382812 C 148.917969 112.546875 144.472656 123.277344 144.472656 134.738281 C 144.472656 146.25 148.816406 157.082031 156.925781 165.246094 C 165.089844 173.410156 175.976562 177.703125 187.4375 177.703125 Z M 189.214844 95.328125 C 209.574219 96.21875 225.953125 112.601562 226.84375 132.957031 L 218.472656 132.957031 C 217.527344 132.957031 216.691406 133.742188 216.691406 134.738281 C 216.691406 135.679688 217.527344 136.515625 218.472656 136.515625 L 226.84375 136.515625 C 226.007812 157.1875 209.886719 173.253906 189.214844 174.144531 L 189.214844 165.769531 C 189.214844 164.777344 188.429688 163.992188 187.4375 163.992188 C 186.496094 163.992188 185.710938 164.777344 185.710938 165.769531 L 185.710938 174.144531 C 165.039062 173.253906 148.917969 157.1875 148.082031 136.515625 L 156.457031 136.515625 C 157.398438 136.515625 158.234375 135.679688 158.234375 134.738281 C 158.234375 133.742188 157.398438 132.957031 156.457031 132.957031 L 148.082031 132.957031 C 148.972656 112.601562 165.351562 96.21875 185.710938 95.328125 L 185.710938 103.703125 C 185.710938 104.699219 186.496094 105.484375 187.4375 105.484375 C 188.429688 105.484375 189.214844 104.699219 189.214844 103.703125 Z M 189.214844 95.328125 "/></g><path style=" stroke:none;fill-rule:evenodd;fill:#063770;fill-opacity:1;" d="M 198.0625 209.625 L 198.0625 190.105469 C 198.0625 188.171875 196.4375 186.601562 194.503906 186.601562 C 192.566406 186.601562 190.945312 188.171875 190.945312 190.105469 L 190.945312 209.625 Z M 198.0625 209.625 "/></g></svg>