<svg xmlns="http://www.w3.org/2000/svg" xmlns:xlink="http://www.w3.org/1999/xlink" width="500" zoomAndPan="magnify" viewBox="0 0 375 374.999991" height="500" preserveAspectRatio="xMidYMid meet" version="1.2"><defs><clipPath id="22652b6e42"><path d="M 50.558594 73.269531 L 324 73.269531 L 324 302 L 50.558594 302 Z M 50.558594 73.269531 "/></clipPath></defs><g id="db39456a66"><g clip-rule="nonzero" clip-path="url(#22652b6e42)"><path style=" stroke:none;fill-rule:nonzero;fill:#063770;fill-opacity:1;" d="M 259.972656 87.734375 C 258.628906 87.734375 257.367188 88.367188 256.5625 89.441406 C 246.738281 102.550781 230.25 126.496094 230.25 139.496094 C 230.25 155.875 243.582031 169.203125 259.972656 169.203125 C 276.355469 169.203125 289.679688 155.875 289.679688 139.496094 C 289.679688 127.1875 275.382812 105.484375 263.386719 89.441406 C 262.578125 88.367188 261.316406 87.734375 259.972656 87.734375 Z M 281.15625 139.503906 C 281.15625 151.179688 271.652344 160.683594 259.972656 160.683594 C 248.285156 160.683594 238.773438 151.179688 238.773438 139.503906 C 238.773438 132.609375 246.800781 117.414062 259.972656 99.1875 C 273.308594 117.652344 281.15625 132.523438 281.15625 139.503906 Z M 323.046875 245.863281 L 317.992188 237.089844 C 315.75 233.214844 311.742188 230.902344 307.265625 230.902344 C 302.792969 230.902344 298.777344 233.214844 296.527344 237.101562 L 293.828125 241.789062 C 292.820312 243.535156 291.144531 243.71875 290.472656 243.71875 C 289.800781 243.71875 288.128906 243.535156 287.125 241.800781 L 284.417969 237.09375 C 282.175781 233.21875 278.160156 230.90625 273.6875 230.90625 C 269.214844 230.90625 265.203125 233.21875 262.953125 237.105469 L 260.25 241.796875 C 259.242188 243.539062 257.570312 243.726562 256.898438 243.726562 C 256.539062 243.726562 255.894531 243.671875 255.222656 243.359375 C 252.378906 218.34375 242.734375 198.0625 226.542969 183.050781 C 211.367188 168.984375 191.070312 160.113281 166.164062 156.65625 L 166.164062 143.585938 C 166.164062 141.230469 164.257812 139.328125 161.90625 139.328125 L 143.15625 139.328125 C 140.800781 139.328125 138.894531 141.234375 138.894531 143.585938 L 138.894531 146.335938 L 94.402344 146.335938 L 94.402344 131.476562 L 101.308594 131.476562 C 103.664062 131.476562 105.566406 129.566406 105.566406 127.214844 L 105.566406 103.070312 C 105.566406 100.714844 103.65625 98.8125 101.308594 98.8125 L 54.980469 98.8125 C 52.625 98.8125 50.722656 100.71875 50.722656 103.070312 L 50.722656 297.347656 C 50.722656 299.703125 52.628906 301.605469 54.980469 301.605469 L 319.351562 301.605469 C 321.707031 301.605469 323.613281 299.699219 323.613281 297.347656 L 323.613281 247.984375 C 323.613281 247.238281 323.414062 246.507812 323.046875 245.863281 Z M 244.589844 231.722656 C 243.195312 231.1875 241.683594 230.894531 240.117188 230.894531 C 236.210938 230.894531 232.667969 232.65625 230.351562 235.664062 C 228.828125 226.316406 226.359375 218.246094 222.875 211.214844 C 221.828125 209.105469 219.269531 208.246094 217.164062 209.292969 C 215.054688 210.335938 214.195312 212.894531 215.242188 215 C 219.128906 222.839844 221.621094 232.253906 222.832031 243.675781 C 222.03125 243.574219 220.800781 243.175781 219.996094 241.78125 L 217.277344 237.078125 C 215.035156 233.203125 211.019531 230.890625 206.546875 230.890625 C 205.765625 230.890625 204.996094 230.964844 204.246094 231.101562 C 200.246094 206.390625 187.464844 191.519531 166.175781 186.808594 L 166.175781 165.253906 C 208.578125 171.53125 235.914062 194.820312 244.589844 231.722656 Z M 147.425781 147.839844 L 157.652344 147.839844 L 157.652344 197.625 L 147.425781 197.625 Z M 143.160156 206.148438 L 161.914062 206.148438 C 164.269531 206.148438 166.171875 204.238281 166.171875 201.886719 L 166.171875 195.582031 C 183.789062 200.226562 193.691406 213.582031 196.355469 236.253906 C 196.171875 236.523438 195.992188 236.800781 195.828125 237.082031 L 193.105469 241.789062 C 192.109375 243.523438 190.433594 243.710938 189.761719 243.710938 C 189.089844 243.710938 187.421875 243.523438 186.414062 241.78125 L 183.695312 237.078125 C 181.453125 233.203125 177.445312 230.890625 172.96875 230.890625 C 168.480469 230.890625 164.472656 233.207031 162.253906 237.082031 L 159.53125 241.789062 C 158.53125 243.523438 156.859375 243.710938 156.1875 243.710938 C 155.515625 243.710938 153.847656 243.523438 152.839844 241.78125 L 150.121094 237.078125 C 147.878906 233.203125 143.875 230.890625 139.40625 230.890625 C 134.9375 230.890625 130.921875 233.203125 128.679688 237.082031 L 125.953125 241.789062 C 124.957031 243.523438 123.285156 243.710938 122.613281 243.710938 C 121.941406 243.710938 120.273438 243.523438 119.265625 241.78125 L 116.550781 237.09375 C 114.324219 233.207031 110.316406 230.890625 105.828125 230.890625 C 101.355469 230.890625 97.339844 233.203125 95.097656 237.082031 L 94.386719 238.308594 L 94.386719 199.132812 L 138.886719 199.132812 L 138.886719 201.882812 C 138.902344 204.238281 140.808594 206.148438 143.160156 206.148438 Z M 138.902344 154.851562 L 138.902344 190.621094 L 94.402344 190.621094 L 94.402344 154.851562 Z M 59.246094 115.355469 L 59.246094 107.332031 L 97.046875 107.332031 L 97.046875 122.957031 L 59.246094 122.957031 Z M 59.246094 131.476562 L 85.882812 131.476562 L 85.882812 293.089844 L 59.246094 293.089844 Z M 315.089844 293.089844 L 94.402344 293.089844 L 94.402344 277.144531 C 96.625 276.085938 98.496094 274.378906 99.773438 272.179688 L 102.484375 267.472656 C 103.21875 266.203125 104.378906 265.53125 105.835938 265.53125 C 107.292969 265.53125 108.445312 266.199219 109.175781 267.460938 L 111.894531 272.179688 C 114.125 276.042969 118.132812 278.355469 122.617188 278.355469 C 127.101562 278.355469 131.109375 276.046875 133.34375 272.179688 L 136.058594 267.472656 C 136.796875 266.203125 137.953125 265.53125 139.414062 265.53125 C 140.863281 265.53125 142.019531 266.203125 142.75 267.460938 L 145.46875 272.179688 C 147.703125 276.046875 151.710938 278.355469 156.191406 278.355469 C 160.675781 278.355469 164.683594 276.046875 166.917969 272.179688 L 169.640625 267.457031 C 170.359375 266.199219 171.511719 265.53125 172.972656 265.53125 C 174.433594 265.53125 175.589844 266.203125 176.324219 267.460938 L 179.042969 272.179688 C 181.277344 276.042969 185.285156 278.355469 189.769531 278.355469 C 194.25 278.355469 198.257812 276.046875 200.492188 272.179688 L 203.214844 267.457031 C 203.9375 266.199219 205.085938 265.53125 206.546875 265.53125 C 208.007812 265.53125 209.164062 266.203125 209.902344 267.460938 L 212.621094 272.179688 C 214.847656 276.042969 218.851562 278.351562 223.324219 278.355469 C 223.328125 278.355469 223.332031 278.355469 223.339844 278.355469 C 227.816406 278.355469 231.824219 276.046875 234.066406 272.179688 L 236.792969 267.457031 C 237.511719 266.199219 238.664062 265.53125 240.125 265.53125 C 241.585938 265.53125 242.742188 266.203125 243.472656 267.457031 L 246.183594 272.1875 C 248.421875 276.054688 252.4375 278.355469 256.910156 278.355469 C 261.386719 278.355469 265.394531 276.046875 267.644531 272.167969 L 270.339844 267.464844 C 271.078125 266.199219 272.234375 265.527344 273.695312 265.527344 C 275.152344 265.527344 276.3125 266.199219 277.042969 267.449219 L 279.753906 272.183594 C 281.992188 276.046875 286 278.351562 290.480469 278.351562 C 294.957031 278.351562 298.964844 276.042969 301.214844 272.164062 L 303.910156 267.460938 C 304.648438 266.191406 305.804688 265.519531 307.265625 265.519531 C 308.722656 265.519531 309.882812 266.191406 310.609375 267.449219 L 315.089844 275.226562 Z M 315.089844 259.78125 C 312.925781 258.003906 310.195312 257.007812 307.265625 257.007812 C 302.792969 257.007812 298.777344 259.320312 296.527344 263.210938 L 293.832031 267.910156 C 292.824219 269.640625 291.148438 269.832031 290.480469 269.832031 C 289.808594 269.832031 288.128906 269.648438 287.132812 267.929688 L 284.417969 263.203125 C 282.175781 259.328125 278.160156 257.015625 273.6875 257.015625 C 269.214844 257.015625 265.203125 259.328125 262.953125 263.21875 L 260.257812 267.914062 C 259.25 269.648438 257.574219 269.839844 256.902344 269.839844 C 256.230469 269.839844 254.550781 269.652344 253.554688 267.933594 L 250.84375 263.207031 C 248.597656 259.332031 244.589844 257.019531 240.113281 257.019531 C 235.625 257.019531 231.617188 259.335938 229.394531 263.210938 L 226.679688 267.917969 C 225.671875 269.652344 224.003906 269.84375 223.328125 269.84375 C 223.328125 269.84375 223.328125 269.84375 223.324219 269.84375 C 222.652344 269.84375 220.988281 269.65625 219.992188 267.929688 L 217.265625 263.207031 C 215.023438 259.332031 211.007812 257.019531 206.539062 257.019531 C 202.050781 257.019531 198.039062 259.335938 195.824219 263.210938 L 193.105469 267.925781 C 192.109375 269.652344 190.433594 269.839844 189.761719 269.839844 C 189.089844 269.839844 187.417969 269.652344 186.421875 267.925781 L 183.695312 263.203125 C 181.453125 259.328125 177.445312 257.015625 172.96875 257.015625 C 168.480469 257.015625 164.472656 259.332031 162.246094 263.207031 L 159.53125 267.917969 C 158.53125 269.648438 156.859375 269.832031 156.1875 269.832031 C 155.515625 269.832031 153.84375 269.648438 152.84375 267.917969 L 150.121094 263.195312 C 147.878906 259.320312 143.875 257.007812 139.40625 257.007812 C 134.9375 257.007812 130.921875 259.320312 128.679688 263.203125 L 125.960938 267.914062 C 124.960938 269.640625 123.289062 269.828125 122.617188 269.828125 C 121.945312 269.828125 120.273438 269.640625 119.273438 267.914062 L 116.5625 263.207031 C 114.335938 259.320312 110.324219 257.003906 105.835938 257.003906 C 101.367188 257.003906 97.351562 259.316406 95.109375 263.195312 L 94.402344 264.417969 L 94.402344 251.03125 C 96.632812 249.972656 98.503906 248.261719 99.773438 246.054688 L 102.488281 241.359375 C 103.226562 240.089844 104.382812 239.417969 105.84375 239.417969 C 107.296875 239.417969 108.449219 240.085938 109.179688 241.351562 L 111.894531 246.042969 C 114.125 249.917969 118.132812 252.238281 122.617188 252.238281 C 127.101562 252.238281 131.113281 249.925781 133.335938 246.054688 L 136.054688 241.351562 C 136.789062 240.085938 137.945312 239.414062 139.40625 239.414062 C 140.859375 239.414062 142.015625 240.085938 142.746094 241.347656 L 145.457031 246.039062 C 147.691406 249.914062 151.699219 252.234375 156.183594 252.234375 C 160.664062 252.234375 164.679688 249.917969 166.902344 246.050781 L 169.628906 241.335938 C 170.351562 240.078125 171.5 239.414062 172.960938 239.414062 C 174.421875 239.414062 175.578125 240.085938 176.316406 241.347656 L 179.027344 246.039062 C 181.261719 249.914062 185.269531 252.234375 189.753906 252.234375 C 194.234375 252.234375 198.25 249.917969 200.472656 246.050781 L 203.199219 241.332031 C 203.921875 240.074219 205.070312 239.40625 206.53125 239.40625 C 207.992188 239.40625 209.148438 240.078125 209.886719 241.34375 L 212.597656 246.035156 C 214.824219 249.910156 218.828125 252.222656 223.304688 252.226562 C 223.3125 252.226562 223.316406 252.226562 223.324219 252.226562 C 227.800781 252.226562 231.808594 249.914062 234.046875 246.042969 L 236.777344 241.332031 C 237.496094 240.074219 238.648438 239.40625 240.109375 239.40625 C 241.566406 239.40625 242.726562 240.078125 243.453125 241.335938 L 246.164062 246.042969 C 248.402344 249.914062 252.414062 252.226562 256.890625 252.226562 C 261.371094 252.226562 265.382812 249.914062 267.628906 246.035156 L 270.324219 241.34375 C 271.058594 240.074219 272.21875 239.402344 273.675781 239.402344 C 275.136719 239.402344 276.292969 240.074219 277.023438 241.332031 L 279.734375 246.039062 C 281.972656 249.914062 285.984375 252.222656 290.460938 252.222656 C 294.941406 252.222656 298.953125 249.910156 301.199219 246.027344 L 303.894531 241.335938 C 304.628906 240.070312 305.789062 239.398438 307.246094 239.398438 C 308.707031 239.398438 309.863281 240.070312 310.59375 241.328125 L 315.074219 249.105469 L 315.074219 259.78125 Z M 257.234375 139.871094 L 267.019531 130.09375 C 268.683594 128.429688 271.386719 128.429688 273.046875 130.101562 C 274.710938 131.761719 274.710938 134.464844 273.042969 136.121094 L 260.246094 148.90625 C 259.414062 149.738281 258.320312 150.152344 257.234375 150.152344 C 256.144531 150.152344 255.054688 149.738281 254.222656 148.90625 L 246.878906 141.574219 C 245.214844 139.914062 245.207031 137.214844 246.871094 135.550781 C 248.535156 133.890625 251.230469 133.882812 252.894531 135.546875 Z M 178.386719 180.742188 C 179.203125 178.535156 181.648438 177.402344 183.855469 178.214844 C 193.882812 181.910156 201.992188 186.570312 208.648438 192.476562 C 210.40625 194.035156 210.574219 196.726562 209.011719 198.488281 C 208.167969 199.4375 206.996094 199.921875 205.824219 199.921875 C 204.816406 199.921875 203.808594 199.570312 203 198.851562 C 197.152344 193.664062 189.929688 189.53125 180.921875 186.210938 C 178.703125 185.402344 177.574219 182.949219 178.386719 180.742188 Z M 209.003906 107.234375 C 217.625 86.605469 237.628906 73.277344 259.972656 73.277344 C 285.917969 73.277344 307.945312 91.140625 313.699219 115.789062 L 315.851562 112.6875 C 317.195312 110.75 319.847656 110.277344 321.785156 111.621094 C 323.714844 112.960938 324.191406 115.617188 322.851562 117.550781 L 314.390625 129.730469 C 313.746094 130.660156 312.757812 131.292969 311.644531 131.496094 C 311.394531 131.539062 311.144531 131.566406 310.894531 131.566406 C 310.03125 131.566406 309.175781 131.304688 308.457031 130.804688 L 296.277344 122.328125 C 294.347656 120.984375 293.867188 118.332031 295.21875 116.394531 C 296.5625 114.464844 299.214844 113.984375 301.148438 115.335938 L 305.542969 118.390625 C 300.910156 97.222656 282.136719 81.8125 259.980469 81.8125 C 241.082031 81.8125 224.164062 93.085938 216.871094 110.53125 C 215.964844 112.703125 213.464844 113.730469 211.296875 112.820312 C 209.121094 111.898438 208.097656 109.402344 209.003906 107.234375 Z M 197.058594 138.21875 L 205.519531 126.039062 C 206.164062 125.109375 207.152344 124.476562 208.265625 124.273438 C 209.378906 124.070312 210.523438 124.320312 211.453125 124.964844 L 223.648438 133.441406 C 225.578125 134.785156 226.058594 137.4375 224.714844 139.375 C 223.371094 141.308594 220.714844 141.785156 218.78125 140.441406 L 214.097656 137.183594 C 218.183594 159.101562 237.191406 175.136719 259.96875 175.136719 C 278.863281 175.136719 295.777344 163.867188 303.058594 146.429688 C 303.964844 144.261719 306.457031 143.234375 308.632812 144.140625 C 310.804688 145.046875 311.832031 147.539062 310.925781 149.714844 C 302.316406 170.332031 282.316406 183.660156 259.972656 183.660156 C 246.125 183.660156 232.886719 178.507812 222.683594 169.164062 C 214.207031 161.398438 208.445312 151.296875 206.042969 140.226562 L 204.0625 143.078125 C 203.238281 144.265625 201.910156 144.90625 200.5625 144.90625 C 199.726562 144.90625 198.878906 144.660156 198.136719 144.144531 C 196.195312 142.808594 195.722656 140.152344 197.058594 138.21875 Z M 197.058594 138.21875 "/></g></g></svg>