<svg xmlns="http://www.w3.org/2000/svg" xmlns:xlink="http://www.w3.org/1999/xlink" width="500" zoomAndPan="magnify" viewBox="0 0 375 374.999991" height="500" preserveAspectRatio="xMidYMid meet" version="1.2"><defs><clipPath id="f6c88599e0"><path d="M 49.089844 47.335938 L 325.839844 47.335938 L 325.839844 327.835938 L 49.089844 327.835938 Z M 49.089844 47.335938 "/></clipPath></defs><g id="261d444e0d"><g clip-rule="nonzero" clip-path="url(#f6c88599e0)"><path style=" stroke:none;fill-rule:nonzero;fill:#ffffff;fill-opacity:1;" d="M 71.507812 218.117188 C 57.84375 166.0625 80.886719 110.894531 127.539062 83.957031 C 152.398438 69.605469 181.117188 64.691406 209.132812 69.871094 L 200.339844 53.765625 C 199.292969 51.84375 200 49.4375 201.917969 48.386719 C 203.839844 47.339844 206.25 48.046875 207.296875 49.96875 L 220.273438 73.738281 C 221.285156 75.59375 220.664062 77.917969 218.855469 79.019531 L 195.734375 93.121094 C 193.867188 94.261719 191.425781 93.667969 190.289062 91.800781 C 189.148438 89.929688 189.738281 87.492188 191.609375 86.351562 L 206.269531 77.414062 C 180.5625 73 154.296875 77.660156 131.503906 90.820312 C 87.933594 115.976562 66.414062 167.496094 79.175781 216.105469 C 79.730469 218.222656 78.464844 220.386719 76.347656 220.945312 C 76.011719 221.03125 75.671875 221.074219 75.339844 221.074219 C 73.582031 221.074219 71.976562 219.898438 71.507812 218.117188 Z M 298.585938 154.550781 C 296.46875 155.105469 295.203125 157.273438 295.761719 159.390625 C 308.519531 207.996094 286.996094 259.511719 243.421875 284.671875 C 220.644531 297.824219 194.363281 302.488281 168.65625 298.082031 L 183.320312 289.140625 C 185.1875 288 185.78125 285.5625 184.640625 283.691406 C 183.5 281.824219 181.0625 281.234375 179.191406 282.371094 L 156.070312 296.472656 C 154.265625 297.574219 153.640625 299.898438 154.65625 301.753906 L 167.628906 325.523438 C 168.347656 326.84375 169.710938 327.589844 171.113281 327.589844 C 171.753906 327.589844 172.40625 327.433594 173.007812 327.105469 C 174.929688 326.054688 175.636719 323.648438 174.585938 321.726562 L 165.796875 305.621094 C 173.042969 306.960938 180.332031 307.625 187.59375 307.625 C 208.40625 307.621094 228.96875 302.167969 247.386719 291.535156 C 294.046875 264.597656 317.089844 209.429688 303.425781 157.375 C 302.871094 155.257812 300.703125 153.996094 298.585938 154.550781 Z M 232.277344 166.160156 C 229.929688 169.007812 229.136719 172.710938 230.105469 176.320312 C 231.070312 179.933594 233.609375 182.742188 237.070312 184.03125 C 238.617188 184.609375 239.648438 186.09375 239.648438 187.746094 C 239.648438 189.402344 238.617188 190.882812 237.070312 191.460938 C 233.585938 192.761719 231.035156 195.566406 230.070312 199.164062 C 229.109375 202.757812 229.914062 206.464844 232.277344 209.332031 C 233.332031 210.609375 233.480469 212.40625 232.65625 213.835938 C 231.828125 215.269531 230.195312 216.039062 228.566406 215.765625 C 224.898438 215.148438 221.289062 216.304688 218.652344 218.9375 C 216.023438 221.570312 214.867188 225.183594 215.480469 228.847656 C 215.753906 230.480469 214.988281 232.109375 213.554688 232.9375 C 212.121094 233.765625 210.328125 233.613281 209.050781 232.5625 C 206.203125 230.210938 202.5 229.417969 198.890625 230.386719 C 195.277344 231.355469 192.46875 233.890625 191.175781 237.351562 C 190.597656 238.902344 189.117188 239.929688 187.464844 239.929688 C 185.808594 239.929688 184.328125 238.902344 183.75 237.351562 C 182.449219 233.867188 179.640625 231.316406 176.046875 230.355469 C 172.449219 229.390625 168.746094 230.195312 165.875 232.5625 C 164.601562 233.613281 162.804688 233.765625 161.371094 232.9375 C 159.9375 232.109375 159.171875 230.480469 159.445312 228.847656 C 160.0625 225.183594 158.90625 221.570312 156.273438 218.9375 C 153.640625 216.304688 150.03125 215.148438 146.359375 215.765625 C 144.726562 216.039062 143.097656 215.269531 142.273438 213.839844 C 141.445312 212.40625 141.59375 210.609375 142.648438 209.332031 C 144.996094 206.488281 145.789062 202.785156 144.824219 199.171875 C 143.855469 195.5625 141.316406 192.75 137.859375 191.460938 C 136.308594 190.882812 135.28125 189.402344 135.28125 187.746094 C 135.28125 186.09375 136.308594 184.613281 137.859375 184.035156 C 141.339844 182.734375 143.890625 179.925781 144.855469 176.332031 C 145.820312 172.734375 145.015625 169.027344 142.648438 166.160156 C 141.59375 164.882812 141.445312 163.089844 142.273438 161.65625 C 143.097656 160.222656 144.726562 159.457031 146.359375 159.730469 C 150.027344 160.34375 153.640625 159.191406 156.273438 156.558594 C 158.90625 153.925781 160.0625 150.3125 159.445312 146.644531 C 159.171875 145.011719 159.9375 143.382812 161.371094 142.554688 C 162.804688 141.726562 164.601562 141.878906 165.875 142.933594 C 168.722656 145.28125 172.425781 146.074219 176.035156 145.109375 C 179.648438 144.140625 182.460938 141.601562 183.75 138.144531 C 184.328125 136.59375 185.808594 135.566406 187.460938 135.566406 C 189.117188 135.566406 190.597656 136.59375 191.175781 138.144531 C 192.476562 141.625 195.285156 144.175781 198.878906 145.140625 C 202.476562 146.105469 206.183594 145.300781 209.050781 142.933594 C 210.324219 141.878906 212.121094 141.730469 213.554688 142.558594 C 214.988281 143.382812 215.753906 145.015625 215.480469 146.644531 C 214.863281 150.3125 216.019531 153.925781 218.652344 156.558594 C 221.285156 159.1875 224.898438 160.34375 228.566406 159.730469 C 230.195312 159.457031 231.828125 160.222656 232.652344 161.65625 C 233.480469 163.089844 233.332031 164.882812 232.277344 166.160156 Z M 228.132812 187.738281 C 225.417969 185.292969 223.441406 182.082031 222.449219 178.371094 C 221.453125 174.664062 221.5625 170.894531 222.6875 167.417969 C 219.097656 166.667969 215.765625 164.875 213.050781 162.160156 C 210.335938 159.445312 208.546875 156.121094 207.796875 152.53125 C 204.3125 153.675781 200.535156 153.789062 196.828125 152.792969 C 193.121094 151.800781 189.90625 149.8125 187.457031 147.074219 C 185.011719 149.792969 181.796875 151.769531 178.089844 152.761719 C 174.382812 153.757812 170.613281 153.648438 167.136719 152.519531 C 166.382812 156.113281 164.59375 159.445312 161.878906 162.160156 C 159.164062 164.875 155.839844 166.664062 152.25 167.414062 C 153.390625 170.898438 153.503906 174.675781 152.511719 178.382812 C 151.519531 182.089844 149.527344 185.304688 146.792969 187.753906 C 149.507812 190.199219 151.484375 193.410156 152.480469 197.121094 C 153.472656 200.828125 153.367188 204.601562 152.238281 208.074219 C 155.832031 208.828125 159.164062 210.617188 161.878906 213.332031 C 164.589844 216.046875 166.378906 219.371094 167.132812 222.960938 C 169.027344 222.339844 171.011719 222.023438 173.019531 222.023438 C 174.703125 222.023438 176.40625 222.246094 178.097656 222.699219 C 181.808594 223.691406 185.023438 225.679688 187.472656 228.417969 C 189.914062 225.703125 193.128906 223.722656 196.835938 222.730469 C 200.546875 221.734375 204.316406 221.84375 207.792969 222.972656 C 208.542969 219.378906 210.332031 216.046875 213.050781 213.332031 C 215.761719 210.621094 219.089844 208.832031 222.679688 208.078125 C 221.535156 204.59375 221.421875 200.816406 222.414062 197.113281 C 223.410156 193.402344 225.398438 190.1875 228.132812 187.738281 Z M 216.019531 187.746094 C 216.019531 203.492188 203.210938 216.300781 187.464844 216.300781 C 171.71875 216.300781 158.910156 203.492188 158.910156 187.746094 C 158.910156 172 171.71875 159.191406 187.464844 159.191406 C 203.210938 159.191406 216.019531 172 216.019531 187.746094 Z M 208.09375 187.746094 C 208.09375 176.371094 198.839844 167.117188 187.464844 167.117188 C 176.089844 167.117188 166.835938 176.371094 166.835938 187.746094 C 166.835938 199.121094 176.089844 208.375 187.464844 208.375 C 198.839844 208.375 208.09375 199.121094 208.09375 187.746094 Z M 325.832031 99.867188 C 325.832031 127.703125 303.183594 150.355469 275.34375 150.355469 C 247.503906 150.355469 224.855469 127.703125 224.855469 99.867188 C 224.855469 72.027344 247.503906 49.375 275.34375 49.375 C 303.183594 49.375 325.832031 72.027344 325.832031 99.867188 Z M 317.90625 99.867188 C 317.90625 76.394531 298.8125 57.300781 275.34375 57.300781 C 251.875 57.300781 232.78125 76.394531 232.78125 99.867188 C 232.78125 123.335938 251.875 142.425781 275.34375 142.425781 C 298.8125 142.425781 317.90625 123.335938 317.90625 99.867188 Z M 150.070312 275.628906 C 150.070312 303.464844 127.421875 326.117188 99.582031 326.117188 C 71.742188 326.117188 49.09375 303.464844 49.09375 275.628906 C 49.09375 247.789062 71.742188 225.136719 99.582031 225.136719 C 127.421875 225.136719 150.070312 247.789062 150.070312 275.628906 Z M 142.144531 275.628906 C 142.144531 252.160156 123.050781 233.066406 99.582031 233.066406 C 76.113281 233.066406 57.019531 252.160156 57.019531 275.628906 C 57.019531 299.097656 76.113281 318.191406 99.582031 318.191406 C 123.050781 318.191406 142.144531 299.097656 142.144531 275.628906 Z M 116.054688 270.460938 C 116.054688 280.238281 111.414062 289.167969 103.546875 294.785156 L 103.546875 303 C 103.546875 305.1875 101.773438 306.960938 99.582031 306.960938 C 97.394531 306.960938 95.621094 305.1875 95.621094 303 L 95.621094 294.785156 C 87.75 289.167969 83.109375 280.238281 83.109375 270.460938 C 83.109375 259.914062 88.5 250.347656 97.527344 244.867188 C 98.789062 244.101562 100.375 244.101562 101.640625 244.867188 C 110.664062 250.347656 116.054688 259.914062 116.054688 270.460938 Z M 108.128906 270.460938 C 108.128906 263.542969 104.976562 257.199219 99.582031 253.050781 C 94.191406 257.199219 91.039062 263.542969 91.039062 270.460938 C 91.039062 277.375 94.191406 283.71875 99.582031 287.867188 C 104.976562 283.71875 108.128906 277.375 108.128906 270.460938 Z M 293.617188 102.898438 C 295.351562 111.4375 293.914062 118.578125 289.34375 124.125 C 285.667969 128.585938 280.695312 131.042969 275.34375 131.042969 C 269.992188 131.042969 265.023438 128.585938 261.34375 124.125 C 256.773438 118.578125 255.335938 111.4375 257.070312 102.898438 C 258.71875 94.777344 262.988281 87.171875 266.757812 80.464844 C 268.625 77.136719 270.390625 73.996094 271.730469 71.023438 C 272.371094 69.601562 273.785156 68.6875 275.34375 68.6875 C 276.902344 68.6875 278.316406 69.601562 278.957031 71.023438 C 280.296875 73.996094 282.0625 77.136719 283.929688 80.464844 C 287.699219 87.171875 291.96875 94.777344 293.617188 102.898438 Z M 285.851562 104.476562 C 284.449219 97.574219 280.671875 90.847656 277.019531 84.34375 C 276.449219 83.328125 275.890625 82.332031 275.34375 81.347656 C 274.800781 82.332031 274.238281 83.332031 273.667969 84.34375 C 270.015625 90.847656 266.238281 97.574219 264.839844 104.476562 C 263.570312 110.730469 264.402344 115.371094 267.460938 119.085938 C 269.605469 121.6875 272.40625 123.117188 275.34375 123.117188 C 278.285156 123.117188 281.082031 121.6875 283.226562 119.085938 C 286.285156 115.371094 287.121094 110.730469 285.851562 104.476562 Z M 285.851562 104.476562 "/></g></g></svg>