<svg xmlns="http://www.w3.org/2000/svg" xmlns:xlink="http://www.w3.org/1999/xlink" width="500" zoomAndPan="magnify" viewBox="0 0 375 374.999991" height="500" preserveAspectRatio="xMidYMid meet" version="1.0"><defs><clipPath id="ad8095c787"><path d="M 46.195312 47.382812 L 328.945312 47.382812 L 328.945312 327.882812 L 46.195312 327.882812 Z M 46.195312 47.382812 " clip-rule="nonzero"/></clipPath></defs><g clip-path="url(#ad8095c787)"><path fill="#000000" d="M 188.320312 47.382812 C 236.164062 47.382812 282.320312 54.8125 325.796875 69.339844 C 327.625 69.992188 328.863281 71.621094 328.863281 73.578125 L 328.863281 295.5 C 328.667969 305.601562 314.457031 313.484375 285.25 319.480469 C 259.046875 324.886719 224.367188 327.882812 187.601562 327.882812 C 150.769531 327.882812 116.089844 324.886719 89.886719 319.480469 C 60.683594 313.417969 46.40625 305.601562 46.277344 295.4375 L 46.277344 73.578125 C 46.277344 71.621094 47.515625 69.992188 49.339844 69.339844 C 92.949219 55.007812 139.039062 47.644531 186.296875 47.382812 C 187.015625 47.382812 187.667969 47.382812 188.320312 47.382812 Z M 297.964844 107.199219 C 300.375 107.199219 302.394531 109.21875 302.394531 111.628906 L 302.394531 235.164062 C 302.394531 237.640625 300.375 239.597656 297.964844 239.597656 C 295.550781 239.597656 293.53125 237.640625 293.53125 235.164062 L 293.53125 111.628906 C 293.53125 109.21875 295.550781 107.199219 297.964844 107.199219 Z M 215.175781 129.285156 C 215.175781 129.285156 215.242188 129.285156 215.175781 129.285156 C 216.414062 129.285156 217.523438 129.742188 218.371094 130.652344 C 229.972656 142.773438 247.183594 167.335938 247.183594 184.996094 C 247.183594 202.914062 232.839844 217.507812 215.175781 217.507812 C 197.25 217.507812 182.582031 202.914062 182.582031 184.996094 C 182.582031 166.816406 200.640625 141.992188 212.046875 130.523438 C 212.828125 129.742188 214.003906 129.285156 215.175781 129.285156 Z M 215.175781 208.710938 C 227.953125 208.710938 238.316406 198.089844 238.316406 184.996094 C 238.316406 172.09375 225.671875 152.351562 215.109375 140.167969 C 204.550781 151.894531 191.449219 171.832031 191.449219 184.996094 C 191.449219 198.089844 202.074219 208.710938 215.175781 208.710938 Z M 86.5625 112.734375 L 139.558594 112.734375 L 139.558594 90.125 C 139.558594 87.652344 141.515625 85.695312 143.992188 85.695312 C 146.402344 85.695312 148.359375 87.652344 148.359375 90.125 L 148.359375 263.378906 C 160.941406 262.597656 174.109375 262.207031 187.601562 262.207031 C 224.496094 262.207031 259.242188 265.203125 285.25 270.675781 C 301.351562 274 312.890625 277.972656 320.0625 282.535156 L 320.0625 76.769531 C 236.492188 49.46875 140.277344 49.46875 55.140625 76.769531 L 55.140625 282.535156 C 60.292969 279.210938 67.851562 276.214844 77.761719 273.542969 L 77.761719 90.125 C 77.761719 87.652344 79.71875 85.695312 82.128906 85.695312 C 84.605469 85.695312 86.5625 87.652344 86.5625 90.125 Z M 139.558594 121.53125 L 86.5625 121.53125 L 86.5625 146.945312 L 139.558594 146.945312 Z M 139.558594 155.738281 L 86.5625 155.738281 L 86.5625 181.671875 L 139.558594 181.671875 Z M 139.558594 190.535156 L 86.5625 190.535156 L 86.5625 215.878906 L 139.558594 215.878906 Z M 139.558594 224.675781 L 86.5625 224.742188 L 86.5625 250.085938 L 139.558594 250.085938 Z M 139.558594 258.882812 L 86.5625 258.882812 L 86.5625 271.394531 C 87.671875 271.132812 88.777344 270.871094 89.886719 270.675781 C 104.164062 267.679688 121.109375 265.398438 139.558594 263.964844 Z M 84.214844 281.035156 C 83.628906 281.363281 82.910156 281.558594 82.195312 281.558594 C 61.074219 286.964844 55.140625 292.828125 55.140625 295.304688 C 55.140625 297.519531 61.660156 304.6875 91.644531 310.878906 C 117.332031 316.089844 151.359375 319.023438 187.601562 319.023438 C 223.78125 319.023438 257.808594 316.089844 283.492188 310.878906 C 313.476562 304.6875 320.0625 297.519531 320.0625 295.304688 C 320.0625 292.375 312.433594 285.335938 283.425781 279.34375 C 257.9375 274 223.910156 271.066406 187.601562 271.066406 C 173.066406 271.066406 158.917969 271.523438 145.554688 272.433594 C 145.035156 272.628906 144.511719 272.695312 143.992188 272.695312 C 143.601562 272.695312 143.273438 272.695312 143.015625 272.566406 C 123.847656 274 106.3125 276.214844 91.710938 279.34375 C 89.039062 279.863281 86.5625 280.449219 84.214844 281.035156 Z M 84.214844 281.035156 " fill-opacity="1" fill-rule="evenodd"/></g></svg>