<svg xmlns="http://www.w3.org/2000/svg" xmlns:xlink="http://www.w3.org/1999/xlink" width="500" zoomAndPan="magnify" viewBox="0 0 375 374.999991" height="500" preserveAspectRatio="xMidYMid meet" version="1.0"><defs><clipPath id="95d9e55c96"><path d="M 114.429688 139.023438 L 260.5625 139.023438 L 260.5625 309.722656 L 114.429688 309.722656 Z M 114.429688 139.023438 " clip-rule="nonzero"/></clipPath><clipPath id="5d377d4bfb"><path d="M 195 65.265625 L 203 65.265625 L 203 76 L 195 76 Z M 195 65.265625 " clip-rule="nonzero"/></clipPath></defs><g clip-path="url(#95d9e55c96)"><path fill="#000000" d="M 183.714844 280.617188 C 185.171875 279.378906 191.078125 274.371094 191.238281 274.253906 C 191.785156 273.863281 192.457031 273.628906 193.183594 273.625 C 193.304688 273.621094 206.011719 273.367188 215.847656 265.421875 L 240.363281 245.234375 C 240.363281 245.230469 240.375 245.222656 240.382812 245.21875 C 249.972656 237.472656 249.539062 233.472656 248.277344 230.042969 C 247.566406 228.113281 246.277344 226.675781 244.824219 226.191406 C 243.636719 225.796875 242.34375 226.046875 240.976562 226.933594 C 240.964844 226.9375 240.953125 226.945312 240.9375 226.953125 C 240.882812 226.988281 240.824219 227.023438 240.765625 227.054688 C 240.722656 227.078125 240.683594 227.101562 240.640625 227.121094 C 240.578125 227.152344 240.519531 227.175781 240.460938 227.203125 C 240.414062 227.222656 240.371094 227.242188 240.324219 227.261719 C 240.269531 227.28125 240.210938 227.300781 240.152344 227.320312 C 240.101562 227.332031 240.050781 227.351562 240 227.363281 C 239.949219 227.378906 239.894531 227.390625 239.835938 227.402344 C 239.785156 227.414062 239.730469 227.425781 239.675781 227.4375 C 239.621094 227.441406 239.570312 227.449219 239.519531 227.457031 C 239.460938 227.460938 239.402344 227.46875 239.34375 227.472656 C 239.292969 227.476562 239.242188 227.476562 239.191406 227.476562 C 239.132812 227.480469 239.074219 227.480469 239.015625 227.480469 C 238.964844 227.476562 238.914062 227.472656 238.859375 227.46875 C 238.804688 227.464844 238.746094 227.460938 238.691406 227.453125 C 238.636719 227.445312 238.582031 227.4375 238.53125 227.425781 C 238.476562 227.417969 238.421875 227.410156 238.371094 227.398438 C 238.3125 227.386719 238.257812 227.371094 238.203125 227.355469 C 238.152344 227.339844 238.105469 227.328125 238.054688 227.3125 C 238 227.292969 237.945312 227.269531 237.890625 227.25 C 237.839844 227.230469 237.792969 227.214844 237.746094 227.195312 C 237.695312 227.171875 237.640625 227.144531 237.589844 227.117188 C 237.542969 227.09375 237.496094 227.070312 237.449219 227.046875 C 237.398438 227.019531 237.351562 226.988281 237.300781 226.957031 C 237.257812 226.929688 237.210938 226.902344 237.167969 226.871094 C 237.121094 226.839844 237.078125 226.804688 237.035156 226.769531 C 236.988281 226.734375 236.945312 226.699219 236.898438 226.664062 C 236.859375 226.628906 236.820312 226.59375 236.78125 226.554688 C 236.738281 226.515625 236.695312 226.472656 236.652344 226.429688 C 236.613281 226.390625 236.578125 226.347656 236.542969 226.308594 C 236.503906 226.261719 236.464844 226.214844 236.425781 226.167969 C 236.417969 226.15625 236.40625 226.144531 236.394531 226.132812 C 236.367188 226.097656 236.347656 226.058594 236.320312 226.023438 C 236.296875 225.988281 236.273438 225.957031 236.25 225.921875 C 236.242188 225.910156 236.234375 225.898438 236.226562 225.882812 C 236.195312 225.832031 236.164062 225.777344 236.132812 225.722656 C 236.105469 225.675781 236.078125 225.628906 236.054688 225.578125 C 236.03125 225.53125 236.011719 225.484375 235.992188 225.4375 C 235.964844 225.375 235.9375 225.316406 235.914062 225.257812 C 235.902344 225.222656 235.890625 225.191406 235.882812 225.15625 C 235.855469 225.078125 235.832031 225 235.808594 224.921875 C 235.804688 224.90625 235.804688 224.894531 235.800781 224.878906 C 235.535156 223.804688 235.808594 222.660156 236.542969 221.820312 C 236.546875 221.8125 236.554688 221.804688 236.5625 221.796875 C 236.628906 221.722656 236.695312 221.652344 236.765625 221.585938 C 236.792969 221.5625 236.820312 221.539062 236.847656 221.511719 C 236.902344 221.464844 236.957031 221.417969 237.015625 221.371094 C 237.027344 221.363281 237.035156 221.351562 237.046875 221.34375 C 239.503906 219.484375 242.007812 216.25 240.121094 211.394531 C 239.207031 209.050781 237.503906 207.238281 235.785156 206.78125 C 234.417969 206.417969 232.886719 206.910156 231.238281 208.238281 C 231.210938 208.261719 231.183594 208.28125 231.15625 208.300781 C 231.125 208.328125 231.085938 208.351562 231.054688 208.375 C 231.003906 208.40625 230.957031 208.441406 230.910156 208.472656 C 230.859375 208.503906 230.8125 208.53125 230.761719 208.558594 C 230.710938 208.589844 230.660156 208.617188 230.609375 208.640625 C 230.558594 208.667969 230.507812 208.6875 230.457031 208.710938 C 230.40625 208.734375 230.351562 208.757812 230.300781 208.777344 C 230.25 208.796875 230.195312 208.8125 230.144531 208.832031 C 230.089844 208.847656 230.035156 208.867188 229.984375 208.882812 C 229.929688 208.894531 229.875 208.90625 229.820312 208.917969 C 229.765625 208.929688 229.714844 208.941406 229.660156 208.953125 C 229.605469 208.960938 229.546875 208.96875 229.492188 208.976562 C 229.441406 208.980469 229.386719 208.988281 229.332031 208.992188 C 229.277344 208.996094 229.222656 208.996094 229.167969 208.996094 C 229.113281 209 229.058594 209 229.003906 209 C 228.949219 209 228.894531 208.992188 228.839844 208.988281 C 228.785156 208.984375 228.730469 208.980469 228.675781 208.972656 C 228.621094 208.96875 228.570312 208.960938 228.515625 208.949219 C 228.460938 208.941406 228.40625 208.929688 228.355469 208.921875 C 228.300781 208.910156 228.25 208.894531 228.195312 208.878906 C 228.144531 208.867188 228.089844 208.851562 228.035156 208.835938 C 227.984375 208.816406 227.933594 208.796875 227.882812 208.78125 C 227.832031 208.757812 227.777344 208.742188 227.726562 208.71875 C 227.675781 208.695312 227.628906 208.671875 227.578125 208.648438 C 227.527344 208.625 227.480469 208.601562 227.429688 208.574219 C 227.382812 208.546875 227.335938 208.515625 227.285156 208.484375 C 227.238281 208.457031 227.195312 208.429688 227.148438 208.398438 C 227.101562 208.363281 227.054688 208.328125 227.007812 208.292969 C 226.964844 208.261719 226.921875 208.226562 226.878906 208.191406 C 226.835938 208.152344 226.792969 208.113281 226.746094 208.070312 C 226.707031 208.035156 226.667969 207.996094 226.628906 207.957031 C 226.589844 207.914062 226.550781 207.867188 226.507812 207.820312 C 226.480469 207.792969 226.453125 207.761719 226.429688 207.730469 C 226.417969 207.71875 226.410156 207.707031 226.398438 207.695312 C 226.390625 207.679688 226.378906 207.667969 226.367188 207.65625 C 226.34375 207.621094 226.320312 207.585938 226.296875 207.550781 C 226.261719 207.503906 226.226562 207.453125 226.195312 207.40625 C 226.167969 207.359375 226.140625 207.3125 226.117188 207.265625 C 226.085938 207.210938 226.054688 207.15625 226.027344 207.101562 C 226.003906 207.058594 225.984375 207.011719 225.964844 206.964844 C 225.9375 206.910156 225.914062 206.847656 225.890625 206.789062 C 225.875 206.746094 225.859375 206.703125 225.847656 206.660156 C 225.824219 206.597656 225.804688 206.53125 225.789062 206.46875 C 225.777344 206.425781 225.765625 206.386719 225.757812 206.347656 C 225.742188 206.277344 225.726562 206.210938 225.714844 206.140625 C 225.710938 206.101562 225.707031 206.0625 225.699219 206.023438 C 225.691406 205.953125 225.683594 205.882812 225.679688 205.8125 C 225.675781 205.773438 225.675781 205.738281 225.675781 205.699219 C 225.671875 205.628906 225.671875 205.554688 225.671875 205.484375 C 225.675781 205.445312 225.675781 205.410156 225.679688 205.375 C 225.683594 205.300781 225.6875 205.226562 225.699219 205.15625 C 225.703125 205.117188 225.710938 205.082031 225.714844 205.042969 C 225.726562 204.972656 225.738281 204.90625 225.753906 204.835938 C 225.761719 204.796875 225.773438 204.753906 225.785156 204.714844 C 225.800781 204.652344 225.820312 204.585938 225.839844 204.523438 C 225.855469 204.480469 225.871094 204.433594 225.886719 204.390625 C 225.910156 204.332031 225.929688 204.277344 225.953125 204.222656 C 225.976562 204.171875 226 204.121094 226.023438 204.074219 C 226.046875 204.027344 226.070312 203.976562 226.097656 203.929688 C 226.128906 203.875 226.160156 203.824219 226.191406 203.769531 C 226.21875 203.730469 226.242188 203.6875 226.269531 203.648438 C 226.308594 203.59375 226.347656 203.539062 226.390625 203.488281 C 226.417969 203.453125 226.445312 203.417969 226.472656 203.382812 C 226.515625 203.332031 226.566406 203.277344 226.617188 203.226562 C 226.644531 203.195312 226.675781 203.164062 226.707031 203.132812 C 226.753906 203.085938 226.808594 203.039062 226.859375 202.996094 C 226.886719 202.976562 226.910156 202.949219 226.9375 202.925781 C 226.957031 202.910156 226.976562 202.898438 226.992188 202.882812 C 227 202.878906 227.007812 202.871094 227.015625 202.863281 C 229.636719 200.871094 232.316406 197.566406 230.195312 193.160156 C 229.351562 191.402344 227.683594 189.195312 225.773438 188.742188 C 224.527344 188.449219 223.078125 188.9375 221.460938 190.1875 C 221.460938 190.191406 221.457031 190.191406 221.453125 190.195312 C 221.445312 190.199219 221.441406 190.203125 221.433594 190.210938 C 221.394531 190.238281 221.355469 190.265625 221.316406 190.289062 C 221.261719 190.328125 221.210938 190.367188 221.15625 190.398438 C 221.113281 190.425781 221.066406 190.449219 221.019531 190.476562 C 220.964844 190.503906 220.910156 190.535156 220.859375 190.5625 C 220.808594 190.585938 220.757812 190.605469 220.710938 190.625 C 220.65625 190.648438 220.601562 190.675781 220.546875 190.695312 C 220.496094 190.714844 220.441406 190.730469 220.390625 190.746094 C 220.335938 190.761719 220.28125 190.78125 220.226562 190.796875 C 220.175781 190.808594 220.121094 190.820312 220.066406 190.828125 C 220.011719 190.839844 219.957031 190.855469 219.902344 190.863281 C 219.847656 190.871094 219.792969 190.875 219.738281 190.882812 C 219.683594 190.886719 219.628906 190.894531 219.578125 190.898438 C 219.519531 190.902344 219.464844 190.902344 219.410156 190.902344 C 219.355469 190.902344 219.300781 190.90625 219.246094 190.902344 C 219.191406 190.902344 219.140625 190.894531 219.085938 190.890625 C 219.03125 190.886719 218.976562 190.882812 218.921875 190.875 C 218.867188 190.867188 218.816406 190.855469 218.761719 190.847656 C 218.707031 190.839844 218.652344 190.828125 218.597656 190.816406 C 218.546875 190.804688 218.496094 190.789062 218.445312 190.773438 C 218.390625 190.761719 218.335938 190.746094 218.28125 190.726562 C 218.234375 190.710938 218.183594 190.691406 218.136719 190.671875 C 218.082031 190.652344 218.027344 190.632812 217.972656 190.609375 C 217.925781 190.589844 217.882812 190.5625 217.835938 190.539062 C 217.785156 190.511719 217.730469 190.488281 217.679688 190.457031 C 217.632812 190.433594 217.589844 190.40625 217.546875 190.375 C 217.496094 190.34375 217.445312 190.316406 217.394531 190.28125 C 217.351562 190.25 217.3125 190.214844 217.273438 190.183594 C 217.222656 190.148438 217.175781 190.109375 217.128906 190.070312 C 217.089844 190.035156 217.050781 189.996094 217.011719 189.960938 C 216.96875 189.917969 216.925781 189.878906 216.882812 189.832031 C 216.84375 189.792969 216.8125 189.75 216.777344 189.710938 C 216.738281 189.667969 216.699219 189.625 216.667969 189.582031 C 216.664062 189.578125 216.660156 189.570312 216.65625 189.566406 C 216.652344 189.5625 216.648438 189.558594 216.644531 189.554688 C 216.617188 189.515625 216.589844 189.472656 216.5625 189.4375 C 216.527344 189.382812 216.492188 189.332031 216.457031 189.28125 C 216.433594 189.238281 216.410156 189.195312 216.386719 189.148438 C 216.355469 189.09375 216.324219 189.039062 216.296875 188.984375 C 216.273438 188.941406 216.253906 188.894531 216.234375 188.847656 C 216.210938 188.792969 216.183594 188.738281 216.164062 188.679688 C 216.144531 188.632812 216.132812 188.582031 216.117188 188.53125 C 216.097656 188.480469 216.078125 188.421875 216.066406 188.367188 C 216.050781 188.316406 216.042969 188.265625 216.03125 188.210938 C 216.019531 188.15625 216.003906 188.101562 215.996094 188.050781 C 215.988281 187.996094 215.984375 187.941406 215.976562 187.886719 C 215.96875 187.832031 215.960938 187.78125 215.957031 187.726562 C 215.953125 187.671875 215.957031 187.617188 215.953125 187.558594 C 215.953125 187.507812 215.949219 187.457031 215.953125 187.402344 C 215.953125 187.347656 215.957031 187.289062 215.964844 187.230469 C 215.964844 187.183594 215.96875 187.132812 215.972656 187.082031 C 215.980469 187.023438 215.992188 186.96875 216.003906 186.910156 C 216.011719 186.863281 216.015625 186.8125 216.027344 186.761719 C 216.039062 186.707031 216.058594 186.648438 216.074219 186.59375 C 216.085938 186.546875 216.097656 186.5 216.109375 186.449219 C 216.128906 186.394531 216.152344 186.339844 216.171875 186.285156 C 216.1875 186.238281 216.203125 186.191406 216.222656 186.144531 C 216.246094 186.089844 216.277344 186.035156 216.304688 185.980469 C 216.324219 185.9375 216.34375 185.894531 216.367188 185.851562 C 216.394531 185.796875 216.433594 185.738281 216.46875 185.683594 C 216.492188 185.648438 216.511719 185.609375 216.535156 185.574219 C 216.578125 185.511719 216.625 185.453125 216.667969 185.394531 C 216.691406 185.367188 216.710938 185.335938 216.734375 185.308594 C 216.792969 185.238281 216.851562 185.171875 216.917969 185.109375 C 216.933594 185.09375 216.945312 185.074219 216.960938 185.058594 C 217.042969 184.980469 217.128906 184.902344 217.21875 184.832031 C 217.21875 184.832031 217.21875 184.828125 217.21875 184.828125 C 217.238281 184.816406 217.253906 184.800781 217.273438 184.785156 C 217.277344 184.78125 217.28125 184.78125 217.285156 184.777344 C 217.289062 184.773438 217.296875 184.769531 217.300781 184.765625 C 218.710938 183.691406 243.023438 164.960938 252.460938 155.273438 C 254.488281 153.195312 253.554688 151.242188 253.140625 150.371094 C 252.078125 148.140625 250.210938 146.433594 248.378906 146.019531 C 247.203125 145.75 246.113281 146.039062 245.046875 146.902344 L 187.6875 191.910156 C 186.730469 192.683594 185.429688 192.882812 184.285156 192.425781 C 183.136719 191.976562 182.324219 190.941406 182.15625 189.71875 C 181.480469 184.847656 179.269531 171.289062 177.140625 166.945312 C 172.203125 157.703125 161.933594 152.421875 154.335938 151.984375 C 151.792969 151.835938 147.164062 152.117188 144.738281 155.628906 C 143.164062 157.914062 143.527344 158.738281 143.664062 159.050781 C 144.152344 160.148438 145.773438 161.523438 147.488281 162.980469 C 151.84375 166.679688 157.8125 171.746094 158.816406 182.160156 C 159.808594 192.417969 155.589844 225.101562 155.410156 226.488281 C 155.289062 227.394531 154.828125 228.171875 154.167969 228.707031 C 154.144531 228.726562 154.121094 228.738281 154.097656 228.757812 L 154.101562 228.761719 L 146.433594 235.078125 Z M 115.644531 245.617188 L 136.835938 228.785156 C 138.332031 227.597656 140.5 227.832031 141.707031 229.308594 L 142.101562 229.789062 C 142.105469 229.789062 142.105469 229.785156 142.109375 229.785156 L 148.800781 224.253906 C 149.589844 217.929688 152.824219 191.207031 152.011719 182.820312 C 151.273438 175.164062 146.910156 171.460938 143.0625 168.191406 C 140.734375 166.214844 138.535156 164.347656 137.414062 161.820312 C 136.035156 158.695312 136.589844 155.398438 139.117188 151.742188 C 142.320312 147.101562 147.867188 144.761719 154.730469 145.160156 C 166.007812 145.8125 177.714844 153.46875 183.199219 163.777344 C 183.214844 163.808594 183.226562 163.835938 183.242188 163.863281 C 185.253906 167.917969 186.996094 176.824219 188.011719 182.859375 L 240.75 141.585938 C 243.4375 139.414062 246.683594 138.621094 249.894531 139.351562 C 253.804688 140.242188 257.328125 143.261719 259.3125 147.429688 C 260.277344 149.457031 262.808594 154.015625 256.722656 160.351562 C 251.761719 165.515625 229.339844 182.761719 229.648438 182.929688 C 234.328125 185.441406 235.449219 188.316406 236.355469 190.195312 C 237.957031 193.519531 238.222656 196.921875 237.242188 200.101562 C 237.34375 200.128906 237.449219 200.152344 237.542969 200.175781 C 241.417969 201.207031 244.761719 204.472656 246.488281 208.917969 C 247.929688 212.609375 247.964844 216.300781 246.710938 219.625 C 246.800781 219.652344 246.894531 219.675781 246.984375 219.707031 C 250.4375 220.855469 253.246094 223.761719 254.691406 227.679688 C 258.382812 237.699219 251.707031 244.855469 244.683594 250.53125 C 244.675781 250.539062 244.667969 250.542969 244.660156 250.550781 L 220.144531 270.738281 C 210.289062 278.699219 198.453125 280.140625 194.546875 280.402344 L 188.042969 285.90625 L 188.953125 287.015625 C 190.160156 288.492188 189.960938 290.660156 188.507812 291.894531 L 168.394531 308.898438 C 167.738281 309.453125 166.9375 309.722656 166.140625 309.722656 C 165.148438 309.722656 164.164062 309.304688 163.472656 308.488281 C 162.230469 307.015625 162.414062 304.8125 163.886719 303.570312 L 181.378906 288.78125 L 138.484375 236.390625 L 119.988281 251.082031 C 118.476562 252.28125 116.28125 252.027344 115.085938 250.519531 C 113.886719 249.007812 114.136719 246.8125 115.644531 245.617188 " fill-opacity="1" fill-rule="nonzero"/></g><path fill="#000000" d="M 179.59375 136.304688 C 178.800781 136.304688 178.003906 136.035156 177.351562 135.488281 L 167.476562 127.195312 C 166 125.953125 165.808594 123.753906 167.050781 122.277344 C 168.289062 120.800781 170.492188 120.609375 171.964844 121.847656 L 181.839844 130.144531 C 183.316406 131.382812 183.507812 133.585938 182.269531 135.058594 C 181.578125 135.882812 180.589844 136.304688 179.59375 136.304688 " fill-opacity="1" fill-rule="nonzero"/><path fill="#000000" d="M 160.105469 116.441406 C 159.414062 117.265625 158.425781 117.6875 157.433594 117.6875 C 156.640625 117.6875 155.84375 117.421875 155.1875 116.871094 L 146.464844 109.542969 C 144.988281 108.300781 144.796875 106.101562 146.039062 104.625 C 147.277344 103.148438 149.476562 102.957031 150.953125 104.199219 L 159.679688 111.527344 C 161.152344 112.765625 161.34375 114.964844 160.105469 116.441406 " fill-opacity="1" fill-rule="nonzero"/><path fill="#000000" d="M 223.773438 132.308594 L 219.988281 135.488281 C 219.335938 136.035156 218.539062 136.304688 217.746094 136.304688 C 216.75 136.304688 215.761719 135.882812 215.070312 135.058594 C 213.832031 133.585938 214.023438 131.382812 215.5 130.144531 L 219.285156 126.964844 C 220.761719 125.722656 222.960938 125.914062 224.203125 127.390625 C 225.441406 128.867188 225.25 131.066406 223.773438 132.308594 " fill-opacity="1" fill-rule="nonzero"/><path fill="#000000" d="M 250.875 109.542969 L 234.066406 123.660156 C 233.410156 124.210938 232.617188 124.480469 231.824219 124.480469 C 230.828125 124.480469 229.839844 124.058594 229.148438 123.234375 C 227.910156 121.757812 228.101562 119.558594 229.578125 118.316406 L 246.386719 104.199219 C 247.863281 102.957031 250.0625 103.148438 251.304688 104.625 C 252.542969 106.101562 252.351562 108.300781 250.875 109.542969 " fill-opacity="1" fill-rule="nonzero"/><path fill="#000000" d="M 198.667969 116.710938 C 196.742188 116.710938 195.179688 115.148438 195.179688 113.222656 L 195.179688 86.695312 C 195.179688 84.765625 196.742188 83.203125 198.667969 83.203125 C 200.597656 83.203125 202.160156 84.765625 202.160156 86.695312 L 202.160156 113.222656 C 202.160156 115.148438 200.597656 116.710938 198.667969 116.710938 " fill-opacity="1" fill-rule="nonzero"/><g clip-path="url(#5d377d4bfb)"><path fill="#000000" d="M 198.667969 75.222656 C 196.742188 75.222656 195.179688 73.664062 195.179688 71.734375 L 195.179688 68.753906 C 195.179688 66.824219 196.742188 65.265625 198.667969 65.265625 C 200.597656 65.265625 202.160156 66.824219 202.160156 68.753906 L 202.160156 71.734375 C 202.160156 73.664062 200.597656 75.222656 198.667969 75.222656 " fill-opacity="1" fill-rule="nonzero"/></g><path fill="#000000" d="M 237.289062 89.179688 C 236.796875 89.671875 236.152344 89.917969 235.507812 89.917969 C 234.863281 89.917969 234.21875 89.671875 233.722656 89.179688 L 231.820312 87.277344 L 229.917969 89.179688 C 229.425781 89.671875 228.78125 89.917969 228.136719 89.917969 C 227.492188 89.917969 226.84375 89.671875 226.351562 89.179688 C 225.367188 88.195312 225.367188 86.601562 226.355469 85.617188 L 228.257812 83.714844 L 226.351562 81.808594 C 225.367188 80.824219 225.367188 79.230469 226.351562 78.246094 C 227.339844 77.261719 228.933594 77.261719 229.917969 78.246094 L 231.820312 80.148438 L 233.726562 78.246094 C 234.710938 77.261719 236.304688 77.261719 237.289062 78.246094 C 238.273438 79.230469 238.273438 80.824219 237.289062 81.808594 L 235.386719 83.710938 L 237.289062 85.617188 C 238.273438 86.601562 238.273438 88.195312 237.289062 89.179688 " fill-opacity="1" fill-rule="nonzero"/><path fill="#000000" d="M 168.617188 81.734375 C 167.222656 81.734375 166.09375 80.605469 166.09375 79.214844 C 166.09375 78.121094 165.207031 77.234375 164.117188 77.234375 C 163.027344 77.234375 162.136719 78.121094 162.136719 79.214844 C 162.136719 80.304688 163.027344 81.191406 164.117188 81.191406 C 165.507812 81.191406 166.636719 82.320312 166.636719 83.710938 C 166.636719 85.105469 165.507812 86.234375 164.117188 86.234375 C 160.246094 86.234375 157.097656 83.085938 157.097656 79.214844 C 157.097656 75.34375 160.246094 72.195312 164.117188 72.195312 C 167.988281 72.195312 171.136719 75.34375 171.136719 79.214844 C 171.136719 80.605469 170.007812 81.734375 168.617188 81.734375 " fill-opacity="1" fill-rule="nonzero"/><path fill="#000000" d="M 164.117188 291.25 C 166.03125 291.25 167.585938 289.691406 167.585938 287.78125 C 167.585938 285.867188 166.03125 284.3125 164.117188 284.3125 C 162.203125 284.3125 160.648438 285.867188 160.648438 287.78125 C 160.648438 289.691406 162.203125 291.25 164.117188 291.25 Z M 164.117188 279.269531 C 168.808594 279.269531 172.625 283.085938 172.625 287.78125 C 172.625 292.472656 168.808594 296.289062 164.117188 296.289062 C 159.425781 296.289062 155.605469 292.472656 155.605469 287.78125 C 155.605469 283.085938 159.425781 279.269531 164.117188 279.269531 " fill-opacity="1" fill-rule="nonzero"/></svg>