<svg xmlns="http://www.w3.org/2000/svg" xmlns:xlink="http://www.w3.org/1999/xlink" width="500" zoomAndPan="magnify" viewBox="0 0 375 374.999991" height="500" preserveAspectRatio="xMidYMid meet" version="1.0"><defs><clipPath id="73b2465453"><path d="M 37.5 37.5 L 337.5 37.5 L 337.5 337.5 L 37.5 337.5 Z M 37.5 37.5 " clip-rule="nonzero"/></clipPath></defs><path fill="#000000" d="M 227.332031 308.816406 C 215.496094 308.816406 209.484375 303.09375 204.175781 298.039062 C 199.371094 293.460938 195.574219 289.847656 187.488281 289.847656 C 179.402344 289.847656 175.605469 293.460938 170.796875 298.039062 C 165.492188 303.09375 159.480469 308.816406 147.644531 308.816406 C 135.808594 308.816406 129.792969 303.089844 124.488281 298.039062 C 119.683594 293.460938 115.886719 289.847656 107.804688 289.847656 C 100.332031 289.847656 96.46875 292.964844 91.824219 297.367188 C 89.945312 299.148438 86.980469 299.066406 85.199219 297.191406 C 83.417969 295.3125 83.496094 292.34375 85.375 290.5625 C 90.984375 285.246094 96.917969 280.46875 107.804688 280.46875 C 119.636719 280.46875 125.648438 286.195312 130.953125 291.25 C 135.761719 295.828125 139.558594 299.441406 147.644531 299.441406 C 155.730469 299.441406 159.527344 295.828125 164.332031 291.25 C 169.640625 286.199219 175.652344 280.472656 187.488281 280.472656 C 199.324219 280.472656 205.335938 286.199219 210.644531 291.25 C 215.449219 295.828125 219.246094 299.441406 227.332031 299.441406 C 235.417969 299.441406 239.214844 295.828125 244.019531 291.25 C 249.324219 286.199219 255.339844 280.472656 267.175781 280.472656 C 278.066406 280.472656 284.007812 285.246094 289.621094 290.570312 C 291.496094 292.351562 291.578125 295.316406 289.796875 297.195312 C 288.015625 299.074219 285.046875 299.152344 283.167969 297.371094 C 278.519531 292.964844 274.652344 289.847656 267.175781 289.847656 C 259.089844 289.847656 255.292969 293.460938 250.488281 298.039062 C 245.179688 303.089844 239.167969 308.816406 227.332031 308.816406 Z M 227.332031 308.816406 " fill-opacity="1" fill-rule="nonzero"/><path fill="#000000" d="M 227.332031 276.753906 C 215.496094 276.753906 209.484375 271.03125 204.175781 265.976562 C 199.371094 261.398438 195.574219 257.785156 187.488281 257.785156 C 179.402344 257.785156 175.605469 261.398438 170.796875 265.976562 C 165.492188 271.03125 159.480469 276.753906 147.644531 276.753906 C 135.808594 276.753906 129.792969 271.027344 124.488281 265.976562 C 119.683594 261.398438 115.886719 257.785156 107.804688 257.785156 C 99.722656 257.785156 95.925781 261.398438 91.117188 265.976562 C 86.066406 270.789062 80.34375 276.242188 69.511719 276.722656 C 66.933594 276.824219 64.734375 274.832031 64.621094 272.246094 C 64.507812 269.660156 66.511719 267.472656 69.097656 267.355469 C 76.421875 267.03125 80.054688 263.570312 84.652344 259.191406 C 89.957031 254.136719 95.972656 248.410156 107.804688 248.410156 C 119.636719 248.410156 125.648438 254.132812 130.953125 259.1875 C 135.761719 263.765625 139.558594 267.382812 147.644531 267.382812 C 155.730469 267.382812 159.527344 263.765625 164.332031 259.1875 C 169.640625 254.136719 175.652344 248.410156 187.488281 248.410156 C 199.324219 248.410156 205.335938 254.136719 210.644531 259.1875 C 215.449219 263.765625 219.246094 267.382812 227.332031 267.382812 C 235.417969 267.382812 239.214844 263.765625 244.019531 259.1875 C 249.324219 254.136719 255.339844 248.410156 267.175781 248.410156 C 279.015625 248.410156 285.03125 254.136719 290.335938 259.1875 C 294.9375 263.570312 298.570312 267.03125 305.902344 267.355469 C 308.488281 267.472656 310.492188 269.660156 310.378906 272.25 C 310.261719 274.835938 308.050781 276.832031 305.484375 276.722656 C 294.648438 276.242188 288.921875 270.789062 283.871094 265.976562 C 279.0625 261.398438 275.265625 257.785156 267.175781 257.785156 C 259.089844 257.785156 255.292969 261.398438 250.484375 265.976562 C 245.179688 271.03125 239.167969 276.753906 227.332031 276.753906 Z M 227.332031 276.753906 " fill-opacity="1" fill-rule="nonzero"/><g clip-path="url(#73b2465453)"><path fill="#000000" d="M 187.5 337.5 C 147.433594 337.5 109.765625 321.898438 81.433594 293.566406 C 53.101562 265.234375 37.5 227.566406 37.5 187.5 C 37.5 156.101562 47.597656 125.621094 66.703125 99.359375 C 68.226562 97.265625 71.160156 96.804688 73.25 98.328125 C 75.34375 99.847656 75.808594 102.78125 74.285156 104.875 C 56.351562 129.523438 46.875 158.097656 46.875 187.5 C 46.875 265.039062 109.960938 328.125 187.5 328.125 C 265.039062 328.125 328.125 265.039062 328.125 187.5 C 328.125 109.960938 265.039062 46.875 187.5 46.875 C 184.910156 46.875 182.8125 44.777344 182.8125 42.1875 C 182.8125 39.597656 184.910156 37.5 187.5 37.5 C 227.566406 37.5 265.234375 53.101562 293.566406 81.433594 C 321.898438 109.765625 337.5 147.433594 337.5 187.5 C 337.5 227.566406 321.898438 265.234375 293.566406 293.566406 C 265.234375 321.898438 227.566406 337.5 187.5 337.5 Z M 187.5 337.5 " fill-opacity="1" fill-rule="nonzero"/></g><path fill="#000000" d="M 74.996094 130.078125 C 72.804688 130.078125 70.847656 128.539062 70.402344 126.308594 L 66.820312 108.398438 L 48.617188 115.679688 C 46.214844 116.640625 43.484375 115.472656 42.523438 113.070312 C 41.5625 110.664062 42.730469 107.9375 45.136719 106.976562 L 68.574219 97.601562 C 69.867188 97.082031 71.320312 97.167969 72.546875 97.832031 C 73.769531 98.496094 74.636719 99.667969 74.910156 101.035156 L 79.597656 124.472656 C 80.105469 127.011719 78.457031 129.480469 75.917969 129.988281 C 75.609375 130.050781 75.300781 130.078125 74.996094 130.078125 Z M 74.996094 130.078125 " fill-opacity="1" fill-rule="nonzero"/><path fill="#000000" d="M 182.8125 229.6875 C 151.796875 229.6875 126.5625 204.453125 126.5625 173.4375 C 126.5625 160.550781 135.574219 142.574219 153.347656 120.015625 C 166.269531 103.617188 178.976562 90.953125 179.507812 90.425781 C 181.335938 88.609375 184.289062 88.609375 186.117188 90.425781 C 187.136719 91.441406 211.34375 115.585938 226.667969 140.300781 C 228.03125 142.5 227.355469 145.390625 225.15625 146.753906 C 222.953125 148.117188 220.066406 147.4375 218.699219 145.238281 C 207.199219 126.691406 189.949219 107.929688 182.796875 100.453125 C 167.15625 116.679688 135.9375 153.25 135.9375 173.4375 C 135.9375 199.285156 156.964844 220.3125 182.8125 220.3125 C 203.328125 220.3125 221.28125 207.191406 227.488281 187.664062 C 228.273438 185.195312 230.90625 183.832031 233.375 184.613281 C 235.84375 185.398438 237.207031 188.035156 236.421875 190.503906 C 228.972656 213.941406 207.429688 229.6875 182.8125 229.6875 Z M 182.8125 229.6875 " fill-opacity="1" fill-rule="nonzero"/><path fill="#000000" d="M 234.375 193.890625 C 218.867188 193.890625 206.25 181.273438 206.25 165.765625 C 206.25 151.289062 228.53125 128.742188 231.070312 126.21875 C 232.898438 124.402344 235.847656 124.402344 237.679688 126.21875 C 240.21875 128.742188 262.5 151.289062 262.5 165.765625 C 262.5 181.273438 249.882812 193.890625 234.375 193.890625 Z M 234.375 136.289062 C 226.058594 145.222656 215.625 158.746094 215.625 165.765625 C 215.625 176.105469 224.035156 184.515625 234.375 184.515625 C 244.714844 184.515625 253.125 176.105469 253.125 165.765625 C 253.125 158.734375 242.691406 145.214844 234.375 136.289062 Z M 234.375 136.289062 " fill-opacity="1" fill-rule="nonzero"/></svg>