<svg xmlns="http://www.w3.org/2000/svg" xmlns:xlink="http://www.w3.org/1999/xlink" width="500" zoomAndPan="magnify" viewBox="0 0 375 374.999991" height="500" preserveAspectRatio="xMidYMid meet" version="1.0"><defs><clipPath id="072e3cb7ec"><path d="M 39.375 38 L 335.625 38 L 335.625 337.5 L 39.375 337.5 Z M 39.375 38 " clip-rule="nonzero"/></clipPath></defs><g clip-path="url(#072e3cb7ec)"><path fill="#000000" d="M 63.375 220.3125 C 48.746094 164.589844 73.410156 105.535156 123.355469 76.699219 C 149.964844 61.335938 180.703125 56.078125 210.695312 61.621094 L 201.28125 44.378906 C 200.160156 42.324219 200.917969 39.746094 202.972656 38.625 C 205.027344 37.503906 207.609375 38.257812 208.730469 40.316406 L 222.621094 65.761719 C 223.703125 67.75 223.039062 70.238281 221.105469 71.417969 L 196.351562 86.507812 C 194.351562 87.730469 191.742188 87.097656 190.523438 85.097656 C 189.300781 83.09375 189.933594 80.484375 191.9375 79.265625 L 207.628906 69.695312 C 180.109375 64.972656 151.996094 69.960938 127.597656 84.046875 C 80.957031 110.976562 57.921875 166.125 71.582031 218.160156 C 72.175781 220.425781 70.820312 222.746094 68.554688 223.339844 C 68.195312 223.433594 67.832031 223.480469 67.476562 223.480469 C 65.59375 223.480469 63.875 222.21875 63.375 220.3125 Z M 306.453125 152.265625 C 304.1875 152.859375 302.832031 155.179688 303.425781 157.449219 C 317.085938 209.480469 294.046875 264.625 247.402344 291.558594 C 223.015625 305.636719 194.886719 310.632812 167.367188 305.910156 L 183.0625 296.339844 C 185.0625 295.121094 185.695312 292.511719 184.476562 290.511719 C 183.257812 288.507812 180.648438 287.878906 178.644531 289.097656 L 153.894531 304.191406 C 151.960938 305.367188 151.296875 307.859375 152.378906 309.84375 L 166.269531 335.289062 C 167.039062 336.703125 168.496094 337.5 169.996094 337.5 C 170.683594 337.5 171.378906 337.332031 172.023438 336.980469 C 174.082031 335.859375 174.839844 333.28125 173.714844 331.226562 L 164.304688 313.984375 C 172.0625 315.417969 179.867188 316.125 187.640625 316.125 C 209.921875 316.125 231.929688 310.289062 251.644531 298.90625 C 301.59375 270.070312 326.261719 211.011719 311.632812 155.292969 C 311.039062 153.027344 308.71875 151.671875 306.453125 152.265625 Z M 235.472656 164.695312 C 232.957031 167.742188 232.109375 171.707031 233.144531 175.574219 C 234.179688 179.4375 236.898438 182.445312 240.601562 183.828125 C 242.257812 184.445312 243.359375 186.03125 243.359375 187.804688 C 243.359375 189.574219 242.257812 191.160156 240.601562 191.777344 C 236.871094 193.167969 234.140625 196.175781 233.109375 200.023438 C 232.078125 203.875 232.941406 207.839844 235.472656 210.910156 C 236.601562 212.277344 236.761719 214.199219 235.875 215.734375 C 234.988281 217.265625 233.242188 218.089844 231.496094 217.796875 C 227.570312 217.132812 223.707031 218.375 220.886719 221.191406 C 218.070312 224.007812 216.832031 227.875 217.492188 231.800781 C 217.785156 233.546875 216.964844 235.292969 215.429688 236.179688 C 213.894531 237.0625 211.972656 236.902344 210.605469 235.777344 C 207.558594 233.261719 203.59375 232.410156 199.730469 233.449219 C 195.863281 234.484375 192.855469 237.199219 191.472656 240.902344 C 190.855469 242.5625 189.269531 243.664062 187.5 243.664062 C 185.726562 243.664062 184.144531 242.5625 183.523438 240.902344 C 182.132812 237.175781 179.128906 234.445312 175.277344 233.414062 C 171.429688 232.382812 167.460938 233.242188 164.390625 235.777344 C 163.023438 236.902344 161.101562 237.0625 159.570312 236.179688 C 158.035156 235.292969 157.214844 233.546875 157.507812 231.800781 C 158.167969 227.875 156.929688 224.011719 154.109375 221.191406 C 151.292969 218.375 147.429688 217.136719 143.5 217.796875 C 141.75 218.089844 140.007812 217.265625 139.125 215.734375 C 138.238281 214.199219 138.398438 212.277344 139.527344 210.910156 C 142.042969 207.863281 142.890625 203.898438 141.855469 200.035156 C 140.820312 196.167969 138.101562 193.160156 134.398438 191.777344 C 132.738281 191.160156 131.640625 189.574219 131.640625 187.804688 C 131.640625 186.03125 132.738281 184.449219 134.398438 183.828125 C 138.128906 182.4375 140.859375 179.433594 141.890625 175.582031 C 142.921875 171.734375 142.058594 167.765625 139.527344 164.695312 C 138.398438 163.332031 138.238281 161.40625 139.125 159.875 C 140.007812 158.339844 141.75 157.519531 143.5 157.8125 C 147.425781 158.472656 151.292969 157.234375 154.109375 154.414062 C 156.929688 151.597656 158.167969 147.730469 157.507812 143.804688 C 157.214844 142.058594 158.035156 140.3125 159.570312 139.429688 C 161.101562 138.542969 163.023438 138.703125 164.390625 139.832031 C 167.4375 142.347656 171.402344 143.195312 175.269531 142.160156 C 179.132812 141.125 182.140625 138.40625 183.523438 134.703125 C 184.140625 133.046875 185.726562 131.945312 187.5 131.945312 C 189.269531 131.945312 190.855469 133.046875 191.472656 134.703125 C 192.863281 138.433594 195.871094 141.164062 199.71875 142.195312 C 203.570312 143.226562 207.539062 142.363281 210.605469 139.832031 C 211.972656 138.703125 213.894531 138.542969 215.429688 139.429688 C 216.960938 140.316406 217.785156 142.058594 217.492188 143.804688 C 216.832031 147.730469 218.070312 151.597656 220.886719 154.414062 C 223.703125 157.234375 227.574219 158.472656 231.496094 157.8125 C 233.242188 157.519531 234.988281 158.339844 235.875 159.875 C 236.761719 161.40625 236.601562 163.328125 235.472656 164.695312 Z M 231.035156 187.792969 C 228.128906 185.175781 226.011719 181.738281 224.949219 177.769531 C 223.886719 173.800781 224 169.761719 225.207031 166.042969 C 221.359375 165.238281 217.796875 163.320312 214.890625 160.414062 C 211.984375 157.507812 210.070312 153.949219 209.261719 150.105469 C 205.535156 151.332031 201.492188 151.449219 197.527344 150.386719 C 193.554688 149.324219 190.113281 147.195312 187.492188 144.265625 C 184.875 147.171875 181.433594 149.289062 177.464844 150.355469 C 173.496094 151.417969 169.460938 151.304688 165.738281 150.09375 C 164.933594 153.941406 163.019531 157.507812 160.109375 160.414062 C 157.207031 163.316406 153.644531 165.234375 149.804688 166.039062 C 151.027344 169.769531 151.148438 173.8125 150.085938 177.777344 C 149.023438 181.75 146.890625 185.191406 143.964844 187.8125 C 146.871094 190.429688 148.988281 193.867188 150.050781 197.835938 C 151.113281 201.808594 151 205.84375 149.792969 209.5625 C 153.640625 210.367188 157.203125 212.285156 160.113281 215.191406 C 163.015625 218.097656 164.929688 221.65625 165.738281 225.5 C 167.765625 224.832031 169.886719 224.492188 172.039062 224.492188 C 173.839844 224.492188 175.664062 224.734375 177.472656 225.21875 C 181.445312 226.28125 184.886719 228.410156 187.507812 231.339844 C 190.125 228.433594 193.5625 226.316406 197.535156 225.25 C 201.503906 224.1875 205.539062 224.304688 209.261719 225.511719 C 210.066406 221.664062 211.980469 218.097656 214.886719 215.191406 C 217.792969 212.289062 221.351562 210.375 225.195312 209.566406 C 223.972656 205.835938 223.851562 201.796875 224.914062 197.828125 C 225.976562 193.859375 228.109375 190.414062 231.035156 187.792969 Z M 218.066406 187.804688 C 218.066406 204.65625 204.355469 218.371094 187.5 218.371094 C 170.644531 218.371094 156.933594 204.65625 156.933594 187.804688 C 156.933594 170.949219 170.644531 157.238281 187.5 157.238281 C 204.355469 157.238281 218.066406 170.949219 218.066406 187.804688 Z M 209.582031 187.804688 C 209.582031 175.628906 199.675781 165.722656 187.5 165.722656 C 175.324219 165.722656 165.417969 175.628906 165.417969 187.804688 C 165.417969 199.980469 175.324219 209.882812 187.5 209.882812 C 199.675781 209.882812 209.582031 199.980469 209.582031 187.804688 Z M 335.621094 93.730469 C 335.621094 123.53125 311.375 147.777344 281.574219 147.777344 C 251.773438 147.777344 227.527344 123.53125 227.527344 93.730469 C 227.527344 63.929688 251.773438 39.683594 281.574219 39.683594 C 311.375 39.683594 335.621094 63.929688 335.621094 93.730469 Z M 327.132812 93.730469 C 327.132812 68.605469 306.695312 48.167969 281.574219 48.167969 C 256.449219 48.167969 236.011719 68.605469 236.011719 93.730469 C 236.011719 118.851562 256.449219 139.289062 281.574219 139.289062 C 306.695312 139.289062 327.132812 118.851562 327.132812 93.730469 Z M 147.472656 281.875 C 147.472656 311.675781 123.226562 335.921875 93.425781 335.921875 C 63.625 335.921875 39.378906 311.675781 39.378906 281.875 C 39.378906 252.074219 63.625 227.828125 93.425781 227.828125 C 123.226562 227.828125 147.472656 252.074219 147.472656 281.875 Z M 138.988281 281.875 C 138.988281 256.753906 118.550781 236.316406 93.425781 236.316406 C 68.304688 236.316406 47.863281 256.753906 47.863281 281.875 C 47.863281 307 68.304688 327.4375 93.425781 327.4375 C 118.550781 327.4375 138.988281 307 138.988281 281.875 Z M 111.058594 276.34375 C 111.058594 286.8125 106.09375 296.371094 97.667969 302.382812 L 97.667969 311.175781 C 97.667969 313.519531 95.769531 315.417969 93.425781 315.417969 C 91.082031 315.417969 89.183594 313.519531 89.183594 311.175781 L 89.183594 302.382812 C 80.761719 296.371094 75.792969 286.8125 75.792969 276.34375 C 75.792969 265.054688 81.5625 254.8125 91.226562 248.949219 C 92.578125 248.128906 94.273438 248.128906 95.628906 248.949219 C 105.289062 254.8125 111.058594 265.054688 111.058594 276.34375 Z M 102.574219 276.34375 C 102.574219 268.941406 99.199219 262.152344 93.425781 257.710938 C 87.65625 262.152344 84.28125 268.941406 84.28125 276.34375 C 84.28125 283.746094 87.65625 290.539062 93.425781 294.980469 C 99.199219 290.539062 102.574219 283.746094 102.574219 276.34375 Z M 301.132812 96.976562 C 302.992188 106.117188 301.449219 113.761719 296.558594 119.699219 C 292.621094 124.476562 287.300781 127.105469 281.574219 127.105469 C 275.84375 127.105469 270.523438 124.476562 266.585938 119.699219 C 261.695312 113.761719 260.15625 106.117188 262.011719 96.976562 C 263.777344 88.285156 268.347656 80.144531 272.382812 72.960938 C 274.382812 69.402344 276.269531 66.035156 277.703125 62.855469 C 278.390625 61.332031 279.902344 60.355469 281.570312 60.355469 C 283.242188 60.355469 284.753906 61.332031 285.441406 62.855469 C 286.875 66.035156 288.761719 69.398438 290.761719 72.960938 C 294.796875 80.140625 299.367188 88.28125 301.132812 96.976562 Z M 292.820312 98.667969 C 291.320312 91.277344 287.277344 84.078125 283.363281 77.113281 C 282.753906 76.027344 282.15625 74.960938 281.574219 73.90625 C 280.988281 74.960938 280.390625 76.03125 279.78125 77.113281 C 275.871094 84.078125 271.828125 91.277344 270.324219 98.667969 C 268.96875 105.359375 269.859375 110.328125 273.136719 114.304688 C 275.429688 117.085938 278.425781 118.621094 281.574219 118.621094 C 284.71875 118.621094 287.714844 117.085938 290.007812 114.304688 C 293.285156 110.328125 294.179688 105.359375 292.820312 98.667969 Z M 292.820312 98.667969 " fill-opacity="1" fill-rule="nonzero"/></g></svg>