<svg xmlns="http://www.w3.org/2000/svg" xmlns:xlink="http://www.w3.org/1999/xlink" width="500" zoomAndPan="magnify" viewBox="0 0 375 374.999991" height="500" preserveAspectRatio="xMidYMid meet" version="1.0"><defs><clipPath id="5902260e80"><path d="M 37.5 37.5 L 337.5 37.5 L 337.5 337.5 L 37.5 337.5 Z M 37.5 37.5 " clip-rule="nonzero"/></clipPath></defs><g clip-path="url(#5902260e80)"><path fill="#000000" d="M 208.289062 337.53125 L 166.769531 337.53125 C 164.179688 337.53125 162.078125 335.433594 162.078125 332.84375 L 162.078125 311.234375 C 146.296875 308.015625 131.523438 301.894531 118.058594 292.992188 L 102.773438 308.277344 C 100.941406 310.105469 97.972656 310.105469 96.140625 308.277344 L 66.78125 278.917969 C 65.902344 278.039062 65.410156 276.847656 65.410156 275.601562 C 65.410156 274.359375 65.902344 273.164062 66.78125 272.285156 L 82.066406 257.003906 C 73.164062 243.535156 67.042969 228.761719 63.824219 212.980469 L 42.214844 212.980469 C 39.625 212.980469 37.527344 210.878906 37.527344 208.289062 L 37.527344 166.769531 C 37.527344 164.179688 39.625 162.082031 42.214844 162.082031 L 63.824219 162.082031 C 67.042969 146.296875 73.164062 131.523438 82.066406 118.058594 L 66.78125 102.773438 C 65.902344 101.894531 65.410156 100.699219 65.410156 99.457031 C 65.410156 98.214844 65.902344 97.019531 66.78125 96.140625 L 96.140625 66.78125 C 97.019531 65.902344 98.210938 65.410156 99.457031 65.410156 C 100.699219 65.410156 101.894531 65.902344 102.773438 66.78125 L 118.058594 82.066406 C 131.523438 73.164062 146.296875 67.042969 162.078125 63.824219 L 162.078125 42.214844 C 162.078125 39.625 164.179688 37.527344 166.769531 37.527344 L 208.289062 37.527344 C 210.878906 37.527344 212.980469 39.625 212.980469 42.214844 L 212.980469 63.824219 C 228.761719 67.042969 243.535156 73.164062 257 82.066406 L 272.285156 66.78125 C 273.164062 65.902344 274.359375 65.410156 275.601562 65.410156 C 276.84375 65.410156 278.039062 65.902344 278.917969 66.78125 L 308.277344 96.140625 C 310.105469 97.972656 310.105469 100.941406 308.277344 102.773438 L 292.992188 118.058594 C 301.894531 131.523438 308.015625 146.296875 311.234375 162.078125 L 332.839844 162.078125 C 335.429688 162.078125 337.53125 164.179688 337.53125 166.769531 L 337.53125 208.289062 C 337.53125 210.878906 335.429688 212.980469 332.839844 212.980469 L 311.234375 212.980469 C 308.015625 228.761719 301.894531 243.535156 292.992188 257 L 308.277344 272.285156 C 310.105469 274.117188 310.105469 277.085938 308.277344 278.917969 L 278.917969 308.277344 C 277.085938 310.105469 274.117188 310.105469 272.285156 308.277344 L 257 292.992188 C 243.535156 301.894531 228.761719 308.015625 212.980469 311.234375 L 212.980469 332.839844 C 212.980469 335.433594 210.878906 337.53125 208.289062 337.53125 Z M 171.460938 328.152344 L 203.597656 328.152344 L 203.597656 307.34375 C 203.597656 305.0625 205.242188 303.109375 207.492188 302.722656 C 224.660156 299.769531 240.597656 293.164062 254.863281 283.09375 C 256.730469 281.777344 259.269531 281.996094 260.886719 283.609375 L 275.601562 298.328125 L 298.328125 275.601562 L 283.609375 260.886719 C 281.996094 259.269531 281.777344 256.726562 283.09375 254.863281 C 293.164062 240.59375 299.769531 224.65625 302.722656 207.492188 C 303.109375 205.242188 305.0625 203.597656 307.34375 203.597656 L 328.152344 203.597656 L 328.152344 171.460938 L 307.34375 171.460938 C 305.0625 171.460938 303.109375 169.816406 302.722656 167.566406 C 299.769531 150.398438 293.164062 134.460938 283.09375 120.195312 C 281.777344 118.328125 281.996094 115.789062 283.609375 114.171875 L 298.328125 99.457031 L 275.601562 76.730469 L 260.886719 91.449219 C 259.269531 93.0625 256.726562 93.28125 254.863281 91.964844 C 240.597656 81.894531 224.660156 75.289062 207.492188 72.335938 C 205.242188 71.949219 203.597656 69.996094 203.597656 67.714844 L 203.597656 46.90625 L 171.460938 46.90625 L 171.460938 67.714844 C 171.460938 69.996094 169.816406 71.949219 167.566406 72.335938 C 150.398438 75.289062 134.460938 81.894531 120.195312 91.964844 C 118.328125 93.28125 115.785156 93.0625 114.171875 91.449219 L 99.453125 76.730469 L 76.730469 99.457031 L 91.449219 114.171875 C 93.0625 115.789062 93.28125 118.328125 91.964844 120.195312 C 81.890625 134.460938 75.289062 150.398438 72.335938 167.566406 C 71.945312 169.816406 69.996094 171.460938 67.710938 171.460938 L 46.90625 171.460938 L 46.90625 203.597656 L 67.714844 203.597656 C 69.996094 203.597656 71.949219 205.242188 72.335938 207.492188 C 75.289062 224.660156 81.894531 240.597656 91.964844 254.863281 C 93.28125 256.730469 93.0625 259.269531 91.449219 260.886719 L 76.730469 275.601562 L 99.457031 298.328125 L 114.175781 283.609375 C 115.789062 281.996094 118.328125 281.777344 120.195312 283.09375 C 134.460938 293.167969 150.398438 299.769531 167.566406 302.722656 C 169.816406 303.109375 171.460938 305.0625 171.460938 307.347656 Z M 171.460938 328.152344 " fill-opacity="1" fill-rule="nonzero"/></g><path fill="#000000" d="M 187.53125 290.082031 C 130.980469 290.082031 84.976562 244.078125 84.976562 187.527344 C 84.976562 130.980469 130.980469 84.976562 187.53125 84.976562 C 244.078125 84.976562 290.082031 130.980469 290.082031 187.527344 C 290.082031 244.078125 244.078125 290.082031 187.53125 290.082031 Z M 187.53125 94.355469 C 136.152344 94.355469 94.355469 136.152344 94.355469 187.527344 C 94.355469 238.90625 136.152344 280.703125 187.53125 280.703125 C 238.90625 280.703125 280.703125 238.90625 280.703125 187.527344 C 280.703125 136.152344 238.90625 94.355469 187.53125 94.355469 Z M 187.53125 94.355469 " fill-opacity="1" fill-rule="nonzero"/><path fill="#000000" d="M 187.53125 254.496094 C 162.050781 254.496094 141.320312 233.183594 141.320312 206.992188 C 141.320312 196.328125 148.527344 178.789062 162.738281 154.859375 C 173.097656 137.414062 183.609375 122.671875 183.714844 122.523438 C 184.59375 121.292969 186.015625 120.5625 187.527344 120.5625 C 189.042969 120.5625 190.464844 121.292969 191.34375 122.523438 C 191.449219 122.671875 201.960938 137.414062 212.320312 154.859375 C 226.53125 178.789062 233.738281 196.328125 233.738281 206.992188 C 233.738281 233.183594 213.007812 254.496094 187.53125 254.496094 Z M 187.53125 133.445312 C 174.550781 152.402344 150.703125 190.625 150.703125 206.992188 C 150.703125 228.011719 167.222656 245.117188 187.53125 245.117188 C 207.835938 245.117188 224.355469 228.011719 224.355469 206.992188 C 224.355469 190.613281 200.507812 152.398438 187.53125 133.445312 Z M 187.53125 133.445312 " fill-opacity="1" fill-rule="nonzero"/><path fill="#000000" d="M 187.53125 230.773438 C 175.132812 230.773438 165.046875 220.4375 165.046875 207.734375 C 165.046875 205.140625 167.144531 203.042969 169.734375 203.042969 C 172.324219 203.042969 174.425781 205.140625 174.425781 207.734375 C 174.425781 215.265625 180.304688 221.390625 187.53125 221.390625 C 190.121094 221.390625 192.21875 223.492188 192.21875 226.082031 C 192.21875 228.671875 190.121094 230.773438 187.53125 230.773438 Z M 187.53125 230.773438 " fill-opacity="1" fill-rule="nonzero"/></svg>