<svg xmlns="http://www.w3.org/2000/svg" xmlns:xlink="http://www.w3.org/1999/xlink" width="500" zoomAndPan="magnify" viewBox="0 0 375 374.999991" height="500" preserveAspectRatio="xMidYMid meet" version="1.0"><defs><clipPath id="8dae3931ab"><path d="M 80.441406 211 L 97 211 L 97 239 L 80.441406 239 Z M 80.441406 211 " clip-rule="nonzero"/></clipPath><clipPath id="f2603b99fd"><path d="M 80.441406 236 L 260.441406 236 L 260.441406 250 L 80.441406 250 Z M 80.441406 236 " clip-rule="nonzero"/></clipPath><clipPath id="c0a0b2d00c"><path d="M 80.441406 245 L 260.441406 245 L 260.441406 267.023438 L 80.441406 267.023438 Z M 80.441406 245 " clip-rule="nonzero"/></clipPath><clipPath id="b16795aed0"><path d="M 155 108.023438 L 248 108.023438 L 248 133 L 155 133 Z M 155 108.023438 " clip-rule="nonzero"/></clipPath><clipPath id="53c8154b98"><path d="M 103.511719 191 L 237.011719 191 L 237.011719 267 L 103.511719 267 Z M 103.511719 191 " clip-rule="nonzero"/></clipPath><clipPath id="6e2cc401c8"><path d="M 163 108.023438 L 177 108.023438 L 177 136 L 163 136 Z M 163 108.023438 " clip-rule="nonzero"/></clipPath><clipPath id="fe9e930578"><path d="M 57.375 37.5 L 246 37.5 L 246 301 L 57.375 301 Z M 57.375 37.5 " clip-rule="nonzero"/></clipPath><clipPath id="0f68f51300"><path d="M 162 182 L 317.625 182 L 317.625 337.5 L 162 337.5 Z M 162 182 " clip-rule="nonzero"/></clipPath></defs><path fill="#fffffe" d="M 95.183594 186.320312 L 98.394531 186.320312 L 98.394531 224.28125 L 95.183594 224.28125 Z M 95.183594 186.320312 " fill-opacity="1" fill-rule="nonzero"/><g clip-path="url(#8dae3931ab)"><path fill="#fffffe" d="M 83.652344 238.476562 L 80.441406 238.476562 L 80.441406 211.785156 L 96.789062 211.785156 L 96.789062 214.996094 L 83.652344 214.996094 Z M 83.652344 238.476562 " fill-opacity="1" fill-rule="nonzero"/></g><path fill="#fffffe" d="M 132.039062 202.121094 C 111.371094 202.121094 95.183594 195.179688 95.183594 186.320312 C 95.183594 177.464844 111.371094 170.53125 132.039062 170.53125 L 132.039062 173.746094 C 111.914062 173.746094 98.394531 180.246094 98.394531 186.320312 C 98.394531 192.273438 112.210938 198.910156 132.039062 198.910156 C 134.445312 198.910156 136.796875 198.8125 139.035156 198.625 C 154.226562 197.363281 165.679688 192.074219 165.679688 186.320312 C 165.679688 180.574219 154.226562 175.289062 139.035156 174.027344 L 139.300781 170.828125 C 156.722656 172.273438 168.894531 178.644531 168.894531 186.320312 C 168.894531 194 156.722656 200.378906 139.300781 201.824219 C 136.976562 202.019531 134.535156 202.121094 132.039062 202.121094 Z M 132.039062 202.121094 " fill-opacity="1" fill-rule="nonzero"/><path fill="#fffffe" d="M 132.039062 240.082031 C 111.371094 240.082031 95.183594 233.140625 95.183594 224.28125 L 98.394531 224.28125 C 98.394531 230.234375 112.210938 236.871094 132.039062 236.871094 C 151.863281 236.871094 165.679688 230.234375 165.679688 224.28125 L 168.894531 224.28125 C 168.894531 233.140625 152.703125 240.082031 132.039062 240.082031 Z M 132.039062 240.082031 " fill-opacity="1" fill-rule="nonzero"/><path fill="#fffffe" d="M 165.679688 186.320312 L 168.894531 186.320312 L 168.894531 224.28125 L 165.679688 224.28125 Z M 165.679688 186.320312 " fill-opacity="1" fill-rule="nonzero"/><path fill="#fffffe" d="M 237.746094 240.082031 L 165.679688 240.082031 L 165.679688 146.785156 L 237.746094 146.785156 Z M 168.894531 236.871094 L 234.535156 236.871094 L 234.535156 149.996094 L 168.894531 149.996094 Z M 168.894531 236.871094 " fill-opacity="1" fill-rule="nonzero"/><path fill="#fffffe" d="M 237.746094 143.78125 L 165.679688 143.78125 L 165.679688 127.257812 L 237.746094 110.195312 Z M 168.894531 140.566406 L 234.535156 140.566406 L 234.535156 114.257812 L 168.894531 129.796875 Z M 168.894531 140.566406 " fill-opacity="1" fill-rule="nonzero"/><path fill="#fffffe" d="M 250.945312 240.082031 L 234.535156 240.082031 L 234.535156 156.714844 L 250.945312 156.714844 Z M 237.746094 236.871094 L 247.730469 236.871094 L 247.730469 159.925781 L 237.746094 159.925781 Z M 237.746094 236.871094 " fill-opacity="1" fill-rule="nonzero"/><path fill="#fffffe" d="M 236.140625 225.59375 L 249.339844 225.59375 L 249.339844 228.804688 L 236.140625 228.804688 Z M 236.140625 225.59375 " fill-opacity="1" fill-rule="nonzero"/><path fill="#fffffe" d="M 236.140625 214.070312 L 249.339844 214.070312 L 249.339844 217.285156 L 236.140625 217.285156 Z M 236.140625 214.070312 " fill-opacity="1" fill-rule="nonzero"/><path fill="#fffffe" d="M 236.140625 202.550781 L 249.339844 202.550781 L 249.339844 205.761719 L 236.140625 205.761719 Z M 236.140625 202.550781 " fill-opacity="1" fill-rule="nonzero"/><path fill="#fffffe" d="M 236.140625 191.03125 L 249.339844 191.03125 L 249.339844 194.242188 L 236.140625 194.242188 Z M 236.140625 191.03125 " fill-opacity="1" fill-rule="nonzero"/><path fill="#fffffe" d="M 236.140625 179.511719 L 249.339844 179.511719 L 249.339844 182.722656 L 236.140625 182.722656 Z M 236.140625 179.511719 " fill-opacity="1" fill-rule="nonzero"/><path fill="#fffffe" d="M 236.140625 167.988281 L 249.339844 167.988281 L 249.339844 171.199219 L 236.140625 171.199219 Z M 236.140625 167.988281 " fill-opacity="1" fill-rule="nonzero"/><path fill="#fffffe" d="M 133.644531 200.515625 L 130.429688 200.515625 L 130.429688 171.335938 C 130.429688 165.925781 134.835938 161.523438 140.246094 161.523438 L 168.894531 161.523438 L 168.894531 171.207031 L 141.996094 171.207031 C 141.320312 171.207031 140.773438 171.753906 140.773438 172.429688 L 140.773438 200.226562 L 137.5625 200.226562 L 137.5625 172.429688 C 137.5625 169.984375 139.550781 167.996094 141.996094 167.996094 L 165.679688 167.996094 L 165.679688 164.734375 L 140.246094 164.734375 C 136.605469 164.734375 133.644531 167.695312 133.644531 171.335938 Z M 133.644531 200.515625 " fill-opacity="1" fill-rule="nonzero"/><g clip-path="url(#f2603b99fd)"><path fill="#fffffe" d="M 260.300781 249.050781 L 80.441406 249.050781 L 80.441406 236.871094 L 260.300781 236.871094 Z M 83.652344 245.839844 L 257.089844 245.839844 L 257.089844 240.082031 L 83.652344 240.082031 Z M 83.652344 245.839844 " fill-opacity="1" fill-rule="nonzero"/></g><g clip-path="url(#c0a0b2d00c)"><path fill="#fffffe" d="M 260.300781 267.03125 L 80.441406 267.03125 L 80.441406 245.839844 L 260.300781 245.839844 Z M 83.652344 263.816406 L 257.089844 263.816406 L 257.089844 249.050781 L 83.652344 249.050781 Z M 83.652344 263.816406 " fill-opacity="1" fill-rule="nonzero"/></g><path fill="#fffffe" d="M 197.386719 179.292969 L 179.617188 179.292969 L 179.617188 161.523438 L 197.386719 161.523438 Z M 182.832031 176.082031 L 194.175781 176.082031 L 194.175781 164.734375 L 182.832031 164.734375 Z M 182.832031 176.082031 " fill-opacity="1" fill-rule="nonzero"/><path fill="#fffffe" d="M 223.808594 179.292969 L 206.039062 179.292969 L 206.039062 161.523438 L 223.808594 161.523438 Z M 209.25 176.082031 L 220.597656 176.082031 L 220.597656 164.734375 L 209.25 164.734375 Z M 209.25 176.082031 " fill-opacity="1" fill-rule="nonzero"/><path fill="#fffffe" d="M 197.386719 205.761719 L 179.617188 205.761719 L 179.617188 187.992188 L 197.386719 187.992188 Z M 182.832031 202.550781 L 194.175781 202.550781 L 194.175781 191.207031 L 182.832031 191.207031 Z M 182.832031 202.550781 " fill-opacity="1" fill-rule="nonzero"/><path fill="#fffffe" d="M 223.808594 205.761719 L 206.039062 205.761719 L 206.039062 187.992188 L 223.808594 187.992188 Z M 209.25 202.550781 L 220.597656 202.550781 L 220.597656 191.207031 L 209.25 191.207031 Z M 209.25 202.550781 " fill-opacity="1" fill-rule="nonzero"/><path fill="#fffffe" d="M 242.238281 149.996094 L 161.1875 149.996094 L 161.1875 140.566406 L 242.238281 140.566406 Z M 164.402344 146.785156 L 239.027344 146.785156 L 239.027344 143.78125 L 164.402344 143.78125 Z M 164.402344 146.785156 " fill-opacity="1" fill-rule="nonzero"/><g clip-path="url(#b16795aed0)"><path fill="#fffffe" d="M 155.675781 129.628906 L 246.296875 108.167969 L 247.035156 111.292969 L 156.414062 132.753906 Z M 155.675781 129.628906 " fill-opacity="1" fill-rule="nonzero"/></g><path fill="#fffffe" d="M 170.613281 228.441406 C 170.027344 228.441406 169.476562 228.15625 169.140625 227.679688 L 153.679688 205.84375 C 153.101562 205.03125 153.296875 203.902344 154.109375 203.328125 C 154.921875 202.75 156.050781 202.945312 156.628906 203.757812 L 170.589844 223.476562 L 184.09375 203.78125 C 184.65625 202.957031 185.78125 202.746094 186.601562 203.3125 C 187.425781 203.875 187.636719 205 187.070312 205.824219 L 172.101562 227.65625 C 171.769531 228.144531 171.21875 228.4375 170.625 228.441406 C 170.621094 228.441406 170.617188 228.441406 170.613281 228.441406 Z M 170.613281 228.441406 " fill-opacity="1" fill-rule="nonzero"/><path fill="#fffffe" d="M 170.613281 266.960938 C 169.617188 266.960938 168.808594 266.152344 168.808594 265.152344 L 168.808594 226.636719 C 168.808594 225.636719 169.617188 224.828125 170.613281 224.828125 C 171.609375 224.828125 172.417969 225.636719 172.417969 226.636719 L 172.417969 265.152344 C 172.417969 266.152344 171.609375 266.960938 170.613281 266.960938 Z M 170.613281 266.960938 " fill-opacity="1" fill-rule="nonzero"/><path fill="#fffffe" d="M 127.101562 266.960938 C 126.101562 266.960938 125.292969 266.152344 125.292969 265.152344 L 125.292969 244.753906 C 125.292969 243.757812 126.101562 242.949219 127.101562 242.949219 C 128.097656 242.949219 128.90625 243.757812 128.90625 244.753906 L 128.90625 265.152344 C 128.90625 266.152344 128.097656 266.960938 127.101562 266.960938 Z M 127.101562 266.960938 " fill-opacity="1" fill-rule="nonzero"/><path fill="#fffffe" d="M 213.632812 266.960938 C 212.636719 266.960938 211.828125 266.152344 211.828125 265.152344 L 211.828125 244.753906 C 211.828125 243.757812 212.636719 242.949219 213.632812 242.949219 C 214.632812 242.949219 215.4375 243.757812 215.4375 244.753906 L 215.4375 265.152344 C 215.4375 266.152344 214.632812 266.960938 213.632812 266.960938 Z M 213.632812 266.960938 " fill-opacity="1" fill-rule="nonzero"/><g clip-path="url(#53c8154b98)"><path fill="#fffffe" d="M 235.410156 266.960938 L 105.328125 266.960938 C 104.328125 266.960938 103.519531 266.152344 103.519531 265.152344 L 103.519531 240.070312 C 103.519531 228.582031 110.8125 218.324219 121.660156 214.546875 L 153.347656 203.519531 L 153.347656 193.203125 C 153.347656 192.207031 154.15625 191.398438 155.152344 191.398438 C 156.152344 191.398438 156.960938 192.207031 156.960938 193.203125 L 156.960938 204.800781 C 156.960938 205.570312 156.472656 206.253906 155.746094 206.507812 L 122.847656 217.957031 C 113.449219 221.230469 107.132812 230.117188 107.132812 240.070312 L 107.132812 263.347656 L 233.601562 263.347656 L 233.601562 240.070312 C 233.601562 230.117188 227.289062 221.230469 217.886719 217.957031 L 184.988281 206.507812 C 184.261719 206.253906 183.777344 205.570312 183.777344 204.800781 L 183.777344 193.203125 C 183.777344 192.207031 184.585938 191.398438 185.582031 191.398438 C 186.578125 191.398438 187.386719 192.207031 187.386719 193.203125 L 187.386719 203.519531 L 219.074219 214.546875 C 229.925781 218.324219 237.214844 228.582031 237.214844 240.070312 L 237.214844 265.152344 C 237.214844 266.152344 236.40625 266.960938 235.410156 266.960938 Z M 235.410156 266.960938 " fill-opacity="1" fill-rule="nonzero"/></g><path fill="#fffffe" d="M 201.285156 154.371094 L 139.449219 154.371094 C 135.945312 154.371094 133.09375 151.519531 133.09375 148.015625 C 133.09375 144.507812 135.945312 141.65625 139.449219 141.65625 L 201.285156 141.65625 C 204.789062 141.65625 207.640625 144.507812 207.640625 148.015625 C 207.640625 151.519531 204.789062 154.371094 201.285156 154.371094 Z M 139.449219 145.269531 C 137.9375 145.269531 136.703125 146.5 136.703125 148.015625 C 136.703125 149.527344 137.9375 150.757812 139.449219 150.757812 L 201.285156 150.757812 C 202.796875 150.757812 204.03125 149.527344 204.03125 148.015625 C 204.03125 146.5 202.796875 145.269531 201.285156 145.269531 Z M 139.449219 145.269531 " fill-opacity="1" fill-rule="nonzero"/><path fill="#fffffe" d="M 200.828125 145.269531 C 199.832031 145.269531 199.023438 144.460938 199.023438 143.460938 C 199.023438 129.417969 188.566406 117.238281 174.699219 115.132812 C 173.710938 114.984375 173.035156 114.0625 173.183594 113.078125 C 173.332031 112.09375 174.253906 111.414062 175.238281 111.5625 C 182.792969 112.710938 189.722656 116.535156 194.753906 122.335938 C 199.835938 128.195312 202.632812 135.695312 202.632812 143.460938 C 202.636719 144.460938 201.828125 145.269531 200.828125 145.269531 Z M 200.828125 145.269531 " fill-opacity="1" fill-rule="nonzero"/><path fill="#fffffe" d="M 139.90625 145.269531 C 138.910156 145.269531 138.101562 144.460938 138.101562 143.460938 C 138.101562 135.695312 140.898438 128.191406 145.980469 122.332031 C 151.011719 116.53125 157.941406 112.707031 165.496094 111.5625 C 166.480469 111.414062 167.402344 112.09375 167.550781 113.078125 C 167.699219 114.0625 167.023438 114.984375 166.035156 115.132812 C 152.167969 117.234375 141.710938 129.414062 141.710938 143.460938 C 141.710938 144.460938 140.902344 145.269531 139.90625 145.269531 Z M 139.90625 145.269531 " fill-opacity="1" fill-rule="nonzero"/><g clip-path="url(#6e2cc401c8)"><path fill="#fffffe" d="M 172.4375 135.457031 L 168.296875 135.457031 C 165.90625 135.457031 163.960938 133.511719 163.960938 131.121094 L 163.960938 112.375 C 163.960938 109.984375 165.90625 108.039062 168.296875 108.039062 L 172.4375 108.039062 C 174.828125 108.039062 176.773438 109.984375 176.773438 112.375 L 176.773438 131.121094 C 176.773438 133.511719 174.828125 135.457031 172.4375 135.457031 Z M 168.296875 111.648438 C 167.898438 111.648438 167.574219 111.976562 167.574219 112.375 L 167.574219 131.121094 C 167.574219 131.523438 167.898438 131.847656 168.296875 131.847656 L 172.4375 131.847656 C 172.835938 131.847656 173.160156 131.523438 173.160156 131.121094 L 173.160156 112.375 C 173.160156 111.976562 172.835938 111.648438 172.4375 111.648438 Z M 168.296875 111.648438 " fill-opacity="1" fill-rule="nonzero"/></g><path fill="#fffffe" d="M 155.632812 133.023438 L 154.207031 133.023438 C 151.609375 133.023438 149.496094 130.910156 149.496094 128.3125 L 149.496094 119.703125 C 149.496094 118.707031 150.304688 117.898438 151.300781 117.898438 C 152.296875 117.898438 153.105469 118.707031 153.105469 119.703125 L 153.105469 128.3125 C 153.105469 128.917969 153.601562 129.410156 154.207031 129.410156 L 155.632812 129.410156 C 156.242188 129.410156 156.734375 128.917969 156.734375 128.3125 L 156.734375 115.382812 C 156.734375 114.386719 157.542969 113.578125 158.539062 113.578125 C 159.535156 113.578125 160.347656 114.386719 160.347656 115.382812 L 160.347656 128.3125 C 160.347656 130.910156 158.234375 133.023438 155.632812 133.023438 Z M 155.632812 133.023438 " fill-opacity="1" fill-rule="nonzero"/><path fill="#fffffe" d="M 186.527344 133.023438 L 185.097656 133.023438 C 182.5 133.023438 180.386719 130.910156 180.386719 128.3125 L 180.386719 115.386719 C 180.386719 114.390625 181.195312 113.582031 182.195312 113.582031 C 183.191406 113.582031 184 114.390625 184 115.386719 L 184 128.3125 C 184 128.917969 184.492188 129.410156 185.097656 129.410156 L 186.527344 129.410156 C 187.132812 129.410156 187.628906 128.917969 187.628906 128.3125 L 187.628906 119.707031 C 187.628906 118.710938 188.433594 117.902344 189.433594 117.902344 C 190.429688 117.902344 191.238281 118.710938 191.238281 119.707031 L 191.238281 128.3125 C 191.238281 130.910156 189.125 133.023438 186.527344 133.023438 Z M 186.527344 133.023438 " fill-opacity="1" fill-rule="nonzero"/><path fill="#fffffe" d="M 170.367188 199.507812 C 153.949219 199.507812 140.585938 186.144531 140.585938 169.722656 L 140.585938 152.566406 C 140.585938 151.570312 141.394531 150.761719 142.394531 150.761719 C 143.390625 150.761719 144.199219 151.570312 144.199219 152.566406 L 144.199219 169.722656 C 144.199219 184.152344 155.9375 195.894531 170.367188 195.894531 C 184.800781 195.894531 196.539062 184.15625 196.539062 169.722656 L 196.539062 152.566406 C 196.539062 151.570312 197.347656 150.761719 198.34375 150.761719 C 199.34375 150.761719 200.152344 151.570312 200.152344 152.566406 L 200.152344 169.722656 C 200.152344 186.144531 186.792969 199.507812 170.367188 199.507812 Z M 170.367188 199.507812 " fill-opacity="1" fill-rule="nonzero"/><path fill="#fffffe" d="M 142.394531 169.34375 C 137.269531 169.34375 133.101562 165.175781 133.101562 160.050781 C 133.101562 154.929688 137.269531 150.761719 142.394531 150.761719 C 143.390625 150.761719 144.199219 151.570312 144.199219 152.566406 C 144.199219 153.5625 143.390625 154.371094 142.394531 154.371094 C 139.261719 154.371094 136.714844 156.921875 136.714844 160.050781 C 136.714844 163.183594 139.261719 165.730469 142.394531 165.730469 C 143.390625 165.730469 144.199219 166.539062 144.199219 167.539062 C 144.199219 168.535156 143.390625 169.34375 142.394531 169.34375 Z M 142.394531 169.34375 " fill-opacity="1" fill-rule="nonzero"/><path fill="#fffffe" d="M 198.34375 169.34375 C 197.347656 169.34375 196.539062 168.535156 196.539062 167.539062 C 196.539062 166.539062 197.347656 165.730469 198.34375 165.730469 C 201.476562 165.730469 204.023438 163.183594 204.023438 160.050781 C 204.023438 156.921875 201.476562 154.371094 198.34375 154.371094 C 197.347656 154.371094 196.539062 153.5625 196.539062 152.566406 C 196.539062 151.570312 197.347656 150.761719 198.34375 150.761719 C 203.46875 150.761719 207.636719 154.929688 207.636719 160.050781 C 207.636719 165.175781 203.46875 169.34375 198.34375 169.34375 Z M 198.34375 169.34375 " fill-opacity="1" fill-rule="nonzero"/><path fill="#fffffe" d="M 177.371094 238.019531 C 177.253906 238.019531 177.136719 238.007812 177.019531 237.980469 C 176.90625 237.960938 176.789062 237.925781 176.679688 237.882812 C 176.574219 237.832031 176.46875 237.78125 176.371094 237.714844 C 176.269531 237.648438 176.179688 237.574219 176.097656 237.492188 C 176.011719 237.40625 175.9375 237.3125 175.867188 237.214844 C 175.808594 237.117188 175.75 237.015625 175.703125 236.902344 C 175.660156 236.792969 175.621094 236.683594 175.601562 236.566406 C 175.578125 236.449219 175.566406 236.332031 175.566406 236.210938 C 175.566406 236.097656 175.574219 235.976562 175.601562 235.859375 C 175.625 235.746094 175.660156 235.628906 175.703125 235.523438 C 175.75 235.414062 175.804688 235.308594 175.867188 235.210938 C 175.9375 235.109375 176.011719 235.019531 176.097656 234.9375 C 176.179688 234.855469 176.269531 234.777344 176.371094 234.714844 C 176.46875 234.644531 176.574219 234.589844 176.679688 234.546875 C 176.789062 234.5 176.90625 234.464844 177.019531 234.441406 C 177.605469 234.324219 178.230469 234.515625 178.648438 234.9375 C 178.734375 235.019531 178.808594 235.109375 178.875 235.210938 C 178.9375 235.308594 178.992188 235.414062 179.039062 235.523438 C 179.082031 235.628906 179.117188 235.746094 179.144531 235.859375 C 179.167969 235.976562 179.175781 236.097656 179.175781 236.210938 C 179.175781 236.6875 178.984375 237.152344 178.648438 237.492188 C 178.3125 237.828125 177.847656 238.019531 177.371094 238.019531 Z M 177.371094 238.019531 " fill-opacity="1" fill-rule="nonzero"/><path fill="#fffffe" d="M 177.371094 247.703125 C 176.898438 247.703125 176.433594 247.507812 176.097656 247.171875 C 176.011719 247.085938 175.9375 246.996094 175.867188 246.894531 C 175.804688 246.796875 175.75 246.695312 175.703125 246.585938 C 175.660156 246.476562 175.621094 246.363281 175.601562 246.246094 C 175.578125 246.128906 175.566406 246.011719 175.566406 245.894531 C 175.566406 245.777344 175.574219 245.65625 175.601562 245.542969 C 175.625 245.425781 175.660156 245.3125 175.703125 245.207031 C 175.75 245.09375 175.804688 244.988281 175.867188 244.890625 C 175.9375 244.792969 176.011719 244.699219 176.097656 244.617188 C 176.179688 244.535156 176.269531 244.457031 176.371094 244.394531 C 176.46875 244.328125 176.574219 244.273438 176.679688 244.226562 C 176.789062 244.183594 176.90625 244.148438 177.019531 244.125 C 177.25 244.078125 177.488281 244.074219 177.726562 244.125 C 177.839844 244.148438 177.953125 244.183594 178.0625 244.226562 C 178.171875 244.273438 178.277344 244.328125 178.375 244.394531 C 178.472656 244.457031 178.566406 244.535156 178.648438 244.617188 C 178.734375 244.699219 178.808594 244.792969 178.875 244.890625 C 178.9375 244.988281 178.992188 245.09375 179.039062 245.207031 C 179.082031 245.3125 179.117188 245.425781 179.140625 245.542969 C 179.164062 245.65625 179.175781 245.777344 179.175781 245.894531 C 179.175781 246.011719 179.167969 246.128906 179.140625 246.246094 C 179.117188 246.363281 179.082031 246.476562 179.039062 246.585938 C 178.992188 246.695312 178.9375 246.796875 178.875 246.894531 C 178.808594 246.996094 178.734375 247.085938 178.648438 247.171875 C 178.308594 247.507812 177.847656 247.703125 177.371094 247.703125 Z M 177.371094 247.703125 " fill-opacity="1" fill-rule="nonzero"/><path fill="#fffffe" d="M 177.371094 257.382812 C 176.898438 257.382812 176.433594 257.191406 176.097656 256.855469 C 176.011719 256.769531 175.9375 256.675781 175.871094 256.578125 C 175.808594 256.480469 175.75 256.375 175.707031 256.269531 C 175.660156 256.15625 175.625 256.046875 175.601562 255.929688 C 175.578125 255.8125 175.566406 255.695312 175.566406 255.574219 C 175.566406 255.101562 175.761719 254.636719 176.097656 254.300781 C 176.179688 254.21875 176.269531 254.140625 176.371094 254.074219 C 176.46875 254.011719 176.574219 253.953125 176.679688 253.90625 C 176.789062 253.863281 176.90625 253.828125 177.019531 253.804688 C 177.25 253.757812 177.488281 253.757812 177.726562 253.804688 C 177.839844 253.828125 177.953125 253.863281 178.0625 253.90625 C 178.171875 253.953125 178.277344 254.011719 178.375 254.074219 C 178.472656 254.140625 178.566406 254.21875 178.648438 254.300781 C 178.984375 254.636719 179.175781 255.101562 179.175781 255.574219 C 179.175781 255.695312 179.167969 255.8125 179.140625 255.929688 C 179.117188 256.046875 179.082031 256.15625 179.039062 256.269531 C 178.992188 256.378906 178.9375 256.480469 178.875 256.578125 C 178.808594 256.675781 178.734375 256.769531 178.648438 256.855469 C 178.3125 257.191406 177.847656 257.382812 177.371094 257.382812 Z M 177.371094 257.382812 " fill-opacity="1" fill-rule="nonzero"/><g clip-path="url(#fe9e930578)"><path fill="#000000" d="M 152.792969 300.402344 C 100.078125 300.402344 57.375 257.527344 57.375 204.984375 C 57.375 167.027344 99.726562 108.6875 130.652344 66.160156 C 137.859375 56.144531 144.710938 46.832031 149.808594 39.097656 C 150.507812 38.046875 151.5625 37.519531 152.792969 37.519531 C 153.847656 37.519531 155.078125 38.046875 155.605469 39.097656 C 160.878906 46.832031 167.730469 56.144531 174.9375 66.160156 C 200.0625 100.953125 234.683594 148.578125 245.050781 184.953125 C 245.402344 186.007812 245.050781 187.0625 244.347656 187.9375 C 243.820312 188.816406 242.765625 189.34375 241.535156 189.34375 C 241.007812 189.34375 240.65625 189.34375 240.128906 189.34375 C 201.117188 189.34375 169.488281 220.976562 169.488281 259.8125 C 169.488281 271.234375 172.300781 282.65625 177.570312 292.671875 C 178.097656 293.550781 178.097656 294.78125 177.746094 295.660156 C 177.21875 296.714844 176.339844 297.417969 175.285156 297.59375 C 167.90625 299.523438 160.351562 300.402344 152.792969 300.402344 Z M 152.792969 47.183594 C 148.050781 54.210938 142.25 61.945312 136.277344 70.203125 C 105.875 112.027344 64.402344 169.3125 64.402344 204.984375 C 64.402344 253.660156 103.941406 293.375 152.792969 293.375 C 158.417969 293.375 163.863281 292.847656 169.3125 291.792969 C 164.917969 281.777344 162.460938 270.882812 162.460938 259.8125 C 162.460938 218.164062 195.671875 184.074219 236.96875 182.316406 C 225.367188 147.699219 193.035156 103.238281 169.136719 70.203125 C 163.160156 61.945312 157.539062 54.035156 152.792969 47.183594 Z M 152.792969 47.183594 " fill-opacity="1" fill-rule="evenodd"/></g><path fill="#000000" d="M 116.417969 273.34375 C 115.714844 273.34375 115.1875 273.167969 114.660156 272.816406 C 90.058594 259.109375 74.949219 233.101562 74.949219 204.984375 C 74.949219 203.050781 76.527344 201.46875 78.460938 201.46875 C 80.394531 201.46875 81.976562 203.050781 81.976562 204.984375 C 81.976562 230.464844 95.859375 254.1875 118 266.664062 C 119.757812 267.71875 120.460938 269.828125 119.40625 271.585938 C 118.703125 272.640625 117.648438 273.34375 116.417969 273.34375 Z M 116.417969 273.34375 " fill-opacity="1" fill-rule="evenodd"/><g clip-path="url(#0f68f51300)"><path fill="#000000" d="M 240.128906 337.480469 C 197.253906 337.480469 162.460938 302.6875 162.460938 259.8125 C 162.460938 217.109375 197.253906 182.316406 240.128906 182.316406 C 282.832031 182.316406 317.625 217.109375 317.625 259.8125 C 317.625 302.6875 282.832031 337.480469 240.128906 337.480469 Z M 240.128906 189.34375 C 201.117188 189.34375 169.488281 220.976562 169.488281 259.8125 C 169.488281 298.824219 201.117188 330.453125 240.128906 330.453125 C 278.964844 330.453125 310.597656 298.824219 310.597656 259.8125 C 310.597656 220.976562 278.964844 189.34375 240.128906 189.34375 Z M 240.128906 189.34375 " fill-opacity="1" fill-rule="evenodd"/></g><path fill="#000000" d="M 245.402344 313.054688 C 231.167969 313.054688 217.8125 307.609375 207.621094 297.59375 C 195.671875 285.46875 190.222656 268.597656 192.683594 251.902344 L 184.25 249.617188 C 182.84375 249.269531 181.789062 248.214844 181.613281 246.808594 C 181.4375 245.578125 181.964844 244.171875 183.019531 243.292969 L 208.5 225.015625 C 209.378906 224.492188 210.433594 224.316406 211.488281 224.492188 C 212.539062 224.839844 213.417969 225.542969 213.769531 226.421875 L 226.773438 255.066406 C 227.300781 256.296875 227.125 257.703125 226.246094 258.757812 C 225.367188 259.8125 223.964844 260.339844 222.734375 259.988281 L 212.363281 257.175781 C 211.664062 266.839844 215 276.328125 222.03125 283.183594 C 228.179688 289.507812 236.441406 292.847656 245.402344 292.847656 C 254.1875 292.847656 262.445312 289.507812 268.773438 283.183594 C 281.601562 270.355469 281.601562 249.441406 268.773438 236.441406 C 262.445312 230.289062 254.1875 226.773438 245.402344 226.773438 C 243.292969 226.773438 241.183594 226.949219 239.074219 227.476562 L 232.75 228.53125 C 230.816406 228.882812 228.882812 227.652344 228.53125 225.894531 L 226.070312 212.890625 C 225.894531 212.015625 226.070312 210.960938 226.597656 210.257812 C 227.125 209.378906 228.003906 208.851562 228.882812 208.675781 L 235.386719 207.445312 C 238.722656 206.917969 242.0625 206.566406 245.402344 206.566406 C 259.636719 206.566406 272.992188 212.191406 283.007812 222.207031 C 303.742188 242.941406 303.742188 276.679688 283.007812 297.59375 C 272.992188 307.609375 259.636719 313.054688 245.402344 313.054688 Z M 193.210938 244.699219 L 197.605469 245.929688 C 199.363281 246.457031 200.414062 248.214844 200.0625 249.96875 L 199.886719 251.199219 C 197.078125 266.3125 201.820312 281.777344 212.714844 292.496094 C 221.328125 301.28125 232.925781 306.027344 245.402344 306.027344 C 257.703125 306.027344 269.300781 301.28125 278.085938 292.496094 C 296.011719 274.570312 296.011719 245.226562 278.085938 227.125 C 269.300781 218.515625 257.703125 213.59375 245.402344 213.59375 C 242.414062 213.59375 239.601562 213.945312 236.792969 214.472656 L 233.628906 215 L 234.859375 220.976562 L 237.84375 220.449219 C 240.304688 220.097656 242.765625 219.746094 245.402344 219.746094 C 256.121094 219.746094 266.136719 223.964844 273.695312 231.519531 C 289.332031 247.160156 289.332031 272.640625 273.695312 288.277344 C 266.136719 295.835938 256.121094 299.875 245.402344 299.875 C 234.683594 299.875 224.492188 295.835938 216.933594 288.277344 C 207.621094 278.789062 203.402344 265.433594 205.863281 252.429688 L 206.039062 252.078125 C 206.214844 251.199219 206.742188 250.320312 207.621094 249.792969 C 208.324219 249.269531 209.378906 249.09375 210.433594 249.441406 L 217.285156 251.199219 L 209.203125 233.277344 Z M 193.210938 244.699219 " fill-opacity="1" fill-rule="evenodd"/></svg>