<svg xmlns="http://www.w3.org/2000/svg" xmlns:xlink="http://www.w3.org/1999/xlink" width="500" zoomAndPan="magnify" viewBox="0 0 375 374.999991" height="500" preserveAspectRatio="xMidYMid meet" version="1.0"><defs><clipPath id="ff20b7a3c0"><path d="M 49.625 37.5 L 325 37.5 L 325 337.5 L 49.625 337.5 Z M 49.625 37.5 " clip-rule="nonzero"/></clipPath></defs><g clip-path="url(#ff20b7a3c0)"><path fill="#000000" d="M 133.992188 133.707031 L 122.375 145.3125 C 119.023438 148.660156 118.722656 153.976562 121.667969 157.679688 L 129.175781 167.117188 C 129.644531 167.703125 129.71875 168.375 129.394531 169.046875 C 128.515625 170.886719 127.726562 172.792969 127.039062 174.722656 C 126.789062 175.425781 126.261719 175.847656 125.511719 175.929688 L 113.53125 177.296875 C 108.824219 177.835938 105.277344 181.8125 105.277344 186.542969 L 105.277344 202.960938 C 105.277344 207.691406 108.828125 211.667969 113.53125 212.203125 L 125.511719 213.574219 C 126.261719 213.660156 126.785156 214.078125 127.03125 214.78125 C 127.71875 216.703125 128.507812 218.609375 129.386719 220.457031 C 129.710938 221.136719 129.636719 221.800781 129.171875 222.386719 L 121.664062 231.820312 C 118.714844 235.523438 119.023438 240.847656 122.367188 244.1875 L 133.984375 255.796875 C 137.335938 259.144531 142.65625 259.445312 146.363281 256.5 L 155.800781 249 C 156.394531 248.535156 157.0625 248.457031 157.738281 248.78125 C 159.589844 249.660156 161.496094 250.449219 163.414062 251.136719 C 164.121094 251.382812 164.542969 251.914062 164.625 252.652344 L 165.996094 264.621094 C 166.53125 269.320312 170.511719 272.871094 175.246094 272.871094 L 191.679688 272.871094 C 196.414062 272.871094 200.394531 269.320312 200.933594 264.621094 L 202.300781 252.652344 C 202.390625 251.90625 202.808594 251.382812 203.511719 251.136719 C 205.429688 250.449219 207.34375 249.660156 209.191406 248.78125 C 209.871094 248.457031 210.539062 248.535156 211.125 249 L 220.570312 256.5 C 224.277344 259.445312 229.601562 259.140625 232.949219 255.796875 L 244.566406 244.1875 C 247.917969 240.839844 248.21875 235.523438 245.269531 231.820312 L 237.761719 222.386719 C 237.296875 221.800781 237.222656 221.128906 237.546875 220.449219 C 238.421875 218.601562 239.222656 216.695312 239.898438 214.78125 C 240.148438 214.078125 240.679688 213.652344 241.421875 213.574219 L 253.398438 212.203125 C 258.105469 211.667969 261.65625 207.691406 261.65625 202.960938 L 261.65625 186.542969 C 261.65625 181.8125 258.105469 177.835938 253.398438 177.296875 L 241.421875 175.929688 C 240.671875 175.84375 240.148438 175.425781 239.898438 174.722656 C 239.214844 172.796875 238.421875 170.894531 237.546875 169.050781 C 237.222656 168.375 237.296875 167.707031 237.761719 167.121094 L 245.269531 157.6875 C 248.21875 153.984375 247.910156 148.660156 244.566406 145.320312 L 232.949219 133.710938 C 229.597656 130.363281 224.277344 130.058594 220.570312 133.007812 L 211.125 140.507812 C 210.539062 140.976562 209.867188 141.050781 209.1875 140.726562 C 207.34375 139.847656 205.429688 139.058594 203.503906 138.375 C 202.800781 138.125 202.378906 137.59375 202.296875 136.855469 L 200.925781 124.886719 C 200.390625 120.179688 196.410156 116.640625 191.675781 116.640625 L 175.238281 116.640625 C 170.503906 116.640625 166.523438 120.1875 165.988281 124.886719 L 164.617188 136.855469 C 164.53125 137.601562 164.113281 138.125 163.410156 138.375 C 161.492188 139.058594 159.578125 139.847656 157.726562 140.726562 C 157.054688 141.050781 156.382812 140.976562 155.796875 140.507812 L 146.351562 133.007812 C 142.664062 130.050781 137.335938 130.355469 133.992188 133.707031 Z M 151.160156 146.339844 C 153.972656 148.570312 157.726562 148.996094 160.960938 147.453125 C 162.582031 146.683594 164.25 145.992188 165.925781 145.394531 C 169.304688 144.191406 171.652344 141.242188 172.0625 137.683594 L 173.433594 125.714844 C 173.539062 124.769531 174.3125 124.082031 175.257812 124.082031 L 191.691406 124.082031 C 192.644531 124.082031 193.414062 124.769531 193.519531 125.714844 L 194.890625 137.683594 C 195.292969 141.242188 197.648438 144.191406 201.027344 145.394531 C 202.707031 145.992188 204.378906 146.683594 205.992188 147.453125 C 209.230469 148.996094 212.980469 148.570312 215.796875 146.339844 L 225.242188 138.839844 C 225.980469 138.25 227.011719 138.304688 227.683594 138.976562 L 239.300781 150.585938 C 239.976562 151.257812 240.03125 152.285156 239.4375 153.023438 L 231.933594 162.460938 C 229.703125 165.269531 229.273438 169.019531 230.816406 172.25 C 231.582031 173.863281 232.28125 175.53125 232.878906 177.210938 C 234.082031 180.585938 237.035156 182.929688 240.597656 183.34375 L 252.578125 184.710938 C 253.519531 184.816406 254.203125 185.589844 254.203125 186.535156 L 254.203125 202.953125 C 254.203125 203.902344 253.519531 204.671875 252.570312 204.777344 L 240.589844 206.148438 C 237.035156 206.550781 234.074219 208.90625 232.871094 212.277344 C 232.273438 213.953125 231.582031 215.625 230.816406 217.238281 C 229.273438 220.476562 229.703125 224.226562 231.933594 227.035156 L 239.4375 236.472656 C 240.03125 237.210938 239.976562 238.238281 239.300781 238.910156 L 227.683594 250.519531 C 227.011719 251.191406 225.980469 251.246094 225.242188 250.65625 L 215.796875 243.160156 C 212.988281 240.933594 209.230469 240.503906 205.992188 242.046875 C 204.378906 242.820312 202.707031 243.511719 201.027344 244.109375 C 197.648438 245.304688 195.300781 248.257812 194.890625 251.820312 L 193.519531 263.789062 C 193.414062 264.726562 192.640625 265.414062 191.691406 265.414062 L 175.257812 265.414062 C 174.304688 265.414062 173.539062 264.726562 173.433594 263.78125 L 172.0625 251.8125 C 171.65625 248.253906 169.304688 245.304688 165.925781 244.101562 C 164.25 243.503906 162.574219 242.8125 160.960938 242.042969 C 159.671875 241.425781 158.300781 241.125 156.9375 241.125 C 154.878906 241.125 152.84375 241.816406 151.15625 243.15625 L 141.71875 250.65625 C 140.96875 251.246094 139.949219 251.191406 139.273438 250.519531 L 127.65625 238.910156 C 126.984375 238.238281 126.925781 237.210938 127.519531 236.472656 L 135.027344 227.035156 C 137.257812 224.226562 137.6875 220.476562 136.140625 217.246094 C 135.367188 215.632812 134.675781 213.964844 134.078125 212.285156 C 132.875 208.910156 129.921875 206.5625 126.359375 206.160156 L 114.378906 204.789062 C 113.433594 204.683594 112.746094 203.914062 112.746094 202.964844 L 112.746094 186.546875 C 112.746094 185.601562 113.433594 184.828125 114.378906 184.722656 L 126.359375 183.355469 C 129.917969 182.949219 132.875 180.597656 134.078125 177.222656 C 134.675781 175.542969 135.367188 173.875 136.140625 172.261719 C 137.6875 169.027344 137.257812 165.273438 135.027344 162.472656 L 127.519531 153.039062 C 126.925781 152.296875 126.988281 151.269531 127.65625 150.597656 L 139.273438 138.988281 C 139.949219 138.316406 140.976562 138.261719 141.71875 138.851562 Z M 183.476562 234.484375 C 205.40625 234.484375 223.246094 216.660156 223.246094 194.75 C 223.246094 172.84375 205.40625 155.015625 183.476562 155.015625 C 161.546875 155.015625 143.703125 172.84375 143.703125 194.75 C 143.703125 216.660156 161.546875 234.484375 183.476562 234.484375 Z M 183.476562 162.480469 C 201.289062 162.480469 215.773438 176.957031 215.773438 194.746094 C 215.773438 212.539062 201.28125 227.011719 183.476562 227.011719 C 165.671875 227.011719 151.179688 212.53125 151.179688 194.746094 C 151.179688 176.957031 165.664062 162.480469 183.476562 162.480469 Z M 65.363281 249.136719 C 64.882812 249.34375 64.386719 249.4375 63.898438 249.4375 C 62.449219 249.4375 61.066406 248.582031 60.460938 247.164062 C 53.363281 230.570312 49.769531 212.929688 49.769531 194.738281 C 49.769531 166.828125 58.296875 140.089844 74.433594 117.417969 C 89.316406 96.503906 109.546875 80.515625 133.15625 70.941406 L 122.117188 65.453125 C 120.265625 64.53125 119.519531 62.289062 120.4375 60.449219 C 121.359375 58.597656 123.601562 57.847656 125.445312 58.769531 L 144.226562 68.109375 C 145.113281 68.550781 145.792969 69.328125 146.101562 70.261719 C 146.414062 71.195312 146.347656 72.230469 145.902344 73.113281 L 136.550781 91.878906 C 135.898438 93.191406 134.578125 93.953125 133.199219 93.953125 C 132.640625 93.953125 132.074219 93.828125 131.539062 93.558594 C 129.6875 92.640625 128.941406 90.398438 129.855469 88.554688 L 134.984375 78.261719 C 88.257812 97.699219 57.226562 143.824219 57.226562 194.730469 C 57.226562 211.910156 60.621094 228.558594 67.320312 244.21875 C 68.148438 246.136719 67.261719 248.328125 65.363281 249.136719 Z M 236.882812 313.21875 C 237.675781 315.125 236.777344 317.308594 234.871094 318.105469 C 218.574219 324.890625 201.28125 328.332031 183.476562 328.332031 C 168.792969 328.332031 154.394531 325.972656 140.625 321.316406 L 145.554688 332.226562 C 146.402344 334.109375 145.566406 336.316406 143.6875 337.171875 C 143.1875 337.394531 142.664062 337.5 142.152344 337.5 C 140.726562 337.5 139.367188 336.683594 138.746094 335.304688 L 130.117188 316.195312 C 129.269531 314.316406 130.105469 312.105469 131.984375 311.253906 L 151.113281 302.632812 C 152.992188 301.785156 155.210938 302.621094 156.058594 304.5 C 156.90625 306.378906 156.070312 308.589844 154.1875 309.441406 L 143.316406 314.339844 C 156.226562 318.664062 169.71875 320.863281 183.480469 320.863281 C 200.296875 320.863281 216.617188 317.613281 232.007812 311.210938 C 233.90625 310.414062 236.09375 311.316406 236.882812 313.21875 Z M 159.785156 92.308594 L 207.167969 92.308594 C 209.230469 92.308594 210.90625 90.636719 210.90625 88.574219 L 210.90625 41.234375 C 210.90625 39.175781 209.230469 37.5 207.167969 37.5 L 159.785156 37.5 C 157.722656 37.5 156.046875 39.175781 156.046875 41.234375 L 156.046875 88.574219 C 156.046875 90.636719 157.722656 92.308594 159.785156 92.308594 Z M 163.523438 44.96875 L 203.429688 44.96875 L 203.429688 84.839844 L 163.523438 84.839844 Z M 200.152344 53.054688 C 201.609375 54.511719 201.609375 56.875 200.152344 58.339844 L 181.71875 76.753906 C 180.988281 77.484375 180.03125 77.851562 179.078125 77.851562 C 178.117188 77.851562 177.164062 77.484375 176.4375 76.753906 L 166.796875 67.125 C 165.339844 65.671875 165.339844 63.304688 166.796875 61.84375 C 168.257812 60.386719 170.625 60.386719 172.082031 61.84375 L 179.070312 68.824219 L 194.863281 53.046875 C 196.328125 51.597656 198.695312 51.597656 200.152344 53.054688 Z M 118.742188 256.730469 L 71.355469 256.730469 C 69.292969 256.730469 67.617188 258.40625 67.617188 260.464844 L 67.617188 307.804688 C 67.617188 309.863281 69.292969 311.539062 71.355469 311.539062 L 118.742188 311.539062 C 120.804688 311.539062 122.480469 309.863281 122.480469 307.804688 L 122.480469 260.464844 C 122.480469 258.40625 120.804688 256.730469 118.742188 256.730469 Z M 115.003906 304.070312 L 75.09375 304.070312 L 75.09375 264.199219 L 115.003906 264.199219 Z M 295.589844 256.730469 L 248.203125 256.730469 C 246.140625 256.730469 244.464844 258.40625 244.464844 260.464844 L 244.464844 307.804688 C 244.464844 309.863281 246.140625 311.539062 248.203125 311.539062 L 295.589844 311.539062 C 297.652344 311.539062 299.328125 309.863281 299.328125 307.804688 L 299.328125 260.464844 C 299.328125 258.40625 297.65625 256.730469 295.589844 256.730469 Z M 291.851562 304.070312 L 251.941406 304.070312 L 251.941406 264.199219 L 291.851562 264.199219 Z M 323.105469 238.492188 L 304.914062 248.945312 C 304.328125 249.28125 303.6875 249.441406 303.058594 249.441406 C 301.761719 249.441406 300.503906 248.769531 299.8125 247.570312 L 289.351562 229.394531 C 288.324219 227.609375 288.941406 225.324219 290.730469 224.296875 C 292.523438 223.269531 294.804688 223.886719 295.832031 225.671875 L 302.40625 237.09375 C 307.246094 223.539062 309.699219 209.316406 309.699219 194.75 C 309.699219 140.257812 274.9375 92.140625 223.203125 75.011719 C 221.242188 74.363281 220.183594 72.25 220.832031 70.292969 C 221.476562 68.335938 223.597656 67.277344 225.550781 67.921875 C 280.355469 86.066406 317.175781 137.027344 317.175781 194.75 C 317.175781 209.339844 314.84375 223.605469 310.261719 237.261719 L 319.378906 232.019531 C 321.175781 230.992188 323.457031 231.609375 324.484375 233.394531 C 325.511719 235.183594 324.894531 237.46875 323.105469 238.492188 Z M 255.226562 286.355469 C 253.769531 284.902344 253.769531 282.535156 255.226562 281.074219 C 256.683594 279.617188 259.050781 279.617188 260.515625 281.074219 L 267.503906 288.054688 L 283.296875 272.277344 C 284.753906 270.820312 287.121094 270.820312 288.585938 272.277344 C 290.050781 273.734375 290.042969 276.097656 288.585938 277.5625 L 270.152344 295.980469 C 269.421875 296.707031 268.464844 297.074219 267.511719 297.074219 C 266.558594 297.074219 265.597656 296.707031 264.871094 295.980469 Z M 78.371094 286.355469 C 76.914062 284.902344 76.914062 282.535156 78.371094 281.074219 C 79.828125 279.617188 82.195312 279.617188 83.660156 281.074219 L 90.652344 288.054688 L 106.441406 272.285156 C 107.902344 270.828125 110.269531 270.828125 111.726562 272.285156 C 113.183594 273.742188 113.183594 276.105469 111.726562 277.5625 L 93.292969 295.980469 C 92.5625 296.707031 91.605469 297.074219 90.652344 297.074219 C 89.699219 297.074219 88.738281 296.707031 88.007812 295.980469 Z M 78.371094 286.355469 " fill-opacity="1" fill-rule="nonzero"/></g></svg>