<svg xmlns="http://www.w3.org/2000/svg" xmlns:xlink="http://www.w3.org/1999/xlink" width="500" zoomAndPan="magnify" viewBox="0 0 375 374.999991" height="500" preserveAspectRatio="xMidYMid meet" version="1.0"><rect x="-37.5" width="450" fill="#ffffff" y="-37.499999" height="449.999989" fill-opacity="1"/><rect x="-37.5" width="450" fill="#ffffff" y="-37.499999" height="449.999989" fill-opacity="1"/><path fill="#1e1e21" d="M 304.753906 252.148438 L 272.179688 252.148438 C 271.75 252.148438 271.335938 252.234375 270.933594 252.398438 C 270.535156 252.5625 270.183594 252.796875 269.878906 253.105469 C 269.574219 253.410156 269.335938 253.761719 269.171875 254.160156 C 269.007812 254.558594 268.925781 254.976562 268.925781 255.40625 C 268.925781 255.839844 269.007812 256.253906 269.171875 256.652344 C 269.335938 257.050781 269.574219 257.40625 269.878906 257.710938 C 270.183594 258.015625 270.535156 258.25 270.933594 258.417969 C 271.335938 258.582031 271.75 258.664062 272.179688 258.664062 L 297.300781 258.664062 C 296.15625 260.289062 294.976562 261.886719 293.757812 263.457031 C 292.542969 265.03125 291.289062 266.574219 290 268.085938 C 288.710938 269.601562 287.390625 271.082031 286.035156 272.539062 C 284.679688 273.992188 283.289062 275.414062 281.871094 276.800781 C 280.449219 278.191406 278.996094 279.546875 277.515625 280.871094 C 276.03125 282.195312 274.519531 283.484375 272.976562 284.738281 C 271.433594 285.992188 269.867188 287.210938 268.269531 288.394531 C 266.671875 289.574219 265.046875 290.71875 263.394531 291.828125 C 261.746094 292.9375 260.070312 294.007812 258.371094 295.039062 C 256.671875 296.070312 254.953125 297.0625 253.207031 298.015625 C 251.464844 298.964844 249.699219 299.878906 247.910156 300.75 C 246.125 301.621094 244.320312 302.453125 242.496094 303.242188 C 240.671875 304.03125 238.832031 304.777344 236.972656 305.484375 C 235.113281 306.1875 233.242188 306.851562 231.351562 307.46875 C 229.464844 308.089844 227.5625 308.664062 225.648438 309.195312 C 223.730469 309.730469 221.804688 310.21875 219.867188 310.660156 C 217.929688 311.105469 215.984375 311.503906 214.027344 311.859375 C 212.074219 312.214844 210.109375 312.523438 208.140625 312.789062 C 206.171875 313.054688 204.195312 313.273438 202.214844 313.449219 C 200.234375 313.625 198.253906 313.753906 196.269531 313.835938 C 194.28125 313.921875 192.296875 313.960938 190.308594 313.953125 C 188.320312 313.945312 186.332031 313.894531 184.347656 313.796875 C 182.363281 313.699219 180.382812 313.554688 178.402344 313.367188 C 176.425781 313.179688 174.449219 312.945312 172.484375 312.667969 C 170.515625 312.386719 168.554688 312.0625 166.601562 311.695312 C 164.648438 311.328125 162.703125 310.914062 160.769531 310.457031 C 158.835938 310 156.914062 309.496094 155.003906 308.953125 C 153.089844 308.40625 151.195312 307.816406 149.308594 307.183594 C 147.425781 306.554688 145.554688 305.878906 143.703125 305.160156 C 141.847656 304.441406 140.011719 303.683594 138.195312 302.878906 C 136.375 302.078125 134.578125 301.234375 132.796875 300.351562 C 131.015625 299.46875 129.257812 298.542969 127.519531 297.578125 C 125.78125 296.613281 124.066406 295.609375 122.375 294.566406 C 120.683594 293.523438 119.015625 292.441406 117.375 291.324219 C 115.730469 290.203125 114.117188 289.046875 112.527344 287.855469 C 110.9375 286.660156 109.375 285.429688 107.84375 284.167969 C 106.308594 282.902344 104.804688 281.601562 103.332031 280.269531 C 101.859375 278.933594 100.414062 277.566406 99.003906 276.167969 C 97.59375 274.769531 96.214844 273.335938 94.871094 271.875 C 93.523438 270.414062 92.210938 268.917969 90.933594 267.398438 C 89.65625 265.875 88.414062 264.324219 87.210938 262.742188 C 86.003906 261.164062 84.832031 259.558594 83.699219 257.925781 C 82.566406 256.292969 81.472656 254.632812 80.414062 252.949219 C 79.359375 251.265625 78.339844 249.558594 77.363281 247.832031 C 76.382812 246.101562 75.445312 244.347656 74.546875 242.578125 C 73.648438 240.804688 72.789062 239.011719 71.972656 237.199219 C 71.15625 235.386719 70.378906 233.558594 69.648438 231.710938 C 68.914062 229.863281 68.222656 228 67.578125 226.121094 C 66.929688 224.242188 66.324219 222.347656 65.761719 220.441406 C 65.203125 218.535156 64.683594 216.617188 64.210938 214.6875 C 63.738281 212.753906 63.308594 210.816406 62.925781 208.867188 C 62.539062 206.914062 62.199219 204.957031 61.90625 202.992188 C 61.609375 201.027344 61.359375 199.054688 61.15625 197.078125 C 60.953125 195.101562 60.792969 193.121094 60.679688 191.136719 C 60.5625 189.152344 60.496094 187.167969 60.472656 185.179688 C 60.449219 183.191406 60.472656 181.203125 60.539062 179.21875 C 60.605469 177.230469 60.71875 175.246094 60.878906 173.265625 C 61.035156 171.285156 61.242188 169.308594 61.488281 167.335938 C 61.738281 165.363281 62.03125 163.398438 62.371094 161.441406 C 62.710938 159.484375 63.09375 157.53125 63.523438 155.59375 C 63.949219 153.652344 64.421875 151.722656 64.9375 149.800781 C 65.457031 147.882812 66.015625 145.976562 66.617188 144.082031 C 67.222656 142.1875 67.871094 140.308594 68.558594 138.445312 C 69.25 136.582031 69.980469 134.734375 70.753906 132.902344 C 70.925781 132.507812 71.011719 132.089844 71.015625 131.660156 C 71.019531 131.226562 70.941406 130.8125 70.777344 130.410156 C 70.617188 130.011719 70.382812 129.65625 70.082031 129.347656 C 69.777344 129.039062 69.429688 128.800781 69.03125 128.632812 C 68.632812 128.464844 68.21875 128.375 67.785156 128.375 C 67.351562 128.371094 66.9375 128.449219 66.535156 128.609375 C 66.136719 128.773438 65.78125 129.003906 65.472656 129.308594 C 65.164062 129.609375 64.925781 129.960938 64.757812 130.359375 C 63.949219 132.273438 63.183594 134.203125 62.460938 136.148438 C 61.738281 138.097656 61.058594 140.0625 60.425781 142.039062 C 59.792969 144.019531 59.207031 146.011719 58.664062 148.015625 C 58.121094 150.023438 57.625 152.039062 57.175781 154.066406 C 56.722656 156.09375 56.320312 158.132812 55.964844 160.179688 C 55.605469 162.226562 55.292969 164.277344 55.03125 166.339844 C 54.765625 168.398438 54.550781 170.464844 54.378906 172.535156 C 54.210938 174.605469 54.085938 176.679688 54.011719 178.753906 C 53.9375 180.832031 53.90625 182.90625 53.925781 184.984375 C 53.945312 187.0625 54.011719 189.140625 54.125 191.214844 C 54.238281 193.289062 54.398438 195.359375 54.609375 197.425781 C 54.816406 199.492188 55.070312 201.554688 55.371094 203.609375 C 55.675781 205.664062 56.023438 207.710938 56.417969 209.75 C 56.8125 211.789062 57.253906 213.820312 57.742188 215.839844 C 58.230469 217.859375 58.761719 219.867188 59.34375 221.863281 C 59.921875 223.855469 60.546875 225.835938 61.214844 227.804688 C 61.882812 229.769531 62.597656 231.722656 63.355469 233.65625 C 64.113281 235.589844 64.914062 237.507812 65.761719 239.402344 C 66.605469 241.300781 67.492188 243.179688 68.425781 245.035156 C 69.355469 246.894531 70.328125 248.726562 71.34375 250.542969 C 72.355469 252.355469 73.414062 254.144531 74.507812 255.90625 C 75.605469 257.671875 76.738281 259.410156 77.914062 261.125 C 79.089844 262.839844 80.304688 264.523438 81.554688 266.179688 C 82.808594 267.839844 84.097656 269.46875 85.421875 271.066406 C 86.75 272.667969 88.109375 274.234375 89.507812 275.769531 C 90.90625 277.308594 92.335938 278.8125 93.804688 280.285156 C 95.269531 281.757812 96.769531 283.195312 98.300781 284.597656 C 99.832031 286 101.394531 287.371094 102.988281 288.703125 C 104.582031 290.035156 106.203125 291.332031 107.859375 292.589844 C 109.511719 293.847656 111.191406 295.066406 112.898438 296.25 C 114.609375 297.429688 116.34375 298.574219 118.101562 299.675781 C 119.863281 300.78125 121.648438 301.84375 123.457031 302.863281 C 125.265625 303.886719 127.097656 304.863281 128.953125 305.804688 C 130.804688 306.742188 132.679688 307.636719 134.574219 308.488281 C 136.46875 309.34375 138.378906 310.152344 140.3125 310.917969 C 142.242188 311.683594 144.191406 312.40625 146.152344 313.082031 C 148.117188 313.757812 150.097656 314.390625 152.089844 314.976562 C 154.082031 315.566406 156.085938 316.105469 158.105469 316.601562 C 160.121094 317.097656 162.148438 317.546875 164.1875 317.949219 C 166.226562 318.351562 168.273438 318.710938 170.328125 319.019531 C 172.378906 319.328125 174.441406 319.59375 176.507812 319.808594 C 178.574219 320.023438 180.644531 320.195312 182.71875 320.316406 C 184.789062 320.4375 186.867188 320.511719 188.945312 320.539062 C 191.019531 320.566406 193.097656 320.546875 195.175781 320.480469 C 197.25 320.414062 199.324219 320.296875 201.394531 320.136719 C 203.464844 319.972656 205.53125 319.765625 207.59375 319.507812 C 209.65625 319.253906 211.710938 318.949219 213.757812 318.601562 C 215.808594 318.25 217.84375 317.855469 219.875 317.414062 C 221.90625 316.972656 223.925781 316.484375 225.929688 315.949219 C 227.9375 315.414062 229.933594 314.835938 231.914062 314.210938 C 233.894531 313.585938 235.863281 312.914062 237.8125 312.199219 C 239.761719 311.484375 241.695312 310.726562 243.613281 309.921875 C 245.527344 309.121094 247.425781 308.273438 249.304688 307.386719 C 251.179688 306.496094 253.035156 305.566406 254.871094 304.589844 C 256.707031 303.617188 258.519531 302.601562 260.308594 301.546875 C 262.097656 300.492188 263.859375 299.394531 265.601562 298.257812 C 267.339844 297.121094 269.050781 295.945312 270.734375 294.730469 C 272.421875 293.515625 274.078125 292.261719 275.707031 290.972656 C 277.335938 289.683594 278.933594 288.355469 280.5 286.992188 C 282.070312 285.632812 283.605469 284.234375 285.109375 282.800781 C 286.613281 281.367188 288.085938 279.902344 289.523438 278.402344 C 290.960938 276.902344 292.363281 275.371094 293.730469 273.804688 C 295.097656 272.242188 296.429688 270.648438 297.722656 269.023438 C 299.019531 267.398438 300.277344 265.746094 301.496094 264.066406 L 301.496094 287.980469 C 301.496094 288.410156 301.578125 288.828125 301.746094 289.226562 C 301.910156 289.625 302.144531 289.976562 302.449219 290.28125 C 302.753906 290.585938 303.109375 290.824219 303.507812 290.988281 C 303.90625 291.152344 304.320312 291.234375 304.753906 291.234375 C 305.1875 291.234375 305.601562 291.152344 306 290.988281 C 306.398438 290.824219 306.75 290.585938 307.058594 290.28125 C 307.363281 289.976562 307.597656 289.625 307.761719 289.226562 C 307.929688 288.828125 308.011719 288.410156 308.011719 287.980469 L 308.011719 255.40625 C 308.011719 254.976562 307.929688 254.558594 307.761719 254.160156 C 307.597656 253.761719 307.363281 253.410156 307.058594 253.105469 C 306.75 252.796875 306.398438 252.5625 306 252.398438 C 305.601562 252.234375 305.1875 252.148438 304.753906 252.148438 Z M 304.753906 252.148438 " fill-opacity="1" fill-rule="nonzero"/><path fill="#1e1e21" d="M 190.75 46.945312 C 185.367188 46.933594 180 47.238281 174.648438 47.863281 C 169.300781 48.488281 164.007812 49.425781 158.769531 50.679688 C 153.53125 51.933594 148.386719 53.488281 143.332031 55.351562 C 138.28125 57.214844 133.355469 59.371094 128.558594 61.816406 C 123.761719 64.261719 119.125 66.984375 114.652344 69.980469 C 110.175781 72.980469 105.894531 76.230469 101.804688 79.734375 C 97.714844 83.238281 93.847656 86.972656 90.203125 90.9375 C 86.558594 94.898438 83.160156 99.066406 80.007812 103.433594 L 80.007812 79.519531 C 80.007812 79.085938 79.925781 78.671875 79.757812 78.269531 C 79.59375 77.871094 79.359375 77.519531 79.050781 77.214844 C 78.746094 76.910156 78.394531 76.675781 77.996094 76.507812 C 77.597656 76.34375 77.179688 76.261719 76.75 76.261719 C 76.316406 76.261719 75.902344 76.34375 75.503906 76.507812 C 75.105469 76.675781 74.75 76.910156 74.445312 77.214844 C 74.140625 77.519531 73.90625 77.871094 73.738281 78.269531 C 73.574219 78.671875 73.492188 79.085938 73.492188 79.519531 L 73.492188 112.089844 C 73.492188 112.523438 73.574219 112.9375 73.738281 113.335938 C 73.90625 113.734375 74.140625 114.085938 74.445312 114.394531 C 74.75 114.699219 75.105469 114.933594 75.503906 115.097656 C 75.902344 115.265625 76.316406 115.347656 76.75 115.347656 L 109.320312 115.347656 C 109.753906 115.347656 110.167969 115.265625 110.566406 115.097656 C 110.96875 114.933594 111.320312 114.699219 111.625 114.394531 C 111.929688 114.085938 112.164062 113.734375 112.332031 113.335938 C 112.496094 112.9375 112.578125 112.523438 112.578125 112.089844 C 112.578125 111.65625 112.496094 111.242188 112.332031 110.84375 C 112.164062 110.445312 111.929688 110.09375 111.625 109.785156 C 111.320312 109.480469 110.96875 109.246094 110.566406 109.082031 C 110.167969 108.914062 109.753906 108.832031 109.320312 108.832031 L 84.203125 108.832031 C 85.347656 107.207031 86.527344 105.609375 87.746094 104.039062 C 88.960938 102.46875 90.214844 100.925781 91.503906 99.410156 C 92.789062 97.898438 94.113281 96.414062 95.46875 94.960938 C 96.824219 93.507812 98.210938 92.085938 99.632812 90.695312 C 101.054688 89.304688 102.503906 87.949219 103.988281 86.625 C 105.472656 85.300781 106.984375 84.011719 108.527344 82.757812 C 110.066406 81.503906 111.636719 80.285156 113.234375 79.105469 C 114.832031 77.921875 116.457031 76.777344 118.105469 75.667969 C 119.757812 74.558594 121.429688 73.492188 123.128906 72.460938 C 124.828125 71.429688 126.550781 70.4375 128.296875 69.484375 C 130.039062 68.53125 131.804688 67.617188 133.589844 66.746094 C 135.378906 65.875 137.183594 65.042969 139.007812 64.253906 C 140.832031 63.464844 142.671875 62.71875 144.53125 62.015625 C 146.390625 61.308594 148.261719 60.648438 150.152344 60.027344 C 152.039062 59.410156 153.941406 58.832031 155.855469 58.300781 C 157.769531 57.769531 159.699219 57.28125 161.636719 56.835938 C 163.570312 56.390625 165.519531 55.992188 167.472656 55.636719 C 169.429688 55.28125 171.390625 54.972656 173.363281 54.707031 C 175.332031 54.441406 177.308594 54.222656 179.285156 54.046875 C 181.265625 53.871094 183.25 53.742188 185.234375 53.660156 C 187.222656 53.574219 189.207031 53.535156 191.195312 53.542969 C 193.183594 53.550781 195.167969 53.601562 197.15625 53.699219 C 199.140625 53.796875 201.121094 53.941406 203.101562 54.128906 C 205.078125 54.320312 207.050781 54.550781 209.019531 54.832031 C 210.988281 55.109375 212.949219 55.433594 214.902344 55.800781 C 216.855469 56.171875 218.796875 56.582031 220.730469 57.039062 C 222.667969 57.5 224.589844 58 226.5 58.546875 C 228.410156 59.089844 230.308594 59.679688 232.195312 60.3125 C 234.078125 60.945312 235.945312 61.617188 237.800781 62.335938 C 239.652344 63.054688 241.488281 63.8125 243.308594 64.617188 C 245.128906 65.417969 246.925781 66.261719 248.707031 67.144531 C 250.488281 68.03125 252.246094 68.953125 253.984375 69.917969 C 255.722656 70.882812 257.4375 71.886719 259.128906 72.929688 C 260.820312 73.972656 262.488281 75.054688 264.128906 76.175781 C 265.769531 77.292969 267.386719 78.449219 268.976562 79.644531 C 270.566406 80.835938 272.128906 82.066406 273.660156 83.332031 C 275.195312 84.59375 276.695312 85.894531 278.171875 87.226562 C 279.644531 88.5625 281.085938 89.929688 282.5 91.328125 C 283.910156 92.726562 285.289062 94.160156 286.632812 95.621094 C 287.980469 97.085938 289.289062 98.578125 290.566406 100.101562 C 291.84375 101.621094 293.085938 103.175781 294.292969 104.753906 C 295.5 106.332031 296.667969 107.941406 297.800781 109.574219 C 298.933594 111.207031 300.03125 112.863281 301.085938 114.546875 C 302.144531 116.230469 303.164062 117.9375 304.140625 119.667969 C 305.121094 121.394531 306.058594 123.148438 306.957031 124.921875 C 307.855469 126.691406 308.714844 128.484375 309.53125 130.296875 C 310.347656 132.109375 311.121094 133.9375 311.855469 135.785156 C 312.589844 137.632812 313.277344 139.496094 313.925781 141.375 C 314.574219 143.253906 315.179688 145.148438 315.738281 147.054688 C 316.300781 148.960938 316.816406 150.878906 317.292969 152.8125 C 317.765625 154.742188 318.195312 156.679688 318.578125 158.632812 C 318.960938 160.582031 319.300781 162.539062 319.597656 164.503906 C 319.890625 166.46875 320.140625 168.441406 320.347656 170.417969 C 320.550781 172.394531 320.710938 174.375 320.824219 176.359375 C 320.9375 178.34375 321.007812 180.332031 321.03125 182.316406 C 321.054688 184.304688 321.03125 186.292969 320.964844 188.277344 C 320.894531 190.265625 320.78125 192.25 320.625 194.230469 C 320.464844 196.210938 320.261719 198.1875 320.011719 200.160156 C 319.765625 202.132812 319.46875 204.097656 319.132812 206.054688 C 318.792969 208.015625 318.410156 209.964844 317.980469 211.90625 C 317.554688 213.84375 317.082031 215.777344 316.5625 217.695312 C 316.046875 219.613281 315.488281 221.519531 314.882812 223.414062 C 314.28125 225.308594 313.632812 227.1875 312.945312 229.050781 C 312.253906 230.914062 311.523438 232.761719 310.746094 234.59375 C 310.578125 234.992188 310.492188 235.40625 310.488281 235.835938 C 310.484375 236.269531 310.5625 236.6875 310.726562 237.085938 C 310.886719 237.488281 311.117188 237.84375 311.421875 238.152344 C 311.722656 238.457031 312.074219 238.695312 312.472656 238.867188 C 312.871094 239.035156 313.285156 239.121094 313.71875 239.125 C 314.148438 239.128906 314.566406 239.050781 314.964844 238.886719 C 315.367188 238.726562 315.722656 238.492188 316.027344 238.1875 C 316.335938 237.886719 316.574219 237.535156 316.742188 237.136719 C 317.839844 234.550781 318.851562 231.929688 319.785156 229.277344 C 320.71875 226.628906 321.570312 223.953125 322.339844 221.25 C 323.105469 218.546875 323.792969 215.820312 324.390625 213.074219 C 324.992188 210.332031 325.507812 207.570312 325.9375 204.792969 C 326.367188 202.015625 326.714844 199.226562 326.972656 196.429688 C 327.230469 193.632812 327.402344 190.828125 327.488281 188.019531 C 327.574219 185.210938 327.574219 182.402344 327.488281 179.59375 C 327.402344 176.78125 327.230469 173.980469 326.96875 171.179688 C 326.710938 168.382812 326.363281 165.59375 325.933594 162.820312 C 325.5 160.042969 324.984375 157.28125 324.382812 154.535156 C 323.78125 151.789062 323.097656 149.066406 322.328125 146.363281 C 321.558594 143.660156 320.707031 140.984375 319.773438 138.332031 C 318.839844 135.683594 317.824219 133.0625 316.730469 130.476562 C 315.636719 127.886719 314.460938 125.335938 313.207031 122.820312 C 311.957031 120.304688 310.628906 117.828125 309.222656 115.394531 C 307.816406 112.960938 306.339844 110.574219 304.789062 108.230469 C 303.234375 105.886719 301.613281 103.59375 299.917969 101.351562 C 298.226562 99.109375 296.464844 96.921875 294.636719 94.785156 C 292.808594 92.652344 290.917969 90.574219 288.960938 88.558594 C 287.007812 86.539062 284.988281 84.585938 282.914062 82.691406 C 280.835938 80.796875 278.703125 78.96875 276.515625 77.207031 C 274.328125 75.445312 272.085938 73.75 269.792969 72.125 C 267.5 70.503906 265.15625 68.949219 262.769531 67.46875 C 260.378906 65.988281 257.949219 64.585938 255.472656 63.253906 C 252.996094 61.921875 250.484375 60.671875 247.929688 59.496094 C 245.378906 58.320312 242.792969 57.222656 240.171875 56.207031 C 237.550781 55.191406 234.902344 54.257812 232.226562 53.402344 C 229.546875 52.550781 226.847656 51.78125 224.121094 51.09375 C 221.394531 50.40625 218.652344 49.804688 215.890625 49.289062 C 213.128906 48.769531 210.351562 48.339844 207.5625 47.992188 C 204.777344 47.644531 201.980469 47.382812 199.175781 47.210938 C 196.371094 47.035156 193.5625 46.949219 190.75 46.945312 Z M 190.75 46.945312 " fill-opacity="1" fill-rule="nonzero"/><path fill="#1e1e21" d="M 262.410156 203.292969 C 262.410156 164.710938 196.003906 90.265625 193.175781 87.113281 C 192.859375 86.785156 192.488281 86.527344 192.070312 86.351562 C 191.648438 86.171875 191.207031 86.082031 190.75 86.082031 C 190.292969 86.082031 189.855469 86.171875 189.433594 86.351562 C 189.011719 86.527344 188.644531 86.785156 188.328125 87.113281 C 185.5 90.265625 119.09375 164.710938 119.09375 203.292969 C 119.09375 204.464844 119.121094 205.636719 119.179688 206.808594 C 119.238281 207.980469 119.324219 209.148438 119.4375 210.316406 C 119.554688 211.484375 119.695312 212.644531 119.867188 213.804688 C 120.039062 214.964844 120.242188 216.121094 120.46875 217.273438 C 120.699219 218.421875 120.957031 219.566406 121.242188 220.703125 C 121.527344 221.839844 121.839844 222.972656 122.179688 224.09375 C 122.519531 225.214844 122.886719 226.328125 123.28125 227.433594 C 123.675781 228.535156 124.097656 229.628906 124.546875 230.714844 C 124.996094 231.796875 125.472656 232.871094 125.972656 233.929688 C 126.472656 234.988281 127 236.035156 127.554688 237.070312 C 128.105469 238.105469 128.683594 239.125 129.289062 240.132812 C 129.890625 241.136719 130.519531 242.128906 131.167969 243.101562 C 131.820312 244.078125 132.496094 245.035156 133.195312 245.980469 C 133.894531 246.921875 134.613281 247.84375 135.359375 248.75 C 136.101562 249.65625 136.867188 250.546875 137.65625 251.414062 C 138.445312 252.285156 139.253906 253.132812 140.082031 253.960938 C 140.910156 254.792969 141.757812 255.597656 142.628906 256.386719 C 143.496094 257.175781 144.386719 257.941406 145.292969 258.683594 C 146.199219 259.429688 147.121094 260.148438 148.066406 260.847656 C 149.007812 261.546875 149.964844 262.222656 150.941406 262.875 C 151.914062 263.523438 152.90625 264.152344 153.910156 264.753906 C 154.917969 265.359375 155.9375 265.9375 156.972656 266.488281 C 158.007812 267.042969 159.054688 267.570312 160.113281 268.070312 C 161.171875 268.570312 162.246094 269.046875 163.328125 269.496094 C 164.414062 269.945312 165.507812 270.367188 166.609375 270.761719 C 167.714844 271.15625 168.828125 271.523438 169.949219 271.863281 C 171.074219 272.203125 172.203125 272.519531 173.339844 272.800781 C 174.476562 273.085938 175.621094 273.34375 176.773438 273.574219 C 177.921875 273.800781 179.078125 274.003906 180.238281 274.175781 C 181.398438 274.347656 182.5625 274.488281 183.726562 274.605469 C 184.894531 274.71875 186.0625 274.804688 187.234375 274.863281 C 188.40625 274.921875 189.578125 274.949219 190.75 274.949219 C 191.925781 274.949219 193.097656 274.921875 194.269531 274.863281 C 195.4375 274.804688 196.609375 274.71875 197.773438 274.605469 C 198.941406 274.488281 200.105469 274.347656 201.265625 274.175781 C 202.425781 274.003906 203.582031 273.800781 204.730469 273.574219 C 205.882812 273.34375 207.027344 273.085938 208.164062 272.800781 C 209.300781 272.519531 210.429688 272.203125 211.554688 271.863281 C 212.675781 271.523438 213.789062 271.15625 214.890625 270.761719 C 215.996094 270.367188 217.089844 269.945312 218.175781 269.496094 C 219.257812 269.046875 220.328125 268.570312 221.390625 268.070312 C 222.449219 267.570312 223.496094 267.042969 224.53125 266.488281 C 225.566406 265.9375 226.585938 265.359375 227.589844 264.753906 C 228.597656 264.152344 229.585938 263.523438 230.5625 262.875 C 231.539062 262.222656 232.496094 261.546875 233.4375 260.847656 C 234.378906 260.148438 235.304688 259.429688 236.210938 258.683594 C 237.117188 257.941406 238.003906 257.175781 238.875 256.386719 C 239.742188 255.597656 240.59375 254.792969 241.421875 253.960938 C 242.25 253.132812 243.058594 252.285156 243.847656 251.414062 C 244.632812 250.546875 245.398438 249.65625 246.144531 248.75 C 246.886719 247.84375 247.609375 246.921875 248.308594 245.980469 C 249.007812 245.035156 249.683594 244.078125 250.332031 243.101562 C 250.984375 242.128906 251.613281 241.136719 252.214844 240.132812 C 252.816406 239.125 253.394531 238.105469 253.949219 237.070312 C 254.5 236.035156 255.027344 234.988281 255.53125 233.929688 C 256.03125 232.871094 256.507812 231.796875 256.957031 230.714844 C 257.402344 229.628906 257.824219 228.535156 258.222656 227.433594 C 258.617188 226.328125 258.984375 225.214844 259.324219 224.09375 C 259.664062 222.972656 259.976562 221.839844 260.261719 220.703125 C 260.546875 219.566406 260.804688 218.421875 261.03125 217.273438 C 261.261719 216.121094 261.460938 214.964844 261.632812 213.804688 C 261.804688 212.644531 261.949219 211.484375 262.066406 210.316406 C 262.179688 209.148438 262.265625 207.980469 262.324219 206.808594 C 262.382812 205.636719 262.410156 204.464844 262.410156 203.292969 Z M 125.605469 203.292969 C 125.605469 171.140625 178.667969 108.152344 190.75 94.226562 C 202.835938 108.152344 255.894531 171.128906 255.894531 203.292969 C 255.894531 204.359375 255.871094 205.421875 255.816406 206.488281 C 255.765625 207.554688 255.6875 208.617188 255.582031 209.675781 C 255.476562 210.738281 255.347656 211.796875 255.191406 212.851562 C 255.035156 213.90625 254.851562 214.953125 254.644531 216 C 254.4375 217.046875 254.203125 218.085938 253.941406 219.121094 C 253.683594 220.15625 253.398438 221.183594 253.089844 222.203125 C 252.78125 223.222656 252.445312 224.234375 252.085938 225.238281 C 251.726562 226.242188 251.34375 227.234375 250.9375 228.222656 C 250.527344 229.207031 250.097656 230.179688 249.640625 231.144531 C 249.183594 232.109375 248.707031 233.058594 248.203125 234 C 247.699219 234.941406 247.175781 235.867188 246.628906 236.78125 C 246.078125 237.695312 245.507812 238.597656 244.917969 239.484375 C 244.324219 240.371094 243.710938 241.242188 243.074219 242.097656 C 242.441406 242.953125 241.785156 243.792969 241.109375 244.617188 C 240.433594 245.441406 239.734375 246.25 239.019531 247.039062 C 238.304688 247.828125 237.570312 248.601562 236.816406 249.355469 C 236.0625 250.109375 235.289062 250.84375 234.5 251.558594 C 233.710938 252.277344 232.902344 252.972656 232.078125 253.648438 C 231.253906 254.324219 230.414062 254.980469 229.558594 255.617188 C 228.703125 256.25 227.828125 256.863281 226.945312 257.457031 C 226.058594 258.050781 225.15625 258.621094 224.242188 259.167969 C 223.328125 259.714844 222.402344 260.242188 221.460938 260.742188 C 220.519531 261.246094 219.566406 261.726562 218.605469 262.179688 C 217.640625 262.636719 216.667969 263.070312 215.679688 263.476562 C 214.695312 263.886719 213.703125 264.269531 212.699219 264.628906 C 211.695312 264.988281 210.683594 265.320312 209.660156 265.628906 C 208.640625 265.941406 207.613281 266.222656 206.582031 266.484375 C 205.546875 266.742188 204.507812 266.976562 203.460938 267.183594 C 202.414062 267.390625 201.363281 267.574219 200.308594 267.730469 C 199.253906 267.886719 198.199219 268.019531 197.136719 268.121094 C 196.074219 268.226562 195.011719 268.304688 193.949219 268.355469 C 192.882812 268.410156 191.816406 268.4375 190.75 268.4375 C 189.683594 268.4375 188.621094 268.410156 187.554688 268.355469 C 186.488281 268.304688 185.425781 268.226562 184.367188 268.121094 C 183.304688 268.019531 182.246094 267.886719 181.191406 267.730469 C 180.136719 267.574219 179.089844 267.390625 178.042969 267.183594 C 176.996094 266.976562 175.957031 266.742188 174.921875 266.484375 C 173.886719 266.222656 172.863281 265.941406 171.839844 265.628906 C 170.820312 265.320312 169.808594 264.988281 168.804688 264.628906 C 167.800781 264.269531 166.808594 263.886719 165.820312 263.476562 C 164.835938 263.070312 163.863281 262.636719 162.898438 262.179688 C 161.933594 261.726562 160.984375 261.246094 160.042969 260.742188 C 159.101562 260.242188 158.175781 259.714844 157.261719 259.167969 C 156.347656 258.621094 155.445312 258.050781 154.558594 257.457031 C 153.671875 256.863281 152.800781 256.25 151.945312 255.617188 C 151.089844 254.980469 150.25 254.324219 149.425781 253.648438 C 148.601562 252.972656 147.792969 252.277344 147.003906 251.558594 C 146.214844 250.84375 145.441406 250.109375 144.6875 249.355469 C 143.933594 248.601562 143.199219 247.828125 142.484375 247.039062 C 141.765625 246.25 141.070312 245.441406 140.394531 244.617188 C 139.71875 243.792969 139.0625 242.953125 138.425781 242.097656 C 137.792969 241.242188 137.179688 240.371094 136.585938 239.484375 C 135.992188 238.597656 135.421875 237.695312 134.875 236.78125 C 134.328125 235.867188 133.800781 234.941406 133.300781 234 C 132.796875 233.058594 132.316406 232.109375 131.863281 231.144531 C 131.40625 230.179688 130.972656 229.207031 130.566406 228.222656 C 130.15625 227.234375 129.773438 226.242188 129.414062 225.238281 C 129.054688 224.234375 128.722656 223.222656 128.414062 222.203125 C 128.101562 221.183594 127.820312 220.15625 127.558594 219.121094 C 127.300781 218.085938 127.066406 217.046875 126.859375 216 C 126.652344 214.953125 126.46875 213.90625 126.3125 212.851562 C 126.15625 211.796875 126.027344 210.738281 125.921875 209.675781 C 125.816406 208.617188 125.738281 207.554688 125.6875 206.488281 C 125.632812 205.421875 125.605469 204.359375 125.605469 203.292969 Z M 125.605469 203.292969 " fill-opacity="1" fill-rule="nonzero"/><path fill="#1e1e21" d="M 194.007812 258.664062 C 194.007812 258.230469 193.925781 257.816406 193.761719 257.417969 C 193.59375 257.019531 193.359375 256.667969 193.054688 256.359375 C 192.75 256.054688 192.398438 255.820312 191.996094 255.65625 C 191.597656 255.488281 191.183594 255.40625 190.75 255.40625 C 189.046875 255.40625 187.34375 255.320312 185.644531 255.152344 C 183.945312 254.980469 182.261719 254.730469 180.589844 254.394531 C 178.914062 254.0625 177.261719 253.644531 175.628906 253.148438 C 173.996094 252.652344 172.394531 252.078125 170.816406 251.425781 C 169.242188 250.769531 167.699219 250.039062 166.195312 249.234375 C 164.691406 248.429688 163.230469 247.554688 161.8125 246.605469 C 160.394531 245.65625 159.023438 244.640625 157.707031 243.558594 C 156.386719 242.476562 155.125 241.332031 153.917969 240.125 C 152.710938 238.917969 151.566406 237.65625 150.484375 236.335938 C 149.402344 235.019531 148.386719 233.648438 147.4375 232.230469 C 146.488281 230.8125 145.613281 229.351562 144.808594 227.847656 C 144.003906 226.34375 143.273438 224.800781 142.621094 223.226562 C 141.964844 221.648438 141.390625 220.046875 140.894531 218.414062 C 140.398438 216.78125 139.980469 215.128906 139.648438 213.453125 C 139.3125 211.78125 139.0625 210.097656 138.890625 208.398438 C 138.722656 206.699219 138.636719 204.996094 138.636719 203.292969 C 138.636719 202.859375 138.554688 202.445312 138.386719 202.046875 C 138.222656 201.644531 137.988281 201.292969 137.683594 200.988281 C 137.375 200.683594 137.023438 200.449219 136.625 200.28125 C 136.226562 200.117188 135.8125 200.035156 135.378906 200.035156 C 134.945312 200.035156 134.53125 200.117188 134.132812 200.28125 C 133.734375 200.449219 133.382812 200.683594 133.074219 200.988281 C 132.769531 201.292969 132.535156 201.644531 132.371094 202.046875 C 132.203125 202.445312 132.121094 202.859375 132.121094 203.292969 C 132.125 205.210938 132.21875 207.125 132.410156 209.035156 C 132.601562 210.945312 132.882812 212.84375 133.257812 214.726562 C 133.636719 216.609375 134.101562 218.46875 134.660156 220.304688 C 135.21875 222.140625 135.867188 223.945312 136.601562 225.71875 C 137.339844 227.492188 138.160156 229.222656 139.0625 230.917969 C 139.96875 232.609375 140.957031 234.253906 142.023438 235.847656 C 143.089844 237.445312 144.230469 238.984375 145.449219 240.46875 C 146.667969 241.953125 147.957031 243.371094 149.3125 244.730469 C 150.671875 246.085938 152.089844 247.375 153.574219 248.59375 C 155.058594 249.8125 156.597656 250.953125 158.195312 252.019531 C 159.789062 253.085938 161.433594 254.074219 163.125 254.980469 C 164.820312 255.882812 166.550781 256.707031 168.324219 257.441406 C 170.097656 258.175781 171.902344 258.824219 173.738281 259.382812 C 175.574219 259.941406 177.4375 260.40625 179.316406 260.785156 C 181.199219 261.160156 183.097656 261.441406 185.007812 261.632812 C 186.917969 261.824219 188.832031 261.917969 190.75 261.921875 C 191.183594 261.921875 191.597656 261.839844 191.996094 261.671875 C 192.398438 261.507812 192.75 261.273438 193.054688 260.96875 C 193.359375 260.660156 193.59375 260.308594 193.761719 259.910156 C 193.925781 259.511719 194.007812 259.097656 194.007812 258.664062 Z M 194.007812 258.664062 " fill-opacity="1" fill-rule="nonzero"/><path fill="#1e1e21" d="M 304.753906 252.148438 L 272.179688 252.148438 C 271.75 252.148438 271.335938 252.234375 270.933594 252.398438 C 270.535156 252.5625 270.183594 252.796875 269.878906 253.105469 C 269.574219 253.410156 269.335938 253.761719 269.171875 254.160156 C 269.007812 254.558594 268.925781 254.976562 268.925781 255.40625 C 268.925781 255.839844 269.007812 256.253906 269.171875 256.652344 C 269.335938 257.050781 269.574219 257.40625 269.878906 257.710938 C 270.183594 258.015625 270.535156 258.25 270.933594 258.417969 C 271.335938 258.582031 271.75 258.664062 272.179688 258.664062 L 297.300781 258.664062 C 296.15625 260.289062 294.976562 261.886719 293.757812 263.457031 C 292.542969 265.03125 291.289062 266.574219 290 268.085938 C 288.710938 269.601562 287.390625 271.082031 286.035156 272.539062 C 284.679688 273.992188 283.289062 275.414062 281.871094 276.800781 C 280.449219 278.191406 278.996094 279.546875 277.515625 280.871094 C 276.03125 282.195312 274.519531 283.484375 272.976562 284.738281 C 271.433594 285.992188 269.867188 287.210938 268.269531 288.394531 C 266.671875 289.574219 265.046875 290.71875 263.394531 291.828125 C 261.746094 292.9375 260.070312 294.007812 258.371094 295.039062 C 256.671875 296.070312 254.953125 297.0625 253.207031 298.015625 C 251.464844 298.964844 249.699219 299.878906 247.910156 300.75 C 246.125 301.621094 244.320312 302.453125 242.496094 303.242188 C 240.671875 304.03125 238.832031 304.777344 236.972656 305.484375 C 235.113281 306.1875 233.242188 306.851562 231.351562 307.46875 C 229.464844 308.089844 227.5625 308.664062 225.648438 309.195312 C 223.730469 309.730469 221.804688 310.21875 219.867188 310.660156 C 217.929688 311.105469 215.984375 311.503906 214.027344 311.859375 C 212.074219 312.214844 210.109375 312.523438 208.140625 312.789062 C 206.171875 313.054688 204.195312 313.273438 202.214844 313.449219 C 200.234375 313.625 198.253906 313.753906 196.269531 313.835938 C 194.28125 313.921875 192.296875 313.960938 190.308594 313.953125 C 188.320312 313.945312 186.332031 313.894531 184.347656 313.796875 C 182.363281 313.699219 180.382812 313.554688 178.402344 313.367188 C 176.425781 313.179688 174.449219 312.945312 172.484375 312.667969 C 170.515625 312.386719 168.554688 312.0625 166.601562 311.695312 C 164.648438 311.328125 162.703125 310.914062 160.769531 310.457031 C 158.835938 310 156.914062 309.496094 155.003906 308.953125 C 153.089844 308.40625 151.195312 307.816406 149.308594 307.183594 C 147.425781 306.554688 145.554688 305.878906 143.703125 305.160156 C 141.847656 304.441406 140.011719 303.683594 138.195312 302.878906 C 136.375 302.078125 134.578125 301.234375 132.796875 300.351562 C 131.015625 299.46875 129.257812 298.542969 127.519531 297.578125 C 125.78125 296.613281 124.066406 295.609375 122.375 294.566406 C 120.683594 293.523438 119.015625 292.441406 117.375 291.324219 C 115.730469 290.203125 114.117188 289.046875 112.527344 287.855469 C 110.9375 286.660156 109.375 285.429688 107.84375 284.167969 C 106.308594 282.902344 104.804688 281.601562 103.332031 280.269531 C 101.859375 278.933594 100.414062 277.566406 99.003906 276.167969 C 97.59375 274.769531 96.214844 273.335938 94.871094 271.875 C 93.523438 270.414062 92.210938 268.917969 90.933594 267.398438 C 89.65625 265.875 88.414062 264.324219 87.210938 262.742188 C 86.003906 261.164062 84.832031 259.558594 83.699219 257.925781 C 82.566406 256.292969 81.472656 254.632812 80.414062 252.949219 C 79.359375 251.265625 78.339844 249.558594 77.363281 247.832031 C 76.382812 246.101562 75.445312 244.347656 74.546875 242.578125 C 73.648438 240.804688 72.789062 239.011719 71.972656 237.199219 C 71.15625 235.386719 70.378906 233.558594 69.648438 231.710938 C 68.914062 229.863281 68.222656 228 67.578125 226.121094 C 66.929688 224.242188 66.324219 222.347656 65.761719 220.441406 C 65.203125 218.535156 64.683594 216.617188 64.210938 214.6875 C 63.738281 212.753906 63.308594 210.816406 62.925781 208.867188 C 62.539062 206.914062 62.199219 204.957031 61.90625 202.992188 C 61.609375 201.027344 61.359375 199.054688 61.15625 197.078125 C 60.953125 195.101562 60.792969 193.121094 60.679688 191.136719 C 60.5625 189.152344 60.496094 187.167969 60.472656 185.179688 C 60.449219 183.191406 60.472656 181.203125 60.539062 179.21875 C 60.605469 177.230469 60.71875 175.246094 60.878906 173.265625 C 61.035156 171.285156 61.242188 169.308594 61.488281 167.335938 C 61.738281 165.363281 62.03125 163.398438 62.371094 161.441406 C 62.710938 159.484375 63.09375 157.53125 63.523438 155.59375 C 63.949219 153.652344 64.421875 151.722656 64.9375 149.800781 C 65.457031 147.882812 66.015625 145.976562 66.617188 144.082031 C 67.222656 142.1875 67.871094 140.308594 68.558594 138.445312 C 69.25 136.582031 69.980469 134.734375 70.753906 132.902344 C 70.925781 132.507812 71.011719 132.089844 71.015625 131.660156 C 71.019531 131.226562 70.941406 130.8125 70.777344 130.410156 C 70.617188 130.011719 70.382812 129.65625 70.082031 129.347656 C 69.777344 129.039062 69.429688 128.800781 69.03125 128.632812 C 68.632812 128.464844 68.21875 128.375 67.785156 128.375 C 67.351562 128.371094 66.9375 128.449219 66.535156 128.609375 C 66.136719 128.773438 65.78125 129.003906 65.472656 129.308594 C 65.164062 129.609375 64.925781 129.960938 64.757812 130.359375 C 63.949219 132.273438 63.183594 134.203125 62.460938 136.148438 C 61.738281 138.097656 61.058594 140.0625 60.425781 142.039062 C 59.792969 144.019531 59.207031 146.011719 58.664062 148.015625 C 58.121094 150.023438 57.625 152.039062 57.175781 154.066406 C 56.722656 156.09375 56.320312 158.132812 55.964844 160.179688 C 55.605469 162.226562 55.292969 164.277344 55.03125 166.339844 C 54.765625 168.398438 54.550781 170.464844 54.378906 172.535156 C 54.210938 174.605469 54.085938 176.679688 54.011719 178.753906 C 53.9375 180.832031 53.90625 182.90625 53.925781 184.984375 C 53.945312 187.0625 54.011719 189.140625 54.125 191.214844 C 54.238281 193.289062 54.398438 195.359375 54.609375 197.425781 C 54.816406 199.492188 55.070312 201.554688 55.371094 203.609375 C 55.675781 205.664062 56.023438 207.710938 56.417969 209.75 C 56.8125 211.789062 57.253906 213.820312 57.742188 215.839844 C 58.230469 217.859375 58.761719 219.867188 59.34375 221.863281 C 59.921875 223.855469 60.546875 225.835938 61.214844 227.804688 C 61.882812 229.769531 62.597656 231.722656 63.355469 233.65625 C 64.113281 235.589844 64.914062 237.507812 65.761719 239.402344 C 66.605469 241.300781 67.492188 243.179688 68.425781 245.035156 C 69.355469 246.894531 70.328125 248.726562 71.34375 250.542969 C 72.355469 252.355469 73.414062 254.144531 74.507812 255.90625 C 75.605469 257.671875 76.738281 259.410156 77.914062 261.125 C 79.089844 262.839844 80.304688 264.523438 81.554688 266.179688 C 82.808594 267.839844 84.097656 269.46875 85.421875 271.066406 C 86.75 272.667969 88.109375 274.234375 89.507812 275.769531 C 90.90625 277.308594 92.335938 278.8125 93.804688 280.285156 C 95.269531 281.757812 96.769531 283.195312 98.300781 284.597656 C 99.832031 286 101.394531 287.371094 102.988281 288.703125 C 104.582031 290.035156 106.203125 291.332031 107.859375 292.589844 C 109.511719 293.847656 111.191406 295.066406 112.898438 296.25 C 114.609375 297.429688 116.34375 298.574219 118.101562 299.675781 C 119.863281 300.78125 121.648438 301.84375 123.457031 302.863281 C 125.265625 303.886719 127.097656 304.863281 128.953125 305.804688 C 130.804688 306.742188 132.679688 307.636719 134.574219 308.488281 C 136.46875 309.34375 138.378906 310.152344 140.3125 310.917969 C 142.242188 311.683594 144.191406 312.40625 146.152344 313.082031 C 148.117188 313.757812 150.097656 314.390625 152.089844 314.976562 C 154.082031 315.566406 156.085938 316.105469 158.105469 316.601562 C 160.121094 317.097656 162.148438 317.546875 164.1875 317.949219 C 166.226562 318.351562 168.273438 318.710938 170.328125 319.019531 C 172.378906 319.328125 174.441406 319.59375 176.507812 319.808594 C 178.574219 320.023438 180.644531 320.195312 182.71875 320.316406 C 184.789062 320.4375 186.867188 320.511719 188.945312 320.539062 C 191.019531 320.566406 193.097656 320.546875 195.175781 320.480469 C 197.25 320.414062 199.324219 320.296875 201.394531 320.136719 C 203.464844 319.972656 205.53125 319.765625 207.59375 319.507812 C 209.65625 319.253906 211.710938 318.949219 213.757812 318.601562 C 215.808594 318.25 217.84375 317.855469 219.875 317.414062 C 221.90625 316.972656 223.925781 316.484375 225.929688 315.949219 C 227.9375 315.414062 229.933594 314.835938 231.914062 314.210938 C 233.894531 313.585938 235.863281 312.914062 237.8125 312.199219 C 239.761719 311.484375 241.695312 310.726562 243.613281 309.921875 C 245.527344 309.121094 247.425781 308.273438 249.304688 307.386719 C 251.179688 306.496094 253.035156 305.566406 254.871094 304.589844 C 256.707031 303.617188 258.519531 302.601562 260.308594 301.546875 C 262.097656 300.492188 263.859375 299.394531 265.601562 298.257812 C 267.339844 297.121094 269.050781 295.945312 270.734375 294.730469 C 272.421875 293.515625 274.078125 292.261719 275.707031 290.972656 C 277.335938 289.683594 278.933594 288.355469 280.5 286.992188 C 282.070312 285.632812 283.605469 284.234375 285.109375 282.800781 C 286.613281 281.367188 288.085938 279.902344 289.523438 278.402344 C 290.960938 276.902344 292.363281 275.371094 293.730469 273.804688 C 295.097656 272.242188 296.429688 270.648438 297.722656 269.023438 C 299.019531 267.398438 300.277344 265.746094 301.496094 264.066406 L 301.496094 287.980469 C 301.496094 288.410156 301.578125 288.828125 301.746094 289.226562 C 301.910156 289.625 302.144531 289.976562 302.449219 290.28125 C 302.753906 290.585938 303.109375 290.824219 303.507812 290.988281 C 303.90625 291.152344 304.320312 291.234375 304.753906 291.234375 C 305.1875 291.234375 305.601562 291.152344 306 290.988281 C 306.398438 290.824219 306.75 290.585938 307.058594 290.28125 C 307.363281 289.976562 307.597656 289.625 307.761719 289.226562 C 307.929688 288.828125 308.011719 288.410156 308.011719 287.980469 L 308.011719 255.40625 C 308.011719 254.976562 307.929688 254.558594 307.761719 254.160156 C 307.597656 253.761719 307.363281 253.410156 307.058594 253.105469 C 306.75 252.796875 306.398438 252.5625 306 252.398438 C 305.601562 252.234375 305.1875 252.148438 304.753906 252.148438 Z M 304.753906 252.148438 " fill-opacity="1" fill-rule="nonzero"/><path fill="#1e1e21" d="M 190.75 46.945312 C 185.367188 46.933594 180 47.238281 174.648438 47.863281 C 169.300781 48.488281 164.007812 49.425781 158.769531 50.679688 C 153.53125 51.933594 148.386719 53.488281 143.332031 55.351562 C 138.28125 57.214844 133.355469 59.371094 128.558594 61.816406 C 123.761719 64.261719 119.125 66.984375 114.652344 69.980469 C 110.175781 72.980469 105.894531 76.230469 101.804688 79.734375 C 97.714844 83.238281 93.847656 86.972656 90.203125 90.9375 C 86.558594 94.898438 83.160156 99.066406 80.007812 103.433594 L 80.007812 79.519531 C 80.007812 79.085938 79.925781 78.671875 79.757812 78.269531 C 79.59375 77.871094 79.359375 77.519531 79.050781 77.214844 C 78.746094 76.910156 78.394531 76.675781 77.996094 76.507812 C 77.597656 76.34375 77.179688 76.261719 76.75 76.261719 C 76.316406 76.261719 75.902344 76.34375 75.503906 76.507812 C 75.105469 76.675781 74.75 76.910156 74.445312 77.214844 C 74.140625 77.519531 73.90625 77.871094 73.738281 78.269531 C 73.574219 78.671875 73.492188 79.085938 73.492188 79.519531 L 73.492188 112.089844 C 73.492188 112.523438 73.574219 112.9375 73.738281 113.335938 C 73.90625 113.734375 74.140625 114.085938 74.445312 114.394531 C 74.75 114.699219 75.105469 114.933594 75.503906 115.097656 C 75.902344 115.265625 76.316406 115.347656 76.75 115.347656 L 109.320312 115.347656 C 109.753906 115.347656 110.167969 115.265625 110.566406 115.097656 C 110.96875 114.933594 111.320312 114.699219 111.625 114.394531 C 111.929688 114.085938 112.164062 113.734375 112.332031 113.335938 C 112.496094 112.9375 112.578125 112.523438 112.578125 112.089844 C 112.578125 111.65625 112.496094 111.242188 112.332031 110.84375 C 112.164062 110.445312 111.929688 110.09375 111.625 109.785156 C 111.320312 109.480469 110.96875 109.246094 110.566406 109.082031 C 110.167969 108.914062 109.753906 108.832031 109.320312 108.832031 L 84.203125 108.832031 C 85.347656 107.207031 86.527344 105.609375 87.746094 104.039062 C 88.960938 102.46875 90.214844 100.925781 91.503906 99.410156 C 92.789062 97.898438 94.113281 96.414062 95.46875 94.960938 C 96.824219 93.507812 98.210938 92.085938 99.632812 90.695312 C 101.054688 89.304688 102.503906 87.949219 103.988281 86.625 C 105.472656 85.300781 106.984375 84.011719 108.527344 82.757812 C 110.066406 81.503906 111.636719 80.285156 113.234375 79.105469 C 114.832031 77.921875 116.457031 76.777344 118.105469 75.667969 C 119.757812 74.558594 121.429688 73.492188 123.128906 72.460938 C 124.828125 71.429688 126.550781 70.4375 128.296875 69.484375 C 130.039062 68.53125 131.804688 67.617188 133.589844 66.746094 C 135.378906 65.875 137.183594 65.042969 139.007812 64.253906 C 140.832031 63.464844 142.671875 62.71875 144.53125 62.015625 C 146.390625 61.308594 148.261719 60.648438 150.152344 60.027344 C 152.039062 59.410156 153.941406 58.832031 155.855469 58.300781 C 157.769531 57.769531 159.699219 57.28125 161.636719 56.835938 C 163.570312 56.390625 165.519531 55.992188 167.472656 55.636719 C 169.429688 55.28125 171.390625 54.972656 173.363281 54.707031 C 175.332031 54.441406 177.308594 54.222656 179.285156 54.046875 C 181.265625 53.871094 183.25 53.742188 185.234375 53.660156 C 187.222656 53.574219 189.207031 53.535156 191.195312 53.542969 C 193.183594 53.550781 195.167969 53.601562 197.15625 53.699219 C 199.140625 53.796875 201.121094 53.941406 203.101562 54.128906 C 205.078125 54.320312 207.050781 54.550781 209.019531 54.832031 C 210.988281 55.109375 212.949219 55.433594 214.902344 55.800781 C 216.855469 56.171875 218.796875 56.582031 220.730469 57.039062 C 222.667969 57.5 224.589844 58 226.5 58.546875 C 228.410156 59.089844 230.308594 59.679688 232.195312 60.3125 C 234.078125 60.945312 235.945312 61.617188 237.800781 62.335938 C 239.652344 63.054688 241.488281 63.8125 243.308594 64.617188 C 245.128906 65.417969 246.925781 66.261719 248.707031 67.144531 C 250.488281 68.03125 252.246094 68.953125 253.984375 69.917969 C 255.722656 70.882812 257.4375 71.886719 259.128906 72.929688 C 260.820312 73.972656 262.488281 75.054688 264.128906 76.175781 C 265.769531 77.292969 267.386719 78.449219 268.976562 79.644531 C 270.566406 80.835938 272.128906 82.066406 273.660156 83.332031 C 275.195312 84.59375 276.695312 85.894531 278.171875 87.226562 C 279.644531 88.5625 281.085938 89.929688 282.5 91.328125 C 283.910156 92.726562 285.289062 94.160156 286.632812 95.621094 C 287.980469 97.085938 289.289062 98.578125 290.566406 100.101562 C 291.84375 101.621094 293.085938 103.175781 294.292969 104.753906 C 295.5 106.332031 296.667969 107.941406 297.800781 109.574219 C 298.933594 111.207031 300.03125 112.863281 301.085938 114.546875 C 302.144531 116.230469 303.164062 117.9375 304.140625 119.667969 C 305.121094 121.394531 306.058594 123.148438 306.957031 124.921875 C 307.855469 126.691406 308.714844 128.484375 309.53125 130.296875 C 310.347656 132.109375 311.121094 133.9375 311.855469 135.785156 C 312.589844 137.632812 313.277344 139.496094 313.925781 141.375 C 314.574219 143.253906 315.179688 145.148438 315.738281 147.054688 C 316.300781 148.960938 316.816406 150.878906 317.292969 152.8125 C 317.765625 154.742188 318.195312 156.679688 318.578125 158.632812 C 318.960938 160.582031 319.300781 162.539062 319.597656 164.503906 C 319.890625 166.46875 320.140625 168.441406 320.347656 170.417969 C 320.550781 172.394531 320.710938 174.375 320.824219 176.359375 C 320.9375 178.34375 321.007812 180.332031 321.03125 182.316406 C 321.054688 184.304688 321.03125 186.292969 320.964844 188.277344 C 320.894531 190.265625 320.78125 192.25 320.625 194.230469 C 320.464844 196.210938 320.261719 198.1875 320.011719 200.160156 C 319.765625 202.132812 319.46875 204.097656 319.132812 206.054688 C 318.792969 208.015625 318.410156 209.964844 317.980469 211.90625 C 317.554688 213.84375 317.082031 215.777344 316.5625 217.695312 C 316.046875 219.613281 315.488281 221.519531 314.882812 223.414062 C 314.28125 225.308594 313.632812 227.1875 312.945312 229.050781 C 312.253906 230.914062 311.523438 232.761719 310.746094 234.59375 C 310.578125 234.992188 310.492188 235.40625 310.488281 235.835938 C 310.484375 236.269531 310.5625 236.6875 310.726562 237.085938 C 310.886719 237.488281 311.117188 237.84375 311.421875 238.152344 C 311.722656 238.457031 312.074219 238.695312 312.472656 238.867188 C 312.871094 239.035156 313.285156 239.121094 313.71875 239.125 C 314.148438 239.128906 314.566406 239.050781 314.964844 238.886719 C 315.367188 238.726562 315.722656 238.492188 316.027344 238.1875 C 316.335938 237.886719 316.574219 237.535156 316.742188 237.136719 C 317.839844 234.550781 318.851562 231.929688 319.785156 229.277344 C 320.71875 226.628906 321.570312 223.953125 322.339844 221.25 C 323.105469 218.546875 323.792969 215.820312 324.390625 213.074219 C 324.992188 210.332031 325.507812 207.570312 325.9375 204.792969 C 326.367188 202.015625 326.714844 199.226562 326.972656 196.429688 C 327.230469 193.632812 327.402344 190.828125 327.488281 188.019531 C 327.574219 185.210938 327.574219 182.402344 327.488281 179.59375 C 327.402344 176.78125 327.230469 173.980469 326.96875 171.179688 C 326.710938 168.382812 326.363281 165.59375 325.933594 162.820312 C 325.5 160.042969 324.984375 157.28125 324.382812 154.535156 C 323.78125 151.789062 323.097656 149.066406 322.328125 146.363281 C 321.558594 143.660156 320.707031 140.984375 319.773438 138.332031 C 318.839844 135.683594 317.824219 133.0625 316.730469 130.476562 C 315.636719 127.886719 314.460938 125.335938 313.207031 122.820312 C 311.957031 120.304688 310.628906 117.828125 309.222656 115.394531 C 307.816406 112.960938 306.339844 110.574219 304.789062 108.230469 C 303.234375 105.886719 301.613281 103.59375 299.917969 101.351562 C 298.226562 99.109375 296.464844 96.921875 294.636719 94.785156 C 292.808594 92.652344 290.917969 90.574219 288.960938 88.558594 C 287.007812 86.539062 284.988281 84.585938 282.914062 82.691406 C 280.835938 80.796875 278.703125 78.96875 276.515625 77.207031 C 274.328125 75.445312 272.085938 73.75 269.792969 72.125 C 267.5 70.503906 265.15625 68.949219 262.769531 67.46875 C 260.378906 65.988281 257.949219 64.585938 255.472656 63.253906 C 252.996094 61.921875 250.484375 60.671875 247.929688 59.496094 C 245.378906 58.320312 242.792969 57.222656 240.171875 56.207031 C 237.550781 55.191406 234.902344 54.257812 232.226562 53.402344 C 229.546875 52.550781 226.847656 51.78125 224.121094 51.09375 C 221.394531 50.40625 218.652344 49.804688 215.890625 49.289062 C 213.128906 48.769531 210.351562 48.339844 207.5625 47.992188 C 204.777344 47.644531 201.980469 47.382812 199.175781 47.210938 C 196.371094 47.035156 193.5625 46.949219 190.75 46.945312 Z M 190.75 46.945312 " fill-opacity="1" fill-rule="nonzero"/><path fill="#1e1e21" d="M 262.410156 203.292969 C 262.410156 164.710938 196.003906 90.265625 193.175781 87.113281 C 192.859375 86.785156 192.488281 86.527344 192.070312 86.351562 C 191.648438 86.171875 191.207031 86.082031 190.75 86.082031 C 190.292969 86.082031 189.855469 86.171875 189.433594 86.351562 C 189.011719 86.527344 188.644531 86.785156 188.328125 87.113281 C 185.5 90.265625 119.09375 164.710938 119.09375 203.292969 C 119.09375 204.464844 119.121094 205.636719 119.179688 206.808594 C 119.238281 207.980469 119.324219 209.148438 119.4375 210.316406 C 119.554688 211.484375 119.695312 212.644531 119.867188 213.804688 C 120.039062 214.964844 120.242188 216.121094 120.46875 217.273438 C 120.699219 218.421875 120.957031 219.566406 121.242188 220.703125 C 121.527344 221.839844 121.839844 222.972656 122.179688 224.09375 C 122.519531 225.214844 122.886719 226.328125 123.28125 227.433594 C 123.675781 228.535156 124.097656 229.628906 124.546875 230.714844 C 124.996094 231.796875 125.472656 232.871094 125.972656 233.929688 C 126.472656 234.988281 127 236.035156 127.554688 237.070312 C 128.105469 238.105469 128.683594 239.125 129.289062 240.132812 C 129.890625 241.136719 130.519531 242.128906 131.167969 243.101562 C 131.820312 244.078125 132.496094 245.035156 133.195312 245.980469 C 133.894531 246.921875 134.613281 247.84375 135.359375 248.75 C 136.101562 249.65625 136.867188 250.546875 137.65625 251.414062 C 138.445312 252.285156 139.253906 253.132812 140.082031 253.960938 C 140.910156 254.792969 141.757812 255.597656 142.628906 256.386719 C 143.496094 257.175781 144.386719 257.941406 145.292969 258.683594 C 146.199219 259.429688 147.121094 260.148438 148.066406 260.847656 C 149.007812 261.546875 149.964844 262.222656 150.941406 262.875 C 151.914062 263.523438 152.90625 264.152344 153.910156 264.753906 C 154.917969 265.359375 155.9375 265.9375 156.972656 266.488281 C 158.007812 267.042969 159.054688 267.570312 160.113281 268.070312 C 161.171875 268.570312 162.246094 269.046875 163.328125 269.496094 C 164.414062 269.945312 165.507812 270.367188 166.609375 270.761719 C 167.714844 271.15625 168.828125 271.523438 169.949219 271.863281 C 171.074219 272.203125 172.203125 272.519531 173.339844 272.800781 C 174.476562 273.085938 175.621094 273.34375 176.773438 273.574219 C 177.921875 273.800781 179.078125 274.003906 180.238281 274.175781 C 181.398438 274.347656 182.5625 274.488281 183.726562 274.605469 C 184.894531 274.71875 186.0625 274.804688 187.234375 274.863281 C 188.40625 274.921875 189.578125 274.949219 190.75 274.949219 C 191.925781 274.949219 193.097656 274.921875 194.269531 274.863281 C 195.4375 274.804688 196.609375 274.71875 197.773438 274.605469 C 198.941406 274.488281 200.105469 274.347656 201.265625 274.175781 C 202.425781 274.003906 203.582031 273.800781 204.730469 273.574219 C 205.882812 273.34375 207.027344 273.085938 208.164062 272.800781 C 209.300781 272.519531 210.429688 272.203125 211.554688 271.863281 C 212.675781 271.523438 213.789062 271.15625 214.890625 270.761719 C 215.996094 270.367188 217.089844 269.945312 218.175781 269.496094 C 219.257812 269.046875 220.328125 268.570312 221.390625 268.070312 C 222.449219 267.570312 223.496094 267.042969 224.53125 266.488281 C 225.566406 265.9375 226.585938 265.359375 227.589844 264.753906 C 228.597656 264.152344 229.585938 263.523438 230.5625 262.875 C 231.539062 262.222656 232.496094 261.546875 233.4375 260.847656 C 234.378906 260.148438 235.304688 259.429688 236.210938 258.683594 C 237.117188 257.941406 238.003906 257.175781 238.875 256.386719 C 239.742188 255.597656 240.59375 254.792969 241.421875 253.960938 C 242.25 253.132812 243.058594 252.285156 243.847656 251.414062 C 244.632812 250.546875 245.398438 249.65625 246.144531 248.75 C 246.886719 247.84375 247.609375 246.921875 248.308594 245.980469 C 249.007812 245.035156 249.683594 244.078125 250.332031 243.101562 C 250.984375 242.128906 251.613281 241.136719 252.214844 240.132812 C 252.816406 239.125 253.394531 238.105469 253.949219 237.070312 C 254.5 236.035156 255.027344 234.988281 255.53125 233.929688 C 256.03125 232.871094 256.507812 231.796875 256.957031 230.714844 C 257.402344 229.628906 257.824219 228.535156 258.222656 227.433594 C 258.617188 226.328125 258.984375 225.214844 259.324219 224.09375 C 259.664062 222.972656 259.976562 221.839844 260.261719 220.703125 C 260.546875 219.566406 260.804688 218.421875 261.03125 217.273438 C 261.261719 216.121094 261.460938 214.964844 261.632812 213.804688 C 261.804688 212.644531 261.949219 211.484375 262.066406 210.316406 C 262.179688 209.148438 262.265625 207.980469 262.324219 206.808594 C 262.382812 205.636719 262.410156 204.464844 262.410156 203.292969 Z M 125.605469 203.292969 C 125.605469 171.140625 178.667969 108.152344 190.75 94.226562 C 202.835938 108.152344 255.894531 171.128906 255.894531 203.292969 C 255.894531 204.359375 255.871094 205.421875 255.816406 206.488281 C 255.765625 207.554688 255.6875 208.617188 255.582031 209.675781 C 255.476562 210.738281 255.347656 211.796875 255.191406 212.851562 C 255.035156 213.90625 254.851562 214.953125 254.644531 216 C 254.4375 217.046875 254.203125 218.085938 253.941406 219.121094 C 253.683594 220.15625 253.398438 221.183594 253.089844 222.203125 C 252.78125 223.222656 252.445312 224.234375 252.085938 225.238281 C 251.726562 226.242188 251.34375 227.234375 250.9375 228.222656 C 250.527344 229.207031 250.097656 230.179688 249.640625 231.144531 C 249.183594 232.109375 248.707031 233.058594 248.203125 234 C 247.699219 234.941406 247.175781 235.867188 246.628906 236.78125 C 246.078125 237.695312 245.507812 238.597656 244.917969 239.484375 C 244.324219 240.371094 243.710938 241.242188 243.074219 242.097656 C 242.441406 242.953125 241.785156 243.792969 241.109375 244.617188 C 240.433594 245.441406 239.734375 246.25 239.019531 247.039062 C 238.304688 247.828125 237.570312 248.601562 236.816406 249.355469 C 236.0625 250.109375 235.289062 250.84375 234.5 251.558594 C 233.710938 252.277344 232.902344 252.972656 232.078125 253.648438 C 231.253906 254.324219 230.414062 254.980469 229.558594 255.617188 C 228.703125 256.25 227.828125 256.863281 226.945312 257.457031 C 226.058594 258.050781 225.15625 258.621094 224.242188 259.167969 C 223.328125 259.714844 222.402344 260.242188 221.460938 260.742188 C 220.519531 261.246094 219.566406 261.726562 218.605469 262.179688 C 217.640625 262.636719 216.667969 263.070312 215.679688 263.476562 C 214.695312 263.886719 213.703125 264.269531 212.699219 264.628906 C 211.695312 264.988281 210.683594 265.320312 209.660156 265.628906 C 208.640625 265.941406 207.613281 266.222656 206.582031 266.484375 C 205.546875 266.742188 204.507812 266.976562 203.460938 267.183594 C 202.414062 267.390625 201.363281 267.574219 200.308594 267.730469 C 199.253906 267.886719 198.199219 268.019531 197.136719 268.121094 C 196.074219 268.226562 195.011719 268.304688 193.949219 268.355469 C 192.882812 268.410156 191.816406 268.4375 190.75 268.4375 C 189.683594 268.4375 188.621094 268.410156 187.554688 268.355469 C 186.488281 268.304688 185.425781 268.226562 184.367188 268.121094 C 183.304688 268.019531 182.246094 267.886719 181.191406 267.730469 C 180.136719 267.574219 179.089844 267.390625 178.042969 267.183594 C 176.996094 266.976562 175.957031 266.742188 174.921875 266.484375 C 173.886719 266.222656 172.863281 265.941406 171.839844 265.628906 C 170.820312 265.320312 169.808594 264.988281 168.804688 264.628906 C 167.800781 264.269531 166.808594 263.886719 165.820312 263.476562 C 164.835938 263.070312 163.863281 262.636719 162.898438 262.179688 C 161.933594 261.726562 160.984375 261.246094 160.042969 260.742188 C 159.101562 260.242188 158.175781 259.714844 157.261719 259.167969 C 156.347656 258.621094 155.445312 258.050781 154.558594 257.457031 C 153.671875 256.863281 152.800781 256.25 151.945312 255.617188 C 151.089844 254.980469 150.25 254.324219 149.425781 253.648438 C 148.601562 252.972656 147.792969 252.277344 147.003906 251.558594 C 146.214844 250.84375 145.441406 250.109375 144.6875 249.355469 C 143.933594 248.601562 143.199219 247.828125 142.484375 247.039062 C 141.765625 246.25 141.070312 245.441406 140.394531 244.617188 C 139.71875 243.792969 139.0625 242.953125 138.425781 242.097656 C 137.792969 241.242188 137.179688 240.371094 136.585938 239.484375 C 135.992188 238.597656 135.421875 237.695312 134.875 236.78125 C 134.328125 235.867188 133.800781 234.941406 133.300781 234 C 132.796875 233.058594 132.316406 232.109375 131.863281 231.144531 C 131.40625 230.179688 130.972656 229.207031 130.566406 228.222656 C 130.15625 227.234375 129.773438 226.242188 129.414062 225.238281 C 129.054688 224.234375 128.722656 223.222656 128.414062 222.203125 C 128.101562 221.183594 127.820312 220.15625 127.558594 219.121094 C 127.300781 218.085938 127.066406 217.046875 126.859375 216 C 126.652344 214.953125 126.46875 213.90625 126.3125 212.851562 C 126.15625 211.796875 126.027344 210.738281 125.921875 209.675781 C 125.816406 208.617188 125.738281 207.554688 125.6875 206.488281 C 125.632812 205.421875 125.605469 204.359375 125.605469 203.292969 Z M 125.605469 203.292969 " fill-opacity="1" fill-rule="nonzero"/><path fill="#1e1e21" d="M 194.007812 258.664062 C 194.007812 258.230469 193.925781 257.816406 193.761719 257.417969 C 193.59375 257.019531 193.359375 256.667969 193.054688 256.359375 C 192.75 256.054688 192.398438 255.820312 191.996094 255.65625 C 191.597656 255.488281 191.183594 255.40625 190.75 255.40625 C 189.046875 255.40625 187.34375 255.320312 185.644531 255.152344 C 183.945312 254.980469 182.261719 254.730469 180.589844 254.394531 C 178.914062 254.0625 177.261719 253.644531 175.628906 253.148438 C 173.996094 252.652344 172.394531 252.078125 170.816406 251.425781 C 169.242188 250.769531 167.699219 250.039062 166.195312 249.234375 C 164.691406 248.429688 163.230469 247.554688 161.8125 246.605469 C 160.394531 245.65625 159.023438 244.640625 157.707031 243.558594 C 156.386719 242.476562 155.125 241.332031 153.917969 240.125 C 152.710938 238.917969 151.566406 237.65625 150.484375 236.335938 C 149.402344 235.019531 148.386719 233.648438 147.4375 232.230469 C 146.488281 230.8125 145.613281 229.351562 144.808594 227.847656 C 144.003906 226.34375 143.273438 224.800781 142.621094 223.226562 C 141.964844 221.648438 141.390625 220.046875 140.894531 218.414062 C 140.398438 216.78125 139.980469 215.128906 139.648438 213.453125 C 139.3125 211.78125 139.0625 210.097656 138.890625 208.398438 C 138.722656 206.699219 138.636719 204.996094 138.636719 203.292969 C 138.636719 202.859375 138.554688 202.445312 138.386719 202.046875 C 138.222656 201.644531 137.988281 201.292969 137.683594 200.988281 C 137.375 200.683594 137.023438 200.449219 136.625 200.28125 C 136.226562 200.117188 135.8125 200.035156 135.378906 200.035156 C 134.945312 200.035156 134.53125 200.117188 134.132812 200.28125 C 133.734375 200.449219 133.382812 200.683594 133.074219 200.988281 C 132.769531 201.292969 132.535156 201.644531 132.371094 202.046875 C 132.203125 202.445312 132.121094 202.859375 132.121094 203.292969 C 132.125 205.210938 132.21875 207.125 132.410156 209.035156 C 132.601562 210.945312 132.882812 212.84375 133.257812 214.726562 C 133.636719 216.609375 134.101562 218.46875 134.660156 220.304688 C 135.21875 222.140625 135.867188 223.945312 136.601562 225.71875 C 137.339844 227.492188 138.160156 229.222656 139.0625 230.917969 C 139.96875 232.609375 140.957031 234.253906 142.023438 235.847656 C 143.089844 237.445312 144.230469 238.984375 145.449219 240.46875 C 146.667969 241.953125 147.957031 243.371094 149.3125 244.730469 C 150.671875 246.085938 152.089844 247.375 153.574219 248.59375 C 155.058594 249.8125 156.597656 250.953125 158.195312 252.019531 C 159.789062 253.085938 161.433594 254.074219 163.125 254.980469 C 164.820312 255.882812 166.550781 256.707031 168.324219 257.441406 C 170.097656 258.175781 171.902344 258.824219 173.738281 259.382812 C 175.574219 259.941406 177.4375 260.40625 179.316406 260.785156 C 181.199219 261.160156 183.097656 261.441406 185.007812 261.632812 C 186.917969 261.824219 188.832031 261.917969 190.75 261.921875 C 191.183594 261.921875 191.597656 261.839844 191.996094 261.671875 C 192.398438 261.507812 192.75 261.273438 193.054688 260.96875 C 193.359375 260.660156 193.59375 260.308594 193.761719 259.910156 C 193.925781 259.511719 194.007812 259.097656 194.007812 258.664062 Z M 194.007812 258.664062 " fill-opacity="1" fill-rule="nonzero"/><path fill="#071c57" d="M 305.320312 252.605469 L 272.679688 252.605469 C 272.246094 252.605469 271.832031 252.6875 271.429688 252.855469 C 271.03125 253.019531 270.679688 253.253906 270.371094 253.5625 C 270.066406 253.867188 269.828125 254.222656 269.664062 254.621094 C 269.5 255.019531 269.414062 255.4375 269.414062 255.871094 C 269.414062 256.300781 269.5 256.71875 269.664062 257.117188 C 269.828125 257.519531 270.066406 257.871094 270.371094 258.179688 C 270.679688 258.484375 271.03125 258.71875 271.429688 258.886719 C 271.832031 259.050781 272.246094 259.132812 272.679688 259.132812 L 297.851562 259.132812 C 296.707031 260.761719 295.523438 262.363281 294.300781 263.9375 C 293.082031 265.511719 291.828125 267.058594 290.535156 268.574219 C 289.246094 270.09375 287.921875 271.578125 286.5625 273.035156 C 285.203125 274.492188 283.8125 275.917969 282.390625 277.308594 C 280.964844 278.703125 279.511719 280.0625 278.023438 281.390625 C 276.539062 282.714844 275.023438 284.007812 273.476562 285.261719 C 271.933594 286.519531 270.359375 287.742188 268.757812 288.925781 C 267.15625 290.109375 265.53125 291.257812 263.875 292.367188 C 262.222656 293.480469 260.542969 294.550781 258.84375 295.585938 C 257.140625 296.617188 255.414062 297.613281 253.664062 298.566406 C 251.917969 299.523438 250.148438 300.4375 248.359375 301.308594 C 246.570312 302.183594 244.761719 303.015625 242.933594 303.804688 C 241.105469 304.597656 239.257812 305.347656 237.394531 306.050781 C 235.535156 306.757812 233.65625 307.421875 231.765625 308.042969 C 229.871094 308.664062 227.964844 309.242188 226.046875 309.773438 C 224.128906 310.308594 222.195312 310.796875 220.253906 311.242188 C 218.3125 311.6875 216.363281 312.085938 214.402344 312.441406 C 212.445312 312.796875 210.476562 313.109375 208.503906 313.375 C 206.527344 313.640625 204.550781 313.859375 202.566406 314.035156 C 200.582031 314.210938 198.59375 314.339844 196.605469 314.425781 C 194.613281 314.507812 192.625 314.546875 190.632812 314.539062 C 188.640625 314.535156 186.648438 314.480469 184.660156 314.382812 C 182.671875 314.285156 180.683594 314.140625 178.703125 313.953125 C 176.71875 313.765625 174.742188 313.53125 172.769531 313.25 C 170.796875 312.972656 168.832031 312.648438 166.875 312.277344 C 164.917969 311.910156 162.972656 311.496094 161.03125 311.035156 C 159.09375 310.578125 157.167969 310.074219 155.253906 309.527344 C 153.335938 308.980469 151.433594 308.390625 149.546875 307.757812 C 147.660156 307.125 145.785156 306.449219 143.929688 305.730469 C 142.070312 305.007812 140.230469 304.246094 138.410156 303.445312 C 136.585938 302.640625 134.78125 301.796875 133 300.910156 C 131.214844 300.023438 129.453125 299.097656 127.710938 298.128906 C 125.96875 297.164062 124.25 296.15625 122.554688 295.113281 C 120.859375 294.066406 119.1875 292.984375 117.542969 291.863281 C 115.898438 290.738281 114.277344 289.582031 112.6875 288.386719 C 111.09375 287.1875 109.527344 285.957031 107.992188 284.691406 C 106.457031 283.421875 104.949219 282.121094 103.472656 280.785156 C 101.996094 279.449219 100.550781 278.078125 99.136719 276.675781 C 97.722656 275.273438 96.339844 273.839844 94.992188 272.371094 C 93.644531 270.90625 92.328125 269.410156 91.046875 267.886719 C 89.769531 266.359375 88.523438 264.804688 87.316406 263.222656 C 86.105469 261.640625 84.933594 260.027344 83.796875 258.390625 C 82.664062 256.757812 81.566406 255.09375 80.507812 253.40625 C 79.449219 251.722656 78.425781 250.011719 77.445312 248.277344 C 76.464844 246.542969 75.523438 244.789062 74.625 243.011719 C 73.722656 241.234375 72.863281 239.441406 72.046875 237.625 C 71.226562 235.808594 70.449219 233.972656 69.714844 232.121094 C 68.980469 230.269531 68.289062 228.402344 67.640625 226.519531 C 66.992188 224.636719 66.386719 222.742188 65.824219 220.832031 C 65.261719 218.917969 64.742188 216.996094 64.269531 215.0625 C 63.792969 213.128906 63.363281 211.183594 62.980469 209.230469 C 62.59375 207.273438 62.253906 205.3125 61.957031 203.34375 C 61.660156 201.375 61.410156 199.398438 61.207031 197.417969 C 61 195.4375 60.839844 193.453125 60.726562 191.460938 C 60.613281 189.472656 60.542969 187.484375 60.519531 185.492188 C 60.496094 183.5 60.519531 181.507812 60.585938 179.519531 C 60.65625 177.527344 60.769531 175.539062 60.929688 173.554688 C 61.085938 171.570312 61.289062 169.589844 61.539062 167.613281 C 61.789062 165.636719 62.085938 163.667969 62.425781 161.703125 C 62.765625 159.742188 63.148438 157.789062 63.578125 155.84375 C 64.007812 153.898438 64.480469 151.964844 64.996094 150.039062 C 65.515625 148.117188 66.074219 146.207031 66.679688 144.308594 C 67.285156 142.410156 67.933594 140.527344 68.625 138.660156 C 69.316406 136.792969 70.050781 134.941406 70.824219 133.105469 C 70.996094 132.707031 71.082031 132.292969 71.085938 131.859375 C 71.089844 131.425781 71.011719 131.007812 70.847656 130.609375 C 70.6875 130.207031 70.453125 129.851562 70.148438 129.542969 C 69.847656 129.234375 69.496094 128.996094 69.097656 128.824219 C 68.699219 128.65625 68.28125 128.570312 67.851562 128.566406 C 67.417969 128.5625 67 128.640625 66.597656 128.804688 C 66.195312 128.964844 65.84375 129.199219 65.535156 129.503906 C 65.226562 129.808594 64.984375 130.15625 64.816406 130.554688 C 64.003906 132.472656 63.238281 134.40625 62.511719 136.359375 C 61.789062 138.3125 61.109375 140.277344 60.476562 142.261719 C 59.839844 144.246094 59.253906 146.242188 58.707031 148.25 C 58.164062 150.261719 57.667969 152.28125 57.214844 154.3125 C 56.765625 156.347656 56.359375 158.386719 56.003906 160.4375 C 55.644531 162.488281 55.332031 164.546875 55.066406 166.613281 C 54.804688 168.675781 54.585938 170.746094 54.414062 172.820312 C 54.246094 174.898438 54.121094 176.976562 54.046875 179.054688 C 53.96875 181.136719 53.941406 183.21875 53.960938 185.296875 C 53.980469 187.378906 54.046875 189.460938 54.160156 191.539062 C 54.273438 193.617188 54.4375 195.695312 54.644531 197.765625 C 54.851562 199.835938 55.109375 201.902344 55.410156 203.960938 C 55.714844 206.019531 56.0625 208.074219 56.457031 210.117188 C 56.855469 212.160156 57.296875 214.195312 57.785156 216.21875 C 58.273438 218.242188 58.808594 220.253906 59.386719 222.253906 C 59.96875 224.253906 60.59375 226.238281 61.265625 228.207031 C 61.933594 230.179688 62.648438 232.132812 63.410156 234.074219 C 64.167969 236.011719 64.972656 237.929688 65.820312 239.832031 C 66.667969 241.734375 67.558594 243.617188 68.488281 245.476562 C 69.421875 247.339844 70.398438 249.175781 71.414062 250.992188 C 72.429688 252.808594 73.488281 254.601562 74.585938 256.371094 C 75.683594 258.140625 76.824219 259.882812 78 261.601562 C 79.179688 263.316406 80.394531 265.003906 81.648438 266.667969 C 82.902344 268.328125 84.195312 269.960938 85.523438 271.5625 C 86.851562 273.164062 88.21875 274.738281 89.617188 276.277344 C 91.019531 277.816406 92.453125 279.324219 93.921875 280.800781 C 95.390625 282.277344 96.894531 283.714844 98.429688 285.121094 C 99.964844 286.53125 101.53125 287.902344 103.125 289.234375 C 104.722656 290.570312 106.351562 291.871094 108.007812 293.128906 C 109.664062 294.390625 111.347656 295.613281 113.058594 296.800781 C 114.773438 297.984375 116.511719 299.128906 118.273438 300.234375 C 120.039062 301.339844 121.828125 302.402344 123.640625 303.425781 C 125.453125 304.449219 127.289062 305.433594 129.144531 306.375 C 131.003906 307.3125 132.878906 308.210938 134.777344 309.066406 C 136.675781 309.921875 138.59375 310.730469 140.53125 311.5 C 142.464844 312.265625 144.417969 312.988281 146.386719 313.667969 C 148.351562 314.34375 150.335938 314.980469 152.332031 315.566406 C 154.328125 316.15625 156.339844 316.699219 158.359375 317.195312 C 160.382812 317.691406 162.414062 318.140625 164.457031 318.546875 C 166.5 318.949219 168.550781 319.308594 170.609375 319.617188 C 172.667969 319.929688 174.730469 320.191406 176.800781 320.40625 C 178.871094 320.625 180.945312 320.792969 183.023438 320.917969 C 185.105469 321.039062 187.183594 321.113281 189.265625 321.140625 C 191.347656 321.167969 193.429688 321.148438 195.507812 321.082031 C 197.589844 321.011719 199.667969 320.898438 201.742188 320.734375 C 203.820312 320.574219 205.890625 320.363281 207.957031 320.109375 C 210.023438 319.851562 212.082031 319.546875 214.132812 319.199219 C 216.183594 318.847656 218.230469 318.453125 220.261719 318.007812 C 222.296875 317.566406 224.320312 317.074219 226.332031 316.539062 C 228.34375 316.003906 230.34375 315.421875 232.328125 314.796875 C 234.3125 314.171875 236.28125 313.5 238.238281 312.785156 C 240.191406 312.066406 242.128906 311.308594 244.050781 310.503906 C 245.96875 309.699219 247.871094 308.851562 249.753906 307.960938 C 251.632812 307.066406 253.496094 306.132812 255.332031 305.160156 C 257.171875 304.183594 258.988281 303.164062 260.78125 302.105469 C 262.574219 301.046875 264.339844 299.949219 266.085938 298.8125 C 267.828125 297.671875 269.542969 296.492188 271.230469 295.277344 C 272.921875 294.058594 274.582031 292.804688 276.210938 291.511719 C 277.84375 290.21875 279.445312 288.890625 281.015625 287.523438 C 282.589844 286.15625 284.128906 284.757812 285.636719 283.320312 C 287.144531 281.886719 288.617188 280.417969 290.058594 278.914062 C 291.496094 277.410156 292.902344 275.875 294.273438 274.308594 C 295.644531 272.742188 296.980469 271.144531 298.277344 269.515625 C 299.574219 267.886719 300.835938 266.230469 302.058594 264.546875 L 302.058594 288.511719 C 302.058594 288.945312 302.140625 289.359375 302.304688 289.761719 C 302.472656 290.160156 302.707031 290.511719 303.011719 290.820312 C 303.320312 291.125 303.671875 291.359375 304.070312 291.527344 C 304.472656 291.691406 304.886719 291.773438 305.320312 291.773438 C 305.753906 291.773438 306.171875 291.691406 306.570312 291.527344 C 306.96875 291.359375 307.324219 291.125 307.628906 290.820312 C 307.933594 290.511719 308.171875 290.160156 308.335938 289.761719 C 308.503906 289.359375 308.585938 288.945312 308.585938 288.511719 L 308.585938 255.871094 C 308.585938 255.4375 308.503906 255.019531 308.335938 254.621094 C 308.171875 254.222656 307.933594 253.867188 307.628906 253.5625 C 307.324219 253.253906 306.96875 253.019531 306.570312 252.855469 C 306.171875 252.6875 305.753906 252.605469 305.320312 252.605469 Z M 305.320312 252.605469 " fill-opacity="1" fill-rule="nonzero"/><path fill="#071c57" d="M 191.078125 46.964844 C 185.679688 46.953125 180.300781 47.261719 174.941406 47.886719 C 169.582031 48.511719 164.277344 49.453125 159.027344 50.707031 C 153.777344 51.960938 148.621094 53.523438 143.558594 55.390625 C 138.496094 57.257812 133.558594 59.417969 128.75 61.867188 C 123.945312 64.320312 119.296875 67.046875 114.8125 70.050781 C 110.332031 73.054688 106.039062 76.3125 101.941406 79.824219 C 97.84375 83.335938 93.96875 87.078125 90.316406 91.050781 C 86.660156 95.023438 83.253906 99.195312 80.097656 103.570312 L 80.097656 79.605469 C 80.097656 79.175781 80.015625 78.757812 79.847656 78.359375 C 79.683594 77.957031 79.445312 77.605469 79.140625 77.300781 C 78.835938 76.992188 78.480469 76.757812 78.082031 76.589844 C 77.683594 76.425781 77.265625 76.34375 76.832031 76.34375 C 76.398438 76.34375 75.984375 76.425781 75.582031 76.589844 C 75.183594 76.757812 74.832031 76.992188 74.523438 77.300781 C 74.21875 77.605469 73.984375 77.957031 73.816406 78.359375 C 73.652344 78.757812 73.570312 79.175781 73.570312 79.605469 L 73.570312 112.25 C 73.570312 112.679688 73.652344 113.097656 73.816406 113.496094 C 73.984375 113.898438 74.21875 114.25 74.523438 114.554688 C 74.832031 114.863281 75.183594 115.097656 75.582031 115.265625 C 75.984375 115.429688 76.398438 115.511719 76.832031 115.511719 L 109.472656 115.511719 C 109.90625 115.511719 110.324219 115.429688 110.722656 115.265625 C 111.121094 115.097656 111.476562 114.863281 111.78125 114.554688 C 112.089844 114.25 112.324219 113.898438 112.488281 113.496094 C 112.65625 113.097656 112.738281 112.679688 112.738281 112.25 C 112.738281 111.816406 112.65625 111.398438 112.488281 111 C 112.324219 110.597656 112.089844 110.246094 111.78125 109.941406 C 111.476562 109.632812 111.121094 109.398438 110.722656 109.234375 C 110.324219 109.066406 109.90625 108.984375 109.472656 108.984375 L 84.300781 108.984375 C 85.449219 107.355469 86.632812 105.753906 87.851562 104.179688 C 89.070312 102.605469 90.328125 101.058594 91.617188 99.542969 C 92.90625 98.023438 94.230469 96.539062 95.589844 95.082031 C 96.949219 93.625 98.339844 92.199219 99.765625 90.808594 C 101.1875 89.414062 102.644531 88.054688 104.128906 86.730469 C 105.617188 85.402344 107.132812 84.113281 108.675781 82.855469 C 110.222656 81.597656 111.792969 80.378906 113.394531 79.191406 C 114.996094 78.007812 116.625 76.859375 118.277344 75.75 C 119.929688 74.640625 121.609375 73.566406 123.3125 72.535156 C 125.015625 71.5 126.738281 70.503906 128.488281 69.550781 C 130.234375 68.597656 132.003906 67.683594 133.796875 66.808594 C 135.585938 65.933594 137.394531 65.101562 139.222656 64.3125 C 141.050781 63.519531 142.894531 62.773438 144.757812 62.066406 C 146.621094 61.359375 148.496094 60.695312 150.390625 60.074219 C 152.28125 59.453125 154.1875 58.878906 156.109375 58.34375 C 158.027344 57.8125 159.957031 57.320312 161.898438 56.878906 C 163.839844 56.433594 165.789062 56.03125 167.75 55.675781 C 169.710938 55.320312 171.675781 55.007812 173.652344 54.742188 C 175.625 54.476562 177.605469 54.257812 179.589844 54.082031 C 181.570312 53.90625 183.558594 53.777344 185.550781 53.695312 C 187.539062 53.609375 189.53125 53.570312 191.523438 53.578125 C 193.511719 53.585938 195.503906 53.636719 197.492188 53.734375 C 199.484375 53.832031 201.46875 53.976562 203.453125 54.164062 C 205.433594 54.355469 207.410156 54.589844 209.382812 54.867188 C 211.355469 55.148438 213.320312 55.472656 215.277344 55.839844 C 217.234375 56.210938 219.183594 56.625 221.121094 57.082031 C 223.058594 57.539062 224.988281 58.042969 226.902344 58.589844 C 228.816406 59.136719 230.71875 59.726562 232.605469 60.359375 C 234.496094 60.992188 236.367188 61.671875 238.226562 62.390625 C 240.082031 63.109375 241.921875 63.871094 243.746094 64.675781 C 245.566406 65.476562 247.371094 66.320312 249.15625 67.207031 C 250.9375 68.09375 252.703125 69.019531 254.441406 69.988281 C 256.183594 70.953125 257.902344 71.960938 259.597656 73.003906 C 261.292969 74.050781 262.964844 75.132812 264.609375 76.257812 C 266.257812 77.378906 267.875 78.535156 269.46875 79.734375 C 271.0625 80.929688 272.625 82.160156 274.164062 83.429688 C 275.699219 84.695312 277.207031 85.996094 278.683594 87.335938 C 280.160156 88.671875 281.605469 90.039062 283.019531 91.441406 C 284.433594 92.84375 285.8125 94.28125 287.164062 95.746094 C 288.511719 97.210938 289.824219 98.707031 291.105469 100.234375 C 292.386719 101.757812 293.628906 103.3125 294.839844 104.894531 C 296.046875 106.480469 297.21875 108.089844 298.355469 109.726562 C 299.492188 111.363281 300.589844 113.023438 301.648438 114.710938 C 302.707031 116.398438 303.726562 118.109375 304.707031 119.839844 C 305.6875 121.574219 306.628906 123.328125 307.53125 125.105469 C 308.429688 126.882812 309.289062 128.679688 310.109375 130.496094 C 310.925781 132.308594 311.703125 134.144531 312.4375 135.996094 C 313.171875 137.847656 313.863281 139.714844 314.515625 141.597656 C 315.164062 143.480469 315.769531 145.378906 316.332031 147.289062 C 316.894531 149.199219 317.410156 151.121094 317.886719 153.054688 C 318.359375 154.988281 318.789062 156.933594 319.175781 158.890625 C 319.558594 160.84375 319.902344 162.804688 320.195312 164.773438 C 320.492188 166.746094 320.742188 168.71875 320.949219 170.699219 C 321.152344 172.683594 321.3125 174.667969 321.425781 176.65625 C 321.539062 178.644531 321.609375 180.632812 321.632812 182.625 C 321.65625 184.617188 321.632812 186.609375 321.566406 188.597656 C 321.5 190.589844 321.386719 192.578125 321.226562 194.5625 C 321.066406 196.546875 320.863281 198.53125 320.613281 200.503906 C 320.363281 202.480469 320.070312 204.449219 319.730469 206.414062 C 319.390625 208.375 319.003906 210.328125 318.578125 212.273438 C 318.148438 214.21875 317.675781 216.15625 317.15625 218.078125 C 316.640625 220 316.078125 221.910156 315.472656 223.808594 C 314.867188 225.707031 314.21875 227.589844 313.527344 229.457031 C 312.835938 231.324219 312.105469 233.175781 311.328125 235.011719 C 311.160156 235.410156 311.070312 235.824219 311.066406 236.257812 C 311.0625 236.691406 311.144531 237.109375 311.304688 237.511719 C 311.46875 237.914062 311.699219 238.269531 312.003906 238.578125 C 312.308594 238.886719 312.65625 239.125 313.054688 239.292969 C 313.453125 239.464844 313.871094 239.550781 314.304688 239.554688 C 314.738281 239.554688 315.152344 239.476562 315.554688 239.316406 C 315.957031 239.152344 316.3125 238.917969 316.621094 238.617188 C 316.929688 238.3125 317.167969 237.960938 317.335938 237.5625 C 318.433594 234.96875 319.449219 232.34375 320.386719 229.6875 C 321.320312 227.03125 322.171875 224.347656 322.941406 221.636719 C 323.714844 218.929688 324.398438 216.199219 325 213.449219 C 325.601562 210.699219 326.121094 207.929688 326.550781 205.148438 C 326.980469 202.363281 327.328125 199.570312 327.585938 196.765625 C 327.847656 193.960938 328.019531 191.152344 328.105469 188.339844 C 328.191406 185.523438 328.191406 182.707031 328.105469 179.894531 C 328.015625 177.078125 327.84375 174.269531 327.582031 171.464844 C 327.324219 168.660156 326.976562 165.867188 326.546875 163.085938 C 326.113281 160.300781 325.597656 157.535156 324.992188 154.785156 C 324.390625 152.03125 323.703125 149.304688 322.933594 146.59375 C 322.164062 143.886719 321.308594 141.203125 320.375 138.546875 C 319.4375 135.890625 318.421875 133.265625 317.324219 130.671875 C 316.226562 128.078125 315.050781 125.523438 313.792969 123 C 312.539062 120.480469 311.207031 118 309.800781 115.5625 C 308.390625 113.121094 306.910156 110.730469 305.355469 108.378906 C 303.800781 106.03125 302.171875 103.734375 300.476562 101.488281 C 298.78125 99.238281 297.015625 97.046875 295.183594 94.90625 C 293.351562 92.769531 291.457031 90.6875 289.496094 88.667969 C 287.535156 86.644531 285.515625 84.683594 283.433594 82.785156 C 281.355469 80.890625 279.214844 79.058594 277.023438 77.289062 C 274.828125 75.523438 272.582031 73.828125 270.285156 72.199219 C 267.988281 70.570312 265.640625 69.015625 263.246094 67.535156 C 260.855469 66.050781 258.417969 64.640625 255.9375 63.308594 C 253.457031 61.976562 250.9375 60.71875 248.378906 59.542969 C 245.820312 58.363281 243.226562 57.265625 240.601562 56.246094 C 237.976562 55.230469 235.324219 54.292969 232.640625 53.4375 C 229.957031 52.582031 227.25 51.8125 224.519531 51.125 C 221.785156 50.433594 219.039062 49.832031 216.269531 49.3125 C 213.5 48.792969 210.71875 48.359375 207.925781 48.015625 C 205.128906 47.667969 202.328125 47.40625 199.515625 47.230469 C 196.707031 47.054688 193.894531 46.96875 191.078125 46.964844 Z M 191.078125 46.964844 " fill-opacity="1" fill-rule="nonzero"/><path fill="#071c57" d="M 262.886719 203.644531 C 262.886719 164.980469 196.339844 90.375 193.507812 87.21875 C 193.1875 86.886719 192.820312 86.632812 192.398438 86.453125 C 191.976562 86.273438 191.535156 86.183594 191.078125 86.183594 C 190.617188 86.183594 190.179688 86.273438 189.757812 86.453125 C 189.335938 86.632812 188.964844 86.886719 188.648438 87.21875 C 185.8125 90.375 119.265625 164.980469 119.265625 203.644531 C 119.265625 204.820312 119.296875 205.992188 119.351562 207.167969 C 119.410156 208.339844 119.496094 209.511719 119.613281 210.683594 C 119.726562 211.851562 119.871094 213.019531 120.042969 214.179688 C 120.214844 215.34375 120.417969 216.5 120.644531 217.652344 C 120.875 218.804688 121.132812 219.953125 121.417969 221.09375 C 121.703125 222.230469 122.015625 223.363281 122.359375 224.488281 C 122.699219 225.613281 123.066406 226.730469 123.464844 227.835938 C 123.859375 228.941406 124.28125 230.039062 124.734375 231.125 C 125.183594 232.210938 125.660156 233.285156 126.160156 234.347656 C 126.664062 235.410156 127.191406 236.457031 127.746094 237.496094 C 128.300781 238.53125 128.878906 239.554688 129.484375 240.5625 C 130.085938 241.570312 130.714844 242.5625 131.367188 243.539062 C 132.019531 244.515625 132.699219 245.476562 133.398438 246.421875 C 134.097656 247.367188 134.820312 248.292969 135.566406 249.199219 C 136.3125 250.109375 137.078125 251 137.867188 251.867188 C 138.65625 252.738281 139.46875 253.589844 140.300781 254.421875 C 141.128906 255.253906 141.980469 256.0625 142.851562 256.851562 C 143.722656 257.640625 144.613281 258.410156 145.519531 259.152344 C 146.429688 259.898438 147.355469 260.621094 148.300781 261.324219 C 149.242188 262.023438 150.203125 262.699219 151.179688 263.351562 C 152.160156 264.003906 153.152344 264.632812 154.160156 265.238281 C 155.167969 265.84375 156.1875 266.421875 157.226562 266.976562 C 158.261719 267.527344 159.3125 268.058594 160.375 268.558594 C 161.4375 269.0625 162.511719 269.539062 163.597656 269.988281 C 164.683594 270.4375 165.777344 270.859375 166.882812 271.257812 C 167.992188 271.652344 169.105469 272.019531 170.230469 272.363281 C 171.355469 272.703125 172.488281 273.015625 173.628906 273.300781 C 174.769531 273.589844 175.914062 273.84375 177.066406 274.074219 C 178.21875 274.304688 179.378906 274.503906 180.539062 274.675781 C 181.703125 274.851562 182.867188 274.992188 184.039062 275.109375 C 185.207031 275.222656 186.378906 275.308594 187.554688 275.367188 C 188.726562 275.425781 189.902344 275.453125 191.078125 275.453125 C 192.253906 275.453125 193.425781 275.425781 194.601562 275.367188 C 195.773438 275.308594 196.945312 275.222656 198.117188 275.109375 C 199.285156 274.992188 200.453125 274.851562 201.613281 274.675781 C 202.777344 274.503906 203.933594 274.304688 205.085938 274.074219 C 206.238281 273.84375 207.386719 273.589844 208.527344 273.300781 C 209.664062 273.015625 210.796875 272.703125 211.921875 272.363281 C 213.046875 272.019531 214.164062 271.652344 215.269531 271.257812 C 216.375 270.859375 217.472656 270.4375 218.558594 269.988281 C 219.644531 269.539062 220.71875 269.0625 221.78125 268.558594 C 222.84375 268.058594 223.890625 267.527344 224.929688 266.976562 C 225.964844 266.421875 226.988281 265.84375 227.996094 265.238281 C 229.003906 264.632812 229.996094 264.003906 230.972656 263.351562 C 231.949219 262.699219 232.910156 262.023438 233.855469 261.324219 C 234.796875 260.621094 235.726562 259.898438 236.632812 259.152344 C 237.542969 258.410156 238.429688 257.640625 239.300781 256.851562 C 240.171875 256.0625 241.023438 255.253906 241.855469 254.421875 C 242.6875 253.589844 243.496094 252.738281 244.285156 251.867188 C 245.074219 251 245.84375 250.109375 246.585938 249.199219 C 247.332031 248.292969 248.054688 247.367188 248.753906 246.421875 C 249.457031 245.476562 250.132812 244.515625 250.785156 243.539062 C 251.4375 242.5625 252.066406 241.570312 252.671875 240.5625 C 253.273438 239.554688 253.855469 238.53125 254.410156 237.496094 C 254.960938 236.457031 255.492188 235.410156 255.992188 234.347656 C 256.496094 233.285156 256.972656 232.210938 257.421875 231.125 C 257.871094 230.039062 258.292969 228.941406 258.691406 227.835938 C 259.085938 226.730469 259.453125 225.613281 259.796875 224.488281 C 260.136719 223.363281 260.449219 222.230469 260.734375 221.09375 C 261.019531 219.953125 261.277344 218.804688 261.507812 217.652344 C 261.738281 216.5 261.9375 215.34375 262.109375 214.179688 C 262.28125 213.019531 262.425781 211.851562 262.542969 210.683594 C 262.65625 209.511719 262.742188 208.339844 262.800781 207.167969 C 262.859375 205.992188 262.886719 204.820312 262.886719 203.644531 Z M 125.792969 203.644531 C 125.792969 171.421875 178.96875 108.304688 191.078125 94.347656 C 203.1875 108.300781 256.359375 171.414062 256.359375 203.644531 C 256.359375 204.710938 256.332031 205.78125 256.28125 206.847656 C 256.226562 207.914062 256.148438 208.980469 256.046875 210.042969 C 255.941406 211.105469 255.808594 212.164062 255.652344 213.222656 C 255.496094 214.28125 255.3125 215.332031 255.105469 216.378906 C 254.898438 217.425781 254.664062 218.46875 254.402344 219.507812 C 254.144531 220.542969 253.859375 221.570312 253.546875 222.59375 C 253.238281 223.617188 252.902344 224.632812 252.542969 225.636719 C 252.183594 226.644531 251.800781 227.640625 251.390625 228.625 C 250.980469 229.613281 250.546875 230.589844 250.089844 231.554688 C 249.636719 232.519531 249.15625 233.476562 248.652344 234.417969 C 248.148438 235.359375 247.621094 236.289062 247.070312 237.207031 C 246.523438 238.121094 245.949219 239.023438 245.355469 239.914062 C 244.765625 240.800781 244.148438 241.675781 243.511719 242.53125 C 242.875 243.390625 242.21875 244.234375 241.539062 245.058594 C 240.863281 245.882812 240.164062 246.691406 239.449219 247.484375 C 238.730469 248.277344 237.992188 249.050781 237.238281 249.804688 C 236.484375 250.5625 235.710938 251.296875 234.917969 252.015625 C 234.125 252.730469 233.316406 253.429688 232.492188 254.109375 C 231.664062 254.785156 230.824219 255.441406 229.964844 256.078125 C 229.109375 256.714844 228.234375 257.332031 227.347656 257.925781 C 226.457031 258.519531 225.554688 259.089844 224.640625 259.636719 C 223.722656 260.1875 222.792969 260.714844 221.851562 261.21875 C 220.910156 261.722656 219.953125 262.203125 218.988281 262.660156 C 218.023438 263.117188 217.046875 263.546875 216.058594 263.957031 C 215.074219 264.367188 214.074219 264.75 213.070312 265.109375 C 212.0625 265.46875 211.050781 265.804688 210.027344 266.113281 C 209.003906 266.425781 207.976562 266.710938 206.9375 266.96875 C 205.902344 267.230469 204.859375 267.464844 203.8125 267.671875 C 202.765625 267.878906 201.710938 268.0625 200.65625 268.21875 C 199.597656 268.375 198.539062 268.507812 197.476562 268.613281 C 196.414062 268.714844 195.347656 268.796875 194.28125 268.847656 C 193.214844 268.898438 192.144531 268.925781 191.078125 268.925781 C 190.007812 268.925781 188.941406 268.898438 187.875 268.847656 C 186.804688 268.796875 185.742188 268.714844 184.679688 268.613281 C 183.613281 268.507812 182.554688 268.375 181.496094 268.21875 C 180.441406 268.0625 179.390625 267.878906 178.339844 267.671875 C 177.292969 267.464844 176.25 267.230469 175.214844 266.96875 C 174.179688 266.710938 173.148438 266.425781 172.125 266.113281 C 171.105469 265.804688 170.089844 265.46875 169.082031 265.109375 C 168.078125 264.75 167.082031 264.367188 166.09375 263.957031 C 165.105469 263.546875 164.132812 263.117188 163.164062 262.660156 C 162.199219 262.203125 161.246094 261.722656 160.304688 261.21875 C 159.359375 260.714844 158.429688 260.1875 157.515625 259.636719 C 156.597656 259.089844 155.695312 258.519531 154.808594 257.925781 C 153.917969 257.332031 153.046875 256.714844 152.1875 256.078125 C 151.332031 255.441406 150.488281 254.785156 149.664062 254.109375 C 148.835938 253.429688 148.027344 252.730469 147.234375 252.015625 C 146.445312 251.296875 145.671875 250.5625 144.914062 249.804688 C 144.160156 249.050781 143.421875 248.277344 142.707031 247.484375 C 141.988281 246.691406 141.289062 245.882812 140.613281 245.058594 C 139.933594 244.234375 139.277344 243.390625 138.640625 242.53125 C 138.003906 241.675781 137.390625 240.800781 136.796875 239.914062 C 136.203125 239.023438 135.632812 238.121094 135.082031 237.207031 C 134.53125 236.289062 134.007812 235.359375 133.503906 234.417969 C 133 233.476562 132.519531 232.519531 132.0625 231.554688 C 131.605469 230.589844 131.171875 229.613281 130.765625 228.625 C 130.355469 227.640625 129.96875 226.644531 129.609375 225.636719 C 129.25 224.632812 128.914062 223.617188 128.605469 222.59375 C 128.296875 221.570312 128.011719 220.542969 127.75 219.507812 C 127.492188 218.46875 127.257812 217.425781 127.050781 216.378906 C 126.839844 215.332031 126.65625 214.28125 126.5 213.222656 C 126.34375 212.164062 126.214844 211.105469 126.109375 210.042969 C 126.003906 208.980469 125.925781 207.914062 125.875 206.847656 C 125.820312 205.78125 125.792969 204.710938 125.792969 203.644531 Z M 125.792969 203.644531 " fill-opacity="1" fill-rule="nonzero"/><path fill="#071c57" d="M 194.339844 259.132812 C 194.339844 258.699219 194.257812 258.285156 194.09375 257.886719 C 193.925781 257.484375 193.691406 257.132812 193.386719 256.824219 C 193.078125 256.519531 192.726562 256.285156 192.324219 256.117188 C 191.925781 255.953125 191.511719 255.871094 191.078125 255.871094 C 189.367188 255.867188 187.660156 255.78125 185.960938 255.613281 C 184.257812 255.445312 182.570312 255.191406 180.890625 254.855469 C 179.214844 254.519531 177.558594 254.105469 175.921875 253.609375 C 174.289062 253.109375 172.679688 252.535156 171.101562 251.878906 C 169.519531 251.222656 167.976562 250.492188 166.46875 249.683594 C 164.960938 248.878906 163.496094 248 162.074219 247.050781 C 160.65625 246.097656 159.28125 245.082031 157.960938 243.996094 C 156.640625 242.910156 155.375 241.765625 154.164062 240.554688 C 152.957031 239.347656 151.808594 238.082031 150.722656 236.757812 C 149.640625 235.4375 148.621094 234.066406 147.671875 232.644531 C 146.71875 231.222656 145.84375 229.757812 145.035156 228.25 C 144.230469 226.742188 143.496094 225.199219 142.84375 223.621094 C 142.1875 222.042969 141.609375 220.433594 141.113281 218.796875 C 140.617188 217.160156 140.199219 215.503906 139.863281 213.828125 C 139.53125 212.152344 139.277344 210.460938 139.109375 208.761719 C 138.9375 207.058594 138.851562 205.355469 138.851562 203.644531 C 138.851562 203.210938 138.769531 202.792969 138.601562 202.394531 C 138.4375 201.996094 138.199219 201.640625 137.894531 201.335938 C 137.589844 201.03125 137.234375 200.792969 136.835938 200.628906 C 136.4375 200.460938 136.019531 200.378906 135.585938 200.378906 C 135.152344 200.378906 134.738281 200.460938 134.335938 200.628906 C 133.9375 200.792969 133.585938 201.03125 133.277344 201.335938 C 132.972656 201.640625 132.738281 201.996094 132.570312 202.394531 C 132.40625 202.792969 132.324219 203.210938 132.324219 203.644531 C 132.324219 205.566406 132.421875 207.488281 132.613281 209.402344 C 132.800781 211.316406 133.085938 213.214844 133.460938 215.101562 C 133.839844 216.988281 134.308594 218.851562 134.867188 220.691406 C 135.425781 222.53125 136.074219 224.339844 136.8125 226.117188 C 137.550781 227.894531 138.371094 229.632812 139.28125 231.328125 C 140.1875 233.023438 141.175781 234.671875 142.246094 236.269531 C 143.3125 237.871094 144.460938 239.414062 145.679688 240.898438 C 146.898438 242.386719 148.191406 243.808594 149.550781 245.171875 C 150.910156 246.53125 152.335938 247.820312 153.820312 249.042969 C 155.308594 250.261719 156.851562 251.40625 158.449219 252.476562 C 160.050781 253.546875 161.699219 254.535156 163.394531 255.441406 C 165.089844 256.347656 166.824219 257.171875 168.601562 257.90625 C 170.378906 258.644531 172.1875 259.292969 174.027344 259.851562 C 175.871094 260.414062 177.734375 260.882812 179.621094 261.257812 C 181.503906 261.636719 183.40625 261.917969 185.320312 262.109375 C 187.234375 262.300781 189.152344 262.394531 191.078125 262.398438 C 191.511719 262.398438 191.925781 262.316406 192.324219 262.148438 C 192.726562 261.984375 193.078125 261.746094 193.386719 261.441406 C 193.691406 261.136719 193.925781 260.78125 194.09375 260.382812 C 194.257812 259.984375 194.339844 259.566406 194.339844 259.132812 Z M 194.339844 259.132812 " fill-opacity="1" fill-rule="nonzero"/></svg>