<svg xmlns="http://www.w3.org/2000/svg" xmlns:xlink="http://www.w3.org/1999/xlink" width="500" zoomAndPan="magnify" viewBox="0 0 375 374.999991" height="500" preserveAspectRatio="xMidYMid meet" version="1.0"><defs><clipPath id="902df36701"><path d="M 45.441406 45.441406 L 329.691406 45.441406 L 329.691406 329.691406 L 45.441406 329.691406 Z M 45.441406 45.441406 " clip-rule="nonzero"/></clipPath></defs><rect x="-37.5" width="450" fill="#ffffff" y="-37.499999" height="449.999989" fill-opacity="1"/><rect x="-37.5" width="450" fill="#ffffff" y="-37.499999" height="449.999989" fill-opacity="1"/><g clip-path="url(#902df36701)"><path fill="#071c57" d="M 52.617188 187.410156 C 52.617188 112.964844 112.964844 52.617188 187.410156 52.617188 C 261.855469 52.617188 322.203125 112.964844 322.203125 187.410156 C 322.203125 261.855469 261.855469 322.203125 187.410156 322.203125 C 112.964844 322.203125 52.617188 261.855469 52.617188 187.410156 Z M 45.382812 187.410156 C 45.382812 265.851562 108.964844 329.433594 187.410156 329.433594 C 265.851562 329.433594 329.433594 265.851562 329.433594 187.410156 C 329.433594 108.964844 265.851562 45.382812 187.410156 45.382812 C 108.964844 45.382812 45.382812 108.964844 45.382812 187.410156 " fill-opacity="1" fill-rule="nonzero"/></g><path fill="#071c57" d="M 90.796875 213.25 C 90.808594 213.242188 90.824219 213.234375 90.832031 213.226562 C 98.507812 208.988281 106.542969 207.996094 114.773438 211.140625 C 117.21875 212.070312 119.65625 213.011719 122.089844 213.96875 C 126.429688 215.679688 130.691406 217.613281 134.957031 219.496094 C 137.636719 220.683594 140.316406 221.867188 142.996094 223.070312 C 146.4375 224.609375 149.785156 226.394531 153.34375 227.65625 C 157.042969 228.960938 160.972656 229.449219 164.851562 229.878906 C 164.894531 229.878906 164.933594 229.886719 164.96875 229.886719 C 170.160156 230.453125 175.386719 230.746094 180.601562 230.933594 C 185.515625 231.113281 190.429688 231.183594 195.34375 231.191406 C 198.082031 231.191406 200.824219 231.128906 203.566406 231.121094 C 204.085938 231.121094 206.15625 231.121094 206.605469 230.960938 C 207.28125 230.726562 207.710938 230.203125 207.710938 229.46875 C 207.71875 228.574219 207.191406 228.03125 206.34375 227.851562 C 205.800781 227.742188 205.226562 227.753906 204.671875 227.71875 C 188.867188 226.859375 173.0625 226 157.257812 225.125 C 151.816406 224.820312 148.046875 220.820312 148.355469 215.699219 C 148.652344 210.605469 152.824219 207.105469 158.300781 207.390625 C 166.871094 207.847656 175.441406 208.308594 184.007812 208.820312 C 185.285156 208.898438 186.285156 208.632812 187.289062 207.828125 C 191.226562 204.691406 195.648438 202.414062 200.394531 200.777344 C 212.527344 196.613281 225.027344 196.113281 237.660156 197.195312 C 241.066406 197.488281 244.496094 197.820312 247.894531 198.480469 C 249.542969 198.796875 250.699219 200.289062 250.609375 201.964844 C 249.859375 215.601562 249.105469 229.121094 248.417969 242.640625 C 248.359375 243.792969 247.742188 244.023438 246.917969 244.285156 C 230.878906 249.332031 214.878906 254.550781 198.777344 259.402344 C 183.273438 264.074219 168.363281 262.222656 154.265625 254.207031 C 139.824219 245.988281 125.410156 237.707031 110.980469 229.460938 C 104.308594 225.652344 97.632812 221.847656 90.773438 217.933594 C 88.957031 216.890625 88.964844 214.261719 90.796875 213.25 " fill-opacity="1" fill-rule="nonzero"/><path fill="#071c57" d="M 261.929688 201.867188 C 261.929688 201.03125 262.160156 200.261719 262.570312 199.601562 C 263.332031 198.359375 264.691406 197.542969 266.253906 197.542969 C 266.519531 197.542969 266.769531 197.5625 267.015625 197.605469 C 269.042969 197.972656 270.585938 199.742188 270.585938 201.867188 C 270.585938 204.261719 268.640625 206.195312 266.253906 206.195312 C 263.867188 206.195312 261.929688 204.261719 261.929688 201.867188 Z M 252.554688 248.207031 C 252.449219 250.234375 254.003906 251.96875 256.03125 252.082031 L 278.628906 253.324219 C 280.664062 253.433594 282.398438 251.875 282.507812 249.847656 L 285.394531 197.125 C 285.507812 195.09375 283.953125 193.355469 281.917969 193.246094 L 259.320312 192.011719 C 257.292969 191.890625 255.558594 193.453125 255.441406 195.480469 L 252.554688 248.207031 " fill-opacity="1" fill-rule="nonzero"/><path fill="#071c57" d="M 140.691406 156.070312 C 139.996094 157.328125 139.21875 158.550781 138.378906 159.714844 C 137.761719 160.589844 136.582031 160.832031 135.570312 160.464844 C 134.5625 160.097656 133.910156 159.152344 133.910156 158.0625 C 133.902344 157.746094 133.929688 157.433594 134.085938 157.140625 C 134.800781 155.789062 135.589844 154.484375 136.542969 153.289062 C 137.320312 152.304688 138.796875 152.179688 139.835938 152.871094 C 140.871094 153.558594 141.308594 154.960938 140.691406 156.070312 Z M 134.015625 162.222656 C 135.203125 162.804688 135.742188 164.171875 135.25 165.449219 C 134.875 166.421875 134.390625 167.335938 134.015625 168.300781 C 133.4375 169.78125 132.871094 171.265625 133.105469 172.917969 C 133.355469 174.714844 133.953125 176.367188 135.035156 177.851562 C 136.035156 179.203125 135.847656 180.710938 134.644531 181.605469 C 133.410156 182.515625 131.917969 182.210938 130.878906 180.828125 C 129.03125 178.34375 128.113281 175.539062 127.984375 172.464844 C 127.984375 171.972656 127.929688 171.480469 127.992188 170.996094 C 128.335938 168.175781 129.441406 165.609375 130.757812 163.136719 C 131.371094 161.984375 132.855469 161.644531 134.015625 162.222656 Z M 156.210938 162.902344 C 152.816406 155.183594 148.082031 148.285156 143.066406 141.558594 C 142.378906 140.644531 141.738281 139.683594 140.691406 139.121094 C 140.289062 139.121094 139.886719 139.121094 139.476562 139.121094 C 138.796875 139.367188 138.207031 139.71875 137.753906 140.316406 C 133.585938 145.773438 129.664062 151.402344 126.351562 157.433594 C 124.472656 160.875 122.769531 164.402344 121.847656 168.246094 C 121.722656 168.78125 121.050781 174.105469 122.117188 177.246094 C 123.9375 183.675781 127.621094 188.601562 133.992188 190.984375 C 140.671875 193.476562 146.773438 192.015625 151.933594 187.171875 C 156.578125 182.8125 158.621094 177.289062 158.410156 170.953125 C 158.3125 168.113281 157.34375 165.46875 156.210938 162.902344 " fill-opacity="1" fill-rule="nonzero"/><path fill="#071c57" d="M 205.433594 172.464844 C 205.300781 175.539062 204.386719 178.34375 202.539062 180.828125 C 201.5 182.210938 200.007812 182.515625 198.769531 181.605469 C 197.570312 180.710938 197.382812 179.203125 198.382812 177.851562 C 199.464844 176.367188 200.0625 174.714844 200.3125 172.917969 C 200.546875 171.265625 199.976562 169.78125 199.402344 168.300781 C 199.027344 167.335938 198.542969 166.421875 198.167969 165.449219 C 197.675781 164.171875 198.222656 162.804688 199.402344 162.222656 C 200.5625 161.644531 202.046875 161.984375 202.65625 163.136719 C 203.976562 165.609375 205.078125 168.175781 205.425781 170.996094 C 205.488281 171.480469 205.433594 171.972656 205.433594 172.464844 Z M 199.507812 158.0625 C 199.507812 159.152344 198.855469 160.097656 197.847656 160.464844 C 196.835938 160.832031 195.652344 160.589844 195.03125 159.714844 C 194.195312 158.550781 193.417969 157.328125 192.726562 156.070312 C 192.109375 154.960938 192.542969 153.558594 193.578125 152.871094 C 194.621094 152.179688 196.097656 152.304688 196.875 153.289062 C 197.828125 154.484375 198.617188 155.789062 199.332031 157.140625 C 199.492188 157.433594 199.511719 157.746094 199.507812 158.0625 Z M 211.296875 177.246094 C 212.367188 174.105469 211.695312 168.78125 211.570312 168.246094 C 210.640625 164.402344 208.945312 160.875 207.066406 157.433594 C 203.753906 151.402344 199.839844 145.773438 195.660156 140.316406 C 195.210938 139.71875 194.621094 139.367188 193.941406 139.121094 C 193.53125 139.121094 193.128906 139.121094 192.726562 139.121094 C 191.675781 139.683594 191.03125 140.644531 190.351562 141.558594 C 185.332031 148.285156 180.601562 155.183594 177.214844 162.902344 C 176.082031 165.46875 175.101562 168.113281 175.011719 170.953125 C 174.796875 177.289062 176.839844 182.8125 181.480469 187.171875 C 186.644531 192.015625 192.746094 193.476562 199.421875 190.984375 C 205.792969 188.601562 209.480469 183.675781 211.296875 177.246094 " fill-opacity="1" fill-rule="nonzero"/><path fill="#071c57" d="M 178.699219 123.507812 C 178.566406 126.582031 177.648438 129.390625 175.804688 131.871094 C 174.761719 133.257812 173.269531 133.558594 172.035156 132.648438 C 170.835938 131.753906 170.648438 130.246094 171.648438 128.890625 C 172.730469 127.40625 173.328125 125.753906 173.574219 123.957031 C 173.8125 122.304688 173.242188 120.820312 172.667969 119.34375 C 172.292969 118.378906 171.804688 117.460938 171.429688 116.496094 C 170.9375 115.210938 171.480469 113.84375 172.667969 113.261719 C 173.824219 112.6875 175.3125 113.035156 175.921875 114.179688 C 177.242188 116.65625 178.34375 119.21875 178.691406 122.042969 C 178.753906 122.519531 178.699219 123.015625 178.699219 123.507812 Z M 172.769531 109.113281 C 172.769531 110.195312 172.117188 111.136719 171.113281 111.507812 C 170.097656 111.875 168.917969 111.632812 168.292969 110.757812 C 167.460938 109.589844 166.683594 108.371094 165.988281 107.113281 C 165.371094 106.003906 165.808594 104.601562 166.84375 103.914062 C 167.886719 103.21875 169.363281 103.34375 170.140625 104.328125 C 171.089844 105.515625 171.882812 106.835938 172.597656 108.183594 C 172.75 108.472656 172.777344 108.792969 172.769531 109.113281 Z M 184.5625 128.289062 C 185.632812 125.144531 184.957031 119.820312 184.832031 119.285156 C 183.902344 115.441406 182.210938 111.914062 180.328125 108.472656 C 177.019531 102.441406 173.105469 96.8125 168.925781 91.359375 C 168.476562 90.761719 167.886719 90.40625 167.203125 90.164062 C 166.796875 90.164062 166.394531 90.164062 165.988281 90.164062 C 164.941406 90.726562 164.296875 91.683594 163.617188 92.601562 C 158.597656 99.324219 153.863281 106.222656 150.472656 113.941406 C 149.347656 116.511719 148.367188 119.15625 148.269531 121.992188 C 148.0625 128.332031 150.101562 133.855469 154.746094 138.214844 C 159.910156 143.058594 166.011719 144.515625 172.6875 142.023438 C 179.058594 139.652344 182.746094 134.722656 184.5625 128.289062 " fill-opacity="1" fill-rule="nonzero"/></svg>