<svg xmlns="http://www.w3.org/2000/svg" xmlns:xlink="http://www.w3.org/1999/xlink" width="500" zoomAndPan="magnify" viewBox="0 0 375 374.999991" height="500" preserveAspectRatio="xMidYMid meet" version="1.0"><defs><clipPath id="df3029fa64"><path d="M 42.109375 227 L 69 227 L 69 272 L 42.109375 272 Z M 42.109375 227 " clip-rule="nonzero"/></clipPath><clipPath id="372bf440e4"><path d="M 42.109375 268 L 337.609375 268 L 337.609375 289 L 42.109375 289 Z M 42.109375 268 " clip-rule="nonzero"/></clipPath><clipPath id="df3763b23d"><path d="M 42.109375 283 L 337.609375 283 L 337.609375 317.972656 L 42.109375 317.972656 Z M 42.109375 283 " clip-rule="nonzero"/></clipPath></defs><rect x="-37.5" width="450" fill="#ffffff" y="-37.499999" height="449.999989" fill-opacity="1"/><rect x="-37.5" width="450" fill="#ffffff" y="-37.499999" height="449.999989" fill-opacity="1"/><path fill="#071c57" d="M 66.320312 185.5625 L 71.597656 185.5625 L 71.597656 247.902344 L 66.320312 247.902344 Z M 66.320312 185.5625 " fill-opacity="1" fill-rule="nonzero"/><g clip-path="url(#df3029fa64)"><path fill="#071c57" d="M 47.382812 271.214844 L 42.109375 271.214844 L 42.109375 227.382812 L 68.960938 227.382812 L 68.960938 232.65625 L 47.382812 232.65625 Z M 47.382812 271.214844 " fill-opacity="1" fill-rule="nonzero"/></g><path fill="#071c57" d="M 126.847656 211.507812 C 92.90625 211.507812 66.320312 200.109375 66.320312 185.558594 C 66.320312 171.019531 92.90625 159.632812 126.847656 159.632812 L 126.847656 164.90625 C 93.796875 164.90625 71.59375 175.585938 71.59375 185.558594 C 71.59375 195.339844 94.285156 206.234375 126.847656 206.234375 C 130.800781 206.234375 134.664062 206.078125 138.335938 205.769531 C 163.285156 203.699219 182.097656 195.007812 182.097656 185.558594 C 182.097656 176.125 163.285156 167.449219 138.335938 165.375 L 138.773438 160.117188 C 167.390625 162.496094 187.375 172.957031 187.375 185.558594 C 187.375 198.175781 167.390625 208.648438 138.773438 211.023438 C 134.960938 211.347656 130.945312 211.507812 126.847656 211.507812 Z M 126.847656 211.507812 " fill-opacity="1" fill-rule="nonzero"/><path fill="#071c57" d="M 126.847656 273.851562 C 92.90625 273.851562 66.320312 262.453125 66.320312 247.902344 L 71.59375 247.902344 C 71.59375 257.679688 94.285156 268.578125 126.847656 268.578125 C 159.40625 268.578125 182.097656 257.679688 182.097656 247.902344 L 187.375 247.902344 C 187.375 262.453125 160.785156 273.851562 126.847656 273.851562 Z M 126.847656 273.851562 " fill-opacity="1" fill-rule="nonzero"/><path fill="#071c57" d="M 182.097656 185.5625 L 187.375 185.5625 L 187.375 247.902344 L 182.097656 247.902344 Z M 182.097656 185.5625 " fill-opacity="1" fill-rule="nonzero"/><path fill="#071c57" d="M 300.453125 273.851562 L 182.097656 273.851562 L 182.097656 120.632812 L 300.453125 120.632812 Z M 187.375 268.578125 L 295.179688 268.578125 L 295.179688 125.90625 L 187.375 125.90625 Z M 187.375 268.578125 " fill-opacity="1" fill-rule="nonzero"/><path fill="#071c57" d="M 300.453125 115.695312 L 182.097656 115.695312 L 182.097656 88.558594 L 300.453125 60.542969 Z M 187.375 110.421875 L 295.179688 110.421875 L 295.179688 67.210938 L 187.375 92.730469 Z M 187.375 110.421875 " fill-opacity="1" fill-rule="nonzero"/><path fill="#071c57" d="M 322.125 273.851562 L 295.179688 273.851562 L 295.179688 136.9375 L 322.125 136.9375 Z M 300.453125 268.578125 L 316.851562 268.578125 L 316.851562 142.210938 L 300.453125 142.210938 Z M 300.453125 268.578125 " fill-opacity="1" fill-rule="nonzero"/><path fill="#071c57" d="M 297.816406 250.058594 L 319.488281 250.058594 L 319.488281 255.332031 L 297.816406 255.332031 Z M 297.816406 250.058594 " fill-opacity="1" fill-rule="nonzero"/><path fill="#071c57" d="M 297.816406 231.136719 L 319.488281 231.136719 L 319.488281 236.414062 L 297.816406 236.414062 Z M 297.816406 231.136719 " fill-opacity="1" fill-rule="nonzero"/><path fill="#071c57" d="M 297.816406 212.21875 L 319.488281 212.21875 L 319.488281 217.492188 L 297.816406 217.492188 Z M 297.816406 212.21875 " fill-opacity="1" fill-rule="nonzero"/><path fill="#071c57" d="M 297.816406 193.296875 L 319.488281 193.296875 L 319.488281 198.570312 L 297.816406 198.570312 Z M 297.816406 193.296875 " fill-opacity="1" fill-rule="nonzero"/><path fill="#071c57" d="M 297.816406 174.378906 L 319.488281 174.378906 L 319.488281 179.652344 L 297.816406 179.652344 Z M 297.816406 174.378906 " fill-opacity="1" fill-rule="nonzero"/><path fill="#071c57" d="M 297.816406 155.457031 L 319.488281 155.457031 L 319.488281 160.730469 L 297.816406 160.730469 Z M 297.816406 155.457031 " fill-opacity="1" fill-rule="nonzero"/><path fill="#071c57" d="M 129.484375 208.871094 L 124.210938 208.871094 L 124.210938 160.957031 C 124.210938 152.070312 131.441406 144.839844 140.328125 144.839844 L 187.375 144.839844 L 187.375 160.742188 L 143.199219 160.742188 C 142.09375 160.742188 141.191406 161.640625 141.191406 162.746094 L 141.191406 208.398438 L 135.917969 208.398438 L 135.917969 162.746094 C 135.917969 158.730469 139.183594 155.46875 143.199219 155.46875 L 182.097656 155.46875 L 182.097656 150.113281 L 140.328125 150.113281 C 134.347656 150.113281 129.484375 154.976562 129.484375 160.957031 Z M 129.484375 208.871094 " fill-opacity="1" fill-rule="nonzero"/><g clip-path="url(#372bf440e4)"><path fill="#071c57" d="M 337.492188 288.585938 L 42.109375 288.585938 L 42.109375 268.578125 L 337.492188 268.578125 Z M 47.382812 283.308594 L 332.214844 283.308594 L 332.214844 273.851562 L 47.382812 273.851562 Z M 47.382812 283.308594 " fill-opacity="1" fill-rule="nonzero"/></g><g clip-path="url(#df3763b23d)"><path fill="#071c57" d="M 337.492188 318.109375 L 42.109375 318.109375 L 42.109375 283.308594 L 337.492188 283.308594 Z M 47.382812 312.835938 L 332.214844 312.835938 L 332.214844 288.585938 L 47.382812 288.585938 Z M 47.382812 312.835938 " fill-opacity="1" fill-rule="nonzero"/></g><path fill="#071c57" d="M 234.171875 174.019531 L 204.988281 174.019531 L 204.988281 144.839844 L 234.171875 144.839844 Z M 210.265625 168.746094 L 228.898438 168.746094 L 228.898438 150.113281 L 210.265625 150.113281 Z M 210.265625 168.746094 " fill-opacity="1" fill-rule="nonzero"/><path fill="#071c57" d="M 277.5625 174.019531 L 248.378906 174.019531 L 248.378906 144.839844 L 277.5625 144.839844 Z M 253.65625 168.746094 L 272.289062 168.746094 L 272.289062 150.113281 L 253.65625 150.113281 Z M 253.65625 168.746094 " fill-opacity="1" fill-rule="nonzero"/><path fill="#071c57" d="M 234.171875 217.492188 L 204.988281 217.492188 L 204.988281 188.308594 L 234.171875 188.308594 Z M 210.265625 212.21875 L 228.898438 212.21875 L 228.898438 193.582031 L 210.265625 193.582031 Z M 210.265625 212.21875 " fill-opacity="1" fill-rule="nonzero"/><path fill="#071c57" d="M 277.5625 217.492188 L 248.378906 217.492188 L 248.378906 188.308594 L 277.5625 188.308594 Z M 253.65625 212.21875 L 272.289062 212.21875 L 272.289062 193.582031 L 253.65625 193.582031 Z M 253.65625 212.21875 " fill-opacity="1" fill-rule="nonzero"/><path fill="#071c57" d="M 307.832031 125.90625 L 174.722656 125.90625 L 174.722656 110.421875 L 307.832031 110.421875 Z M 179.996094 120.632812 L 302.558594 120.632812 L 302.558594 115.695312 L 179.996094 115.695312 Z M 179.996094 120.632812 " fill-opacity="1" fill-rule="nonzero"/><path fill="#071c57" d="M 165.664062 92.457031 L 314.492188 57.210938 L 315.710938 62.34375 L 166.882812 97.589844 Z M 165.664062 92.457031 " fill-opacity="1" fill-rule="nonzero"/></svg>