<svg xmlns="http://www.w3.org/2000/svg" xmlns:xlink="http://www.w3.org/1999/xlink" width="500" zoomAndPan="magnify" viewBox="0 0 375 374.999991" height="500" preserveAspectRatio="xMidYMid meet" version="1.0"><defs><clipPath id="0e22139489"><path d="M 62.117188 45.621094 L 240 45.621094 L 240 295 L 62.117188 295 Z M 62.117188 45.621094 " clip-rule="nonzero"/></clipPath><clipPath id="4be649b863"><path d="M 161 182 L 308.117188 182 L 308.117188 329.121094 L 161 329.121094 Z M 161 182 " clip-rule="nonzero"/></clipPath></defs><rect x="-37.5" width="450" fill="#ffffff" y="-37.499999" height="449.999989" fill-opacity="1"/><rect x="-37.5" width="450" fill="#ffffff" y="-37.499999" height="449.999989" fill-opacity="1"/><g clip-path="url(#0e22139489)"><path fill="#071c57" d="M 152.367188 294.289062 C 102.503906 294.289062 62.117188 253.734375 62.117188 204.039062 C 62.117188 168.136719 102.171875 112.957031 131.425781 72.734375 C 138.238281 63.261719 144.71875 54.453125 149.539062 47.136719 C 150.207031 46.140625 151.203125 45.640625 152.367188 45.640625 C 153.363281 45.640625 154.527344 46.140625 155.023438 47.136719 C 160.011719 54.453125 166.492188 63.261719 173.308594 72.734375 C 197.074219 105.644531 229.820312 150.683594 239.625 185.089844 C 239.957031 186.085938 239.625 187.085938 238.960938 187.914062 C 238.460938 188.746094 237.464844 189.246094 236.300781 189.246094 C 235.800781 189.246094 235.46875 189.246094 234.972656 189.246094 C 198.074219 189.246094 168.15625 219.164062 168.15625 255.894531 C 168.15625 266.699219 170.816406 277.5 175.800781 286.976562 C 176.300781 287.804688 176.300781 288.96875 175.96875 289.800781 C 175.46875 290.796875 174.636719 291.460938 173.640625 291.628906 C 166.660156 293.457031 159.511719 294.289062 152.367188 294.289062 Z M 152.367188 54.785156 C 147.878906 61.433594 142.394531 68.746094 136.742188 76.558594 C 107.988281 116.113281 68.765625 170.296875 68.765625 204.039062 C 68.765625 250.078125 106.160156 287.640625 152.367188 287.640625 C 157.683594 287.640625 162.835938 287.140625 167.988281 286.144531 C 163.835938 276.671875 161.507812 266.363281 161.507812 255.894531 C 161.507812 216.503906 192.921875 184.257812 231.980469 182.597656 C 221.007812 149.855469 190.425781 107.804688 167.824219 76.558594 C 162.171875 68.746094 156.855469 61.265625 152.367188 54.785156 Z M 152.367188 54.785156 " fill-opacity="1" fill-rule="evenodd"/></g><path fill="#071c57" d="M 117.960938 268.691406 C 117.296875 268.691406 116.796875 268.527344 116.300781 268.195312 C 93.03125 255.230469 78.738281 230.628906 78.738281 204.039062 C 78.738281 202.210938 80.230469 200.714844 82.058594 200.714844 C 83.890625 200.714844 85.382812 202.210938 85.382812 204.039062 C 85.382812 228.136719 98.515625 250.574219 119.457031 262.375 C 121.117188 263.375 121.785156 265.367188 120.785156 267.03125 C 120.121094 268.027344 119.125 268.691406 117.960938 268.691406 Z M 117.960938 268.691406 " fill-opacity="1" fill-rule="evenodd"/><g clip-path="url(#4be649b863)"><path fill="#071c57" d="M 234.972656 329.359375 C 194.417969 329.359375 161.507812 296.449219 161.507812 255.894531 C 161.507812 215.503906 194.417969 182.597656 234.972656 182.597656 C 275.359375 182.597656 308.269531 215.503906 308.269531 255.894531 C 308.269531 296.449219 275.359375 329.359375 234.972656 329.359375 Z M 234.972656 189.246094 C 198.074219 189.246094 168.15625 219.164062 168.15625 255.894531 C 168.15625 292.792969 198.074219 322.710938 234.972656 322.710938 C 271.703125 322.710938 301.621094 292.792969 301.621094 255.894531 C 301.621094 219.164062 271.703125 189.246094 234.972656 189.246094 Z M 234.972656 189.246094 " fill-opacity="1" fill-rule="evenodd"/></g><path fill="#071c57" d="M 239.957031 306.253906 C 226.496094 306.253906 213.863281 301.101562 204.222656 291.628906 C 192.921875 280.160156 187.769531 264.203125 190.09375 248.414062 L 182.117188 246.253906 C 180.789062 245.921875 179.789062 244.925781 179.625 243.59375 C 179.457031 242.429688 179.957031 241.101562 180.953125 240.269531 L 205.054688 222.984375 C 205.882812 222.488281 206.882812 222.320312 207.878906 222.488281 C 208.875 222.820312 209.707031 223.484375 210.039062 224.316406 L 222.339844 251.40625 C 222.835938 252.570312 222.671875 253.898438 221.839844 254.898438 C 221.007812 255.894531 219.679688 256.394531 218.515625 256.058594 L 208.710938 253.402344 C 208.046875 262.542969 211.203125 271.515625 217.851562 278 C 223.667969 283.984375 231.480469 287.140625 239.957031 287.140625 C 248.265625 287.140625 256.078125 283.984375 262.0625 278 C 274.195312 265.867188 274.195312 246.089844 262.0625 233.789062 C 256.078125 227.972656 248.265625 224.648438 239.957031 224.648438 C 237.960938 224.648438 235.96875 224.8125 233.972656 225.3125 L 227.988281 226.308594 C 226.160156 226.640625 224.332031 225.476562 224 223.816406 L 221.675781 211.515625 C 221.507812 210.6875 221.675781 209.6875 222.171875 209.023438 C 222.671875 208.191406 223.503906 207.695312 224.332031 207.527344 L 230.484375 206.363281 C 233.640625 205.867188 236.800781 205.535156 239.957031 205.535156 C 253.417969 205.535156 266.050781 210.851562 275.523438 220.324219 C 295.136719 239.9375 295.136719 271.851562 275.523438 291.628906 C 266.050781 301.101562 253.417969 306.253906 239.957031 306.253906 Z M 190.59375 241.601562 L 194.75 242.765625 C 196.410156 243.261719 197.40625 244.925781 197.074219 246.585938 L 196.910156 247.75 C 194.25 262.042969 198.738281 276.671875 209.042969 286.808594 C 217.1875 295.117188 228.15625 299.605469 239.957031 299.605469 C 251.589844 299.605469 262.5625 295.117188 270.871094 286.808594 C 287.824219 269.855469 287.824219 242.097656 270.871094 224.980469 C 262.5625 216.835938 251.589844 212.183594 239.957031 212.183594 C 237.132812 212.183594 234.472656 212.515625 231.8125 213.011719 L 228.820312 213.511719 L 229.984375 219.164062 L 232.808594 218.664062 C 235.136719 218.332031 237.464844 218 239.957031 218 C 250.09375 218 259.570312 221.988281 266.714844 229.136719 C 281.507812 243.925781 281.507812 268.027344 266.714844 282.820312 C 259.570312 289.964844 250.09375 293.789062 239.957031 293.789062 C 229.820312 293.789062 220.179688 289.964844 213.03125 282.820312 C 204.222656 273.84375 200.234375 261.210938 202.558594 248.914062 L 202.726562 248.582031 C 202.894531 247.75 203.390625 246.917969 204.222656 246.421875 C 204.886719 245.921875 205.882812 245.753906 206.882812 246.089844 L 213.363281 247.75 L 205.71875 230.796875 Z M 190.59375 241.601562 " fill-opacity="1" fill-rule="evenodd"/></svg>