<svg xmlns="http://www.w3.org/2000/svg" xmlns:xlink="http://www.w3.org/1999/xlink" width="500" zoomAndPan="magnify" viewBox="0 0 375 374.999991" height="500" preserveAspectRatio="xMidYMid meet" version="1.0"><defs><clipPath id="04c627e9eb"><path d="M 68.640625 69.242188 L 306.390625 69.242188 L 306.390625 305.492188 L 68.640625 305.492188 Z M 68.640625 69.242188 " clip-rule="nonzero"/></clipPath></defs><rect x="-37.5" width="450" fill="#ffffff" y="-37.499999" height="449.999989" fill-opacity="1"/><rect x="-37.5" width="450" fill="#ffffff" y="-37.499999" height="449.999989" fill-opacity="1"/><g clip-path="url(#04c627e9eb)"><path fill="#071c57" d="M 188.128906 69.5 C 228.367188 69.5 267.175781 75.746094 303.742188 87.972656 C 305.277344 88.519531 306.316406 89.890625 306.316406 91.535156 L 306.316406 278.246094 C 306.152344 286.742188 294.203125 293.375 269.644531 298.417969 C 247.605469 302.96875 218.445312 305.492188 187.527344 305.492188 C 156.554688 305.492188 127.390625 302.96875 105.355469 298.417969 C 80.796875 293.320312 68.789062 286.742188 68.679688 278.191406 L 68.679688 91.535156 C 68.679688 89.890625 69.722656 88.519531 71.257812 87.972656 C 107.929688 75.910156 146.6875 69.71875 186.429688 69.5 C 187.035156 69.5 187.582031 69.5 188.128906 69.5 Z M 280.332031 119.820312 C 282.363281 119.820312 284.0625 121.519531 284.0625 123.550781 L 284.0625 227.484375 C 284.0625 229.566406 282.363281 231.210938 280.332031 231.210938 C 278.304688 231.210938 276.605469 229.566406 276.605469 227.484375 L 276.605469 123.550781 C 276.605469 121.519531 278.304688 119.820312 280.332031 119.820312 Z M 210.714844 138.40625 C 210.714844 138.40625 210.769531 138.40625 210.714844 138.40625 C 211.757812 138.40625 212.6875 138.789062 213.402344 139.554688 C 223.160156 149.753906 237.628906 170.417969 237.628906 185.273438 C 237.628906 200.347656 225.570312 212.628906 210.714844 212.628906 C 195.640625 212.628906 183.304688 200.347656 183.304688 185.273438 C 183.304688 169.980469 198.492188 149.09375 208.082031 139.445312 C 208.742188 138.789062 209.726562 138.40625 210.714844 138.40625 Z M 210.714844 205.226562 C 221.460938 205.226562 230.175781 196.292969 230.175781 185.273438 C 230.175781 174.421875 219.539062 157.808594 210.660156 147.558594 C 201.78125 157.425781 190.761719 174.199219 190.761719 185.273438 C 190.761719 196.292969 199.695312 205.226562 210.714844 205.226562 Z M 102.558594 124.480469 L 147.125 124.480469 L 147.125 105.460938 C 147.125 103.375 148.769531 101.730469 150.851562 101.730469 C 152.882812 101.730469 154.527344 103.375 154.527344 105.460938 L 154.527344 251.21875 C 165.105469 250.5625 176.179688 250.234375 187.527344 250.234375 C 218.554688 250.234375 247.773438 252.753906 269.644531 257.359375 C 283.183594 260.15625 292.886719 263.5 298.917969 267.335938 L 298.917969 94.222656 C 228.640625 71.253906 147.730469 71.253906 76.136719 94.222656 L 76.136719 267.335938 C 80.464844 264.542969 86.824219 262.019531 95.15625 259.773438 L 95.15625 105.460938 C 95.15625 103.375 96.800781 101.730469 98.832031 101.730469 C 100.914062 101.730469 102.558594 103.375 102.558594 105.460938 Z M 147.125 131.882812 L 102.558594 131.882812 L 102.558594 153.261719 L 147.125 153.261719 Z M 147.125 160.660156 L 102.558594 160.660156 L 102.558594 182.476562 L 147.125 182.476562 Z M 147.125 189.933594 L 102.558594 189.933594 L 102.558594 211.257812 L 147.125 211.257812 Z M 147.125 218.660156 L 102.558594 218.714844 L 102.558594 240.039062 L 147.125 240.039062 Z M 147.125 247.4375 L 102.558594 247.4375 L 102.558594 257.964844 C 103.492188 257.742188 104.421875 257.523438 105.355469 257.359375 C 117.359375 254.839844 131.613281 252.917969 147.125 251.714844 Z M 100.585938 266.078125 C 100.089844 266.351562 99.488281 266.515625 98.886719 266.515625 C 81.125 271.066406 76.136719 276 76.136719 278.082031 C 76.136719 279.945312 81.617188 285.976562 106.835938 291.183594 C 128.433594 295.570312 157.046875 298.035156 187.527344 298.035156 C 217.949219 298.035156 246.566406 295.570312 268.164062 291.183594 C 293.378906 285.976562 298.917969 279.945312 298.917969 278.082031 C 298.917969 275.613281 292.503906 269.695312 268.109375 264.652344 C 246.675781 260.15625 218.058594 257.6875 187.527344 257.6875 C 175.300781 257.6875 163.40625 258.074219 152.167969 258.839844 C 151.730469 259.003906 151.292969 259.058594 150.851562 259.058594 C 150.523438 259.058594 150.25 259.058594 150.03125 258.949219 C 133.914062 260.15625 119.167969 262.019531 106.890625 264.652344 C 104.640625 265.089844 102.558594 265.582031 100.585938 266.078125 Z M 100.585938 266.078125 " fill-opacity="1" fill-rule="evenodd"/></g></svg>