<svg xmlns="http://www.w3.org/2000/svg" xmlns:xlink="http://www.w3.org/1999/xlink" width="500" zoomAndPan="magnify" viewBox="0 0 375 374.999991" height="500" preserveAspectRatio="xMidYMid meet" version="1.0"><defs><clipPath id="b7019c41ea"><path d="M 57 45.441406 L 317.925781 45.441406 L 317.925781 329.691406 L 57 329.691406 Z M 57 45.441406 " clip-rule="nonzero"/></clipPath></defs><rect x="-37.5" width="450" fill="#ffffff" y="-37.499999" height="449.999989" fill-opacity="1"/><rect x="-37.5" width="450" fill="#ffffff" y="-37.499999" height="449.999989" fill-opacity="1"/><g clip-path="url(#b7019c41ea)"><path fill="#071c57" d="M 136.75 136.550781 L 125.757812 147.546875 C 122.585938 150.714844 122.304688 155.75 125.09375 159.257812 L 132.195312 168.195312 C 132.636719 168.746094 132.707031 169.382812 132.402344 170.019531 C 131.570312 171.765625 130.820312 173.570312 130.171875 175.394531 C 129.9375 176.0625 129.4375 176.464844 128.730469 176.539062 L 117.394531 177.835938 C 112.9375 178.34375 109.585938 182.109375 109.585938 186.589844 L 109.585938 202.140625 C 109.585938 206.617188 112.945312 210.386719 117.394531 210.890625 L 128.730469 212.1875 C 129.4375 212.273438 129.929688 212.667969 130.167969 213.332031 C 130.816406 215.152344 131.5625 216.957031 132.394531 218.707031 C 132.703125 219.351562 132.632812 219.980469 132.1875 220.535156 L 125.085938 229.472656 C 122.296875 232.980469 122.585938 238.019531 125.753906 241.183594 L 136.746094 252.175781 C 139.917969 255.347656 144.949219 255.628906 148.457031 252.84375 L 157.386719 245.738281 C 157.949219 245.296875 158.578125 245.226562 159.222656 245.535156 C 160.972656 246.363281 162.773438 247.113281 164.589844 247.761719 C 165.257812 247.996094 165.65625 248.5 165.734375 249.199219 L 167.03125 260.535156 C 167.539062 264.984375 171.304688 268.34375 175.785156 268.34375 L 191.332031 268.34375 C 195.8125 268.34375 199.578125 264.984375 200.085938 260.535156 L 201.382812 249.199219 C 201.464844 248.492188 201.859375 247.996094 202.527344 247.761719 C 204.34375 247.113281 206.152344 246.363281 207.902344 245.535156 C 208.546875 245.226562 209.175781 245.296875 209.730469 245.738281 L 218.664062 252.84375 C 222.171875 255.628906 227.210938 255.34375 230.378906 252.175781 L 241.371094 241.183594 C 244.542969 238.011719 244.824219 232.980469 242.035156 229.472656 L 234.933594 220.535156 C 234.492188 219.980469 234.421875 219.34375 234.726562 218.703125 C 235.558594 216.953125 236.3125 215.148438 236.957031 213.332031 C 237.191406 212.667969 237.691406 212.265625 238.394531 212.1875 L 249.730469 210.890625 C 254.179688 210.386719 257.539062 206.617188 257.539062 202.140625 L 257.539062 186.589844 C 257.539062 182.109375 254.179688 178.34375 249.730469 177.835938 L 238.394531 176.539062 C 237.6875 176.457031 237.191406 176.0625 236.957031 175.394531 C 236.308594 173.574219 235.558594 171.769531 234.726562 170.027344 C 234.421875 169.382812 234.492188 168.753906 234.933594 168.199219 L 242.035156 159.261719 C 244.824219 155.757812 244.535156 150.714844 241.371094 147.550781 L 230.378906 136.558594 C 227.207031 133.386719 222.171875 133.097656 218.664062 135.890625 L 209.730469 142.996094 C 209.175781 143.4375 208.539062 143.507812 207.898438 143.203125 C 206.152344 142.371094 204.34375 141.621094 202.519531 140.972656 C 201.855469 140.738281 201.453125 140.238281 201.378906 139.535156 L 200.082031 128.199219 C 199.574219 123.742188 195.808594 120.390625 191.328125 120.390625 L 175.777344 120.390625 C 171.296875 120.390625 167.53125 123.75 167.023438 128.199219 L 165.726562 139.535156 C 165.644531 140.242188 165.25 140.738281 164.585938 140.972656 C 162.769531 141.621094 160.960938 142.371094 159.210938 143.203125 C 158.574219 143.507812 157.9375 143.4375 157.382812 142.996094 L 148.445312 135.890625 C 144.957031 133.09375 139.917969 133.382812 136.75 136.550781 Z M 152.996094 148.519531 C 155.65625 150.628906 159.210938 151.035156 162.269531 149.574219 C 163.800781 148.84375 165.378906 148.1875 166.964844 147.621094 C 170.160156 146.484375 172.382812 143.691406 172.773438 140.320312 L 174.070312 128.984375 C 174.167969 128.089844 174.898438 127.441406 175.796875 127.441406 L 191.34375 127.441406 C 192.246094 127.441406 192.972656 128.089844 193.070312 128.984375 L 194.367188 140.320312 C 194.753906 143.691406 196.980469 146.484375 200.175781 147.621094 C 201.765625 148.1875 203.347656 148.84375 204.871094 149.574219 C 207.9375 151.035156 211.488281 150.628906 214.152344 148.519531 L 223.085938 141.414062 C 223.789062 140.855469 224.761719 140.910156 225.398438 141.546875 L 236.390625 152.539062 C 237.027344 153.175781 237.078125 154.148438 236.519531 154.847656 L 229.417969 163.785156 C 227.308594 166.441406 226.898438 169.996094 228.363281 173.054688 C 229.085938 174.582031 229.746094 176.164062 230.3125 177.753906 C 231.449219 180.949219 234.246094 183.171875 237.617188 183.558594 L 248.949219 184.855469 C 249.839844 184.957031 250.488281 185.6875 250.488281 186.582031 L 250.488281 202.132812 C 250.488281 203.027344 249.839844 203.761719 248.945312 203.859375 L 237.609375 205.15625 C 234.246094 205.539062 231.445312 207.769531 230.308594 210.964844 C 229.742188 212.546875 229.085938 214.132812 228.363281 215.660156 C 226.898438 218.726562 227.308594 222.28125 229.417969 224.9375 L 236.519531 233.875 C 237.078125 234.574219 237.027344 235.546875 236.390625 236.183594 L 225.398438 247.179688 C 224.761719 247.816406 223.789062 247.867188 223.085938 247.308594 L 214.152344 240.210938 C 211.492188 238.101562 207.9375 237.695312 204.871094 239.15625 C 203.347656 239.886719 201.765625 240.542969 200.175781 241.105469 C 196.980469 242.238281 194.757812 245.039062 194.367188 248.410156 L 193.070312 259.746094 C 192.972656 260.636719 192.242188 261.285156 191.34375 261.285156 L 175.796875 261.285156 C 174.894531 261.285156 174.167969 260.636719 174.070312 259.738281 L 172.773438 248.402344 C 172.390625 245.03125 170.160156 242.238281 166.964844 241.101562 C 165.378906 240.535156 163.792969 239.882812 162.269531 239.148438 C 161.046875 238.566406 159.75 238.285156 158.460938 238.285156 C 156.515625 238.285156 154.585938 238.9375 152.992188 240.207031 L 144.058594 247.308594 C 143.351562 247.867188 142.386719 247.816406 141.75 247.179688 L 130.757812 236.183594 C 130.121094 235.546875 130.066406 234.574219 130.628906 233.875 L 137.730469 224.9375 C 139.839844 222.28125 140.246094 218.726562 138.785156 215.667969 C 138.054688 214.140625 137.398438 212.558594 136.832031 210.96875 C 135.695312 207.773438 132.902344 205.550781 129.53125 205.167969 L 118.195312 203.871094 C 117.300781 203.773438 116.652344 203.042969 116.652344 202.144531 L 116.652344 186.597656 C 116.652344 185.699219 117.300781 184.96875 118.195312 184.867188 L 129.53125 183.570312 C 132.898438 183.1875 135.695312 180.960938 136.832031 177.765625 C 137.398438 176.175781 138.054688 174.59375 138.785156 173.066406 C 140.246094 170.003906 139.839844 166.449219 137.730469 163.796875 L 130.628906 154.859375 C 130.066406 154.160156 130.125 153.1875 130.757812 152.550781 L 141.75 141.558594 C 142.386719 140.921875 143.359375 140.867188 144.058594 141.425781 Z M 183.570312 231.996094 C 204.320312 231.996094 221.199219 215.113281 221.199219 194.363281 C 221.199219 173.617188 204.320312 156.734375 183.570312 156.734375 C 162.824219 156.734375 145.941406 173.617188 145.941406 194.363281 C 145.941406 215.113281 162.824219 231.996094 183.570312 231.996094 Z M 183.570312 163.800781 C 200.421875 163.800781 214.128906 177.511719 214.128906 194.359375 C 214.128906 211.210938 200.417969 224.914062 183.570312 224.914062 C 166.722656 224.914062 153.015625 211.203125 153.015625 194.359375 C 153.015625 177.511719 166.71875 163.800781 183.570312 163.800781 Z M 71.820312 245.871094 C 71.363281 246.0625 70.894531 246.152344 70.433594 246.152344 C 69.058594 246.152344 67.75 245.34375 67.179688 244 C 60.464844 228.285156 57.066406 211.582031 57.066406 194.351562 C 57.066406 167.921875 65.132812 142.601562 80.402344 121.125 C 94.484375 101.320312 113.621094 86.179688 135.960938 77.113281 L 125.515625 71.914062 C 123.765625 71.042969 123.058594 68.921875 123.925781 67.175781 C 124.796875 65.425781 126.917969 64.710938 128.664062 65.585938 L 146.4375 74.429688 C 147.273438 74.851562 147.914062 75.585938 148.210938 76.472656 C 148.503906 77.355469 148.441406 78.332031 148.019531 79.171875 L 139.175781 96.941406 C 138.554688 98.1875 137.304688 98.90625 136.003906 98.90625 C 135.472656 98.90625 134.9375 98.785156 134.429688 98.535156 C 132.679688 97.660156 131.972656 95.539062 132.835938 93.792969 L 137.6875 84.046875 C 93.480469 102.453125 64.121094 146.136719 64.121094 194.347656 C 64.121094 210.617188 67.332031 226.382812 73.667969 241.214844 C 74.453125 243.027344 73.617188 245.101562 71.820312 245.871094 Z M 234.101562 306.558594 C 234.851562 308.363281 234.003906 310.429688 232.199219 311.183594 C 216.78125 317.609375 200.417969 320.871094 183.570312 320.871094 C 169.675781 320.871094 156.054688 318.636719 143.027344 314.226562 L 147.691406 324.558594 C 148.492188 326.339844 147.703125 328.433594 145.921875 329.238281 C 145.453125 329.453125 144.957031 329.550781 144.472656 329.550781 C 143.125 329.550781 141.839844 328.78125 141.25 327.472656 L 133.085938 309.375 C 132.285156 307.59375 133.074219 305.503906 134.851562 304.695312 L 152.949219 296.53125 C 154.730469 295.730469 156.828125 296.519531 157.628906 298.300781 C 158.429688 300.082031 157.640625 302.171875 155.859375 302.980469 L 145.574219 307.621094 C 157.789062 311.714844 170.554688 313.796875 183.578125 313.796875 C 199.484375 313.796875 214.929688 310.71875 229.488281 304.65625 C 231.285156 303.898438 233.355469 304.753906 234.101562 306.558594 Z M 161.152344 97.347656 L 205.988281 97.347656 C 207.9375 97.347656 209.523438 95.761719 209.523438 93.8125 L 209.523438 48.980469 C 209.523438 47.027344 207.9375 45.441406 205.988281 45.441406 L 161.152344 45.441406 C 159.203125 45.441406 157.617188 47.027344 157.617188 48.980469 L 157.617188 93.8125 C 157.617188 95.761719 159.203125 97.347656 161.152344 97.347656 Z M 164.691406 52.515625 L 202.449219 52.515625 L 202.449219 90.277344 L 164.691406 90.277344 Z M 199.351562 60.171875 C 200.730469 61.550781 200.730469 63.792969 199.351562 65.175781 L 181.910156 82.617188 C 181.21875 83.308594 180.3125 83.65625 179.410156 83.65625 C 178.5 83.65625 177.597656 83.308594 176.910156 82.617188 L 167.792969 73.5 C 166.410156 72.121094 166.410156 69.882812 167.792969 68.496094 C 169.171875 67.117188 171.410156 67.117188 172.789062 68.496094 L 179.402344 75.109375 L 194.34375 60.167969 C 195.730469 58.792969 197.96875 58.792969 199.351562 60.171875 Z M 122.320312 253.0625 L 77.488281 253.0625 C 75.539062 253.0625 73.953125 254.644531 73.953125 256.597656 L 73.953125 301.429688 C 73.953125 303.382812 75.539062 304.964844 77.488281 304.964844 L 122.320312 304.964844 C 124.273438 304.964844 125.859375 303.382812 125.859375 301.429688 L 125.859375 256.597656 C 125.859375 254.644531 124.273438 253.0625 122.320312 253.0625 Z M 118.785156 297.894531 L 81.027344 297.894531 L 81.027344 260.132812 L 118.785156 260.132812 Z M 289.644531 253.0625 L 244.8125 253.0625 C 242.863281 253.0625 241.277344 254.644531 241.277344 256.597656 L 241.277344 301.429688 C 241.277344 303.382812 242.863281 304.964844 244.8125 304.964844 L 289.644531 304.964844 C 291.597656 304.964844 293.183594 303.382812 293.183594 301.429688 L 293.183594 256.597656 C 293.183594 254.644531 291.601562 253.0625 289.644531 253.0625 Z M 286.109375 297.894531 L 248.351562 297.894531 L 248.351562 260.132812 L 286.109375 260.132812 Z M 315.679688 235.789062 L 298.46875 245.6875 C 297.914062 246.003906 297.308594 246.160156 296.714844 246.160156 C 295.488281 246.160156 294.296875 245.523438 293.640625 244.382812 L 283.746094 227.171875 C 282.773438 225.480469 283.355469 223.316406 285.046875 222.34375 C 286.746094 221.371094 288.902344 221.957031 289.875 223.648438 L 296.09375 234.464844 C 300.675781 221.625 302.996094 208.15625 302.996094 194.363281 C 302.996094 142.757812 270.105469 97.191406 221.160156 80.96875 C 219.300781 80.355469 218.300781 78.351562 218.914062 76.5 C 219.527344 74.644531 221.53125 73.640625 223.382812 74.253906 C 275.234375 91.4375 310.070312 139.699219 310.070312 194.363281 C 310.070312 208.179688 307.867188 221.691406 303.527344 234.625 L 312.15625 229.660156 C 313.855469 228.6875 316.011719 229.269531 316.984375 230.960938 C 317.957031 232.65625 317.375 234.816406 315.679688 235.789062 Z M 251.457031 281.117188 C 250.078125 279.738281 250.078125 277.5 251.457031 276.113281 C 252.835938 274.734375 255.074219 274.734375 256.460938 276.113281 L 263.074219 282.726562 L 278.015625 267.785156 C 279.394531 266.40625 281.636719 266.40625 283.019531 267.785156 C 284.40625 269.164062 284.398438 271.402344 283.019531 272.789062 L 265.578125 290.230469 C 264.890625 290.921875 263.980469 291.269531 263.078125 291.269531 C 262.179688 291.269531 261.269531 290.921875 260.582031 290.230469 Z M 84.125 281.117188 C 82.746094 279.738281 82.746094 277.5 84.125 276.113281 C 85.503906 274.734375 87.746094 274.734375 89.128906 276.113281 L 95.746094 282.726562 L 110.6875 267.789062 C 112.066406 266.410156 114.304688 266.410156 115.683594 267.789062 C 117.0625 269.171875 117.0625 271.410156 115.683594 272.789062 L 98.242188 290.230469 C 97.554688 290.921875 96.644531 291.269531 95.746094 291.269531 C 94.84375 291.269531 93.933594 290.921875 93.246094 290.230469 Z M 84.125 281.117188 " fill-opacity="1" fill-rule="nonzero"/></g></svg>