<svg xmlns="http://www.w3.org/2000/svg" xmlns:xlink="http://www.w3.org/1999/xlink" width="500" zoomAndPan="magnify" viewBox="0 0 375 374.999991" height="500" preserveAspectRatio="xMidYMid meet" version="1.0"><defs><clipPath id="e8a69188a2"><path d="M 37.5 37.5 L 337.5 37.5 L 337.5 337.5 L 37.5 337.5 Z M 37.5 37.5 " clip-rule="nonzero"/></clipPath><clipPath id="367745f399"><path d="M 164 37.5 L 175 37.5 L 175 48 L 164 48 Z M 164 37.5 " clip-rule="nonzero"/></clipPath></defs><rect x="-37.5" width="450" fill="#ffffff" y="-37.499999" height="449.999989" fill-opacity="1"/><rect x="-37.5" width="450" fill="#ffffff" y="-37.499999" height="449.999989" fill-opacity="1"/><g clip-path="url(#e8a69188a2)"><path fill="#071c57" d="M 187.5 37.5 C 186.863281 37.5 186.234375 37.625 185.648438 37.871094 C 185.0625 38.113281 184.527344 38.46875 184.078125 38.917969 C 183.628906 39.367188 183.273438 39.902344 183.027344 40.488281 C 182.785156 41.074219 182.660156 41.707031 182.660156 42.339844 C 182.660156 43.625 183.171875 44.855469 184.078125 45.761719 C 184.984375 46.667969 186.21875 47.175781 187.5 47.175781 C 206.890625 47.175781 225.332031 51.105469 242.117188 58.203125 C 243.300781 58.703125 244.632812 58.714844 245.820312 58.230469 C 247.011719 57.75 247.957031 56.816406 248.457031 55.632812 C 248.707031 55.046875 248.835938 54.417969 248.839844 53.785156 C 248.847656 53.148438 248.726562 52.515625 248.488281 51.925781 C 248.25 51.339844 247.894531 50.800781 247.449219 50.347656 C 247.003906 49.894531 246.472656 49.535156 245.886719 49.289062 C 227.9375 41.695312 208.195312 37.5 187.5 37.5 Z M 133.753906 47.898438 C 133.363281 47.90625 132.976562 47.957031 132.601562 48.054688 C 112.328125 53.367188 94.828125 68.042969 81.433594 81.433594 C 54.292969 108.574219 37.5 146.109375 37.5 187.503906 C 37.5 228.894531 54.292969 266.425781 81.433594 293.566406 C 81.882812 294.015625 82.414062 294.371094 83.003906 294.613281 C 83.589844 294.859375 84.21875 294.984375 84.855469 294.984375 C 85.492188 294.984375 86.121094 294.859375 86.707031 294.613281 C 87.292969 294.371094 87.828125 294.015625 88.277344 293.566406 C 89.183594 292.65625 89.695312 291.425781 89.695312 290.144531 C 89.695312 288.863281 89.183594 287.632812 88.277344 286.726562 C 62.878906 261.324219 47.179688 226.28125 47.179688 187.503906 C 47.179688 148.726562 62.878906 113.679688 88.277344 88.28125 C 101.152344 75.40625 117.761719 61.949219 135.050781 57.417969 C 135.664062 57.257812 136.242188 56.976562 136.75 56.59375 C 137.257812 56.210938 137.683594 55.730469 138.003906 55.179688 C 138.324219 54.632812 138.535156 54.027344 138.621094 53.398438 C 138.707031 52.765625 138.667969 52.125 138.507812 51.511719 C 138.234375 50.464844 137.617188 49.539062 136.753906 48.886719 C 135.890625 48.230469 134.835938 47.882812 133.753906 47.898438 Z M 290.03125 80.019531 C 288.785156 80.050781 287.601562 80.554688 286.722656 81.433594 C 286.273438 81.882812 285.917969 82.417969 285.671875 83.003906 C 285.429688 83.59375 285.304688 84.222656 285.304688 84.859375 C 285.304688 85.492188 285.429688 86.121094 285.671875 86.710938 C 285.917969 87.296875 286.273438 87.832031 286.722656 88.28125 C 312.121094 113.679688 327.820312 148.722656 327.820312 187.503906 C 327.820312 265.058594 265.054688 327.824219 187.5 327.824219 C 168.109375 327.824219 149.667969 323.898438 132.882812 316.800781 C 131.699219 316.300781 130.367188 316.289062 129.179688 316.773438 C 127.988281 317.253906 127.042969 318.191406 126.542969 319.371094 C 126.042969 320.554688 126.03125 321.886719 126.515625 323.074219 C 126.996094 324.261719 127.933594 325.210938 129.113281 325.710938 C 147.0625 333.304688 166.804688 337.5 187.5 337.5 C 270.285156 337.5 337.5 270.289062 337.5 187.503906 C 337.5 146.109375 320.707031 108.574219 293.566406 81.433594 C 293.105469 80.972656 292.550781 80.609375 291.945312 80.363281 C 291.335938 80.121094 290.683594 80.003906 290.03125 80.019531 Z M 290.03125 80.019531 " fill-opacity="1" fill-rule="evenodd"/></g><path fill="#071c57" d="M 81.472656 246.535156 C 81.269531 246.542969 81.070312 246.5625 80.871094 246.59375 C 80.242188 246.695312 79.640625 246.917969 79.097656 247.253906 C 78.558594 247.585938 78.085938 248.023438 77.714844 248.539062 C 77.34375 249.054688 77.074219 249.636719 76.929688 250.257812 C 76.78125 250.875 76.757812 251.515625 76.859375 252.144531 L 82.441406 286.753906 L 47.945312 280.476562 C 46.683594 280.25 45.382812 280.53125 44.328125 281.261719 C 43.273438 281.992188 42.550781 283.109375 42.320312 284.371094 C 42.207031 284.996094 42.214844 285.640625 42.351562 286.261719 C 42.484375 286.882812 42.738281 287.472656 43.101562 287.992188 C 43.460938 288.515625 43.921875 288.964844 44.457031 289.308594 C 44.992188 289.652344 45.589844 289.886719 46.214844 290.003906 L 87.4375 297.503906 C 88.199219 297.640625 88.984375 297.59375 89.722656 297.367188 C 90.464844 297.140625 91.140625 296.738281 91.691406 296.199219 C 92.246094 295.65625 92.660156 294.988281 92.902344 294.253906 C 93.144531 293.519531 93.203125 292.734375 93.082031 291.972656 L 86.414062 250.605469 C 86.230469 249.441406 85.625 248.386719 84.714844 247.636719 C 83.804688 246.886719 82.652344 246.496094 81.472656 246.535156 Z M 81.472656 246.535156 " fill-opacity="1" fill-rule="nonzero"/><path fill="#071c57" d="M 288.203125 76.625 C 287.546875 76.636719 286.902344 76.78125 286.304688 77.050781 C 285.703125 77.320312 285.167969 77.707031 284.722656 78.191406 C 284.277344 78.675781 283.9375 79.242188 283.722656 79.863281 C 283.503906 80.480469 283.414062 81.136719 283.457031 81.792969 L 286.289062 123.601562 C 286.332031 124.234375 286.5 124.855469 286.78125 125.425781 C 287.0625 125.992188 287.457031 126.503906 287.933594 126.921875 C 288.414062 127.339844 288.972656 127.65625 289.574219 127.859375 C 290.175781 128.0625 290.8125 128.144531 291.445312 128.101562 C 292.082031 128.058594 292.699219 127.890625 293.269531 127.609375 C 293.839844 127.328125 294.347656 126.933594 294.765625 126.457031 C 295.183594 125.976562 295.503906 125.421875 295.703125 124.816406 C 295.90625 124.214844 295.988281 123.578125 295.945312 122.945312 L 293.582031 87.964844 L 327.347656 97.394531 C 327.960938 97.5625 328.601562 97.613281 329.230469 97.535156 C 329.863281 97.457031 330.472656 97.257812 331.023438 96.945312 C 331.578125 96.632812 332.066406 96.214844 332.457031 95.714844 C 332.847656 95.214844 333.136719 94.644531 333.308594 94.03125 C 333.652344 92.796875 333.492188 91.472656 332.863281 90.355469 C 332.234375 89.238281 331.1875 88.414062 329.949219 88.070312 L 289.589844 76.804688 C 289.136719 76.679688 288.671875 76.617188 288.203125 76.625 Z M 288.203125 76.625 " fill-opacity="1" fill-rule="nonzero"/><path fill="#071c57" d="M 156.023438 46.980469 C 156.023438 47.625 155.894531 48.261719 155.648438 48.855469 C 155.402344 49.449219 155.042969 49.988281 154.589844 50.441406 C 154.132812 50.898438 153.59375 51.257812 153 51.503906 C 152.40625 51.75 151.769531 51.875 151.128906 51.875 C 149.828125 51.875 148.585938 51.359375 147.667969 50.441406 C 146.75 49.523438 146.234375 48.28125 146.234375 46.980469 C 146.234375 45.683594 146.75 44.4375 147.667969 43.519531 C 148.585938 42.605469 149.828125 42.089844 151.128906 42.089844 C 151.769531 42.089844 152.40625 42.214844 153 42.460938 C 153.59375 42.707031 154.132812 43.066406 154.589844 43.519531 C 155.042969 43.976562 155.402344 44.515625 155.648438 45.109375 C 155.894531 45.703125 156.023438 46.339844 156.023438 46.980469 Z M 156.023438 46.980469 " fill-opacity="1" fill-rule="nonzero"/><g clip-path="url(#367745f399)"><path fill="#071c57" d="M 174.257812 42.867188 C 174.257812 44.167969 173.742188 45.410156 172.824219 46.328125 C 171.90625 47.246094 170.660156 47.761719 169.363281 47.761719 C 168.066406 47.761719 166.820312 47.246094 165.902344 46.328125 C 164.984375 45.410156 164.46875 44.167969 164.46875 42.867188 C 164.46875 41.570312 164.984375 40.324219 165.902344 39.40625 C 166.820312 38.488281 168.066406 37.972656 169.363281 37.972656 C 170.660156 37.972656 171.90625 38.488281 172.824219 39.40625 C 173.742188 40.324219 174.257812 41.570312 174.257812 42.867188 Z M 174.257812 42.867188 " fill-opacity="1" fill-rule="nonzero"/></g><path fill="#071c57" d="M 123.390625 124.597656 C 116.101562 124.597656 110.078125 130.613281 110.078125 137.902344 L 110.078125 154.835938 C 110.078125 162.125 116.101562 168.148438 123.390625 168.148438 L 251.609375 168.148438 C 258.898438 168.148438 264.921875 162.125 264.921875 154.835938 L 264.921875 137.902344 C 264.921875 130.613281 258.898438 124.597656 251.609375 124.597656 Z M 123.390625 134.277344 L 251.609375 134.277344 C 253.703125 134.277344 255.242188 135.808594 255.242188 137.902344 L 255.242188 154.835938 C 255.242188 156.929688 253.703125 158.46875 251.609375 158.46875 L 123.390625 158.46875 C 121.296875 158.46875 119.757812 156.929688 119.757812 154.835938 L 119.757812 137.902344 C 119.757812 135.808594 121.296875 134.277344 123.390625 134.277344 Z M 123.390625 134.277344 " fill-opacity="1" fill-rule="nonzero"/><path fill="#071c57" d="M 240.738281 162.964844 L 233.480469 264.574219 C 233.289062 267.238281 235.296875 269.554688 237.960938 269.746094 C 240.625 269.933594 242.941406 267.929688 243.132812 265.265625 L 250.390625 163.652344 C 250.582031 160.984375 248.574219 158.671875 245.820312 158.550781 C 243.066406 158.433594 240.921875 160.40625 240.738281 162.964844 Z M 129.082031 158.574219 C 126.316406 158.742188 124.363281 161.105469 124.617188 163.765625 L 134.296875 265.378906 C 134.550781 268.039062 136.910156 269.988281 139.570312 269.734375 C 142.230469 269.484375 144.183594 267.125 143.933594 264.460938 L 134.253906 162.847656 C 134.011719 160.316406 131.847656 158.402344 129.082031 158.574219 Z M 129.082031 158.574219 " fill-opacity="1" fill-rule="nonzero"/><path fill="#071c57" d="M 131.933594 260.082031 C 124.871094 260.082031 119.757812 266.445312 119.757812 273.386719 L 119.757812 280.644531 C 119.757812 287.585938 124.871094 293.953125 131.933594 293.953125 L 243.066406 293.953125 C 250.125 293.953125 255.242188 287.585938 255.242188 280.644531 L 255.242188 273.386719 C 255.242188 266.445312 250.125 260.082031 243.066406 260.082031 Z M 131.933594 269.757812 L 243.066406 269.757812 C 244.132812 269.757812 245.566406 270.949219 245.566406 273.386719 L 245.566406 280.644531 C 245.566406 283.082031 244.132812 284.273438 243.066406 284.273438 L 131.933594 284.273438 C 130.867188 284.273438 129.433594 283.082031 129.433594 280.644531 L 129.433594 273.386719 C 129.433594 270.949219 130.867188 269.757812 131.933594 269.757812 Z M 131.933594 269.757812 " fill-opacity="1" fill-rule="nonzero"/><path fill="#071c57" d="M 154.839844 93.144531 C 147.550781 93.144531 141.535156 99.164062 141.535156 106.453125 L 141.535156 129.4375 C 141.535156 130.71875 142.042969 131.949219 142.949219 132.859375 C 143.855469 133.765625 145.085938 134.277344 146.371094 134.277344 C 147.003906 134.277344 147.636719 134.152344 148.222656 133.910156 C 148.808594 133.664062 149.34375 133.308594 149.792969 132.859375 C 150.242188 132.410156 150.597656 131.875 150.84375 131.289062 C 151.085938 130.703125 151.210938 130.074219 151.210938 129.4375 L 151.210938 106.453125 C 151.210938 104.359375 152.746094 102.820312 154.839844 102.820312 L 220.160156 102.820312 C 222.253906 102.820312 223.789062 104.359375 223.789062 106.453125 L 223.789062 129.4375 C 223.789062 130.074219 223.914062 130.703125 224.160156 131.289062 C 224.402344 131.875 224.757812 132.410156 225.207031 132.859375 C 225.65625 133.308594 226.191406 133.664062 226.777344 133.910156 C 227.367188 134.152344 227.996094 134.277344 228.628906 134.277344 C 229.914062 134.277344 231.144531 133.765625 232.050781 132.859375 C 232.957031 131.949219 233.464844 130.71875 233.464844 129.4375 L 233.464844 106.453125 C 233.464844 99.164062 227.449219 93.144531 220.160156 93.144531 Z M 154.839844 93.144531 " fill-opacity="1" fill-rule="nonzero"/><path fill="#071c57" d="M 187.433594 180.652344 C 181.527344 180.652344 178.554688 186.621094 176.296875 190.203125 C 173.125 195.289062 170.253906 202.273438 170.269531 210.304688 C 170.292969 218.335938 173.191406 225.308594 176.386719 230.378906 C 179.097656 234.4375 183.148438 239.835938 187.5625 239.878906 C 192.738281 239.449219 196.4375 233.914062 198.691406 230.328125 C 201.863281 225.246094 204.738281 218.257812 204.722656 210.230469 C 204.699219 202.195312 201.796875 195.226562 198.605469 190.15625 C 195.894531 186.097656 192.351562 180.652344 187.433594 180.652344 Z M 187.457031 191.519531 C 188.34375 192.46875 189.371094 193.648438 190.414062 195.3125 C 192.863281 199.195312 195.035156 204.597656 195.046875 210.25 C 195.070312 215.902344 192.910156 221.3125 190.484375 225.207031 C 189.445312 226.875 188.417969 228.0625 187.535156 229.011719 C 186.648438 228.066406 185.621094 226.882812 184.578125 225.222656 C 182.128906 221.339844 179.957031 215.933594 179.945312 210.28125 C 179.921875 204.628906 182.078125 199.21875 184.507812 195.324219 C 185.546875 193.660156 186.570312 192.472656 187.457031 191.519531 Z M 187.457031 191.519531 " fill-opacity="1" fill-rule="nonzero"/><path fill="#071c57" d="M 196.660156 201.910156 C 194.503906 203.488281 194.035156 206.519531 195.617188 208.675781 C 197.199219 210.828125 200.226562 211.296875 202.382812 209.714844 C 207.765625 205.769531 214.507812 204.363281 218.109375 204.21875 C 218.066406 205.511719 217.960938 207.058594 217.53125 208.960938 C 216.515625 213.433594 214.226562 218.792969 210.238281 222.796875 C 206.25 226.800781 200.90625 229.113281 196.433594 230.148438 C 194.199219 230.667969 192.183594 230.859375 190.859375 230.855469 C 190.285156 230.855469 189.933594 230.8125 189.726562 230.78125 C 187.839844 229.75 185.5 230.089844 183.980469 231.609375 C 182.09375 233.503906 182.101562 236.570312 184.003906 238.457031 C 185.589844 240.035156 186.652344 240.054688 187.675781 240.257812 C 188.695312 240.460938 189.710938 240.53125 190.832031 240.535156 C 193.070312 240.546875 195.710938 240.253906 198.632812 239.574219 C 204.46875 238.222656 211.441406 235.316406 217.105469 229.625 C 222.773438 223.933594 225.648438 216.949219 226.972656 211.101562 C 227.636719 208.179688 227.921875 205.542969 227.902344 203.304688 C 227.902344 202.183594 227.816406 201.171875 227.609375 200.152344 C 227.398438 199.132812 227.375 198.0625 225.792969 196.484375 C 224.210938 194.910156 223.140625 194.882812 222.121094 194.683594 C 213.492188 192.371094 200.695312 197.574219 196.671875 201.910156 Z M 196.660156 201.910156 " fill-opacity="1" fill-rule="nonzero"/><path fill="#071c57" d="M 152.78125 194.757812 C 151.761719 194.964844 150.695312 194.996094 149.121094 196.574219 C 146.304688 199.390625 147.058594 207.070312 148 211.203125 C 149.351562 217.039062 152.257812 224.011719 157.945312 229.675781 C 163.527344 235.234375 170.359375 238.109375 176.128906 239.46875 C 180.714844 240.34375 186.246094 241.347656 190.378906 238.960938 C 192.542969 237.394531 193.03125 234.371094 191.464844 232.203125 C 189.679688 229.113281 182.722656 231.0625 178.351562 230.050781 C 173.929688 229.007812 168.707031 226.730469 164.777344 222.820312 C 160.773438 218.832031 158.460938 213.488281 157.425781 209.019531 C 156.984375 207.121094 156.871094 205.574219 156.820312 204.28125 C 160.433594 204.410156 167.203125 205.789062 172.609375 209.726562 C 174.769531 211.300781 177.796875 210.824219 179.371094 208.664062 C 180.941406 206.503906 180.46875 203.480469 178.308594 201.90625 C 170.421875 196.160156 161.671875 194.421875 158.242188 194.449219 C 154.8125 194.476562 153.800781 194.550781 152.78125 194.757812 Z M 152.78125 194.757812 " fill-opacity="1" fill-rule="nonzero"/><path fill="#071c57" d="M 158.46875 141.53125 C 157.832031 141.53125 157.203125 141.65625 156.617188 141.902344 C 156.03125 142.144531 155.496094 142.5 155.046875 142.949219 C 154.597656 143.398438 154.242188 143.933594 153.996094 144.519531 C 153.753906 145.105469 153.628906 145.738281 153.628906 146.371094 C 153.628906 147.007812 153.753906 147.636719 153.996094 148.226562 C 154.242188 148.8125 154.597656 149.34375 155.046875 149.796875 C 155.496094 150.246094 156.03125 150.601562 156.617188 150.84375 C 157.203125 151.085938 157.832031 151.210938 158.46875 151.210938 L 216.53125 151.210938 C 217.167969 151.210938 217.796875 151.085938 218.382812 150.84375 C 218.96875 150.601562 219.503906 150.246094 219.953125 149.796875 C 220.402344 149.34375 220.757812 148.8125 221.003906 148.226562 C 221.246094 147.636719 221.371094 147.007812 221.371094 146.371094 C 221.371094 145.738281 221.246094 145.105469 221.003906 144.519531 C 220.757812 143.933594 220.402344 143.398438 219.953125 142.949219 C 219.503906 142.5 218.96875 142.144531 218.382812 141.902344 C 217.796875 141.65625 217.167969 141.53125 216.53125 141.53125 Z M 158.46875 141.53125 " fill-opacity="1" fill-rule="nonzero"/></svg>