<svg xmlns="http://www.w3.org/2000/svg" xmlns:xlink="http://www.w3.org/1999/xlink" width="500" zoomAndPan="magnify" viewBox="0 0 375 374.999991" height="500" preserveAspectRatio="xMidYMid meet" version="1.0"><defs><clipPath id="36032722b2"><path d="M 184 248 L 191 248 L 191 317.972656 L 184 317.972656 Z M 184 248 " clip-rule="nonzero"/></clipPath><clipPath id="5485c0e9d9"><path d="M 113 278 L 120 278 L 120 317.972656 L 113 317.972656 Z M 113 278 " clip-rule="nonzero"/></clipPath><clipPath id="fee4e9b280"><path d="M 255 278 L 262 278 L 262 317.972656 L 255 317.972656 Z M 255 278 " clip-rule="nonzero"/></clipPath><clipPath id="dd18949f3b"><path d="M 77.695312 193 L 297.445312 193 L 297.445312 317.972656 L 77.695312 317.972656 Z M 77.695312 193 " clip-rule="nonzero"/></clipPath><clipPath id="ff0bb16aa7"><path d="M 176 56.972656 L 199 56.972656 L 199 103 L 176 103 Z M 176 56.972656 " clip-rule="nonzero"/></clipPath></defs><rect x="-37.5" width="450" fill="#ffffff" y="-37.499999" height="449.999989" fill-opacity="1"/><rect x="-37.5" width="450" fill="#ffffff" y="-37.499999" height="449.999989" fill-opacity="1"/><path fill="#071c57" d="M 187.902344 254.742188 C 186.941406 254.742188 186.039062 254.273438 185.480469 253.488281 L 160.089844 217.628906 C 159.144531 216.292969 159.460938 214.441406 160.796875 213.492188 C 162.132812 212.546875 163.984375 212.863281 164.933594 214.199219 L 187.863281 246.585938 L 210.039062 214.238281 C 210.964844 212.886719 212.8125 212.542969 214.164062 213.46875 C 215.515625 214.394531 215.859375 216.242188 214.933594 217.59375 L 190.347656 253.453125 C 189.800781 254.253906 188.894531 254.734375 187.925781 254.742188 C 187.917969 254.742188 187.910156 254.742188 187.902344 254.742188 Z M 187.902344 254.742188 " fill-opacity="1" fill-rule="nonzero"/><g clip-path="url(#36032722b2)"><path fill="#071c57" d="M 187.902344 318.003906 C 186.265625 318.003906 184.9375 316.679688 184.9375 315.039062 L 184.9375 251.773438 C 184.9375 250.136719 186.265625 248.808594 187.902344 248.808594 C 189.539062 248.808594 190.867188 250.136719 190.867188 251.773438 L 190.867188 315.039062 C 190.867188 316.679688 189.539062 318.003906 187.902344 318.003906 Z M 187.902344 318.003906 " fill-opacity="1" fill-rule="nonzero"/></g><g clip-path="url(#5485c0e9d9)"><path fill="#071c57" d="M 116.4375 318.003906 C 114.800781 318.003906 113.472656 316.679688 113.472656 315.039062 L 113.472656 281.53125 C 113.472656 279.894531 114.800781 278.566406 116.4375 278.566406 C 118.074219 278.566406 119.402344 279.894531 119.402344 281.53125 L 119.402344 315.039062 C 119.402344 316.679688 118.074219 318.003906 116.4375 318.003906 Z M 116.4375 318.003906 " fill-opacity="1" fill-rule="nonzero"/></g><g clip-path="url(#fee4e9b280)"><path fill="#071c57" d="M 258.558594 318.003906 C 256.921875 318.003906 255.59375 316.679688 255.59375 315.039062 L 255.59375 281.53125 C 255.59375 279.894531 256.921875 278.566406 258.558594 278.566406 C 260.199219 278.566406 261.527344 279.894531 261.527344 281.53125 L 261.527344 315.039062 C 261.527344 316.679688 260.199219 318.003906 258.558594 318.003906 Z M 258.558594 318.003906 " fill-opacity="1" fill-rule="nonzero"/></g><g clip-path="url(#dd18949f3b)"><path fill="#071c57" d="M 294.324219 318.003906 L 80.675781 318.003906 C 79.039062 318.003906 77.710938 316.679688 77.710938 315.039062 L 77.710938 273.839844 C 77.710938 254.972656 89.683594 238.125 107.503906 231.921875 L 159.546875 213.808594 L 159.546875 196.867188 C 159.546875 195.226562 160.875 193.902344 162.511719 193.902344 C 164.148438 193.902344 165.476562 195.226562 165.476562 196.867188 L 165.476562 215.914062 C 165.476562 217.175781 164.679688 218.300781 163.488281 218.714844 L 109.453125 237.523438 C 94.015625 242.898438 83.640625 257.492188 83.640625 273.839844 L 83.640625 312.074219 L 291.359375 312.074219 L 291.359375 273.839844 C 291.359375 257.492188 280.984375 242.898438 265.546875 237.523438 L 211.511719 218.714844 C 210.320312 218.300781 209.523438 217.175781 209.523438 215.914062 L 209.523438 196.867188 C 209.523438 195.226562 210.851562 193.902344 212.488281 193.902344 C 214.125 193.902344 215.453125 195.226562 215.453125 196.867188 L 215.453125 213.808594 L 267.496094 231.921875 C 285.316406 238.125 297.292969 254.972656 297.292969 273.839844 L 297.292969 315.039062 C 297.289062 316.679688 295.960938 318.003906 294.324219 318.003906 Z M 294.324219 318.003906 " fill-opacity="1" fill-rule="nonzero"/></g><path fill="#071c57" d="M 238.277344 133.085938 L 136.71875 133.085938 C 130.960938 133.085938 126.277344 128.402344 126.277344 122.648438 C 126.277344 116.890625 130.960938 112.207031 136.71875 112.207031 L 238.277344 112.207031 C 244.035156 112.207031 248.71875 116.890625 248.71875 122.648438 C 248.71875 128.402344 244.035156 133.085938 238.277344 133.085938 Z M 136.71875 118.140625 C 134.234375 118.140625 132.210938 120.160156 132.210938 122.648438 C 132.210938 125.132812 134.234375 127.15625 136.71875 127.15625 L 238.277344 127.15625 C 240.761719 127.15625 242.785156 125.132812 242.785156 122.648438 C 242.785156 120.160156 240.765625 118.140625 238.277344 118.140625 Z M 136.71875 118.140625 " fill-opacity="1" fill-rule="nonzero"/><path fill="#071c57" d="M 237.53125 118.136719 C 235.890625 118.136719 234.5625 116.808594 234.5625 115.171875 C 234.5625 92.101562 217.386719 72.101562 194.609375 68.644531 C 192.992188 68.398438 191.878906 66.886719 192.125 65.265625 C 192.371094 63.648438 193.882812 62.53125 195.5 62.777344 C 207.90625 64.660156 219.289062 70.945312 227.550781 80.46875 C 235.898438 90.09375 240.496094 102.417969 240.496094 115.171875 C 240.496094 116.808594 239.167969 118.136719 237.53125 118.136719 Z M 237.53125 118.136719 " fill-opacity="1" fill-rule="nonzero"/><path fill="#071c57" d="M 137.46875 118.136719 C 135.832031 118.136719 134.503906 116.808594 134.503906 115.171875 C 134.503906 102.414062 139.101562 90.085938 147.449219 80.464844 C 155.710938 70.9375 167.09375 64.65625 179.5 62.777344 C 181.117188 62.535156 182.628906 63.648438 182.875 65.265625 C 183.121094 66.886719 182.003906 68.398438 180.386719 68.644531 C 157.609375 72.09375 140.433594 92.09375 140.433594 115.171875 C 140.433594 116.808594 139.105469 118.136719 137.46875 118.136719 Z M 137.46875 118.136719 " fill-opacity="1" fill-rule="nonzero"/><g clip-path="url(#ff0bb16aa7)"><path fill="#071c57" d="M 190.898438 102.023438 L 184.097656 102.023438 C 180.171875 102.023438 176.976562 98.832031 176.976562 94.902344 L 176.976562 64.109375 C 176.976562 60.183594 180.171875 56.988281 184.097656 56.988281 L 190.898438 56.988281 C 194.824219 56.988281 198.019531 60.183594 198.019531 64.109375 L 198.019531 94.902344 C 198.019531 98.832031 194.828125 102.023438 190.898438 102.023438 Z M 184.097656 62.921875 C 183.441406 62.921875 182.910156 63.453125 182.910156 64.109375 L 182.910156 94.902344 C 182.910156 95.558594 183.441406 96.09375 184.097656 96.09375 L 190.898438 96.09375 C 191.554688 96.09375 192.089844 95.558594 192.089844 94.902344 L 192.089844 64.109375 C 192.089844 63.453125 191.554688 62.921875 190.898438 62.921875 Z M 184.097656 62.921875 " fill-opacity="1" fill-rule="nonzero"/></g><path fill="#071c57" d="M 163.300781 98.023438 L 160.957031 98.023438 C 156.6875 98.023438 153.21875 94.550781 153.21875 90.285156 L 153.21875 76.152344 C 153.21875 74.511719 154.546875 73.183594 156.183594 73.183594 C 157.820312 73.183594 159.148438 74.511719 159.148438 76.152344 L 159.148438 90.285156 C 159.148438 91.28125 159.960938 92.089844 160.957031 92.089844 L 163.300781 92.089844 C 164.296875 92.089844 165.109375 91.28125 165.109375 90.285156 L 165.109375 69.050781 C 165.109375 67.414062 166.4375 66.085938 168.074219 66.085938 C 169.710938 66.085938 171.039062 67.414062 171.039062 69.050781 L 171.039062 90.285156 C 171.039062 94.550781 167.570312 98.023438 163.300781 98.023438 Z M 163.300781 98.023438 " fill-opacity="1" fill-rule="nonzero"/><path fill="#071c57" d="M 214.042969 98.023438 L 211.695312 98.023438 C 207.429688 98.023438 203.957031 94.550781 203.957031 90.285156 L 203.957031 69.058594 C 203.957031 67.421875 205.285156 66.089844 206.921875 66.089844 C 208.5625 66.089844 209.890625 67.421875 209.890625 69.058594 L 209.890625 90.285156 C 209.890625 91.28125 210.699219 92.09375 211.695312 92.09375 L 214.042969 92.09375 C 215.039062 92.09375 215.847656 91.28125 215.847656 90.285156 L 215.847656 76.15625 C 215.847656 74.519531 217.175781 73.191406 218.8125 73.191406 C 220.453125 73.191406 221.78125 74.519531 221.78125 76.15625 L 221.78125 90.285156 C 221.78125 94.550781 218.308594 98.023438 214.042969 98.023438 Z M 214.042969 98.023438 " fill-opacity="1" fill-rule="nonzero"/><path fill="#071c57" d="M 187.503906 207.21875 C 160.53125 207.21875 138.585938 185.273438 138.585938 158.304688 L 138.585938 130.125 C 138.585938 128.484375 139.914062 127.15625 141.554688 127.15625 C 143.191406 127.15625 144.519531 128.484375 144.519531 130.125 L 144.519531 158.304688 C 144.519531 182.003906 163.800781 201.285156 187.503906 201.285156 C 211.203125 201.285156 230.484375 182.003906 230.484375 158.304688 L 230.484375 130.125 C 230.484375 128.484375 231.8125 127.15625 233.449219 127.15625 C 235.089844 127.15625 236.417969 128.484375 236.417969 130.125 L 236.417969 158.304688 C 236.417969 185.273438 214.472656 207.21875 187.503906 207.21875 Z M 187.503906 207.21875 " fill-opacity="1" fill-rule="nonzero"/><path fill="#071c57" d="M 141.554688 157.675781 C 133.140625 157.675781 126.292969 150.832031 126.292969 142.417969 C 126.292969 134.003906 133.140625 127.15625 141.554688 127.15625 C 143.191406 127.15625 144.519531 128.484375 144.519531 130.125 C 144.519531 131.761719 143.191406 133.089844 141.554688 133.089844 C 136.410156 133.089844 132.226562 137.273438 132.226562 142.417969 C 132.226562 147.5625 136.410156 151.746094 141.554688 151.746094 C 143.191406 151.746094 144.519531 153.074219 144.519531 154.710938 C 144.519531 156.347656 143.191406 157.675781 141.554688 157.675781 Z M 141.554688 157.675781 " fill-opacity="1" fill-rule="nonzero"/><path fill="#071c57" d="M 233.449219 157.675781 C 231.8125 157.675781 230.484375 156.347656 230.484375 154.710938 C 230.484375 153.074219 231.8125 151.746094 233.449219 151.746094 C 238.59375 151.746094 242.777344 147.5625 242.777344 142.417969 C 242.777344 137.273438 238.59375 133.089844 233.449219 133.089844 C 231.8125 133.089844 230.484375 131.761719 230.484375 130.125 C 230.484375 128.484375 231.8125 127.15625 233.449219 127.15625 C 241.863281 127.15625 248.710938 134.003906 248.710938 142.417969 C 248.710938 150.832031 241.863281 157.675781 233.449219 157.675781 Z M 233.449219 157.675781 " fill-opacity="1" fill-rule="nonzero"/><path fill="#071c57" d="M 199.003906 270.472656 C 198.8125 270.472656 198.617188 270.453125 198.425781 270.410156 C 198.238281 270.375 198.046875 270.316406 197.867188 270.246094 C 197.691406 270.167969 197.519531 270.078125 197.359375 269.972656 C 197.195312 269.863281 197.046875 269.742188 196.90625 269.605469 C 196.773438 269.46875 196.648438 269.3125 196.535156 269.152344 C 196.433594 268.992188 196.339844 268.820312 196.261719 268.636719 C 196.191406 268.460938 196.132812 268.277344 196.097656 268.085938 C 196.054688 267.894531 196.035156 267.699219 196.035156 267.503906 C 196.035156 267.316406 196.054688 267.117188 196.097656 266.921875 C 196.132812 266.738281 196.191406 266.550781 196.261719 266.371094 C 196.339844 266.195312 196.425781 266.023438 196.535156 265.863281 C 196.648438 265.695312 196.773438 265.546875 196.90625 265.410156 C 197.042969 265.273438 197.191406 265.148438 197.359375 265.042969 C 197.519531 264.929688 197.691406 264.839844 197.867188 264.769531 C 198.046875 264.691406 198.238281 264.632812 198.425781 264.597656 C 199.386719 264.402344 200.414062 264.714844 201.101562 265.410156 C 201.238281 265.546875 201.363281 265.695312 201.46875 265.863281 C 201.578125 266.023438 201.664062 266.195312 201.742188 266.371094 C 201.8125 266.550781 201.875 266.738281 201.914062 266.921875 C 201.949219 267.117188 201.96875 267.316406 201.96875 267.503906 C 201.96875 268.289062 201.652344 269.046875 201.101562 269.605469 C 200.550781 270.15625 199.785156 270.472656 199.003906 270.472656 Z M 199.003906 270.472656 " fill-opacity="1" fill-rule="nonzero"/><path fill="#071c57" d="M 199.003906 286.375 C 198.226562 286.375 197.460938 286.054688 196.90625 285.503906 C 196.773438 285.367188 196.648438 285.21875 196.535156 285.050781 C 196.425781 284.890625 196.339844 284.71875 196.261719 284.542969 C 196.191406 284.363281 196.132812 284.175781 196.097656 283.984375 C 196.054688 283.796875 196.035156 283.597656 196.035156 283.410156 C 196.035156 283.214844 196.054688 283.015625 196.097656 282.828125 C 196.132812 282.636719 196.191406 282.453125 196.261719 282.277344 C 196.339844 282.09375 196.425781 281.917969 196.535156 281.757812 C 196.648438 281.597656 196.773438 281.445312 196.90625 281.308594 C 197.042969 281.171875 197.191406 281.046875 197.359375 280.941406 C 197.519531 280.835938 197.691406 280.746094 197.867188 280.667969 C 198.046875 280.597656 198.238281 280.539062 198.425781 280.503906 C 198.804688 280.425781 199.199219 280.417969 199.582031 280.503906 C 199.773438 280.539062 199.957031 280.597656 200.136719 280.667969 C 200.320312 280.746094 200.492188 280.835938 200.652344 280.941406 C 200.8125 281.046875 200.964844 281.171875 201.101562 281.308594 C 201.238281 281.445312 201.363281 281.597656 201.46875 281.757812 C 201.578125 281.921875 201.664062 282.09375 201.742188 282.277344 C 201.8125 282.453125 201.875 282.636719 201.910156 282.828125 C 201.949219 283.015625 201.96875 283.214844 201.96875 283.410156 C 201.96875 283.597656 201.949219 283.792969 201.910156 283.984375 C 201.871094 284.175781 201.8125 284.363281 201.742188 284.542969 C 201.664062 284.71875 201.578125 284.890625 201.46875 285.050781 C 201.363281 285.21875 201.238281 285.367188 201.101562 285.503906 C 200.542969 286.054688 199.785156 286.375 199.003906 286.375 Z M 199.003906 286.375 " fill-opacity="1" fill-rule="nonzero"/><path fill="#071c57" d="M 199.003906 302.273438 C 198.226562 302.273438 197.460938 301.957031 196.90625 301.40625 C 196.773438 301.269531 196.648438 301.117188 196.539062 300.957031 C 196.433594 300.796875 196.339844 300.625 196.269531 300.445312 C 196.191406 300.261719 196.136719 300.078125 196.097656 299.886719 C 196.058594 299.699219 196.035156 299.503906 196.035156 299.308594 C 196.035156 298.53125 196.355469 297.765625 196.90625 297.214844 C 197.042969 297.078125 197.191406 296.953125 197.359375 296.839844 C 197.519531 296.738281 197.691406 296.644531 197.867188 296.566406 C 198.046875 296.496094 198.238281 296.4375 198.425781 296.402344 C 198.804688 296.324219 199.199219 296.324219 199.582031 296.402344 C 199.773438 296.4375 199.957031 296.496094 200.136719 296.566406 C 200.320312 296.644531 200.492188 296.738281 200.652344 296.839844 C 200.8125 296.953125 200.964844 297.078125 201.101562 297.214844 C 201.652344 297.765625 201.96875 298.53125 201.96875 299.308594 C 201.96875 299.503906 201.949219 299.699219 201.910156 299.886719 C 201.871094 300.078125 201.8125 300.261719 201.742188 300.445312 C 201.664062 300.625 201.578125 300.796875 201.46875 300.957031 C 201.363281 301.117188 201.238281 301.269531 201.101562 301.40625 C 200.550781 301.957031 199.785156 302.273438 199.003906 302.273438 Z M 199.003906 302.273438 " fill-opacity="1" fill-rule="nonzero"/></svg>