<svg xmlns="http://www.w3.org/2000/svg" xmlns:xlink="http://www.w3.org/1999/xlink" width="500" zoomAndPan="magnify" viewBox="0 0 375 374.999991" height="500" preserveAspectRatio="xMidYMid meet" version="1.0"><defs><clipPath id="64c29ab769"><path d="M 37.5 37.5 L 312 37.5 L 312 229 L 37.5 229 Z M 37.5 37.5 " clip-rule="nonzero"/></clipPath></defs><rect x="-37.5" width="450" fill="#ffffff" y="-37.499999" height="449.999989" fill-opacity="1"/><rect x="-37.5" width="450" fill="#ffffff" y="-37.499999" height="449.999989" fill-opacity="1"/><path fill="#071c57" d="M 153.964844 269.066406 L 229.363281 176.792969 L 178.753906 161.445312 C 177.574219 161.085938 176.847656 159.902344 177.066406 158.6875 L 188.535156 94.535156 L 140.453125 184.792969 L 182.789062 197.195312 C 183.460938 197.394531 184.015625 197.871094 184.3125 198.507812 C 184.605469 199.144531 184.613281 199.878906 184.328125 200.515625 Z M 153.964844 269.066406 " fill-opacity="1" fill-rule="nonzero"/><g clip-path="url(#64c29ab769)"><path fill="#071c57" d="M 46.644531 178.285156 C 48.546875 144.0625 63.109375 111.734375 87.648438 87.265625 C 112.183594 62.796875 144.546875 48.316406 178.78125 46.503906 C 223.855469 44.136719 266.101562 62.722656 294.679688 97.554688 C 295.316406 98.328125 295.414062 99.414062 294.925781 100.285156 C 294.4375 101.15625 293.472656 101.644531 292.472656 101.511719 L 281.671875 100.042969 C 280.320312 99.832031 279.089844 100.804688 278.90625 102.148438 C 278.816406 102.816406 279 103.480469 279.417969 104.007812 C 279.839844 104.539062 280.441406 104.867188 281.117188 104.925781 L 302.300781 106.878906 C 305.351562 107.144531 308.121094 104.984375 308.539062 101.917969 L 311.265625 81.792969 C 311.46875 80.304688 310.421875 78.929688 308.933594 78.726562 C 308.207031 78.621094 307.492188 78.8125 306.914062 79.253906 C 306.335938 79.695312 305.964844 80.332031 305.867188 81.054688 L 304.652344 89.980469 C 304.523438 90.9375 303.84375 91.722656 302.917969 91.988281 C 301.996094 92.253906 300.996094 91.949219 300.375 91.210938 C 271.824219 57.015625 230.699219 37.867188 186.488281 37.867188 C 183.574219 37.867188 180.652344 37.949219 177.714844 38.117188 C 101.917969 42.433594 40.578125 105.308594 38.070312 181.257812 C 37.535156 197.386719 39.5625 213.277344 44.085938 228.542969 L 51.820312 224.921875 C 47.5 209.851562 45.757812 194.171875 46.644531 178.285156 Z M 46.644531 178.285156 " fill-opacity="1" fill-rule="nonzero"/></g><path fill="#071c57" d="M 328.722656 144.03125 L 320.988281 147.652344 C 325.308594 162.722656 327.050781 178.398438 326.167969 194.285156 C 324.261719 228.507812 309.699219 260.835938 285.164062 285.308594 C 260.628906 309.777344 228.261719 324.253906 194.03125 326.070312 C 148.945312 328.429688 106.707031 309.851562 78.128906 275.019531 C 77.496094 274.242188 77.398438 273.160156 77.886719 272.289062 C 78.375 271.414062 79.355469 270.941406 80.339844 271.0625 L 91.136719 272.527344 C 92.472656 272.734375 93.722656 271.765625 93.902344 270.425781 C 93.992188 269.753906 93.8125 269.09375 93.394531 268.5625 C 92.972656 268.03125 92.367188 267.707031 91.691406 267.644531 L 70.507812 265.695312 C 67.445312 265.40625 64.691406 267.585938 64.273438 270.65625 L 61.507812 291.042969 C 61.417969 291.695312 61.589844 292.339844 61.988281 292.863281 C 62.382812 293.386719 62.960938 293.722656 63.613281 293.808594 L 64.148438 293.882812 C 65.5 294.0625 66.722656 293.121094 66.90625 291.785156 L 68.152344 282.59375 C 68.28125 281.636719 68.960938 280.847656 69.890625 280.582031 C 70.109375 280.519531 70.339844 280.488281 70.5625 280.488281 C 71.273438 280.488281 71.960938 280.796875 72.433594 281.359375 C 102.871094 317.808594 147.5625 337.136719 195.097656 334.457031 C 270.894531 330.140625 332.234375 267.265625 334.742188 191.316406 C 335.273438 175.1875 333.246094 159.296875 328.722656 144.03125 Z M 328.722656 144.03125 " fill-opacity="1" fill-rule="nonzero"/></svg>