<svg xmlns="http://www.w3.org/2000/svg" xmlns:xlink="http://www.w3.org/1999/xlink" zoomAndPan="magnify" viewBox="65 205 700 190" preserveAspectRatio="xMidYMid meet" version="1.0"><defs><g/><clipPath id="51120f1190"><path d="M 0.574219 0 L 841.265625 0 L 841.265625 594.632812 L 0.574219 594.632812 Z M 0.574219 0 " clip-rule="nonzero"/></clipPath><clipPath id="ab33472789"><path d="M 110 220.21875 L 166 220.21875 L 166 303 L 110 303 Z M 110 220.21875 " clip-rule="nonzero"/></clipPath><clipPath id="2be177c70a"><path d="M 157 275 L 237 275 L 237 357.269531 L 157 357.269531 Z M 157 275 " clip-rule="nonzero"/></clipPath><clipPath id="a799d1c9b8"><path d="M 78 329 L 158 329 L 158 357.269531 L 78 357.269531 Z M 78 329 " clip-rule="nonzero"/></clipPath><clipPath id="9cd9b0f686"><rect x="0" width="503" y="0" height="172"/></clipPath></defs><g clip-path="url(#ab33472789)"><path fill="#ffffff" d="M 157.804688 220.21875 L 110.3125 302.472656 C 112.710938 302.472656 115.09375 302.316406 117.472656 302.003906 C 119.847656 301.691406 122.191406 301.226562 124.507812 300.605469 C 126.820312 299.984375 129.085938 299.214844 131.296875 298.300781 C 133.511719 297.382812 135.65625 296.324219 137.730469 295.128906 C 139.808594 293.929688 141.796875 292.601562 143.695312 291.140625 C 145.597656 289.683594 147.394531 288.105469 149.089844 286.414062 C 150.785156 284.71875 152.359375 282.921875 153.820312 281.019531 C 155.277344 279.121094 156.605469 277.132812 157.804688 275.054688 C 159.003906 272.980469 160.058594 270.835938 160.976562 268.621094 C 161.894531 266.410156 162.664062 264.144531 163.28125 261.832031 C 163.902344 259.515625 164.371094 257.171875 164.683594 254.796875 C 164.996094 252.417969 165.152344 250.035156 165.152344 247.636719 C 165.152344 245.242188 164.996094 242.855469 164.683594 240.480469 C 164.371094 238.105469 163.902344 235.757812 163.28125 233.445312 C 162.664062 231.128906 161.894531 228.867188 160.976562 226.652344 C 160.058594 224.4375 159.003906 222.292969 157.804688 220.21875 Z M 157.804688 220.21875 " fill-opacity="1" fill-rule="nonzero"/></g><g clip-path="url(#2be177c70a)"><path fill="#ffffff" d="M 189.464844 329.898438 L 205.292969 357.316406 L 236.953125 357.316406 L 221.125 329.898438 L 189.464844 275.054688 L 157.804688 329.898438 Z M 189.464844 329.898438 " fill-opacity="1" fill-rule="nonzero"/></g><g clip-path="url(#a799d1c9b8)"><path fill="#ffffff" d="M 141.972656 357.3125 L 157.804688 329.898438 L 126.144531 329.898438 C 123.75 329.898438 121.363281 330.054688 118.988281 330.367188 C 116.613281 330.679688 114.265625 331.144531 111.953125 331.765625 C 109.636719 332.386719 107.375 333.152344 105.160156 334.070312 C 102.945312 334.988281 100.800781 336.042969 98.726562 337.242188 C 96.652344 338.441406 94.664062 339.769531 92.761719 341.226562 C 90.859375 342.683594 89.0625 344.261719 87.371094 345.957031 C 85.675781 347.648438 84.097656 349.445312 82.640625 351.347656 C 81.179688 353.25 79.851562 355.238281 78.652344 357.3125 Z M 141.972656 357.3125 " fill-opacity="1" fill-rule="nonzero"/></g><g transform="matrix(1, 0, 0, 1, 248, 214)"><g clip-path="url(#9cd9b0f686)"><g fill="#ffffff" fill-opacity="1"><g transform="translate(0.827707, 80.000071)"><g><path d="M 12.65625 0 L 1.078125 0 L 21.34375 -50.796875 L 32.921875 -50.796875 L 53.1875 0 L 48.125 0 C 48.019531 -1.300781 47.867188 -2.925781 47.671875 -4.875 C 47.484375 -6.832031 47.148438 -8.992188 46.671875 -11.359375 C 46.191406 -13.722656 45.46875 -16.113281 44.5 -18.53125 L 43.125 -22.21875 L 21.484375 -22.21875 Z M 32.265625 -49.203125 L 22 -23.4375 L 42.625 -23.4375 Z M 32.265625 -49.203125 "/></g></g></g><g fill="#ffffff" fill-opacity="1"><g transform="translate(62.04381, 80.000071)"><g><path d="M 36.03125 -20.265625 L 45.953125 0 L 34.375 0 L 23.953125 -20.625 C 23.566406 -21.34375 23.109375 -21.90625 22.578125 -22.3125 C 22.046875 -22.726562 21.414062 -22.9375 20.6875 -22.9375 C 19.144531 -22.9375 17.316406 -22.09375 15.203125 -20.40625 L 15.203125 0 L 3.625 0 L 3.625 -50.796875 L 28.734375 -50.796875 C 32.203125 -50.796875 35.03125 -50.191406 37.21875 -48.984375 C 39.414062 -47.773438 41.046875 -46.21875 42.109375 -44.3125 C 43.171875 -42.414062 43.703125 -40.359375 43.703125 -38.140625 C 43.703125 -36.203125 43.253906 -34.234375 42.359375 -32.234375 C 41.472656 -30.234375 40.125 -28.484375 38.3125 -26.984375 C 36.5 -25.492188 34.21875 -24.457031 31.46875 -23.875 C 33.695312 -23.195312 35.21875 -21.992188 36.03125 -20.265625 Z M 25.03125 -25.1875 C 26.476562 -25.132812 27.789062 -25.613281 28.96875 -26.625 C 30.15625 -27.632812 31.097656 -29.019531 31.796875 -30.78125 C 32.492188 -32.550781 32.84375 -34.519531 32.84375 -36.6875 C 32.84375 -39.050781 32.429688 -41.207031 31.609375 -43.15625 C 30.796875 -45.113281 29.582031 -46.671875 27.96875 -47.828125 C 26.351562 -48.984375 24.335938 -49.5625 21.921875 -49.5625 L 15.203125 -49.5625 L 15.203125 -21.640625 C 16.398438 -22.554688 17.867188 -23.382812 19.609375 -24.125 C 21.347656 -24.875 23.15625 -25.226562 25.03125 -25.1875 Z M 25.03125 -25.1875 "/></g></g></g><g fill="#ffffff" fill-opacity="1"><g transform="translate(117.471201, 80.000071)"><g><path d="M 31.6875 1.15625 C 26.050781 1.15625 21.035156 0.15625 16.640625 -1.84375 C 12.253906 -3.84375 8.804688 -6.796875 6.296875 -10.703125 C 3.785156 -14.609375 2.53125 -19.410156 2.53125 -25.109375 C 2.53125 -29.597656 3.273438 -33.53125 4.765625 -36.90625 C 6.265625 -40.28125 8.34375 -43.097656 11 -45.359375 C 13.65625 -47.628906 16.742188 -49.332031 20.265625 -50.46875 C 23.785156 -51.601562 27.546875 -52.171875 31.546875 -52.171875 C 36.953125 -52.171875 42.550781 -51.179688 48.34375 -49.203125 L 47.609375 -41.75 C 45.972656 -43 44.40625 -44.3125 42.90625 -45.6875 C 41.414062 -47.0625 39.992188 -48.21875 38.640625 -49.15625 C 37.285156 -50.101562 35.957031 -50.578125 34.65625 -50.578125 C 28.09375 -50.578125 23.023438 -48.359375 19.453125 -43.921875 C 15.890625 -39.484375 14.109375 -33.210938 14.109375 -25.109375 C 14.109375 -21.828125 14.625 -18.703125 15.65625 -15.734375 C 16.695312 -12.765625 18.144531 -10.125 20 -7.8125 C 21.863281 -5.5 24.0625 -3.675781 26.59375 -2.34375 C 29.125 -1.019531 31.910156 -0.359375 34.953125 -0.359375 C 36.253906 -0.359375 37.628906 -0.890625 39.078125 -1.953125 C 40.523438 -3.015625 41.957031 -4.242188 43.375 -5.640625 C 44.800781 -7.046875 46.117188 -8.207031 47.328125 -9.125 L 48.34375 -1.375 C 42.40625 0.3125 36.851562 1.15625 31.6875 1.15625 Z M 31.6875 1.15625 "/></g></g></g><g fill="#ffffff" fill-opacity="1"><g transform="translate(174.345773, 80.000071)"><g><path d="M 36.328125 -29.375 L 36.328125 -50.796875 L 47.90625 -50.796875 L 47.90625 0 L 36.328125 0 L 36.328125 -28.078125 L 15.203125 -28.078125 L 15.203125 0 L 3.625 0 L 3.625 -50.796875 L 15.203125 -50.796875 L 15.203125 -29.375 Z M 36.328125 -29.375 "/></g></g></g><g fill="#ffffff" fill-opacity="1"><g transform="translate(232.812247, 80.000071)"><g><path d="M 15.203125 -27.9375 L 15.203125 -1.296875 C 19.828125 -1.296875 23.800781 -1.453125 27.125 -1.765625 C 30.457031 -2.085938 33.460938 -2.679688 36.140625 -3.546875 C 38.816406 -4.410156 41.484375 -5.640625 44.140625 -7.234375 L 44.140625 0 L 3.625 0 L 3.625 -50.796875 L 43.046875 -50.796875 L 43.046875 -43.5625 C 40.640625 -45.007812 38.191406 -46.164062 35.703125 -47.03125 C 33.222656 -47.90625 30.351562 -48.546875 27.09375 -48.953125 C 23.84375 -49.359375 19.878906 -49.5625 15.203125 -49.5625 L 15.203125 -29.234375 L 38.5625 -29.234375 L 38.5625 -27.9375 Z M 15.203125 -27.9375 "/></g></g></g><g fill="#ffffff" fill-opacity="1"><g transform="translate(287.371315, 80.000071)"><g><path d="M 29.671875 0 L 18.09375 0 L 18.09375 -49.5625 C 15.53125 -49.5625 13.285156 -49.332031 11.359375 -48.875 C 9.429688 -48.414062 7.660156 -47.738281 6.046875 -46.84375 C 4.429688 -45.957031 2.773438 -44.863281 1.078125 -43.5625 L 1.078125 -50.796875 L 46.671875 -50.796875 L 46.671875 -43.5625 C 45.035156 -44.863281 43.421875 -45.957031 41.828125 -46.84375 C 40.234375 -47.738281 38.484375 -48.414062 36.578125 -48.875 C 34.671875 -49.332031 32.367188 -49.5625 29.671875 -49.5625 Z M 29.671875 0 "/></g></g></g><g fill="#ffffff" fill-opacity="1"><g transform="translate(341.71332, 80.000071)"><g><path d="M 36.03125 -50.796875 L 43.265625 -50.796875 L 28.515625 -22.578125 L 28.515625 0 L 16.9375 0 L 16.9375 -22.578125 L 2.171875 -50.796875 L 13.75 -50.796875 L 27.859375 -23.734375 L 35.09375 -37.625 C 36.0625 -39.601562 36.59375 -41.59375 36.6875 -43.59375 C 36.78125 -45.59375 36.5625 -47.992188 36.03125 -50.796875 Z M 36.03125 -50.796875 "/></g></g></g><g fill="#ffffff" fill-opacity="1"><g transform="translate(393.016255, 80.000071)"><g><path d="M 15.203125 0 L 3.625 0 L 3.625 -50.796875 L 27.0625 -50.796875 C 31.257812 -50.796875 34.660156 -50.082031 37.265625 -48.65625 C 39.867188 -47.238281 41.785156 -45.421875 43.015625 -43.203125 C 44.242188 -40.984375 44.859375 -38.664062 44.859375 -36.25 C 44.859375 -33.59375 44.242188 -31.359375 43.015625 -29.546875 C 41.785156 -27.742188 40.191406 -26.273438 38.234375 -25.140625 C 36.285156 -24.003906 34.238281 -23.179688 32.09375 -22.671875 C 29.945312 -22.171875 27.957031 -21.898438 26.125 -21.859375 L 15.203125 -21.859375 Z M 15.203125 -49.5625 L 15.203125 -23.15625 L 21.125 -23.15625 C 23.96875 -23.15625 26.296875 -23.816406 28.109375 -25.140625 C 29.921875 -26.472656 31.25 -28.148438 32.09375 -30.171875 C 32.9375 -32.203125 33.359375 -34.253906 33.359375 -36.328125 C 33.359375 -38.347656 32.945312 -40.367188 32.125 -42.390625 C 31.300781 -44.421875 30.007812 -46.125 28.25 -47.5 C 26.488281 -48.875 24.164062 -49.5625 21.28125 -49.5625 Z M 15.203125 -49.5625 "/></g></g></g><g fill="#ffffff" fill-opacity="1"><g transform="translate(447.213553, 80.000071)"><g><path d="M 15.203125 -27.9375 L 15.203125 -1.296875 C 19.828125 -1.296875 23.800781 -1.453125 27.125 -1.765625 C 30.457031 -2.085938 33.460938 -2.679688 36.140625 -3.546875 C 38.816406 -4.410156 41.484375 -5.640625 44.140625 -7.234375 L 44.140625 0 L 3.625 0 L 3.625 -50.796875 L 43.046875 -50.796875 L 43.046875 -43.5625 C 40.640625 -45.007812 38.191406 -46.164062 35.703125 -47.03125 C 33.222656 -47.90625 30.351562 -48.546875 27.09375 -48.953125 C 23.84375 -49.359375 19.878906 -49.5625 15.203125 -49.5625 L 15.203125 -29.234375 L 38.5625 -29.234375 L 38.5625 -27.9375 Z M 15.203125 -27.9375 "/></g></g></g><g fill="#ffffff" fill-opacity="1"><g transform="translate(0.827707, 140.447785)"><g><path d="M 23.8125 1.078125 C 20.53125 1.078125 17.078125 0.765625 13.453125 0.140625 C 9.835938 -0.484375 6.101562 -1.445312 2.25 -2.75 L 2.75 -9.984375 C 7.28125 -6.660156 11.460938 -4.257812 15.296875 -2.78125 C 19.140625 -1.3125 22.503906 -0.578125 25.390625 -0.578125 C 28.097656 -0.578125 30.40625 -1.128906 32.3125 -2.234375 C 34.21875 -3.347656 35.554688 -4.796875 36.328125 -6.578125 C 37.097656 -8.367188 37.117188 -10.300781 36.390625 -12.375 C 35.722656 -14.257812 34.421875 -15.9375 32.484375 -17.40625 C 30.554688 -18.875 28.289062 -20.242188 25.6875 -21.515625 C 23.082031 -22.796875 20.390625 -24.050781 17.609375 -25.28125 C 14.835938 -26.519531 12.242188 -27.8125 9.828125 -29.15625 C 7.421875 -30.507812 5.457031 -31.992188 3.9375 -33.609375 C 2.425781 -35.222656 1.644531 -37.046875 1.59375 -39.078125 C 1.539062 -42.015625 2.550781 -44.4375 4.625 -46.34375 C 6.707031 -48.25 9.519531 -49.671875 13.0625 -50.609375 C 16.601562 -51.554688 20.5 -52.03125 24.75 -52.03125 C 30.925781 -52.03125 37.4375 -51.0625 44.28125 -49.125 L 43.703125 -41.890625 C 39.316406 -44.835938 35.21875 -47 31.40625 -48.375 C 27.59375 -49.75 24.335938 -50.4375 21.640625 -50.4375 C 19.566406 -50.4375 17.660156 -50.21875 15.921875 -49.78125 C 14.179688 -49.34375 12.804688 -48.628906 11.796875 -47.640625 C 10.785156 -46.660156 10.300781 -45.320312 10.34375 -43.625 C 10.394531 -42.320312 11.082031 -41.09375 12.40625 -39.9375 C 13.738281 -38.78125 15.476562 -37.632812 17.625 -36.5 C 19.769531 -35.375 22.117188 -34.21875 24.671875 -33.03125 C 27.234375 -31.851562 29.789062 -30.613281 32.34375 -29.3125 C 34.894531 -28.007812 37.253906 -26.597656 39.421875 -25.078125 C 41.597656 -23.554688 43.347656 -21.890625 44.671875 -20.078125 C 46.003906 -18.265625 46.695312 -16.273438 46.75 -14.109375 C 46.84375 -10.878906 45.9375 -8.128906 44.03125 -5.859375 C 42.125 -3.585938 39.429688 -1.863281 35.953125 -0.6875 C 32.484375 0.488281 28.4375 1.078125 23.8125 1.078125 Z M 23.8125 1.078125 "/></g></g></g><g fill="#ffffff" fill-opacity="1"><g transform="translate(57.919354, 140.447785)"><g><path d="M 29.671875 0 L 18.09375 0 L 18.09375 -49.5625 C 15.53125 -49.5625 13.285156 -49.332031 11.359375 -48.875 C 9.429688 -48.414062 7.660156 -47.738281 6.046875 -46.84375 C 4.429688 -45.957031 2.773438 -44.863281 1.078125 -43.5625 L 1.078125 -50.796875 L 46.671875 -50.796875 L 46.671875 -43.5625 C 45.035156 -44.863281 43.421875 -45.957031 41.828125 -46.84375 C 40.234375 -47.738281 38.484375 -48.414062 36.578125 -48.875 C 34.671875 -49.332031 32.367188 -49.5625 29.671875 -49.5625 Z M 29.671875 0 "/></g></g></g><g fill="#ffffff" fill-opacity="1"><g transform="translate(112.261359, 140.447785)"><g><path d="M 25.25 1.078125 C 21.007812 1.078125 17.195312 0.320312 13.8125 -1.1875 C 10.4375 -2.707031 7.769531 -5 5.8125 -8.0625 C 3.863281 -11.125 2.890625 -14.945312 2.890625 -19.53125 L 2.890625 -50.796875 L 14.546875 -50.796875 L 14.546875 -12.515625 C 14.546875 -8.703125 15.535156 -5.695312 17.515625 -3.5 C 19.492188 -1.3125 22.070312 -0.21875 25.25 -0.21875 C 28.382812 -0.21875 30.914062 -1.3125 32.84375 -3.5 C 34.78125 -5.695312 35.75 -8.703125 35.75 -12.515625 L 35.75 -50.796875 L 47.328125 -50.796875 L 47.328125 -19.53125 C 47.328125 -14.945312 46.375 -11.125 44.46875 -8.0625 C 42.5625 -5 39.941406 -2.707031 36.609375 -1.1875 C 33.285156 0.320312 29.5 1.078125 25.25 1.078125 Z M 25.25 1.078125 "/></g></g></g><g fill="#ffffff" fill-opacity="1"><g transform="translate(169.353006, 140.447785)"><g><path d="M 23.515625 0 L 3.625 0 L 3.625 -50.796875 L 24.015625 -50.796875 C 31.640625 -50.796875 37.632812 -48.789062 42 -44.78125 C 46.363281 -40.78125 48.546875 -34.632812 48.546875 -26.34375 C 48.546875 -21.65625 47.820312 -17.632812 46.375 -14.28125 C 44.9375 -10.9375 43.007812 -8.210938 40.59375 -6.109375 C 38.175781 -4.015625 35.484375 -2.472656 32.515625 -1.484375 C 29.554688 -0.492188 26.554688 0 23.515625 0 Z M 15.203125 -49.34375 L 15.203125 -1.375 L 19.171875 -1.375 C 21.773438 -1.375 24.160156 -1.75 26.328125 -2.5 C 28.503906 -3.25 30.390625 -4.539062 31.984375 -6.375 C 33.578125 -8.207031 34.804688 -10.75 35.671875 -14 C 36.535156 -17.257812 36.96875 -21.375 36.96875 -26.34375 C 36.96875 -32.125 36.28125 -36.691406 34.90625 -40.046875 C 33.53125 -43.398438 31.648438 -45.800781 29.265625 -47.25 C 26.878906 -48.695312 24.117188 -49.394531 20.984375 -49.34375 Z M 15.203125 -49.34375 "/></g></g></g><g fill="#ffffff" fill-opacity="1"><g transform="translate(227.385319, 140.447785)"><g><path d="M 15.203125 0 L 3.625 0 L 3.625 -50.796875 L 15.203125 -50.796875 Z M 15.203125 0 "/></g></g></g><g fill="#ffffff" fill-opacity="1"><g transform="translate(253.145548, 140.447785)"><g><path d="M 28.359375 1.15625 C 22.523438 1.15625 17.691406 -0.0234375 13.859375 -2.390625 C 10.023438 -4.753906 7.175781 -7.925781 5.3125 -11.90625 C 3.457031 -15.882812 2.53125 -20.3125 2.53125 -25.1875 C 2.53125 -30.6875 3.457031 -35.4375 5.3125 -39.4375 C 7.175781 -43.4375 10.023438 -46.519531 13.859375 -48.6875 C 17.691406 -50.863281 22.523438 -51.953125 28.359375 -51.953125 C 34.242188 -51.953125 39.09375 -50.863281 42.90625 -48.6875 C 46.71875 -46.519531 49.550781 -43.4375 51.40625 -39.4375 C 53.269531 -35.4375 54.203125 -30.6875 54.203125 -25.1875 C 54.203125 -20.3125 53.269531 -15.882812 51.40625 -11.90625 C 49.550781 -7.925781 46.71875 -4.753906 42.90625 -2.390625 C 39.09375 -0.0234375 34.242188 1.15625 28.359375 1.15625 Z M 28.359375 -0.078125 C 31.066406 -0.078125 33.335938 -0.738281 35.171875 -2.0625 C 37.003906 -3.382812 38.460938 -5.21875 39.546875 -7.5625 C 40.628906 -9.90625 41.410156 -12.582031 41.890625 -15.59375 C 42.378906 -18.601562 42.625 -21.800781 42.625 -25.1875 C 42.625 -28.507812 42.378906 -31.691406 41.890625 -34.734375 C 41.410156 -37.773438 40.628906 -40.5 39.546875 -42.90625 C 38.460938 -45.320312 37.003906 -47.226562 35.171875 -48.625 C 33.335938 -50.019531 31.066406 -50.71875 28.359375 -50.71875 C 25.515625 -50.71875 23.164062 -50.019531 21.3125 -48.625 C 19.457031 -47.226562 18.007812 -45.320312 16.96875 -42.90625 C 15.925781 -40.5 15.1875 -37.773438 14.75 -34.734375 C 14.320312 -31.691406 14.109375 -28.507812 14.109375 -25.1875 C 14.109375 -21.800781 14.375 -18.601562 14.90625 -15.59375 C 15.4375 -12.582031 16.253906 -9.90625 17.359375 -7.5625 C 18.472656 -5.21875 19.929688 -3.382812 21.734375 -2.0625 C 23.546875 -0.738281 25.753906 -0.078125 28.359375 -0.078125 Z M 28.359375 -0.078125 "/></g></g></g><g fill="#ffffff" fill-opacity="1"><g transform="translate(316.821851, 140.447785)"><g><path d="M 23.8125 1.078125 C 20.53125 1.078125 17.078125 0.765625 13.453125 0.140625 C 9.835938 -0.484375 6.101562 -1.445312 2.25 -2.75 L 2.75 -9.984375 C 7.28125 -6.660156 11.460938 -4.257812 15.296875 -2.78125 C 19.140625 -1.3125 22.503906 -0.578125 25.390625 -0.578125 C 28.097656 -0.578125 30.40625 -1.128906 32.3125 -2.234375 C 34.21875 -3.347656 35.554688 -4.796875 36.328125 -6.578125 C 37.097656 -8.367188 37.117188 -10.300781 36.390625 -12.375 C 35.722656 -14.257812 34.421875 -15.9375 32.484375 -17.40625 C 30.554688 -18.875 28.289062 -20.242188 25.6875 -21.515625 C 23.082031 -22.796875 20.390625 -24.050781 17.609375 -25.28125 C 14.835938 -26.519531 12.242188 -27.8125 9.828125 -29.15625 C 7.421875 -30.507812 5.457031 -31.992188 3.9375 -33.609375 C 2.425781 -35.222656 1.644531 -37.046875 1.59375 -39.078125 C 1.539062 -42.015625 2.550781 -44.4375 4.625 -46.34375 C 6.707031 -48.25 9.519531 -49.671875 13.0625 -50.609375 C 16.601562 -51.554688 20.5 -52.03125 24.75 -52.03125 C 30.925781 -52.03125 37.4375 -51.0625 44.28125 -49.125 L 43.703125 -41.890625 C 39.316406 -44.835938 35.21875 -47 31.40625 -48.375 C 27.59375 -49.75 24.335938 -50.4375 21.640625 -50.4375 C 19.566406 -50.4375 17.660156 -50.21875 15.921875 -49.78125 C 14.179688 -49.34375 12.804688 -48.628906 11.796875 -47.640625 C 10.785156 -46.660156 10.300781 -45.320312 10.34375 -43.625 C 10.394531 -42.320312 11.082031 -41.09375 12.40625 -39.9375 C 13.738281 -38.78125 15.476562 -37.632812 17.625 -36.5 C 19.769531 -35.375 22.117188 -34.21875 24.671875 -33.03125 C 27.234375 -31.851562 29.789062 -30.613281 32.34375 -29.3125 C 34.894531 -28.007812 37.253906 -26.597656 39.421875 -25.078125 C 41.597656 -23.554688 43.347656 -21.890625 44.671875 -20.078125 C 46.003906 -18.265625 46.695312 -16.273438 46.75 -14.109375 C 46.84375 -10.878906 45.9375 -8.128906 44.03125 -5.859375 C 42.125 -3.585938 39.429688 -1.863281 35.953125 -0.6875 C 32.484375 0.488281 28.4375 1.078125 23.8125 1.078125 Z M 23.8125 1.078125 "/></g></g></g></g></g></svg>