<svg xmlns="http://www.w3.org/2000/svg" xmlns:xlink="http://www.w3.org/1999/xlink" width="1123" zoomAndPan="magnify" viewBox="0 0 841.92 603.12" height="794" preserveAspectRatio="xMidYMid meet" version="1.0"><defs><clipPath id="b2a8716fc7"><path d="M 0.574219 0 L 841.265625 0 L 841.265625 594.632812 L 0.574219 594.632812 Z M 0.574219 0 " clip-rule="nonzero"/></clipPath><clipPath id="3bfaf5eefd"><path d="M 279 92.867188 L 443 92.867188 L 443 338 L 279 338 Z M 279 92.867188 " clip-rule="nonzero"/></clipPath><clipPath id="71452e05c8"><path d="M 420 256 L 657 256 L 657 501.769531 L 420 501.769531 Z M 420 256 " clip-rule="nonzero"/></clipPath><clipPath id="0aa9da7fd7"><path d="M 184 419 L 421 419 L 421 501.769531 L 184 501.769531 Z M 184 419 " clip-rule="nonzero"/></clipPath></defs><g clip-path="url(#b2a8716fc7)"><path fill="#ffffff" d="M 0.574219 0 L 841.597656 0 L 841.597656 594.632812 L 0.574219 594.632812 Z M 0.574219 0 " fill-opacity="1" fill-rule="nonzero"/><path fill="#000000" d="M 0.574219 0 L 841.597656 0 L 841.597656 594.632812 L 0.574219 594.632812 Z M 0.574219 0 " fill-opacity="1" fill-rule="nonzero"/></g><g clip-path="url(#3bfaf5eefd)"><path fill="#ffffff" d="M 420.789062 92.867188 L 279.285156 337.953125 C 282.851562 337.953125 286.414062 337.835938 289.972656 337.605469 C 293.53125 337.371094 297.078125 337.019531 300.613281 336.554688 C 304.148438 336.089844 307.664062 335.511719 311.164062 334.8125 C 314.660156 334.117188 318.132812 333.308594 321.574219 332.386719 C 325.019531 331.464844 328.429688 330.429688 331.808594 329.28125 C 335.183594 328.136719 338.519531 326.882812 341.8125 325.515625 C 345.109375 324.152344 348.355469 322.679688 351.554688 321.105469 C 354.75 319.527344 357.894531 317.847656 360.984375 316.0625 C 364.070312 314.28125 367.097656 312.398438 370.0625 310.417969 C 373.027344 308.4375 375.925781 306.359375 378.753906 304.191406 C 381.582031 302.019531 384.339844 299.757812 387.019531 297.40625 C 389.699219 295.054688 392.300781 292.621094 394.824219 290.097656 C 397.34375 287.578125 399.78125 284.976562 402.132812 282.296875 C 404.484375 279.613281 406.746094 276.859375 408.914062 274.03125 C 411.085938 271.203125 413.164062 268.304688 415.144531 265.339844 C 417.125 262.375 419.007812 259.347656 420.789062 256.261719 C 422.574219 253.171875 424.253906 250.027344 425.832031 246.832031 C 427.410156 243.632812 428.878906 240.386719 430.242188 237.089844 C 431.609375 233.796875 432.863281 230.460938 434.011719 227.085938 C 435.15625 223.707031 436.191406 220.296875 437.113281 216.851562 C 438.039062 213.40625 438.847656 209.9375 439.542969 206.441406 C 440.238281 202.941406 440.820312 199.425781 441.285156 195.890625 C 441.75 192.355469 442.097656 188.808594 442.332031 185.25 C 442.566406 181.691406 442.683594 178.128906 442.683594 174.5625 C 442.683594 170.996094 442.566406 167.433594 442.332031 163.875 C 442.097656 160.316406 441.75 156.769531 441.285156 153.234375 C 440.820312 149.699219 440.238281 146.183594 439.542969 142.6875 C 438.847656 139.1875 438.039062 135.71875 437.113281 132.273438 C 436.191406 128.828125 435.15625 125.417969 434.011719 122.042969 C 432.863281 118.664062 431.609375 115.328125 430.242188 112.035156 C 428.878906 108.738281 427.410156 105.492188 425.832031 102.296875 C 424.253906 99.097656 422.574219 95.953125 420.789062 92.867188 Z M 420.789062 92.867188 " fill-opacity="1" fill-rule="nonzero"/></g><g clip-path="url(#71452e05c8)"><path fill="#ffffff" d="M 515.125 419.667969 L 562.292969 501.367188 L 656.628906 501.367188 L 609.457031 419.667969 L 515.125 256.261719 L 420.789062 419.667969 Z M 515.125 419.667969 " fill-opacity="1" fill-rule="nonzero"/></g><g clip-path="url(#0aa9da7fd7)"><path fill="#ffffff" d="M 373.621094 501.347656 L 420.789062 419.667969 L 326.457031 419.667969 C 322.890625 419.667969 319.328125 419.785156 315.769531 420.015625 C 312.214844 420.25 308.667969 420.597656 305.128906 421.0625 C 301.59375 421.527344 298.078125 422.109375 294.582031 422.804688 C 291.085938 423.5 287.613281 424.308594 284.167969 425.230469 C 280.726562 426.152344 277.3125 427.1875 273.9375 428.332031 C 270.5625 429.480469 267.226562 430.734375 263.929688 432.097656 C 260.636719 433.464844 257.390625 434.933594 254.191406 436.511719 C 250.992188 438.085938 247.851562 439.765625 244.761719 441.550781 C 241.671875 443.332031 238.648438 445.214844 235.683594 447.195312 C 232.71875 449.175781 229.820312 451.25 226.992188 453.421875 C 224.160156 455.59375 221.40625 457.851562 218.726562 460.203125 C 216.042969 462.554688 213.441406 464.992188 210.921875 467.511719 C 208.398438 470.03125 205.964844 472.632812 203.613281 475.316406 C 201.261719 477.996094 199 480.75 196.828125 483.578125 C 194.65625 486.40625 192.582031 489.304688 190.601562 492.269531 C 188.617188 495.234375 186.738281 498.261719 184.953125 501.347656 Z M 373.621094 501.347656 " fill-opacity="1" fill-rule="nonzero"/></g></svg>